G04 #@! TF.FileFunction,Legend,Bot*
%FSLAX46Y46*%
G04 Gerber Fmt 4.6, Leading zero omitted, Abs format (unit mm)*
G04 Created by KiCad (PCBNEW (2015-11-03 BZR 6296)-product) date Wednesday, November 04, 2015 'PMt' 10:27:15 PM*
%MOMM*%
G01*
G04 APERTURE LIST*
%ADD10C,0.100000*%
%ADD11C,0.300000*%
%ADD12C,0.150000*%
%ADD13C,0.200000*%
%ADD14C,0.010000*%
G04 APERTURE END LIST*
D10*
D11*
X208007142Y-66228571D02*
X208292856Y-66228571D01*
X208435713Y-66300000D01*
X208507142Y-66371429D01*
X208649999Y-66585714D01*
X208721428Y-66871429D01*
X208721428Y-67442857D01*
X208649999Y-67585714D01*
X208578571Y-67657143D01*
X208435713Y-67728571D01*
X208149999Y-67728571D01*
X208007142Y-67657143D01*
X207935713Y-67585714D01*
X207864285Y-67442857D01*
X207864285Y-67085714D01*
X207935713Y-66942857D01*
X208007142Y-66871429D01*
X208149999Y-66800000D01*
X208435713Y-66800000D01*
X208578571Y-66871429D01*
X208649999Y-66942857D01*
X208721428Y-67085714D01*
X207221428Y-67585714D02*
X207150000Y-67657143D01*
X207221428Y-67728571D01*
X207292857Y-67657143D01*
X207221428Y-67585714D01*
X207221428Y-67728571D01*
X205792856Y-66228571D02*
X206507142Y-66228571D01*
X206578571Y-66942857D01*
X206507142Y-66871429D01*
X206364285Y-66800000D01*
X206007142Y-66800000D01*
X205864285Y-66871429D01*
X205792856Y-66942857D01*
X205721428Y-67085714D01*
X205721428Y-67442857D01*
X205792856Y-67585714D01*
X205864285Y-67657143D01*
X206007142Y-67728571D01*
X206364285Y-67728571D01*
X206507142Y-67657143D01*
X206578571Y-67585714D01*
X205221428Y-66728571D02*
X204864285Y-67728571D01*
X204507143Y-66728571D01*
X207221428Y-69557143D02*
X206078571Y-69557143D01*
X208364285Y-71171429D02*
X208292856Y-71100000D01*
X208149999Y-71028571D01*
X207792856Y-71028571D01*
X207649999Y-71100000D01*
X207578570Y-71171429D01*
X207507142Y-71314286D01*
X207507142Y-71457143D01*
X207578570Y-71671429D01*
X208435713Y-72528571D01*
X207507142Y-72528571D01*
X206149999Y-71028571D02*
X206864285Y-71028571D01*
X206935714Y-71742857D01*
X206864285Y-71671429D01*
X206721428Y-71600000D01*
X206364285Y-71600000D01*
X206221428Y-71671429D01*
X206149999Y-71742857D01*
X206078571Y-71885714D01*
X206078571Y-72242857D01*
X206149999Y-72385714D01*
X206221428Y-72457143D01*
X206364285Y-72528571D01*
X206721428Y-72528571D01*
X206864285Y-72457143D01*
X206935714Y-72385714D01*
X205578571Y-71528571D02*
X205221428Y-72528571D01*
X204864286Y-71528571D01*
D12*
X211200000Y-66764286D02*
X211152381Y-66669048D01*
X211152381Y-66526191D01*
X211200000Y-66383333D01*
X211295238Y-66288095D01*
X211390476Y-66240476D01*
X211580952Y-66192857D01*
X211723810Y-66192857D01*
X211914286Y-66240476D01*
X212009524Y-66288095D01*
X212104762Y-66383333D01*
X212152381Y-66526191D01*
X212152381Y-66621429D01*
X212104762Y-66764286D01*
X212057143Y-66811905D01*
X211723810Y-66811905D01*
X211723810Y-66621429D01*
X212152381Y-67240476D02*
X211152381Y-67240476D01*
X212152381Y-67811905D01*
X211152381Y-67811905D01*
X212152381Y-68288095D02*
X211152381Y-68288095D01*
X211152381Y-68526190D01*
X211200000Y-68669048D01*
X211295238Y-68764286D01*
X211390476Y-68811905D01*
X211580952Y-68859524D01*
X211723810Y-68859524D01*
X211914286Y-68811905D01*
X212009524Y-68764286D01*
X212104762Y-68669048D01*
X212152381Y-68526190D01*
X212152381Y-68288095D01*
X206035714Y-121702381D02*
X205416666Y-121702381D01*
X205750000Y-122083333D01*
X205607142Y-122083333D01*
X205511904Y-122130952D01*
X205464285Y-122178571D01*
X205416666Y-122273810D01*
X205416666Y-122511905D01*
X205464285Y-122607143D01*
X205511904Y-122654762D01*
X205607142Y-122702381D01*
X205892857Y-122702381D01*
X205988095Y-122654762D01*
X206035714Y-122607143D01*
X204988095Y-122607143D02*
X204940476Y-122654762D01*
X204988095Y-122702381D01*
X205035714Y-122654762D01*
X204988095Y-122607143D01*
X204988095Y-122702381D01*
X204607143Y-121702381D02*
X203988095Y-121702381D01*
X204321429Y-122083333D01*
X204178571Y-122083333D01*
X204083333Y-122130952D01*
X204035714Y-122178571D01*
X203988095Y-122273810D01*
X203988095Y-122511905D01*
X204035714Y-122607143D01*
X204083333Y-122654762D01*
X204178571Y-122702381D01*
X204464286Y-122702381D01*
X204559524Y-122654762D01*
X204607143Y-122607143D01*
X203654762Y-122035714D02*
X203416667Y-122702381D01*
X203178571Y-122035714D01*
X201559523Y-122702381D02*
X202035714Y-122702381D01*
X202035714Y-121702381D01*
X201083333Y-122702381D02*
X201178571Y-122654762D01*
X201226190Y-122607143D01*
X201273809Y-122511905D01*
X201273809Y-122226190D01*
X201226190Y-122130952D01*
X201178571Y-122083333D01*
X201083333Y-122035714D01*
X200940475Y-122035714D01*
X200845237Y-122083333D01*
X200797618Y-122130952D01*
X200749999Y-122226190D01*
X200749999Y-122511905D01*
X200797618Y-122607143D01*
X200845237Y-122654762D01*
X200940475Y-122702381D01*
X201083333Y-122702381D01*
X199892856Y-122035714D02*
X199892856Y-122845238D01*
X199940475Y-122940476D01*
X199988094Y-122988095D01*
X200083333Y-123035714D01*
X200226190Y-123035714D01*
X200321428Y-122988095D01*
X199892856Y-122654762D02*
X199988094Y-122702381D01*
X200178571Y-122702381D01*
X200273809Y-122654762D01*
X200321428Y-122607143D01*
X200369047Y-122511905D01*
X200369047Y-122226190D01*
X200321428Y-122130952D01*
X200273809Y-122083333D01*
X200178571Y-122035714D01*
X199988094Y-122035714D01*
X199892856Y-122083333D01*
X199416666Y-122702381D02*
X199416666Y-122035714D01*
X199416666Y-121702381D02*
X199464285Y-121750000D01*
X199416666Y-121797619D01*
X199369047Y-121750000D01*
X199416666Y-121702381D01*
X199416666Y-121797619D01*
X198511904Y-122654762D02*
X198607142Y-122702381D01*
X198797619Y-122702381D01*
X198892857Y-122654762D01*
X198940476Y-122607143D01*
X198988095Y-122511905D01*
X198988095Y-122226190D01*
X198940476Y-122130952D01*
X198892857Y-122083333D01*
X198797619Y-122035714D01*
X198607142Y-122035714D01*
X198511904Y-122083333D01*
X207226190Y-125178571D02*
X207559524Y-125178571D01*
X207559524Y-125702381D02*
X207559524Y-124702381D01*
X207083333Y-124702381D01*
X206845238Y-124702381D02*
X206273809Y-124702381D01*
X206559524Y-125702381D02*
X206559524Y-124702381D01*
X205940476Y-125702381D02*
X205940476Y-124702381D01*
X205702381Y-124702381D01*
X205559523Y-124750000D01*
X205464285Y-124845238D01*
X205416666Y-124940476D01*
X205369047Y-125130952D01*
X205369047Y-125273810D01*
X205416666Y-125464286D01*
X205464285Y-125559524D01*
X205559523Y-125654762D01*
X205702381Y-125702381D01*
X205940476Y-125702381D01*
X204940476Y-125702381D02*
X204940476Y-124702381D01*
D13*
X195857143Y-124250000D02*
X196000000Y-124178571D01*
X196214286Y-124178571D01*
X196428571Y-124250000D01*
X196571429Y-124392857D01*
X196642857Y-124535714D01*
X196714286Y-124821429D01*
X196714286Y-125035714D01*
X196642857Y-125321429D01*
X196571429Y-125464286D01*
X196428571Y-125607143D01*
X196214286Y-125678571D01*
X196071429Y-125678571D01*
X195857143Y-125607143D01*
X195785714Y-125535714D01*
X195785714Y-125035714D01*
X196071429Y-125035714D01*
X195142857Y-125678571D02*
X195142857Y-124178571D01*
X194285714Y-125678571D01*
X194285714Y-124178571D01*
X193571428Y-125678571D02*
X193571428Y-124178571D01*
X193214285Y-124178571D01*
X193000000Y-124250000D01*
X192857142Y-124392857D01*
X192785714Y-124535714D01*
X192714285Y-124821429D01*
X192714285Y-125035714D01*
X192785714Y-125321429D01*
X192857142Y-125464286D01*
X193000000Y-125607143D01*
X193214285Y-125678571D01*
X193571428Y-125678571D01*
X200153571Y-123632143D02*
X200153571Y-124489286D01*
X201653571Y-124060715D02*
X200153571Y-124060715D01*
X200153571Y-124846429D02*
X201653571Y-125846429D01*
X200153571Y-125846429D02*
X201653571Y-124846429D01*
X204353571Y-124325001D02*
X203639286Y-123825001D01*
X204353571Y-123467858D02*
X202853571Y-123467858D01*
X202853571Y-124039286D01*
X202925000Y-124182144D01*
X202996429Y-124253572D01*
X203139286Y-124325001D01*
X203353571Y-124325001D01*
X203496429Y-124253572D01*
X203567857Y-124182144D01*
X203639286Y-124039286D01*
X203639286Y-123467858D01*
X202853571Y-124825001D02*
X204353571Y-125825001D01*
X202853571Y-125825001D02*
X204353571Y-124825001D01*
D12*
X183774200Y-123199820D02*
X184475240Y-123199820D01*
X184475240Y-123199820D02*
X184475240Y-122950900D01*
X184475240Y-120400840D02*
X184475240Y-120200180D01*
X184475240Y-120200180D02*
X183774200Y-120200180D01*
X183875800Y-125425180D02*
X183174760Y-125425180D01*
X183174760Y-125425180D02*
X183174760Y-125674100D01*
X183174760Y-128224160D02*
X183174760Y-128424820D01*
X183174760Y-128424820D02*
X183875800Y-128424820D01*
X190200000Y-126850000D02*
X190200000Y-126150000D01*
X189000000Y-126150000D02*
X189000000Y-126850000D01*
X187150000Y-124250000D02*
X187150000Y-124950000D01*
X188350000Y-124950000D02*
X188350000Y-124250000D01*
X202100000Y-113900000D02*
X201400000Y-113900000D01*
X201400000Y-115100000D02*
X202100000Y-115100000D01*
X202100000Y-119400000D02*
X201400000Y-119400000D01*
X201400000Y-120600000D02*
X202100000Y-120600000D01*
X207400000Y-98400000D02*
X207400000Y-99100000D01*
X208600000Y-99100000D02*
X208600000Y-98400000D01*
X180750000Y-68250000D02*
X185750000Y-68250000D01*
X191750000Y-84250000D02*
X196750000Y-84250000D01*
X180750000Y-68250000D02*
X180750000Y-84250000D01*
X180750000Y-84250000D02*
X185750000Y-84250000D01*
X196750000Y-68250000D02*
X196750000Y-84250000D01*
X191750000Y-68250000D02*
X196750000Y-68250000D01*
X188950000Y-122000000D02*
X188950000Y-123000000D01*
X190300000Y-123000000D02*
X190300000Y-122000000D01*
X183175000Y-125025000D02*
X184175000Y-125025000D01*
X184175000Y-123675000D02*
X183175000Y-123675000D01*
X201675000Y-112000000D02*
X201675000Y-111000000D01*
X200325000Y-111000000D02*
X200325000Y-112000000D01*
X196425000Y-119000000D02*
X196425000Y-118000000D01*
X195075000Y-118000000D02*
X195075000Y-119000000D01*
X194425000Y-119000000D02*
X194425000Y-118000000D01*
X193075000Y-118000000D02*
X193075000Y-119000000D01*
X193675000Y-105750000D02*
X193675000Y-104750000D01*
X192325000Y-104750000D02*
X192325000Y-105750000D01*
X190025000Y-104750000D02*
X190025000Y-105750000D01*
X191375000Y-105750000D02*
X191375000Y-104750000D01*
X188675000Y-105750000D02*
X188675000Y-104750000D01*
X187325000Y-104750000D02*
X187325000Y-105750000D01*
X204200000Y-112450000D02*
G75*
G03X204200000Y-112450000I-100000J0D01*
G01*
X204750000Y-112200000D02*
X204250000Y-112200000D01*
X204750000Y-109300000D02*
X204750000Y-112200000D01*
X204250000Y-109300000D02*
X204750000Y-109300000D01*
X204250000Y-112200000D02*
X204250000Y-109300000D01*
X201550800Y-115750180D02*
X200849760Y-115750180D01*
X200849760Y-115750180D02*
X200849760Y-115999100D01*
X200849760Y-118549160D02*
X200849760Y-118749820D01*
X200849760Y-118749820D02*
X201550800Y-118749820D01*
D14*
G36*
X210279742Y-113394710D02*
X210280711Y-113428065D01*
X210282228Y-113451653D01*
X210291955Y-113531789D01*
X210307253Y-113613758D01*
X210327681Y-113695701D01*
X210352796Y-113775758D01*
X210370493Y-113823541D01*
X210387482Y-113866347D01*
X210404539Y-113908596D01*
X210421839Y-113950667D01*
X210439558Y-113992939D01*
X210457874Y-114035789D01*
X210476961Y-114079595D01*
X210496995Y-114124736D01*
X210518154Y-114171589D01*
X210540612Y-114220533D01*
X210564546Y-114271945D01*
X210590132Y-114326204D01*
X210617546Y-114383687D01*
X210646964Y-114444774D01*
X210678562Y-114509841D01*
X210712517Y-114579268D01*
X210749003Y-114653431D01*
X210788198Y-114732710D01*
X210830277Y-114817481D01*
X210875417Y-114908124D01*
X210877426Y-114912153D01*
X210917125Y-114991946D01*
X210953758Y-115066001D01*
X210987553Y-115134816D01*
X211018740Y-115198891D01*
X211047551Y-115258725D01*
X211074213Y-115314817D01*
X211098957Y-115367666D01*
X211122014Y-115417772D01*
X211143612Y-115465634D01*
X211163982Y-115511750D01*
X211183354Y-115556621D01*
X211201956Y-115600745D01*
X211220021Y-115644621D01*
X211237776Y-115688749D01*
X211254269Y-115730598D01*
X211263530Y-115754243D01*
X211272058Y-115775881D01*
X211279487Y-115794594D01*
X211285450Y-115809464D01*
X211289583Y-115819573D01*
X211291501Y-115823972D01*
X211293865Y-115824988D01*
X211298645Y-115822632D01*
X211306483Y-115816411D01*
X211318023Y-115805837D01*
X211328474Y-115795750D01*
X211382600Y-115738555D01*
X211434757Y-115674755D01*
X211484846Y-115604551D01*
X211532769Y-115528140D01*
X211578425Y-115445723D01*
X211621717Y-115357498D01*
X211662546Y-115263665D01*
X211700812Y-115164422D01*
X211736417Y-115059969D01*
X211769262Y-114950504D01*
X211793540Y-114859236D01*
X211819136Y-114751653D01*
X211840398Y-114649570D01*
X211857325Y-114552918D01*
X211869916Y-114461629D01*
X211878170Y-114375636D01*
X211882088Y-114294870D01*
X211881668Y-114219264D01*
X211876910Y-114148748D01*
X211867814Y-114083256D01*
X211854378Y-114022719D01*
X211836602Y-113967069D01*
X211814486Y-113916237D01*
X211788029Y-113870157D01*
X211784792Y-113865283D01*
X211770712Y-113846567D01*
X211752815Y-113825977D01*
X211732989Y-113805462D01*
X211713121Y-113786975D01*
X211695098Y-113772467D01*
X211694796Y-113772249D01*
X211659690Y-113750643D01*
X211619925Y-113732364D01*
X211577369Y-113718068D01*
X211533891Y-113708407D01*
X211501322Y-113704563D01*
X211466075Y-113702125D01*
X211460151Y-113636861D01*
X211458247Y-113615600D01*
X211456565Y-113596304D01*
X211455215Y-113580259D01*
X211454305Y-113568751D01*
X211453947Y-113563228D01*
X211453127Y-113557499D01*
X211450173Y-113557862D01*
X211447780Y-113559700D01*
X211444046Y-113562206D01*
X211443062Y-113560247D01*
X211444302Y-113552652D01*
X211444395Y-113552195D01*
X211450018Y-113523402D01*
X211456305Y-113489443D01*
X211462942Y-113452141D01*
X211469618Y-113413316D01*
X211476019Y-113374791D01*
X211481832Y-113338388D01*
X211486745Y-113305929D01*
X211487100Y-113303486D01*
X211497996Y-113222912D01*
X211506419Y-113148021D01*
X211512343Y-113077880D01*
X211515744Y-113011555D01*
X211516596Y-112948112D01*
X211514874Y-112886617D01*
X211510552Y-112826137D01*
X211503606Y-112765738D01*
X211494011Y-112704486D01*
X211481741Y-112641447D01*
X211467576Y-112579022D01*
X211462551Y-112558781D01*
X211456658Y-112536071D01*
X211450181Y-112511883D01*
X211443404Y-112487209D01*
X211436608Y-112463040D01*
X211430079Y-112440368D01*
X211424099Y-112420185D01*
X211418952Y-112403483D01*
X211414921Y-112391254D01*
X211412289Y-112384488D01*
X211411724Y-112383566D01*
X211407976Y-112382791D01*
X211398155Y-112381361D01*
X211383201Y-112379385D01*
X211364055Y-112376971D01*
X211341658Y-112374230D01*
X211316950Y-112371271D01*
X211290871Y-112368203D01*
X211264363Y-112365135D01*
X211238366Y-112362177D01*
X211213821Y-112359438D01*
X211191668Y-112357027D01*
X211172848Y-112355053D01*
X211158301Y-112353626D01*
X211148969Y-112352856D01*
X211146513Y-112352750D01*
X211144892Y-112355981D01*
X211142314Y-112364738D01*
X211139158Y-112377621D01*
X211136320Y-112390674D01*
X211112094Y-112502843D01*
X211086570Y-112610877D01*
X211059870Y-112714350D01*
X211032119Y-112812836D01*
X211003443Y-112905907D01*
X210973966Y-112993136D01*
X210943812Y-113074097D01*
X210918941Y-113134873D01*
X210874433Y-113231354D01*
X210825507Y-113322826D01*
X210771614Y-113410180D01*
X210712202Y-113494308D01*
X210646801Y-113576008D01*
X210632731Y-113592297D01*
X210617209Y-113609777D01*
X210600973Y-113627670D01*
X210584760Y-113645197D01*
X210569307Y-113661580D01*
X210555349Y-113676041D01*
X210543625Y-113687800D01*
X210534870Y-113696080D01*
X210529822Y-113700101D01*
X210529115Y-113700361D01*
X210526617Y-113697110D01*
X210522803Y-113688072D01*
X210518001Y-113674325D01*
X210512535Y-113656944D01*
X210506732Y-113637005D01*
X210500917Y-113615586D01*
X210495417Y-113593761D01*
X210490901Y-113574184D01*
X210477922Y-113504960D01*
X210469990Y-113438054D01*
X210467067Y-113371839D01*
X210469115Y-113304685D01*
X210476096Y-113234963D01*
X210482096Y-113194493D01*
X210500856Y-113098180D01*
X210524807Y-113006411D01*
X210553917Y-112919248D01*
X210588158Y-112836756D01*
X210627499Y-112758996D01*
X210671909Y-112686032D01*
X210721359Y-112617926D01*
X210775818Y-112554742D01*
X210800731Y-112529139D01*
X210856095Y-112478494D01*
X210913280Y-112434450D01*
X210972148Y-112397101D01*
X211032560Y-112366539D01*
X211066028Y-112352795D01*
X211096432Y-112341307D01*
X211234996Y-112195263D01*
X211260468Y-112168489D01*
X211284499Y-112143372D01*
X211306652Y-112120360D01*
X211326490Y-112099900D01*
X211343575Y-112082438D01*
X211357472Y-112068421D01*
X211367742Y-112058298D01*
X211373950Y-112052514D01*
X211375690Y-112051302D01*
X211377513Y-112054842D01*
X211381927Y-112064198D01*
X211388645Y-112078740D01*
X211397381Y-112097842D01*
X211407849Y-112120876D01*
X211419763Y-112147212D01*
X211432837Y-112176225D01*
X211446784Y-112207286D01*
X211448375Y-112210834D01*
X211518931Y-112368283D01*
X211589486Y-112388397D01*
X211637561Y-112402426D01*
X211681940Y-112416124D01*
X211725693Y-112430476D01*
X211771894Y-112446469D01*
X211786422Y-112451638D01*
X211804496Y-112458304D01*
X211816977Y-112463501D01*
X211825013Y-112467837D01*
X211829755Y-112471920D01*
X211832121Y-112475801D01*
X211833374Y-112482334D01*
X211834399Y-112494938D01*
X211835198Y-112512632D01*
X211835771Y-112534436D01*
X211836120Y-112559368D01*
X211836246Y-112586448D01*
X211836150Y-112614694D01*
X211835833Y-112643127D01*
X211835297Y-112670765D01*
X211834542Y-112696627D01*
X211833570Y-112719733D01*
X211832382Y-112739101D01*
X211831800Y-112746098D01*
X211827639Y-112788615D01*
X211822920Y-112832437D01*
X211817767Y-112876678D01*
X211812304Y-112920449D01*
X211806654Y-112962864D01*
X211800940Y-113003037D01*
X211795287Y-113040079D01*
X211789818Y-113073105D01*
X211784657Y-113101228D01*
X211779927Y-113123560D01*
X211778196Y-113130625D01*
X211760188Y-113187051D01*
X211735555Y-113243259D01*
X211704716Y-113298619D01*
X211668088Y-113352503D01*
X211626091Y-113404283D01*
X211579142Y-113453331D01*
X211539419Y-113489231D01*
X211526365Y-113500382D01*
X211518129Y-113507812D01*
X211514108Y-113512317D01*
X211513703Y-113514696D01*
X211516312Y-113515744D01*
X211519177Y-113516076D01*
X211581029Y-113524928D01*
X211641195Y-113540125D01*
X211699025Y-113561367D01*
X211753868Y-113588355D01*
X211805075Y-113620792D01*
X211851994Y-113658378D01*
X211873506Y-113678870D01*
X211915375Y-113726020D01*
X211952239Y-113777880D01*
X211984103Y-113834477D01*
X212010972Y-113895836D01*
X212032847Y-113961984D01*
X212049735Y-114032947D01*
X212061639Y-114108750D01*
X212068562Y-114189419D01*
X212070510Y-114274981D01*
X212067486Y-114365460D01*
X212059493Y-114460884D01*
X212046537Y-114561277D01*
X212028621Y-114666666D01*
X212028229Y-114668736D01*
X212000715Y-114802040D01*
X211969678Y-114930610D01*
X211935198Y-115054222D01*
X211897354Y-115172650D01*
X211856225Y-115285672D01*
X211811891Y-115393063D01*
X211764429Y-115494597D01*
X211713920Y-115590052D01*
X211686871Y-115636556D01*
X211641622Y-115708432D01*
X211595957Y-115773929D01*
X211549299Y-115833722D01*
X211501071Y-115888486D01*
X211450694Y-115938895D01*
X211397593Y-115985624D01*
X211367935Y-116009292D01*
X211358793Y-116016348D01*
X211365455Y-116049885D01*
X211382936Y-116154889D01*
X211393496Y-116259330D01*
X211397171Y-116363815D01*
X211393997Y-116468949D01*
X211392219Y-116494361D01*
X211384517Y-116583685D01*
X211374773Y-116679546D01*
X211363024Y-116781740D01*
X211349304Y-116890062D01*
X211333649Y-117004307D01*
X211316094Y-117124270D01*
X211296676Y-117249745D01*
X211275428Y-117380528D01*
X211252388Y-117516414D01*
X211227589Y-117657197D01*
X211201068Y-117802673D01*
X211172860Y-117952636D01*
X211143000Y-118106882D01*
X211111525Y-118265205D01*
X211078468Y-118427401D01*
X211043866Y-118593264D01*
X211007754Y-118762589D01*
X210971946Y-118927083D01*
X210964219Y-118962540D01*
X210956982Y-118996328D01*
X210950378Y-119027744D01*
X210944550Y-119056082D01*
X210939638Y-119080639D01*
X210935785Y-119100711D01*
X210933134Y-119115595D01*
X210931825Y-119124586D01*
X210931710Y-119126402D01*
X210935325Y-119150853D01*
X210945489Y-119173020D01*
X210961940Y-119192465D01*
X210978714Y-119205298D01*
X211004601Y-119221220D01*
X211035862Y-119239408D01*
X211071421Y-119259273D01*
X211110199Y-119280229D01*
X211151119Y-119301687D01*
X211193103Y-119323058D01*
X211208486Y-119330724D01*
X211270291Y-119360533D01*
X211327008Y-119386152D01*
X211379113Y-119407736D01*
X211427077Y-119425437D01*
X211471376Y-119439410D01*
X211512481Y-119449807D01*
X211550868Y-119456783D01*
X211587009Y-119460490D01*
X211611017Y-119461223D01*
X211645658Y-119459855D01*
X211674824Y-119455603D01*
X211699574Y-119448245D01*
X211719576Y-119438407D01*
X211738408Y-119425372D01*
X211752507Y-119411151D01*
X211764103Y-119393422D01*
X211765661Y-119390516D01*
X211770668Y-119380170D01*
X211775256Y-119368802D01*
X211779454Y-119356049D01*
X211783295Y-119341542D01*
X211786806Y-119324918D01*
X211790019Y-119305811D01*
X211792964Y-119283854D01*
X211795671Y-119258682D01*
X211798170Y-119229929D01*
X211800491Y-119197230D01*
X211802664Y-119160219D01*
X211804720Y-119118530D01*
X211806689Y-119071798D01*
X211808601Y-119019657D01*
X211810486Y-118961742D01*
X211812374Y-118897685D01*
X211814296Y-118827123D01*
X211815282Y-118789181D01*
X211818512Y-118669555D01*
X211821915Y-118556447D01*
X211825525Y-118449322D01*
X211829372Y-118347645D01*
X211833490Y-118250878D01*
X211837910Y-118158487D01*
X211842664Y-118069937D01*
X211847786Y-117984690D01*
X211853306Y-117902212D01*
X211859258Y-117821967D01*
X211865673Y-117743420D01*
X211872583Y-117666033D01*
X211880022Y-117589273D01*
X211888020Y-117512603D01*
X211896611Y-117435487D01*
X211896723Y-117434514D01*
X211913667Y-117296765D01*
X211932414Y-117163516D01*
X211953216Y-117033549D01*
X211976325Y-116905649D01*
X212001993Y-116778599D01*
X212030474Y-116651181D01*
X212062018Y-116522181D01*
X212096880Y-116390381D01*
X212135310Y-116254564D01*
X212156143Y-116184101D01*
X212164416Y-116156987D01*
X212174394Y-116125101D01*
X212185799Y-116089282D01*
X212198350Y-116050367D01*
X212211768Y-116009195D01*
X212225772Y-115966606D01*
X212240082Y-115923438D01*
X212254419Y-115880530D01*
X212268503Y-115838720D01*
X212282054Y-115798847D01*
X212294791Y-115761751D01*
X212306436Y-115728268D01*
X212316707Y-115699239D01*
X212325326Y-115675502D01*
X212330287Y-115662325D01*
X212348714Y-115615900D01*
X212368455Y-115569052D01*
X212389814Y-115521172D01*
X212413099Y-115471650D01*
X212438614Y-115419877D01*
X212466665Y-115365244D01*
X212497558Y-115307142D01*
X212531598Y-115244962D01*
X212569091Y-115178093D01*
X212603090Y-115118528D01*
X212621282Y-115086877D01*
X212641686Y-115051373D01*
X212663181Y-115013969D01*
X212684643Y-114976618D01*
X212704953Y-114941271D01*
X212722987Y-114909882D01*
X212724722Y-114906861D01*
X212767228Y-114832151D01*
X212805860Y-114762611D01*
X212840832Y-114697666D01*
X212872361Y-114636738D01*
X212900662Y-114579249D01*
X212925950Y-114524623D01*
X212948442Y-114472282D01*
X212968353Y-114421649D01*
X212985898Y-114372146D01*
X213001294Y-114323197D01*
X213014755Y-114274224D01*
X213026498Y-114224649D01*
X213036738Y-114173896D01*
X213045691Y-114121387D01*
X213053573Y-114066545D01*
X213060598Y-114008792D01*
X213060768Y-114007278D01*
X213062405Y-113988693D01*
X213063872Y-113964406D01*
X213065152Y-113935621D01*
X213066227Y-113903537D01*
X213067078Y-113869357D01*
X213067688Y-113834282D01*
X213068037Y-113799513D01*
X213068108Y-113766253D01*
X213067882Y-113735702D01*
X213067342Y-113709062D01*
X213066469Y-113687534D01*
X213065766Y-113677431D01*
X213054796Y-113581437D01*
X213038944Y-113488591D01*
X213018340Y-113399357D01*
X212993112Y-113314199D01*
X212963390Y-113233580D01*
X212929303Y-113157963D01*
X212911423Y-113123570D01*
X212861747Y-113039499D01*
X212805614Y-112958006D01*
X212743003Y-112879071D01*
X212673893Y-112802676D01*
X212598264Y-112728800D01*
X212516095Y-112657424D01*
X212427366Y-112588528D01*
X212332057Y-112522092D01*
X212230145Y-112458098D01*
X212189208Y-112434143D01*
X212097801Y-112384336D01*
X212004995Y-112339157D01*
X211909669Y-112298144D01*
X211810702Y-112260834D01*
X211706973Y-112226764D01*
X211637111Y-112206318D01*
X211571847Y-112188063D01*
X211521265Y-112063150D01*
X211508164Y-112030801D01*
X211494360Y-111996720D01*
X211480446Y-111962371D01*
X211467013Y-111929218D01*
X211454657Y-111898725D01*
X211443970Y-111872356D01*
X211438200Y-111858125D01*
X211405719Y-111778013D01*
X211070903Y-112152699D01*
X211025042Y-112167975D01*
X210972558Y-112187971D01*
X210918304Y-112213359D01*
X210863803Y-112243290D01*
X210810580Y-112276916D01*
X210760159Y-112313391D01*
X210751644Y-112320077D01*
X210733691Y-112335188D01*
X210712394Y-112354455D01*
X210688976Y-112376654D01*
X210664659Y-112400561D01*
X210640663Y-112424953D01*
X210618213Y-112448606D01*
X210598529Y-112470297D01*
X210582834Y-112488802D01*
X210581608Y-112490334D01*
X210525687Y-112566271D01*
X210475202Y-112646675D01*
X210430177Y-112731488D01*
X210390636Y-112820648D01*
X210356603Y-112914097D01*
X210328101Y-113011776D01*
X210305155Y-113113624D01*
X210287789Y-113219582D01*
X210287654Y-113220584D01*
X210284531Y-113249559D01*
X210282131Y-113283508D01*
X210280500Y-113320383D01*
X210279688Y-113358133D01*
X210279742Y-113394710D01*
X210279742Y-113394710D01*
G37*
X210279742Y-113394710D02*
X210280711Y-113428065D01*
X210282228Y-113451653D01*
X210291955Y-113531789D01*
X210307253Y-113613758D01*
X210327681Y-113695701D01*
X210352796Y-113775758D01*
X210370493Y-113823541D01*
X210387482Y-113866347D01*
X210404539Y-113908596D01*
X210421839Y-113950667D01*
X210439558Y-113992939D01*
X210457874Y-114035789D01*
X210476961Y-114079595D01*
X210496995Y-114124736D01*
X210518154Y-114171589D01*
X210540612Y-114220533D01*
X210564546Y-114271945D01*
X210590132Y-114326204D01*
X210617546Y-114383687D01*
X210646964Y-114444774D01*
X210678562Y-114509841D01*
X210712517Y-114579268D01*
X210749003Y-114653431D01*
X210788198Y-114732710D01*
X210830277Y-114817481D01*
X210875417Y-114908124D01*
X210877426Y-114912153D01*
X210917125Y-114991946D01*
X210953758Y-115066001D01*
X210987553Y-115134816D01*
X211018740Y-115198891D01*
X211047551Y-115258725D01*
X211074213Y-115314817D01*
X211098957Y-115367666D01*
X211122014Y-115417772D01*
X211143612Y-115465634D01*
X211163982Y-115511750D01*
X211183354Y-115556621D01*
X211201956Y-115600745D01*
X211220021Y-115644621D01*
X211237776Y-115688749D01*
X211254269Y-115730598D01*
X211263530Y-115754243D01*
X211272058Y-115775881D01*
X211279487Y-115794594D01*
X211285450Y-115809464D01*
X211289583Y-115819573D01*
X211291501Y-115823972D01*
X211293865Y-115824988D01*
X211298645Y-115822632D01*
X211306483Y-115816411D01*
X211318023Y-115805837D01*
X211328474Y-115795750D01*
X211382600Y-115738555D01*
X211434757Y-115674755D01*
X211484846Y-115604551D01*
X211532769Y-115528140D01*
X211578425Y-115445723D01*
X211621717Y-115357498D01*
X211662546Y-115263665D01*
X211700812Y-115164422D01*
X211736417Y-115059969D01*
X211769262Y-114950504D01*
X211793540Y-114859236D01*
X211819136Y-114751653D01*
X211840398Y-114649570D01*
X211857325Y-114552918D01*
X211869916Y-114461629D01*
X211878170Y-114375636D01*
X211882088Y-114294870D01*
X211881668Y-114219264D01*
X211876910Y-114148748D01*
X211867814Y-114083256D01*
X211854378Y-114022719D01*
X211836602Y-113967069D01*
X211814486Y-113916237D01*
X211788029Y-113870157D01*
X211784792Y-113865283D01*
X211770712Y-113846567D01*
X211752815Y-113825977D01*
X211732989Y-113805462D01*
X211713121Y-113786975D01*
X211695098Y-113772467D01*
X211694796Y-113772249D01*
X211659690Y-113750643D01*
X211619925Y-113732364D01*
X211577369Y-113718068D01*
X211533891Y-113708407D01*
X211501322Y-113704563D01*
X211466075Y-113702125D01*
X211460151Y-113636861D01*
X211458247Y-113615600D01*
X211456565Y-113596304D01*
X211455215Y-113580259D01*
X211454305Y-113568751D01*
X211453947Y-113563228D01*
X211453127Y-113557499D01*
X211450173Y-113557862D01*
X211447780Y-113559700D01*
X211444046Y-113562206D01*
X211443062Y-113560247D01*
X211444302Y-113552652D01*
X211444395Y-113552195D01*
X211450018Y-113523402D01*
X211456305Y-113489443D01*
X211462942Y-113452141D01*
X211469618Y-113413316D01*
X211476019Y-113374791D01*
X211481832Y-113338388D01*
X211486745Y-113305929D01*
X211487100Y-113303486D01*
X211497996Y-113222912D01*
X211506419Y-113148021D01*
X211512343Y-113077880D01*
X211515744Y-113011555D01*
X211516596Y-112948112D01*
X211514874Y-112886617D01*
X211510552Y-112826137D01*
X211503606Y-112765738D01*
X211494011Y-112704486D01*
X211481741Y-112641447D01*
X211467576Y-112579022D01*
X211462551Y-112558781D01*
X211456658Y-112536071D01*
X211450181Y-112511883D01*
X211443404Y-112487209D01*
X211436608Y-112463040D01*
X211430079Y-112440368D01*
X211424099Y-112420185D01*
X211418952Y-112403483D01*
X211414921Y-112391254D01*
X211412289Y-112384488D01*
X211411724Y-112383566D01*
X211407976Y-112382791D01*
X211398155Y-112381361D01*
X211383201Y-112379385D01*
X211364055Y-112376971D01*
X211341658Y-112374230D01*
X211316950Y-112371271D01*
X211290871Y-112368203D01*
X211264363Y-112365135D01*
X211238366Y-112362177D01*
X211213821Y-112359438D01*
X211191668Y-112357027D01*
X211172848Y-112355053D01*
X211158301Y-112353626D01*
X211148969Y-112352856D01*
X211146513Y-112352750D01*
X211144892Y-112355981D01*
X211142314Y-112364738D01*
X211139158Y-112377621D01*
X211136320Y-112390674D01*
X211112094Y-112502843D01*
X211086570Y-112610877D01*
X211059870Y-112714350D01*
X211032119Y-112812836D01*
X211003443Y-112905907D01*
X210973966Y-112993136D01*
X210943812Y-113074097D01*
X210918941Y-113134873D01*
X210874433Y-113231354D01*
X210825507Y-113322826D01*
X210771614Y-113410180D01*
X210712202Y-113494308D01*
X210646801Y-113576008D01*
X210632731Y-113592297D01*
X210617209Y-113609777D01*
X210600973Y-113627670D01*
X210584760Y-113645197D01*
X210569307Y-113661580D01*
X210555349Y-113676041D01*
X210543625Y-113687800D01*
X210534870Y-113696080D01*
X210529822Y-113700101D01*
X210529115Y-113700361D01*
X210526617Y-113697110D01*
X210522803Y-113688072D01*
X210518001Y-113674325D01*
X210512535Y-113656944D01*
X210506732Y-113637005D01*
X210500917Y-113615586D01*
X210495417Y-113593761D01*
X210490901Y-113574184D01*
X210477922Y-113504960D01*
X210469990Y-113438054D01*
X210467067Y-113371839D01*
X210469115Y-113304685D01*
X210476096Y-113234963D01*
X210482096Y-113194493D01*
X210500856Y-113098180D01*
X210524807Y-113006411D01*
X210553917Y-112919248D01*
X210588158Y-112836756D01*
X210627499Y-112758996D01*
X210671909Y-112686032D01*
X210721359Y-112617926D01*
X210775818Y-112554742D01*
X210800731Y-112529139D01*
X210856095Y-112478494D01*
X210913280Y-112434450D01*
X210972148Y-112397101D01*
X211032560Y-112366539D01*
X211066028Y-112352795D01*
X211096432Y-112341307D01*
X211234996Y-112195263D01*
X211260468Y-112168489D01*
X211284499Y-112143372D01*
X211306652Y-112120360D01*
X211326490Y-112099900D01*
X211343575Y-112082438D01*
X211357472Y-112068421D01*
X211367742Y-112058298D01*
X211373950Y-112052514D01*
X211375690Y-112051302D01*
X211377513Y-112054842D01*
X211381927Y-112064198D01*
X211388645Y-112078740D01*
X211397381Y-112097842D01*
X211407849Y-112120876D01*
X211419763Y-112147212D01*
X211432837Y-112176225D01*
X211446784Y-112207286D01*
X211448375Y-112210834D01*
X211518931Y-112368283D01*
X211589486Y-112388397D01*
X211637561Y-112402426D01*
X211681940Y-112416124D01*
X211725693Y-112430476D01*
X211771894Y-112446469D01*
X211786422Y-112451638D01*
X211804496Y-112458304D01*
X211816977Y-112463501D01*
X211825013Y-112467837D01*
X211829755Y-112471920D01*
X211832121Y-112475801D01*
X211833374Y-112482334D01*
X211834399Y-112494938D01*
X211835198Y-112512632D01*
X211835771Y-112534436D01*
X211836120Y-112559368D01*
X211836246Y-112586448D01*
X211836150Y-112614694D01*
X211835833Y-112643127D01*
X211835297Y-112670765D01*
X211834542Y-112696627D01*
X211833570Y-112719733D01*
X211832382Y-112739101D01*
X211831800Y-112746098D01*
X211827639Y-112788615D01*
X211822920Y-112832437D01*
X211817767Y-112876678D01*
X211812304Y-112920449D01*
X211806654Y-112962864D01*
X211800940Y-113003037D01*
X211795287Y-113040079D01*
X211789818Y-113073105D01*
X211784657Y-113101228D01*
X211779927Y-113123560D01*
X211778196Y-113130625D01*
X211760188Y-113187051D01*
X211735555Y-113243259D01*
X211704716Y-113298619D01*
X211668088Y-113352503D01*
X211626091Y-113404283D01*
X211579142Y-113453331D01*
X211539419Y-113489231D01*
X211526365Y-113500382D01*
X211518129Y-113507812D01*
X211514108Y-113512317D01*
X211513703Y-113514696D01*
X211516312Y-113515744D01*
X211519177Y-113516076D01*
X211581029Y-113524928D01*
X211641195Y-113540125D01*
X211699025Y-113561367D01*
X211753868Y-113588355D01*
X211805075Y-113620792D01*
X211851994Y-113658378D01*
X211873506Y-113678870D01*
X211915375Y-113726020D01*
X211952239Y-113777880D01*
X211984103Y-113834477D01*
X212010972Y-113895836D01*
X212032847Y-113961984D01*
X212049735Y-114032947D01*
X212061639Y-114108750D01*
X212068562Y-114189419D01*
X212070510Y-114274981D01*
X212067486Y-114365460D01*
X212059493Y-114460884D01*
X212046537Y-114561277D01*
X212028621Y-114666666D01*
X212028229Y-114668736D01*
X212000715Y-114802040D01*
X211969678Y-114930610D01*
X211935198Y-115054222D01*
X211897354Y-115172650D01*
X211856225Y-115285672D01*
X211811891Y-115393063D01*
X211764429Y-115494597D01*
X211713920Y-115590052D01*
X211686871Y-115636556D01*
X211641622Y-115708432D01*
X211595957Y-115773929D01*
X211549299Y-115833722D01*
X211501071Y-115888486D01*
X211450694Y-115938895D01*
X211397593Y-115985624D01*
X211367935Y-116009292D01*
X211358793Y-116016348D01*
X211365455Y-116049885D01*
X211382936Y-116154889D01*
X211393496Y-116259330D01*
X211397171Y-116363815D01*
X211393997Y-116468949D01*
X211392219Y-116494361D01*
X211384517Y-116583685D01*
X211374773Y-116679546D01*
X211363024Y-116781740D01*
X211349304Y-116890062D01*
X211333649Y-117004307D01*
X211316094Y-117124270D01*
X211296676Y-117249745D01*
X211275428Y-117380528D01*
X211252388Y-117516414D01*
X211227589Y-117657197D01*
X211201068Y-117802673D01*
X211172860Y-117952636D01*
X211143000Y-118106882D01*
X211111525Y-118265205D01*
X211078468Y-118427401D01*
X211043866Y-118593264D01*
X211007754Y-118762589D01*
X210971946Y-118927083D01*
X210964219Y-118962540D01*
X210956982Y-118996328D01*
X210950378Y-119027744D01*
X210944550Y-119056082D01*
X210939638Y-119080639D01*
X210935785Y-119100711D01*
X210933134Y-119115595D01*
X210931825Y-119124586D01*
X210931710Y-119126402D01*
X210935325Y-119150853D01*
X210945489Y-119173020D01*
X210961940Y-119192465D01*
X210978714Y-119205298D01*
X211004601Y-119221220D01*
X211035862Y-119239408D01*
X211071421Y-119259273D01*
X211110199Y-119280229D01*
X211151119Y-119301687D01*
X211193103Y-119323058D01*
X211208486Y-119330724D01*
X211270291Y-119360533D01*
X211327008Y-119386152D01*
X211379113Y-119407736D01*
X211427077Y-119425437D01*
X211471376Y-119439410D01*
X211512481Y-119449807D01*
X211550868Y-119456783D01*
X211587009Y-119460490D01*
X211611017Y-119461223D01*
X211645658Y-119459855D01*
X211674824Y-119455603D01*
X211699574Y-119448245D01*
X211719576Y-119438407D01*
X211738408Y-119425372D01*
X211752507Y-119411151D01*
X211764103Y-119393422D01*
X211765661Y-119390516D01*
X211770668Y-119380170D01*
X211775256Y-119368802D01*
X211779454Y-119356049D01*
X211783295Y-119341542D01*
X211786806Y-119324918D01*
X211790019Y-119305811D01*
X211792964Y-119283854D01*
X211795671Y-119258682D01*
X211798170Y-119229929D01*
X211800491Y-119197230D01*
X211802664Y-119160219D01*
X211804720Y-119118530D01*
X211806689Y-119071798D01*
X211808601Y-119019657D01*
X211810486Y-118961742D01*
X211812374Y-118897685D01*
X211814296Y-118827123D01*
X211815282Y-118789181D01*
X211818512Y-118669555D01*
X211821915Y-118556447D01*
X211825525Y-118449322D01*
X211829372Y-118347645D01*
X211833490Y-118250878D01*
X211837910Y-118158487D01*
X211842664Y-118069937D01*
X211847786Y-117984690D01*
X211853306Y-117902212D01*
X211859258Y-117821967D01*
X211865673Y-117743420D01*
X211872583Y-117666033D01*
X211880022Y-117589273D01*
X211888020Y-117512603D01*
X211896611Y-117435487D01*
X211896723Y-117434514D01*
X211913667Y-117296765D01*
X211932414Y-117163516D01*
X211953216Y-117033549D01*
X211976325Y-116905649D01*
X212001993Y-116778599D01*
X212030474Y-116651181D01*
X212062018Y-116522181D01*
X212096880Y-116390381D01*
X212135310Y-116254564D01*
X212156143Y-116184101D01*
X212164416Y-116156987D01*
X212174394Y-116125101D01*
X212185799Y-116089282D01*
X212198350Y-116050367D01*
X212211768Y-116009195D01*
X212225772Y-115966606D01*
X212240082Y-115923438D01*
X212254419Y-115880530D01*
X212268503Y-115838720D01*
X212282054Y-115798847D01*
X212294791Y-115761751D01*
X212306436Y-115728268D01*
X212316707Y-115699239D01*
X212325326Y-115675502D01*
X212330287Y-115662325D01*
X212348714Y-115615900D01*
X212368455Y-115569052D01*
X212389814Y-115521172D01*
X212413099Y-115471650D01*
X212438614Y-115419877D01*
X212466665Y-115365244D01*
X212497558Y-115307142D01*
X212531598Y-115244962D01*
X212569091Y-115178093D01*
X212603090Y-115118528D01*
X212621282Y-115086877D01*
X212641686Y-115051373D01*
X212663181Y-115013969D01*
X212684643Y-114976618D01*
X212704953Y-114941271D01*
X212722987Y-114909882D01*
X212724722Y-114906861D01*
X212767228Y-114832151D01*
X212805860Y-114762611D01*
X212840832Y-114697666D01*
X212872361Y-114636738D01*
X212900662Y-114579249D01*
X212925950Y-114524623D01*
X212948442Y-114472282D01*
X212968353Y-114421649D01*
X212985898Y-114372146D01*
X213001294Y-114323197D01*
X213014755Y-114274224D01*
X213026498Y-114224649D01*
X213036738Y-114173896D01*
X213045691Y-114121387D01*
X213053573Y-114066545D01*
X213060598Y-114008792D01*
X213060768Y-114007278D01*
X213062405Y-113988693D01*
X213063872Y-113964406D01*
X213065152Y-113935621D01*
X213066227Y-113903537D01*
X213067078Y-113869357D01*
X213067688Y-113834282D01*
X213068037Y-113799513D01*
X213068108Y-113766253D01*
X213067882Y-113735702D01*
X213067342Y-113709062D01*
X213066469Y-113687534D01*
X213065766Y-113677431D01*
X213054796Y-113581437D01*
X213038944Y-113488591D01*
X213018340Y-113399357D01*
X212993112Y-113314199D01*
X212963390Y-113233580D01*
X212929303Y-113157963D01*
X212911423Y-113123570D01*
X212861747Y-113039499D01*
X212805614Y-112958006D01*
X212743003Y-112879071D01*
X212673893Y-112802676D01*
X212598264Y-112728800D01*
X212516095Y-112657424D01*
X212427366Y-112588528D01*
X212332057Y-112522092D01*
X212230145Y-112458098D01*
X212189208Y-112434143D01*
X212097801Y-112384336D01*
X212004995Y-112339157D01*
X211909669Y-112298144D01*
X211810702Y-112260834D01*
X211706973Y-112226764D01*
X211637111Y-112206318D01*
X211571847Y-112188063D01*
X211521265Y-112063150D01*
X211508164Y-112030801D01*
X211494360Y-111996720D01*
X211480446Y-111962371D01*
X211467013Y-111929218D01*
X211454657Y-111898725D01*
X211443970Y-111872356D01*
X211438200Y-111858125D01*
X211405719Y-111778013D01*
X211070903Y-112152699D01*
X211025042Y-112167975D01*
X210972558Y-112187971D01*
X210918304Y-112213359D01*
X210863803Y-112243290D01*
X210810580Y-112276916D01*
X210760159Y-112313391D01*
X210751644Y-112320077D01*
X210733691Y-112335188D01*
X210712394Y-112354455D01*
X210688976Y-112376654D01*
X210664659Y-112400561D01*
X210640663Y-112424953D01*
X210618213Y-112448606D01*
X210598529Y-112470297D01*
X210582834Y-112488802D01*
X210581608Y-112490334D01*
X210525687Y-112566271D01*
X210475202Y-112646675D01*
X210430177Y-112731488D01*
X210390636Y-112820648D01*
X210356603Y-112914097D01*
X210328101Y-113011776D01*
X210305155Y-113113624D01*
X210287789Y-113219582D01*
X210287654Y-113220584D01*
X210284531Y-113249559D01*
X210282131Y-113283508D01*
X210280500Y-113320383D01*
X210279688Y-113358133D01*
X210279742Y-113394710D01*
D12*
X204500000Y-104575000D02*
X205500000Y-104575000D01*
X205500000Y-103225000D02*
X204500000Y-103225000D01*
X184095238Y-120247619D02*
X184190476Y-120200000D01*
X184285714Y-120104762D01*
X184428571Y-119961905D01*
X184523810Y-119914286D01*
X184619048Y-119914286D01*
X184571429Y-120152381D02*
X184666667Y-120104762D01*
X184761905Y-120009524D01*
X184809524Y-119819048D01*
X184809524Y-119485714D01*
X184761905Y-119295238D01*
X184666667Y-119200000D01*
X184571429Y-119152381D01*
X184380952Y-119152381D01*
X184285714Y-119200000D01*
X184190476Y-119295238D01*
X184142857Y-119485714D01*
X184142857Y-119819048D01*
X184190476Y-120009524D01*
X184285714Y-120104762D01*
X184380952Y-120152381D01*
X184571429Y-120152381D01*
X183761905Y-119247619D02*
X183714286Y-119200000D01*
X183619048Y-119152381D01*
X183380952Y-119152381D01*
X183285714Y-119200000D01*
X183238095Y-119247619D01*
X183190476Y-119342857D01*
X183190476Y-119438095D01*
X183238095Y-119580952D01*
X183809524Y-120152381D01*
X183190476Y-120152381D01*
X181895238Y-128797619D02*
X181990476Y-128750000D01*
X182085714Y-128654762D01*
X182228571Y-128511905D01*
X182323810Y-128464286D01*
X182419048Y-128464286D01*
X182371429Y-128702381D02*
X182466667Y-128654762D01*
X182561905Y-128559524D01*
X182609524Y-128369048D01*
X182609524Y-128035714D01*
X182561905Y-127845238D01*
X182466667Y-127750000D01*
X182371429Y-127702381D01*
X182180952Y-127702381D01*
X182085714Y-127750000D01*
X181990476Y-127845238D01*
X181942857Y-128035714D01*
X181942857Y-128369048D01*
X181990476Y-128559524D01*
X182085714Y-128654762D01*
X182180952Y-128702381D01*
X182371429Y-128702381D01*
X180990476Y-128702381D02*
X181561905Y-128702381D01*
X181276191Y-128702381D02*
X181276191Y-127702381D01*
X181371429Y-127845238D01*
X181466667Y-127940476D01*
X181561905Y-127988095D01*
X190452381Y-125107143D02*
X190452381Y-125202382D01*
X190500000Y-125297620D01*
X190547619Y-125345239D01*
X190642857Y-125392858D01*
X190833333Y-125440477D01*
X191071429Y-125440477D01*
X191261905Y-125392858D01*
X191357143Y-125345239D01*
X191404762Y-125297620D01*
X191452381Y-125202382D01*
X191452381Y-125107143D01*
X191404762Y-125011905D01*
X191357143Y-124964286D01*
X191261905Y-124916667D01*
X191071429Y-124869048D01*
X190833333Y-124869048D01*
X190642857Y-124916667D01*
X190547619Y-124964286D01*
X190500000Y-125011905D01*
X190452381Y-125107143D01*
X191357143Y-125869048D02*
X191404762Y-125916667D01*
X191452381Y-125869048D01*
X191404762Y-125821429D01*
X191357143Y-125869048D01*
X191452381Y-125869048D01*
X191452381Y-126869048D02*
X191452381Y-126297619D01*
X191452381Y-126583333D02*
X190452381Y-126583333D01*
X190595238Y-126488095D01*
X190690476Y-126392857D01*
X190738095Y-126297619D01*
X190785714Y-127726191D02*
X191452381Y-127726191D01*
X190785714Y-127297619D02*
X191309524Y-127297619D01*
X191404762Y-127345238D01*
X191452381Y-127440476D01*
X191452381Y-127583334D01*
X191404762Y-127678572D01*
X191357143Y-127726191D01*
X190928571Y-128535715D02*
X190928571Y-128202381D01*
X191452381Y-128202381D02*
X190452381Y-128202381D01*
X190452381Y-128678572D01*
X187297619Y-118619048D02*
X187250000Y-118666667D01*
X187202381Y-118761905D01*
X187202381Y-119000001D01*
X187250000Y-119095239D01*
X187297619Y-119142858D01*
X187392857Y-119190477D01*
X187488095Y-119190477D01*
X187630952Y-119142858D01*
X188202381Y-118571429D01*
X188202381Y-119190477D01*
X188107143Y-119619048D02*
X188154762Y-119666667D01*
X188202381Y-119619048D01*
X188154762Y-119571429D01*
X188107143Y-119619048D01*
X188202381Y-119619048D01*
X187297619Y-120047619D02*
X187250000Y-120095238D01*
X187202381Y-120190476D01*
X187202381Y-120428572D01*
X187250000Y-120523810D01*
X187297619Y-120571429D01*
X187392857Y-120619048D01*
X187488095Y-120619048D01*
X187630952Y-120571429D01*
X188202381Y-120000000D01*
X188202381Y-120619048D01*
X187535714Y-121476191D02*
X188202381Y-121476191D01*
X187535714Y-121047619D02*
X188059524Y-121047619D01*
X188154762Y-121095238D01*
X188202381Y-121190476D01*
X188202381Y-121333334D01*
X188154762Y-121428572D01*
X188107143Y-121476191D01*
X187678571Y-122285715D02*
X187678571Y-121952381D01*
X188202381Y-121952381D02*
X187202381Y-121952381D01*
X187202381Y-122428572D01*
X207630952Y-114047619D02*
X207583333Y-114000000D01*
X207488095Y-113952381D01*
X207249999Y-113952381D01*
X207154761Y-114000000D01*
X207107142Y-114047619D01*
X207059523Y-114142857D01*
X207059523Y-114238095D01*
X207107142Y-114380952D01*
X207678571Y-114952381D01*
X207059523Y-114952381D01*
X206630952Y-114857143D02*
X206583333Y-114904762D01*
X206630952Y-114952381D01*
X206678571Y-114904762D01*
X206630952Y-114857143D01*
X206630952Y-114952381D01*
X206202381Y-114047619D02*
X206154762Y-114000000D01*
X206059524Y-113952381D01*
X205821428Y-113952381D01*
X205726190Y-114000000D01*
X205678571Y-114047619D01*
X205630952Y-114142857D01*
X205630952Y-114238095D01*
X205678571Y-114380952D01*
X206250000Y-114952381D01*
X205630952Y-114952381D01*
X204773809Y-114285714D02*
X204773809Y-114952381D01*
X205202381Y-114285714D02*
X205202381Y-114809524D01*
X205154762Y-114904762D01*
X205059524Y-114952381D01*
X204916666Y-114952381D01*
X204821428Y-114904762D01*
X204773809Y-114857143D01*
X203964285Y-114428571D02*
X204297619Y-114428571D01*
X204297619Y-114952381D02*
X204297619Y-113952381D01*
X203821428Y-113952381D01*
X207630952Y-119547619D02*
X207583333Y-119500000D01*
X207488095Y-119452381D01*
X207249999Y-119452381D01*
X207154761Y-119500000D01*
X207107142Y-119547619D01*
X207059523Y-119642857D01*
X207059523Y-119738095D01*
X207107142Y-119880952D01*
X207678571Y-120452381D01*
X207059523Y-120452381D01*
X206630952Y-120357143D02*
X206583333Y-120404762D01*
X206630952Y-120452381D01*
X206678571Y-120404762D01*
X206630952Y-120357143D01*
X206630952Y-120452381D01*
X206202381Y-119547619D02*
X206154762Y-119500000D01*
X206059524Y-119452381D01*
X205821428Y-119452381D01*
X205726190Y-119500000D01*
X205678571Y-119547619D01*
X205630952Y-119642857D01*
X205630952Y-119738095D01*
X205678571Y-119880952D01*
X206250000Y-120452381D01*
X205630952Y-120452381D01*
X204773809Y-119785714D02*
X204773809Y-120452381D01*
X205202381Y-119785714D02*
X205202381Y-120309524D01*
X205154762Y-120404762D01*
X205059524Y-120452381D01*
X204916666Y-120452381D01*
X204821428Y-120404762D01*
X204773809Y-120357143D01*
X203964285Y-119928571D02*
X204297619Y-119928571D01*
X204297619Y-120452381D02*
X204297619Y-119452381D01*
X203821428Y-119452381D01*
X207552381Y-92230952D02*
X207552381Y-92326191D01*
X207600000Y-92421429D01*
X207647619Y-92469048D01*
X207742857Y-92516667D01*
X207933333Y-92564286D01*
X208171429Y-92564286D01*
X208361905Y-92516667D01*
X208457143Y-92469048D01*
X208504762Y-92421429D01*
X208552381Y-92326191D01*
X208552381Y-92230952D01*
X208504762Y-92135714D01*
X208457143Y-92088095D01*
X208361905Y-92040476D01*
X208171429Y-91992857D01*
X207933333Y-91992857D01*
X207742857Y-92040476D01*
X207647619Y-92088095D01*
X207600000Y-92135714D01*
X207552381Y-92230952D01*
X208457143Y-92992857D02*
X208504762Y-93040476D01*
X208552381Y-92992857D01*
X208504762Y-92945238D01*
X208457143Y-92992857D01*
X208552381Y-92992857D01*
X207552381Y-93659523D02*
X207552381Y-93754762D01*
X207600000Y-93850000D01*
X207647619Y-93897619D01*
X207742857Y-93945238D01*
X207933333Y-93992857D01*
X208171429Y-93992857D01*
X208361905Y-93945238D01*
X208457143Y-93897619D01*
X208504762Y-93850000D01*
X208552381Y-93754762D01*
X208552381Y-93659523D01*
X208504762Y-93564285D01*
X208457143Y-93516666D01*
X208361905Y-93469047D01*
X208171429Y-93421428D01*
X207933333Y-93421428D01*
X207742857Y-93469047D01*
X207647619Y-93516666D01*
X207600000Y-93564285D01*
X207552381Y-93659523D01*
X208552381Y-94945238D02*
X208552381Y-94373809D01*
X208552381Y-94659523D02*
X207552381Y-94659523D01*
X207695238Y-94564285D01*
X207790476Y-94469047D01*
X207838095Y-94373809D01*
X207885714Y-95802381D02*
X208552381Y-95802381D01*
X207885714Y-95373809D02*
X208409524Y-95373809D01*
X208504762Y-95421428D01*
X208552381Y-95516666D01*
X208552381Y-95659524D01*
X208504762Y-95754762D01*
X208457143Y-95802381D01*
X208028571Y-96611905D02*
X208028571Y-96278571D01*
X208552381Y-96278571D02*
X207552381Y-96278571D01*
X207552381Y-96754762D01*
X207685714Y-80754762D02*
X207542857Y-80802381D01*
X207304761Y-80802381D01*
X207209523Y-80754762D01*
X207161904Y-80707143D01*
X207114285Y-80611905D01*
X207114285Y-80516667D01*
X207161904Y-80421429D01*
X207209523Y-80373810D01*
X207304761Y-80326190D01*
X207495238Y-80278571D01*
X207590476Y-80230952D01*
X207638095Y-80183333D01*
X207685714Y-80088095D01*
X207685714Y-79992857D01*
X207638095Y-79897619D01*
X207590476Y-79850000D01*
X207495238Y-79802381D01*
X207257142Y-79802381D01*
X207114285Y-79850000D01*
X206685714Y-80802381D02*
X206685714Y-79802381D01*
X206352380Y-80516667D01*
X206019047Y-79802381D01*
X206019047Y-80802381D01*
X205590476Y-80516667D02*
X205114285Y-80516667D01*
X205685714Y-80802381D02*
X205352381Y-79802381D01*
X205019047Y-80802381D01*
X191416666Y-76107143D02*
X191464285Y-76154762D01*
X191607142Y-76202381D01*
X191702380Y-76202381D01*
X191845238Y-76154762D01*
X191940476Y-76059524D01*
X191988095Y-75964286D01*
X192035714Y-75773810D01*
X192035714Y-75630952D01*
X191988095Y-75440476D01*
X191940476Y-75345238D01*
X191845238Y-75250000D01*
X191702380Y-75202381D01*
X191607142Y-75202381D01*
X191464285Y-75250000D01*
X191416666Y-75297619D01*
X190988095Y-76202381D02*
X190988095Y-75202381D01*
X190654761Y-75916667D01*
X190321428Y-75202381D01*
X190321428Y-76202381D01*
X189988095Y-75202381D02*
X189416666Y-75202381D01*
X189702381Y-76202381D02*
X189702381Y-75202381D01*
X189083333Y-75821429D02*
X188321428Y-75821429D01*
X187321428Y-76202381D02*
X187892857Y-76202381D01*
X187607143Y-76202381D02*
X187607143Y-75202381D01*
X187702381Y-75345238D01*
X187797619Y-75440476D01*
X187892857Y-75488095D01*
X186464285Y-75202381D02*
X186654762Y-75202381D01*
X186750000Y-75250000D01*
X186797619Y-75297619D01*
X186892857Y-75440476D01*
X186940476Y-75630952D01*
X186940476Y-76011905D01*
X186892857Y-76107143D01*
X186845238Y-76154762D01*
X186750000Y-76202381D01*
X186559523Y-76202381D01*
X186464285Y-76154762D01*
X186416666Y-76107143D01*
X186369047Y-76011905D01*
X186369047Y-75773810D01*
X186416666Y-75678571D01*
X186464285Y-75630952D01*
X186559523Y-75583333D01*
X186750000Y-75583333D01*
X186845238Y-75630952D01*
X186892857Y-75678571D01*
X186940476Y-75773810D01*
X185750000Y-75202381D02*
X185654761Y-75202381D01*
X185559523Y-75250000D01*
X185511904Y-75297619D01*
X185464285Y-75392857D01*
X185416666Y-75583333D01*
X185416666Y-75821429D01*
X185464285Y-76011905D01*
X185511904Y-76107143D01*
X185559523Y-76154762D01*
X185654761Y-76202381D01*
X185750000Y-76202381D01*
X185845238Y-76154762D01*
X185892857Y-76107143D01*
X185940476Y-76011905D01*
X185988095Y-75821429D01*
X185988095Y-75583333D01*
X185940476Y-75392857D01*
X185892857Y-75297619D01*
X185845238Y-75250000D01*
X185750000Y-75202381D01*
X185083333Y-75202381D02*
X184464285Y-75202381D01*
X184797619Y-75583333D01*
X184654761Y-75583333D01*
X184559523Y-75630952D01*
X184511904Y-75678571D01*
X184464285Y-75773810D01*
X184464285Y-76011905D01*
X184511904Y-76107143D01*
X184559523Y-76154762D01*
X184654761Y-76202381D01*
X184940476Y-76202381D01*
X185035714Y-76154762D01*
X185083333Y-76107143D01*
X189535714Y-117583334D02*
X190202381Y-117583334D01*
X189154762Y-117345238D02*
X189869048Y-117107143D01*
X189869048Y-117726191D01*
X189202381Y-118011905D02*
X189202381Y-118678572D01*
X190202381Y-118250000D01*
X189202381Y-119250000D02*
X189202381Y-119345239D01*
X189250000Y-119440477D01*
X189297619Y-119488096D01*
X189392857Y-119535715D01*
X189583333Y-119583334D01*
X189821429Y-119583334D01*
X190011905Y-119535715D01*
X190107143Y-119488096D01*
X190154762Y-119440477D01*
X190202381Y-119345239D01*
X190202381Y-119250000D01*
X190154762Y-119154762D01*
X190107143Y-119107143D01*
X190011905Y-119059524D01*
X189821429Y-119011905D01*
X189583333Y-119011905D01*
X189392857Y-119059524D01*
X189297619Y-119107143D01*
X189250000Y-119154762D01*
X189202381Y-119250000D01*
X190202381Y-120011905D02*
X189202381Y-120011905D01*
X189821429Y-120107143D02*
X190202381Y-120392858D01*
X189535714Y-120392858D02*
X189916667Y-120011905D01*
X181202381Y-123228572D02*
X181202381Y-122657143D01*
X181202381Y-122942857D02*
X180202381Y-122942857D01*
X180345238Y-122847619D01*
X180440476Y-122752381D01*
X180488095Y-122657143D01*
X180202381Y-123847619D02*
X180202381Y-123942858D01*
X180250000Y-124038096D01*
X180297619Y-124085715D01*
X180392857Y-124133334D01*
X180583333Y-124180953D01*
X180821429Y-124180953D01*
X181011905Y-124133334D01*
X181107143Y-124085715D01*
X181154762Y-124038096D01*
X181202381Y-123942858D01*
X181202381Y-123847619D01*
X181154762Y-123752381D01*
X181107143Y-123704762D01*
X181011905Y-123657143D01*
X180821429Y-123609524D01*
X180583333Y-123609524D01*
X180392857Y-123657143D01*
X180297619Y-123704762D01*
X180250000Y-123752381D01*
X180202381Y-123847619D01*
X180202381Y-124800000D02*
X180202381Y-124895239D01*
X180250000Y-124990477D01*
X180297619Y-125038096D01*
X180392857Y-125085715D01*
X180583333Y-125133334D01*
X180821429Y-125133334D01*
X181011905Y-125085715D01*
X181107143Y-125038096D01*
X181154762Y-124990477D01*
X181202381Y-124895239D01*
X181202381Y-124800000D01*
X181154762Y-124704762D01*
X181107143Y-124657143D01*
X181011905Y-124609524D01*
X180821429Y-124561905D01*
X180583333Y-124561905D01*
X180392857Y-124609524D01*
X180297619Y-124657143D01*
X180250000Y-124704762D01*
X180202381Y-124800000D01*
X181202381Y-125561905D02*
X180202381Y-125561905D01*
X180821429Y-125657143D02*
X181202381Y-125942858D01*
X180535714Y-125942858D02*
X180916667Y-125561905D01*
X199285714Y-110559524D02*
X199952381Y-110559524D01*
X198904762Y-110321428D02*
X199619048Y-110083333D01*
X199619048Y-110702381D01*
X198952381Y-110988095D02*
X198952381Y-111654762D01*
X199952381Y-111226190D01*
X199952381Y-112035714D02*
X198952381Y-112035714D01*
X199571429Y-112130952D02*
X199952381Y-112416667D01*
X199285714Y-112416667D02*
X199666667Y-112035714D01*
X195535714Y-114309524D02*
X196202381Y-114309524D01*
X195154762Y-114071428D02*
X195869048Y-113833333D01*
X195869048Y-114452381D01*
X195202381Y-114738095D02*
X195202381Y-115404762D01*
X196202381Y-114976190D01*
X196202381Y-115785714D02*
X195202381Y-115785714D01*
X195821429Y-115880952D02*
X196202381Y-116166667D01*
X195535714Y-116166667D02*
X195916667Y-115785714D01*
X194202381Y-114404762D02*
X194202381Y-113833333D01*
X194202381Y-114119047D02*
X193202381Y-114119047D01*
X193345238Y-114023809D01*
X193440476Y-113928571D01*
X193488095Y-113833333D01*
X193202381Y-115023809D02*
X193202381Y-115119048D01*
X193250000Y-115214286D01*
X193297619Y-115261905D01*
X193392857Y-115309524D01*
X193583333Y-115357143D01*
X193821429Y-115357143D01*
X194011905Y-115309524D01*
X194107143Y-115261905D01*
X194154762Y-115214286D01*
X194202381Y-115119048D01*
X194202381Y-115023809D01*
X194154762Y-114928571D01*
X194107143Y-114880952D01*
X194011905Y-114833333D01*
X193821429Y-114785714D01*
X193583333Y-114785714D01*
X193392857Y-114833333D01*
X193297619Y-114880952D01*
X193250000Y-114928571D01*
X193202381Y-115023809D01*
X194202381Y-115785714D02*
X193202381Y-115785714D01*
X193821429Y-115880952D02*
X194202381Y-116166667D01*
X193535714Y-116166667D02*
X193916667Y-115785714D01*
X194685714Y-103988096D02*
X195352381Y-103988096D01*
X194304762Y-103750000D02*
X195019048Y-103511905D01*
X195019048Y-104130953D01*
X194352381Y-104416667D02*
X194352381Y-105083334D01*
X195352381Y-104654762D01*
X194352381Y-105654762D02*
X194352381Y-105750001D01*
X194400000Y-105845239D01*
X194447619Y-105892858D01*
X194542857Y-105940477D01*
X194733333Y-105988096D01*
X194971429Y-105988096D01*
X195161905Y-105940477D01*
X195257143Y-105892858D01*
X195304762Y-105845239D01*
X195352381Y-105750001D01*
X195352381Y-105654762D01*
X195304762Y-105559524D01*
X195257143Y-105511905D01*
X195161905Y-105464286D01*
X194971429Y-105416667D01*
X194733333Y-105416667D01*
X194542857Y-105464286D01*
X194447619Y-105511905D01*
X194400000Y-105559524D01*
X194352381Y-105654762D01*
X195352381Y-106416667D02*
X194352381Y-106416667D01*
X195352381Y-106988096D02*
X194780952Y-106559524D01*
X194352381Y-106988096D02*
X194923810Y-106416667D01*
X188595238Y-108702381D02*
X189166667Y-108702381D01*
X188880953Y-108702381D02*
X188880953Y-107702381D01*
X188976191Y-107845238D01*
X189071429Y-107940476D01*
X189166667Y-107988095D01*
X187976191Y-107702381D02*
X187880952Y-107702381D01*
X187785714Y-107750000D01*
X187738095Y-107797619D01*
X187690476Y-107892857D01*
X187642857Y-108083333D01*
X187642857Y-108321429D01*
X187690476Y-108511905D01*
X187738095Y-108607143D01*
X187785714Y-108654762D01*
X187880952Y-108702381D01*
X187976191Y-108702381D01*
X188071429Y-108654762D01*
X188119048Y-108607143D01*
X188166667Y-108511905D01*
X188214286Y-108321429D01*
X188214286Y-108083333D01*
X188166667Y-107892857D01*
X188119048Y-107797619D01*
X188071429Y-107750000D01*
X187976191Y-107702381D01*
X187214286Y-108702381D02*
X187214286Y-107702381D01*
X187119048Y-108321429D02*
X186833333Y-108702381D01*
X186833333Y-108035714D02*
X187214286Y-108416667D01*
X191595238Y-108702381D02*
X192166667Y-108702381D01*
X191880953Y-108702381D02*
X191880953Y-107702381D01*
X191976191Y-107845238D01*
X192071429Y-107940476D01*
X192166667Y-107988095D01*
X190976191Y-107702381D02*
X190880952Y-107702381D01*
X190785714Y-107750000D01*
X190738095Y-107797619D01*
X190690476Y-107892857D01*
X190642857Y-108083333D01*
X190642857Y-108321429D01*
X190690476Y-108511905D01*
X190738095Y-108607143D01*
X190785714Y-108654762D01*
X190880952Y-108702381D01*
X190976191Y-108702381D01*
X191071429Y-108654762D01*
X191119048Y-108607143D01*
X191166667Y-108511905D01*
X191214286Y-108321429D01*
X191214286Y-108083333D01*
X191166667Y-107892857D01*
X191119048Y-107797619D01*
X191071429Y-107750000D01*
X190976191Y-107702381D01*
X190214286Y-108702381D02*
X190214286Y-107702381D01*
X190119048Y-108321429D02*
X189833333Y-108702381D01*
X189833333Y-108035714D02*
X190214286Y-108416667D01*
X205261905Y-107952381D02*
X205261905Y-108761905D01*
X205214286Y-108857143D01*
X205166667Y-108904762D01*
X205071429Y-108952381D01*
X204880952Y-108952381D01*
X204785714Y-108904762D01*
X204738095Y-108857143D01*
X204690476Y-108761905D01*
X204690476Y-107952381D01*
X204261905Y-108047619D02*
X204214286Y-108000000D01*
X204119048Y-107952381D01*
X203880952Y-107952381D01*
X203785714Y-108000000D01*
X203738095Y-108047619D01*
X203690476Y-108142857D01*
X203690476Y-108238095D01*
X203738095Y-108380952D01*
X204309524Y-108952381D01*
X203690476Y-108952381D01*
X209642857Y-117416667D02*
X209166666Y-117416667D01*
X209738095Y-117702381D02*
X209404762Y-116702381D01*
X209071428Y-117702381D01*
X208738095Y-117702381D02*
X208738095Y-116702381D01*
X208357142Y-116702381D01*
X208261904Y-116750000D01*
X208214285Y-116797619D01*
X208166666Y-116892857D01*
X208166666Y-117035714D01*
X208214285Y-117130952D01*
X208261904Y-117178571D01*
X208357142Y-117226190D01*
X208738095Y-117226190D01*
X207833333Y-116702381D02*
X207166666Y-116702381D01*
X207595238Y-117702381D01*
X206880952Y-116702381D02*
X206261904Y-116702381D01*
X206595238Y-117083333D01*
X206452380Y-117083333D01*
X206357142Y-117130952D01*
X206309523Y-117178571D01*
X206261904Y-117273810D01*
X206261904Y-117511905D01*
X206309523Y-117607143D01*
X206357142Y-117654762D01*
X206452380Y-117702381D01*
X206738095Y-117702381D01*
X206833333Y-117654762D01*
X206880952Y-117607143D01*
X205928571Y-116702381D02*
X205309523Y-116702381D01*
X205642857Y-117083333D01*
X205499999Y-117083333D01*
X205404761Y-117130952D01*
X205357142Y-117178571D01*
X205309523Y-117273810D01*
X205309523Y-117511905D01*
X205357142Y-117607143D01*
X205404761Y-117654762D01*
X205499999Y-117702381D01*
X205785714Y-117702381D01*
X205880952Y-117654762D01*
X205928571Y-117607143D01*
X204976190Y-116702381D02*
X204357142Y-116702381D01*
X204690476Y-117083333D01*
X204547618Y-117083333D01*
X204452380Y-117130952D01*
X204404761Y-117178571D01*
X204357142Y-117273810D01*
X204357142Y-117511905D01*
X204404761Y-117607143D01*
X204452380Y-117654762D01*
X204547618Y-117702381D01*
X204833333Y-117702381D01*
X204928571Y-117654762D01*
X204976190Y-117607143D01*
X201502381Y-88569046D02*
X201502381Y-88759523D01*
X201550000Y-88854761D01*
X201645238Y-88949999D01*
X201835714Y-88997618D01*
X202169048Y-88997618D01*
X202359524Y-88949999D01*
X202454762Y-88854761D01*
X202502381Y-88759523D01*
X202502381Y-88569046D01*
X202454762Y-88473808D01*
X202359524Y-88378570D01*
X202169048Y-88330951D01*
X201835714Y-88330951D01*
X201645238Y-88378570D01*
X201550000Y-88473808D01*
X201502381Y-88569046D01*
X201835714Y-89426189D02*
X202835714Y-89426189D01*
X201883333Y-89426189D02*
X201835714Y-89521427D01*
X201835714Y-89711904D01*
X201883333Y-89807142D01*
X201930952Y-89854761D01*
X202026190Y-89902380D01*
X202311905Y-89902380D01*
X202407143Y-89854761D01*
X202454762Y-89807142D01*
X202502381Y-89711904D01*
X202502381Y-89521427D01*
X202454762Y-89426189D01*
X201835714Y-90188094D02*
X201835714Y-90569046D01*
X201502381Y-90330951D02*
X202359524Y-90330951D01*
X202454762Y-90378570D01*
X202502381Y-90473808D01*
X202502381Y-90569046D01*
X202502381Y-90902380D02*
X201835714Y-90902380D01*
X201502381Y-90902380D02*
X201550000Y-90854761D01*
X201597619Y-90902380D01*
X201550000Y-90949999D01*
X201502381Y-90902380D01*
X201597619Y-90902380D01*
X202502381Y-91521427D02*
X202454762Y-91426189D01*
X202407143Y-91378570D01*
X202311905Y-91330951D01*
X202026190Y-91330951D01*
X201930952Y-91378570D01*
X201883333Y-91426189D01*
X201835714Y-91521427D01*
X201835714Y-91664285D01*
X201883333Y-91759523D01*
X201930952Y-91807142D01*
X202026190Y-91854761D01*
X202311905Y-91854761D01*
X202407143Y-91807142D01*
X202454762Y-91759523D01*
X202502381Y-91664285D01*
X202502381Y-91521427D01*
X201835714Y-92283332D02*
X202502381Y-92283332D01*
X201930952Y-92283332D02*
X201883333Y-92330951D01*
X201835714Y-92426189D01*
X201835714Y-92569047D01*
X201883333Y-92664285D01*
X201978571Y-92711904D01*
X202502381Y-92711904D01*
X202502381Y-93616666D02*
X201978571Y-93616666D01*
X201883333Y-93569047D01*
X201835714Y-93473809D01*
X201835714Y-93283332D01*
X201883333Y-93188094D01*
X202454762Y-93616666D02*
X202502381Y-93521428D01*
X202502381Y-93283332D01*
X202454762Y-93188094D01*
X202359524Y-93140475D01*
X202264286Y-93140475D01*
X202169048Y-93188094D01*
X202121429Y-93283332D01*
X202121429Y-93521428D01*
X202073810Y-93616666D01*
X202502381Y-94235713D02*
X202454762Y-94140475D01*
X202359524Y-94092856D01*
X201502381Y-94092856D01*
X202502381Y-95950000D02*
X202026190Y-95616666D01*
X202502381Y-95378571D02*
X201502381Y-95378571D01*
X201502381Y-95759524D01*
X201550000Y-95854762D01*
X201597619Y-95902381D01*
X201692857Y-95950000D01*
X201835714Y-95950000D01*
X201930952Y-95902381D01*
X201978571Y-95854762D01*
X202026190Y-95759524D01*
X202026190Y-95378571D01*
X202454762Y-96759524D02*
X202502381Y-96664286D01*
X202502381Y-96473809D01*
X202454762Y-96378571D01*
X202359524Y-96330952D01*
X201978571Y-96330952D01*
X201883333Y-96378571D01*
X201835714Y-96473809D01*
X201835714Y-96664286D01*
X201883333Y-96759524D01*
X201978571Y-96807143D01*
X202073810Y-96807143D01*
X202169048Y-96330952D01*
X202454762Y-97188095D02*
X202502381Y-97283333D01*
X202502381Y-97473809D01*
X202454762Y-97569048D01*
X202359524Y-97616667D01*
X202311905Y-97616667D01*
X202216667Y-97569048D01*
X202169048Y-97473809D01*
X202169048Y-97330952D01*
X202121429Y-97235714D01*
X202026190Y-97188095D01*
X201978571Y-97188095D01*
X201883333Y-97235714D01*
X201835714Y-97330952D01*
X201835714Y-97473809D01*
X201883333Y-97569048D01*
X202454762Y-98426191D02*
X202502381Y-98330953D01*
X202502381Y-98140476D01*
X202454762Y-98045238D01*
X202359524Y-97997619D01*
X201978571Y-97997619D01*
X201883333Y-98045238D01*
X201835714Y-98140476D01*
X201835714Y-98330953D01*
X201883333Y-98426191D01*
X201978571Y-98473810D01*
X202073810Y-98473810D01*
X202169048Y-97997619D01*
X201835714Y-98759524D02*
X201835714Y-99140476D01*
X201502381Y-98902381D02*
X202359524Y-98902381D01*
X202454762Y-98950000D01*
X202502381Y-99045238D01*
X202502381Y-99140476D01*
X202502381Y-100235715D02*
X201502381Y-100235715D01*
X201502381Y-100616668D01*
X201550000Y-100711906D01*
X201597619Y-100759525D01*
X201692857Y-100807144D01*
X201835714Y-100807144D01*
X201930952Y-100759525D01*
X201978571Y-100711906D01*
X202026190Y-100616668D01*
X202026190Y-100235715D01*
X201835714Y-101664287D02*
X202502381Y-101664287D01*
X201835714Y-101235715D02*
X202359524Y-101235715D01*
X202454762Y-101283334D01*
X202502381Y-101378572D01*
X202502381Y-101521430D01*
X202454762Y-101616668D01*
X202407143Y-101664287D01*
X202502381Y-102283334D02*
X202454762Y-102188096D01*
X202359524Y-102140477D01*
X201502381Y-102140477D01*
X202502381Y-102807144D02*
X202454762Y-102711906D01*
X202359524Y-102664287D01*
X201502381Y-102664287D01*
X201835714Y-103616669D02*
X202502381Y-103616669D01*
X201835714Y-103188097D02*
X202359524Y-103188097D01*
X202454762Y-103235716D01*
X202502381Y-103330954D01*
X202502381Y-103473812D01*
X202454762Y-103569050D01*
X202407143Y-103616669D01*
X201835714Y-104092859D02*
X202835714Y-104092859D01*
X201883333Y-104092859D02*
X201835714Y-104188097D01*
X201835714Y-104378574D01*
X201883333Y-104473812D01*
X201930952Y-104521431D01*
X202026190Y-104569050D01*
X202311905Y-104569050D01*
X202407143Y-104521431D01*
X202454762Y-104473812D01*
X202502381Y-104378574D01*
X202502381Y-104188097D01*
X202454762Y-104092859D01*
M02*
