G04 #@! TF.FileFunction,Copper,L2,Bot,Signal*
%FSLAX46Y46*%
G04 Gerber Fmt 4.6, Leading zero omitted, Abs format (unit mm)*
G04 Created by KiCad (PCBNEW (2015-11-03 BZR 6296)-product) date Wednesday, November 04, 2015 'PMt' 10:27:15 PM*
%MOMM*%
G01*
G04 APERTURE LIST*
%ADD10C,0.100000*%
%ADD11R,1.800860X0.800100*%
%ADD12R,0.750000X1.200000*%
%ADD13R,1.200000X0.750000*%
%ADD14C,2.800000*%
%ADD15C,2.700000*%
%ADD16R,4.300000X5.700000*%
%ADD17R,0.900000X1.200000*%
%ADD18R,1.200000X0.900000*%
%ADD19R,1.060000X0.650000*%
%ADD20R,1.727200X2.032000*%
%ADD21O,1.727200X2.032000*%
%ADD22C,2.235200*%
%ADD23R,2.032000X2.032000*%
%ADD24O,2.032000X2.032000*%
%ADD25C,0.600000*%
%ADD26C,0.200000*%
%ADD27C,0.400000*%
%ADD28C,0.254000*%
G04 APERTURE END LIST*
D10*
D11*
X182323860Y-122650000D03*
X182323860Y-120750000D03*
X185326140Y-121700000D03*
X185326140Y-125975000D03*
X185326140Y-127875000D03*
X182323860Y-126925000D03*
D12*
X189600000Y-127450000D03*
X189600000Y-125550000D03*
X187750000Y-123650000D03*
X187750000Y-125550000D03*
D13*
X202700000Y-114500000D03*
X200800000Y-114500000D03*
X202700000Y-120000000D03*
X200800000Y-120000000D03*
D12*
X208000000Y-97800000D03*
X208000000Y-99700000D03*
D14*
X206710000Y-77710000D03*
X206710000Y-82790000D03*
X211790000Y-82790000D03*
X211790000Y-77710000D03*
D15*
X209250000Y-80250000D03*
D16*
X188750000Y-68550000D03*
X188750000Y-83950000D03*
D17*
X189625000Y-123600000D03*
X189625000Y-121400000D03*
D18*
X184775000Y-124350000D03*
X182575000Y-124350000D03*
D17*
X201000000Y-110400000D03*
X201000000Y-112600000D03*
X195750000Y-117400000D03*
X195750000Y-119600000D03*
X193750000Y-117400000D03*
X193750000Y-119600000D03*
X193000000Y-104150000D03*
X193000000Y-106350000D03*
X190700000Y-106350000D03*
X190700000Y-104150000D03*
X188000000Y-104150000D03*
X188000000Y-106350000D03*
D19*
X203400000Y-111700000D03*
X203400000Y-110750000D03*
X203400000Y-109800000D03*
X205600000Y-109800000D03*
X205600000Y-111700000D03*
X205600000Y-110750000D03*
D11*
X203001140Y-116300000D03*
X203001140Y-118200000D03*
X199998860Y-117250000D03*
D20*
X193500000Y-127250000D03*
D21*
X196040000Y-127250000D03*
X198580000Y-127250000D03*
X201120000Y-127250000D03*
X203660000Y-127250000D03*
X206200000Y-127250000D03*
D18*
X206100000Y-103900000D03*
X203900000Y-103900000D03*
D22*
X212700000Y-88700000D03*
D23*
X211600000Y-64200000D03*
D24*
X209060000Y-64200000D03*
D25*
X187550000Y-127050000D03*
X205000000Y-105300000D03*
X190875000Y-127450000D03*
X192750000Y-124375000D03*
X205750000Y-118225000D03*
X199425000Y-114500000D03*
X197275000Y-117400000D03*
X194750000Y-117400000D03*
X187825000Y-117400000D03*
X202300000Y-110750000D03*
X211525000Y-99200000D03*
X194750000Y-118525000D03*
X191150000Y-121200000D03*
X184375000Y-117175000D03*
X204650000Y-113725000D03*
X204650000Y-118175000D03*
X195800000Y-115925000D03*
X198550000Y-112600000D03*
X206850000Y-97700000D03*
X193750000Y-99425000D03*
X191100000Y-96800000D03*
X194000000Y-79500000D03*
X204800000Y-68700000D03*
X187100000Y-74600000D03*
X197800000Y-105100000D03*
X185800000Y-117400000D03*
X196750000Y-121550000D03*
X201425000Y-108875000D03*
X195760257Y-120849980D03*
X193675431Y-120995591D03*
X194325000Y-105050000D03*
X202750000Y-108725000D03*
X202375000Y-113050000D03*
X199650000Y-110425000D03*
X194575000Y-94550000D03*
X187107370Y-108226308D03*
X197425000Y-114275000D03*
X187100000Y-109250000D03*
X196600000Y-115050000D03*
X190800000Y-102575000D03*
X182600000Y-95675000D03*
X204575000Y-108650000D03*
X199825000Y-108875000D03*
X209100000Y-100450000D03*
X188250000Y-121400000D03*
X186300000Y-124350000D03*
D26*
X187849999Y-127349999D02*
X187550000Y-127050000D01*
X187950000Y-127450000D02*
X187849999Y-127349999D01*
X189600000Y-127450000D02*
X187950000Y-127450000D01*
X203900000Y-103900000D02*
X203900000Y-104200000D01*
X203900000Y-104200000D02*
X205000000Y-105300000D01*
X190875000Y-127450000D02*
X189600000Y-127450000D01*
X202075000Y-124375000D02*
X192750000Y-124375000D01*
X205750000Y-120700000D02*
X202075000Y-124375000D01*
X205750000Y-118225000D02*
X205750000Y-120700000D01*
D27*
X200800000Y-114500000D02*
X199425000Y-114500000D01*
X193750000Y-117400000D02*
X194750000Y-117400000D01*
X197425000Y-117250000D02*
X199998860Y-117250000D01*
X197275000Y-117400000D02*
X197425000Y-117250000D01*
X193750000Y-117400000D02*
X187825000Y-117400000D01*
X203400000Y-110750000D02*
X202300000Y-110750000D01*
D26*
X182323860Y-122650000D02*
X182824240Y-122650000D01*
X182824240Y-122650000D02*
X184524240Y-124350000D01*
X184524240Y-124350000D02*
X184775000Y-124350000D01*
X184925000Y-124350000D02*
X185625000Y-123650000D01*
X185625000Y-123650000D02*
X187175000Y-123650000D01*
X187175000Y-123650000D02*
X187750000Y-123650000D01*
X187075000Y-123650000D02*
X187750000Y-123650000D01*
D27*
X206275000Y-114500000D02*
X202700000Y-114500000D01*
X207325000Y-113450000D02*
X206275000Y-114500000D01*
X207325000Y-103400000D02*
X207325000Y-113450000D01*
X211525000Y-99200000D02*
X207325000Y-103400000D01*
X202700000Y-114500000D02*
X203001140Y-114801140D01*
X203001140Y-114801140D02*
X203001140Y-116300000D01*
X206100000Y-103900000D02*
X206100000Y-104750000D01*
X206100000Y-104750000D02*
X206600000Y-105250000D01*
X206600000Y-105250000D02*
X206600000Y-110750000D01*
X189625000Y-123600000D02*
X191000000Y-123600000D01*
X194750000Y-118525000D02*
X195750000Y-117525000D01*
X191150000Y-123450000D02*
X191150000Y-121200000D01*
X191000000Y-123600000D02*
X191150000Y-123450000D01*
X195750000Y-117525000D02*
X195750000Y-117400000D01*
X184375000Y-117175000D02*
X185625000Y-115925000D01*
X185625000Y-115925000D02*
X195800000Y-115925000D01*
X203001140Y-118200000D02*
X202600000Y-118200000D01*
X202600000Y-118200000D02*
X201475000Y-117075000D01*
X201275000Y-115925000D02*
X195800000Y-115925000D01*
X201475000Y-116125000D02*
X201275000Y-115925000D01*
X201475000Y-117075000D02*
X201475000Y-116125000D01*
X203001140Y-118200000D02*
X204625000Y-118200000D01*
X206600000Y-110750000D02*
X205600000Y-110750000D01*
X206600000Y-113150000D02*
X206600000Y-110750000D01*
X206025000Y-113725000D02*
X206600000Y-113150000D01*
X204650000Y-113725000D02*
X206025000Y-113725000D01*
X204625000Y-118200000D02*
X204650000Y-118175000D01*
X201000000Y-112600000D02*
X198550000Y-112600000D01*
X195750000Y-115975000D02*
X195750000Y-117400000D01*
X195800000Y-115925000D02*
X195750000Y-115975000D01*
X203001140Y-118200000D02*
X203001140Y-119698860D01*
X203001140Y-119698860D02*
X202700000Y-120000000D01*
D26*
X206850000Y-97700000D02*
X206950000Y-97800000D01*
X206950000Y-97800000D02*
X208000000Y-97800000D01*
D27*
X191100000Y-96800000D02*
X191125000Y-96800000D01*
X191125000Y-96800000D02*
X193750000Y-99425000D01*
X204800000Y-68700000D02*
X194000000Y-79500000D01*
X193750000Y-100750000D02*
X193750000Y-103400000D01*
X193750000Y-103400000D02*
X193000000Y-104150000D01*
D26*
X187399999Y-74899999D02*
X187100000Y-74600000D01*
X192750000Y-80250000D02*
X187399999Y-74899999D01*
X209250000Y-80250000D02*
X192750000Y-80250000D01*
X199750000Y-92838002D02*
X199750000Y-103150000D01*
X199750000Y-103150000D02*
X197800000Y-105100000D01*
X188750000Y-81838002D02*
X188750000Y-81100000D01*
X199750000Y-92838002D02*
X188750000Y-81838002D01*
X187626571Y-120499999D02*
X187626571Y-119226571D01*
X187626571Y-119226571D02*
X185800000Y-117400000D01*
X193754875Y-121700021D02*
X193178873Y-121700021D01*
X186426570Y-121700000D02*
X185326140Y-121700000D01*
X196750000Y-121550000D02*
X193904896Y-121550000D01*
X193904896Y-121550000D02*
X193754875Y-121700021D01*
X187626571Y-120499999D02*
X186426570Y-121700000D01*
X193178873Y-121700021D02*
X191978851Y-120499999D01*
X191978851Y-120499999D02*
X187626571Y-120499999D01*
X201000000Y-110400000D02*
X201000000Y-109300000D01*
X201000000Y-109300000D02*
X201425000Y-108875000D01*
X195750000Y-120839723D02*
X195760257Y-120849980D01*
X195750000Y-119600000D02*
X195750000Y-120839723D01*
X193750000Y-120921022D02*
X193675431Y-120995591D01*
X193750000Y-119600000D02*
X193750000Y-120921022D01*
X202750000Y-108725000D02*
X203400000Y-109375000D01*
X203400000Y-109800000D02*
X203400000Y-109375000D01*
X194325000Y-105050000D02*
X193025000Y-106350000D01*
X193000000Y-106350000D02*
X193025000Y-106350000D01*
X190700000Y-106350000D02*
X193000000Y-106350000D01*
X190700000Y-104150000D02*
X188000000Y-104150000D01*
X203400000Y-111700000D02*
X203400000Y-112025000D01*
X203400000Y-112025000D02*
X202375000Y-113050000D01*
X199650000Y-110425000D02*
X196750000Y-107525000D01*
X196750000Y-107525000D02*
X196750000Y-96725000D01*
X196750000Y-96725000D02*
X194575000Y-94550000D01*
X187407369Y-108526307D02*
X187107370Y-108226308D01*
X197425000Y-114275000D02*
X193156062Y-114275000D01*
X193156062Y-114275000D02*
X187407369Y-108526307D01*
X187399999Y-109549999D02*
X187100000Y-109250000D01*
X192900000Y-115050000D02*
X187399999Y-109549999D01*
X196600000Y-115050000D02*
X192900000Y-115050000D01*
X190350000Y-98225000D02*
X189225000Y-98225000D01*
X190800000Y-102575000D02*
X190800000Y-98675000D01*
X190800000Y-98675000D02*
X190350000Y-98225000D01*
X186675000Y-95675000D02*
X182600000Y-95675000D01*
X189225000Y-98225000D02*
X186675000Y-95675000D01*
X205600000Y-109800000D02*
X205600000Y-109675000D01*
X205600000Y-109675000D02*
X204575000Y-108650000D01*
X199825000Y-108875000D02*
X200700000Y-108000000D01*
X200700000Y-108000000D02*
X203050000Y-108000000D01*
X203050000Y-108000000D02*
X204500000Y-109450000D01*
X204500000Y-109450000D02*
X204500000Y-111700000D01*
X204500000Y-111700000D02*
X205600000Y-111700000D01*
D27*
X209100000Y-100450000D02*
X208350000Y-99700000D01*
X208350000Y-99700000D02*
X208000000Y-99700000D01*
D26*
X182575000Y-125350000D02*
X182575000Y-124750010D01*
X182575000Y-126073810D02*
X182575000Y-125350000D01*
X182575000Y-125350000D02*
X182650051Y-125274949D01*
X182650051Y-125274949D02*
X185375051Y-125274949D01*
X186000001Y-124649999D02*
X186300000Y-124350000D01*
X185375051Y-125274949D02*
X186000001Y-124649999D01*
X182323860Y-126925000D02*
X182323860Y-126324950D01*
X182323860Y-126324950D02*
X182575000Y-126073810D01*
X188250000Y-121400000D02*
X189625000Y-121400000D01*
D28*
G36*
X207898224Y-63006036D02*
X207542066Y-63539063D01*
X207417000Y-64167812D01*
X207417000Y-64232188D01*
X207542066Y-64860937D01*
X207898224Y-65393964D01*
X208431251Y-65750122D01*
X209060000Y-65875188D01*
X209688749Y-65750122D01*
X210031670Y-65520989D01*
X210052455Y-65571167D01*
X210228833Y-65747545D01*
X210459282Y-65843000D01*
X211320250Y-65843000D01*
X211477000Y-65686250D01*
X211477000Y-64323000D01*
X211723000Y-64323000D01*
X211723000Y-65686250D01*
X211879750Y-65843000D01*
X212740718Y-65843000D01*
X212971167Y-65747545D01*
X213147545Y-65571167D01*
X213243000Y-65340718D01*
X213243000Y-64479750D01*
X213086250Y-64323000D01*
X211723000Y-64323000D01*
X211477000Y-64323000D01*
X211457000Y-64323000D01*
X211457000Y-64077000D01*
X211477000Y-64077000D01*
X211477000Y-64057000D01*
X211723000Y-64057000D01*
X211723000Y-64077000D01*
X213086250Y-64077000D01*
X213243000Y-63920250D01*
X213243000Y-63059282D01*
X213188207Y-62927000D01*
X213433320Y-62927000D01*
X213618532Y-62963841D01*
X213719017Y-63030983D01*
X213786159Y-63131468D01*
X213823000Y-63316679D01*
X213823000Y-77985282D01*
X213808407Y-77265783D01*
X213531338Y-76596880D01*
X213224717Y-76449231D01*
X211963948Y-77710000D01*
X213224717Y-78970769D01*
X213531338Y-78823120D01*
X213823000Y-78076511D01*
X213823000Y-83065282D01*
X213808407Y-82345783D01*
X213531338Y-81676880D01*
X213224717Y-81529231D01*
X211963948Y-82790000D01*
X213224717Y-84050769D01*
X213531338Y-83903120D01*
X213823000Y-83156511D01*
X213823000Y-87355568D01*
X213689527Y-87221862D01*
X213048545Y-86955703D01*
X212354500Y-86955098D01*
X211713054Y-87220137D01*
X211221862Y-87710473D01*
X210955703Y-88351455D01*
X210955098Y-89045500D01*
X211220137Y-89686946D01*
X211710473Y-90178138D01*
X212351455Y-90444297D01*
X213045500Y-90444902D01*
X213686946Y-90179863D01*
X213823000Y-90044046D01*
X213823000Y-106123000D01*
X208152000Y-106123000D01*
X208152000Y-103742554D01*
X211808803Y-100085751D01*
X212049417Y-99986331D01*
X212310414Y-99725789D01*
X212451839Y-99385201D01*
X212452161Y-99016417D01*
X212311331Y-98675583D01*
X212050789Y-98414586D01*
X211710201Y-98273161D01*
X211341417Y-98272839D01*
X211000583Y-98413669D01*
X210739586Y-98674211D01*
X210639002Y-98916444D01*
X209758209Y-99797237D01*
X209625789Y-99664586D01*
X209383556Y-99564002D01*
X209014283Y-99194729D01*
X209014283Y-99100000D01*
X208970563Y-98867648D01*
X208894788Y-98749890D01*
X208963917Y-98648717D01*
X209014283Y-98400000D01*
X209014283Y-97200000D01*
X208970563Y-96967648D01*
X208833243Y-96754247D01*
X208623717Y-96611083D01*
X208375000Y-96560717D01*
X207625000Y-96560717D01*
X207392648Y-96604437D01*
X207179247Y-96741757D01*
X207130696Y-96812814D01*
X207035201Y-96773161D01*
X206666417Y-96772839D01*
X206325583Y-96913669D01*
X206064586Y-97174211D01*
X205923161Y-97514799D01*
X205922839Y-97883583D01*
X206063669Y-98224417D01*
X206324211Y-98485414D01*
X206664799Y-98626839D01*
X207028459Y-98627157D01*
X207029437Y-98632352D01*
X207105212Y-98750110D01*
X207036083Y-98851283D01*
X206985717Y-99100000D01*
X206985717Y-100300000D01*
X207029437Y-100532352D01*
X207166757Y-100745753D01*
X207376283Y-100888917D01*
X207625000Y-100939283D01*
X208299152Y-100939283D01*
X208313669Y-100974417D01*
X208447232Y-101108214D01*
X206740223Y-102815223D01*
X206738081Y-102818429D01*
X206700000Y-102810717D01*
X205500000Y-102810717D01*
X205267648Y-102854437D01*
X205054247Y-102991757D01*
X205000666Y-103070174D01*
X204958243Y-103004247D01*
X204748717Y-102861083D01*
X204500000Y-102810717D01*
X203300000Y-102810717D01*
X203067648Y-102854437D01*
X202854247Y-102991757D01*
X202711083Y-103201283D01*
X202660717Y-103450000D01*
X202660717Y-104350000D01*
X202704437Y-104582352D01*
X202841757Y-104795753D01*
X203051283Y-104938917D01*
X203300000Y-104989283D01*
X203661149Y-104989283D01*
X204072911Y-105401045D01*
X204072839Y-105483583D01*
X204213669Y-105824417D01*
X204474211Y-106085414D01*
X204814799Y-106226839D01*
X205183583Y-106227161D01*
X205524417Y-106086331D01*
X205773000Y-105838181D01*
X205773000Y-108819866D01*
X205502089Y-108548955D01*
X205502161Y-108466417D01*
X205361331Y-108125583D01*
X205100789Y-107864586D01*
X204760201Y-107723161D01*
X204391417Y-107722839D01*
X204050583Y-107863669D01*
X203996145Y-107918012D01*
X203564067Y-107485933D01*
X203496661Y-107440894D01*
X203328211Y-107328340D01*
X203282052Y-107319158D01*
X203050000Y-107272999D01*
X203049995Y-107273000D01*
X200700005Y-107273000D01*
X200700000Y-107272999D01*
X200467948Y-107319158D01*
X200421789Y-107328340D01*
X200253339Y-107440894D01*
X200185933Y-107485933D01*
X199723955Y-107947911D01*
X199641417Y-107947839D01*
X199300583Y-108088669D01*
X199039586Y-108349211D01*
X198911297Y-108658164D01*
X197477000Y-107223866D01*
X197477000Y-105969620D01*
X197614799Y-106026839D01*
X197983583Y-106027161D01*
X198324417Y-105886331D01*
X198585414Y-105625789D01*
X198726839Y-105285201D01*
X198726912Y-105201221D01*
X200264064Y-103664069D01*
X200264067Y-103664067D01*
X200421660Y-103428211D01*
X200477000Y-103150000D01*
X200477000Y-92838002D01*
X200421660Y-92559791D01*
X200264067Y-92323935D01*
X200264064Y-92323933D01*
X192164849Y-84224717D01*
X205449231Y-84224717D01*
X205596880Y-84531338D01*
X206347992Y-84824759D01*
X207154217Y-84808407D01*
X207823120Y-84531338D01*
X207970769Y-84224717D01*
X210529231Y-84224717D01*
X210676880Y-84531338D01*
X211427992Y-84824759D01*
X212234217Y-84808407D01*
X212903120Y-84531338D01*
X213050769Y-84224717D01*
X211790000Y-82963948D01*
X210529231Y-84224717D01*
X207970769Y-84224717D01*
X206710000Y-82963948D01*
X205449231Y-84224717D01*
X192164849Y-84224717D01*
X191539283Y-83599151D01*
X191539283Y-82427992D01*
X204675241Y-82427992D01*
X204691593Y-83234217D01*
X204968662Y-83903120D01*
X205275283Y-84050769D01*
X206536052Y-82790000D01*
X205275283Y-81529231D01*
X204968662Y-81676880D01*
X204675241Y-82427992D01*
X191539283Y-82427992D01*
X191539283Y-81100000D01*
X191495563Y-80867648D01*
X191358243Y-80654247D01*
X191148717Y-80511083D01*
X190900000Y-80460717D01*
X189076667Y-80460717D01*
X189028211Y-80428340D01*
X188750000Y-80373000D01*
X188471789Y-80428340D01*
X188423333Y-80460717D01*
X186600000Y-80460717D01*
X186367648Y-80504437D01*
X186154247Y-80641757D01*
X186011083Y-80851283D01*
X185960717Y-81100000D01*
X185960717Y-86800000D01*
X186004437Y-87032352D01*
X186141757Y-87245753D01*
X186351283Y-87388917D01*
X186600000Y-87439283D01*
X190900000Y-87439283D01*
X191132352Y-87395563D01*
X191345753Y-87258243D01*
X191488917Y-87048717D01*
X191539283Y-86800000D01*
X191539283Y-85655419D01*
X199023000Y-93139135D01*
X199023000Y-102848867D01*
X197698955Y-104172911D01*
X197616417Y-104172839D01*
X197477000Y-104230445D01*
X197477000Y-96725000D01*
X197421660Y-96446789D01*
X197264067Y-96210933D01*
X197264064Y-96210931D01*
X195502089Y-94448955D01*
X195502161Y-94366417D01*
X195361331Y-94025583D01*
X195100789Y-93764586D01*
X194760201Y-93623161D01*
X194391417Y-93622839D01*
X194050583Y-93763669D01*
X193789586Y-94024211D01*
X193648161Y-94364799D01*
X193647839Y-94733583D01*
X193788669Y-95074417D01*
X194049211Y-95335414D01*
X194389799Y-95476839D01*
X194473779Y-95476912D01*
X196023000Y-97026133D01*
X196023000Y-107524995D01*
X196022999Y-107525000D01*
X196057913Y-107700519D01*
X196078340Y-107803211D01*
X196218008Y-108012240D01*
X196235933Y-108039067D01*
X198722911Y-110526044D01*
X198722839Y-110608583D01*
X198863669Y-110949417D01*
X199124211Y-111210414D01*
X199464799Y-111351839D01*
X199833583Y-111352161D01*
X199989955Y-111287549D01*
X200091757Y-111445753D01*
X200170174Y-111499334D01*
X200104247Y-111541757D01*
X199961083Y-111751283D01*
X199956685Y-111773000D01*
X198975639Y-111773000D01*
X198735201Y-111673161D01*
X198366417Y-111672839D01*
X198025583Y-111813669D01*
X197764586Y-112074211D01*
X197623161Y-112414799D01*
X197622839Y-112783583D01*
X197763669Y-113124417D01*
X198024211Y-113385414D01*
X198364799Y-113526839D01*
X198733583Y-113527161D01*
X198975991Y-113427000D01*
X199953430Y-113427000D01*
X199954437Y-113432352D01*
X200013222Y-113523706D01*
X199844833Y-113593455D01*
X199668455Y-113769833D01*
X199573000Y-114000282D01*
X199573000Y-114220250D01*
X199729750Y-114377000D01*
X200677000Y-114377000D01*
X200677000Y-114357000D01*
X200923000Y-114357000D01*
X200923000Y-114377000D01*
X200943000Y-114377000D01*
X200943000Y-114623000D01*
X200923000Y-114623000D01*
X200923000Y-114643000D01*
X200677000Y-114643000D01*
X200677000Y-114623000D01*
X199729750Y-114623000D01*
X199573000Y-114779750D01*
X199573000Y-114999718D01*
X199613710Y-115098000D01*
X197860671Y-115098000D01*
X197949417Y-115061331D01*
X198210414Y-114800789D01*
X198351839Y-114460201D01*
X198352161Y-114091417D01*
X198211331Y-113750583D01*
X197950789Y-113489586D01*
X197610201Y-113348161D01*
X197241417Y-113347839D01*
X196900583Y-113488669D01*
X196841148Y-113548000D01*
X193457195Y-113548000D01*
X188034459Y-108125263D01*
X188034531Y-108042725D01*
X187893701Y-107701891D01*
X187744660Y-107552590D01*
X187877000Y-107420250D01*
X187877000Y-106473000D01*
X188123000Y-106473000D01*
X188123000Y-107420250D01*
X188279750Y-107577000D01*
X188574718Y-107577000D01*
X188805167Y-107481545D01*
X188981545Y-107305167D01*
X189077000Y-107074718D01*
X189077000Y-106629750D01*
X188920250Y-106473000D01*
X188123000Y-106473000D01*
X187877000Y-106473000D01*
X187079750Y-106473000D01*
X186923000Y-106629750D01*
X186923000Y-107074718D01*
X187015995Y-107299228D01*
X186923787Y-107299147D01*
X186582953Y-107439977D01*
X186321956Y-107700519D01*
X186180531Y-108041107D01*
X186180209Y-108409891D01*
X186312329Y-108729646D01*
X186173161Y-109064799D01*
X186172839Y-109433583D01*
X186313669Y-109774417D01*
X186574211Y-110035414D01*
X186914799Y-110176839D01*
X186998778Y-110176912D01*
X191919866Y-115098000D01*
X185625000Y-115098000D01*
X185308521Y-115160952D01*
X185040223Y-115340223D01*
X184091197Y-116289249D01*
X183850583Y-116388669D01*
X183589586Y-116649211D01*
X183448161Y-116989799D01*
X183447839Y-117358583D01*
X183588669Y-117699417D01*
X183849211Y-117960414D01*
X184189799Y-118101839D01*
X184558583Y-118102161D01*
X184899417Y-117961331D01*
X184991103Y-117869804D01*
X185013669Y-117924417D01*
X185274211Y-118185414D01*
X185614799Y-118326839D01*
X185698779Y-118326912D01*
X186899571Y-119527704D01*
X186899571Y-120198866D01*
X186402203Y-120696233D01*
X186226570Y-120660667D01*
X184425710Y-120660667D01*
X184193358Y-120704387D01*
X183979957Y-120841707D01*
X183851290Y-121030016D01*
X183851290Y-121029750D01*
X183694540Y-120873000D01*
X182446860Y-120873000D01*
X182446860Y-120893000D01*
X182200860Y-120893000D01*
X182200860Y-120873000D01*
X180953180Y-120873000D01*
X180796430Y-121029750D01*
X180796430Y-121274768D01*
X180891885Y-121505217D01*
X181068263Y-121681595D01*
X181117258Y-121701889D01*
X180977677Y-121791707D01*
X180834513Y-122001233D01*
X180784147Y-122249950D01*
X180784147Y-123050050D01*
X180827867Y-123282402D01*
X180965187Y-123495803D01*
X181174713Y-123638967D01*
X181380152Y-123680569D01*
X181335717Y-123900000D01*
X181335717Y-124800000D01*
X181379437Y-125032352D01*
X181516757Y-125245753D01*
X181726283Y-125388917D01*
X181848000Y-125413565D01*
X181848000Y-125772676D01*
X181809793Y-125810883D01*
X181759824Y-125885667D01*
X181423430Y-125885667D01*
X181191078Y-125929387D01*
X180977677Y-126066707D01*
X180834513Y-126276233D01*
X180784147Y-126524950D01*
X180784147Y-127325050D01*
X180827867Y-127557402D01*
X180965187Y-127770803D01*
X181174713Y-127913967D01*
X181423430Y-127964333D01*
X183224290Y-127964333D01*
X183456642Y-127920613D01*
X183670043Y-127783293D01*
X183798710Y-127594984D01*
X183798710Y-127595250D01*
X183955460Y-127752000D01*
X185203140Y-127752000D01*
X185203140Y-127732000D01*
X185449140Y-127732000D01*
X185449140Y-127752000D01*
X186696820Y-127752000D01*
X186818988Y-127629832D01*
X187024211Y-127835414D01*
X187364799Y-127976839D01*
X187455166Y-127976918D01*
X187671789Y-128121660D01*
X187682945Y-128123879D01*
X187950000Y-128177001D01*
X187950005Y-128177000D01*
X188609614Y-128177000D01*
X188629437Y-128282352D01*
X188766757Y-128495753D01*
X188976283Y-128638917D01*
X189225000Y-128689283D01*
X189975000Y-128689283D01*
X190207352Y-128645563D01*
X190420753Y-128508243D01*
X190550157Y-128318855D01*
X190689799Y-128376839D01*
X191058583Y-128377161D01*
X191399417Y-128236331D01*
X191660414Y-127975789D01*
X191801839Y-127635201D01*
X191802161Y-127266417D01*
X191661331Y-126925583D01*
X191400789Y-126664586D01*
X191060201Y-126523161D01*
X190691417Y-126522839D01*
X190547753Y-126582200D01*
X190501457Y-126510255D01*
X190506545Y-126505167D01*
X190602000Y-126274718D01*
X190602000Y-126109282D01*
X192009400Y-126109282D01*
X192009400Y-126970250D01*
X192166150Y-127127000D01*
X193377000Y-127127000D01*
X193377000Y-125763750D01*
X193623000Y-125763750D01*
X193623000Y-127127000D01*
X195917000Y-127127000D01*
X195917000Y-125769433D01*
X195686128Y-125649614D01*
X195663156Y-125653872D01*
X195139351Y-125907981D01*
X194981028Y-126086173D01*
X194895145Y-125878833D01*
X194718767Y-125702455D01*
X194488318Y-125607000D01*
X193779750Y-125607000D01*
X193623000Y-125763750D01*
X193377000Y-125763750D01*
X193220250Y-125607000D01*
X192511682Y-125607000D01*
X192281233Y-125702455D01*
X192104855Y-125878833D01*
X192009400Y-126109282D01*
X190602000Y-126109282D01*
X190602000Y-125829750D01*
X190445250Y-125673000D01*
X189723000Y-125673000D01*
X189723000Y-125693000D01*
X189477000Y-125693000D01*
X189477000Y-125673000D01*
X188754750Y-125673000D01*
X188675000Y-125752750D01*
X188595250Y-125673000D01*
X187873000Y-125673000D01*
X187873000Y-125693000D01*
X187627000Y-125693000D01*
X187627000Y-125673000D01*
X187607000Y-125673000D01*
X187607000Y-125427000D01*
X187627000Y-125427000D01*
X187627000Y-125407000D01*
X187873000Y-125407000D01*
X187873000Y-125427000D01*
X188595250Y-125427000D01*
X188675000Y-125347250D01*
X188754750Y-125427000D01*
X189477000Y-125427000D01*
X189477000Y-125407000D01*
X189723000Y-125407000D01*
X189723000Y-125427000D01*
X190445250Y-125427000D01*
X190602000Y-125270250D01*
X190602000Y-124825282D01*
X190528260Y-124647257D01*
X190663917Y-124448717D01*
X190668315Y-124427000D01*
X191000000Y-124427000D01*
X191316479Y-124364048D01*
X191584777Y-124184777D01*
X191734777Y-124034777D01*
X191914048Y-123766479D01*
X191977000Y-123450000D01*
X191977000Y-121625639D01*
X192006152Y-121555434D01*
X192664804Y-122214085D01*
X192664806Y-122214088D01*
X192900662Y-122371681D01*
X193178873Y-122427021D01*
X193754870Y-122427021D01*
X193754875Y-122427022D01*
X193986927Y-122380863D01*
X194033086Y-122371681D01*
X194174787Y-122277000D01*
X196165899Y-122277000D01*
X196224211Y-122335414D01*
X196564799Y-122476839D01*
X196933583Y-122477161D01*
X197274417Y-122336331D01*
X197535414Y-122075789D01*
X197676839Y-121735201D01*
X197677161Y-121366417D01*
X197536331Y-121025583D01*
X197275789Y-120764586D01*
X196935201Y-120623161D01*
X196669882Y-120622929D01*
X196788917Y-120448717D01*
X196823133Y-120279750D01*
X199573000Y-120279750D01*
X199573000Y-120499718D01*
X199668455Y-120730167D01*
X199844833Y-120906545D01*
X200075282Y-121002000D01*
X200520250Y-121002000D01*
X200677000Y-120845250D01*
X200677000Y-120123000D01*
X199729750Y-120123000D01*
X199573000Y-120279750D01*
X196823133Y-120279750D01*
X196839283Y-120200000D01*
X196839283Y-119500282D01*
X199573000Y-119500282D01*
X199573000Y-119720250D01*
X199729750Y-119877000D01*
X200677000Y-119877000D01*
X200677000Y-119154750D01*
X200520250Y-118998000D01*
X200075282Y-118998000D01*
X199844833Y-119093455D01*
X199668455Y-119269833D01*
X199573000Y-119500282D01*
X196839283Y-119500282D01*
X196839283Y-119000000D01*
X196795563Y-118767648D01*
X196658243Y-118554247D01*
X196579826Y-118500666D01*
X196645753Y-118458243D01*
X196788917Y-118248717D01*
X196839283Y-118000000D01*
X196839283Y-117529750D01*
X198471430Y-117529750D01*
X198471430Y-117774768D01*
X198566885Y-118005217D01*
X198743263Y-118181595D01*
X198973712Y-118277050D01*
X199719110Y-118277050D01*
X199875860Y-118120300D01*
X199875860Y-117373000D01*
X198628180Y-117373000D01*
X198471430Y-117529750D01*
X196839283Y-117529750D01*
X196839283Y-116800000D01*
X196830251Y-116752000D01*
X198471430Y-116752000D01*
X198471430Y-116970250D01*
X198628180Y-117127000D01*
X199875860Y-117127000D01*
X199875860Y-117107000D01*
X200121860Y-117107000D01*
X200121860Y-117127000D01*
X200141860Y-117127000D01*
X200141860Y-117373000D01*
X200121860Y-117373000D01*
X200121860Y-118120300D01*
X200278610Y-118277050D01*
X201024008Y-118277050D01*
X201254457Y-118181595D01*
X201333249Y-118102803D01*
X201461427Y-118230981D01*
X201461427Y-118600050D01*
X201505147Y-118832402D01*
X201642467Y-119045803D01*
X201646073Y-119048267D01*
X201524718Y-118998000D01*
X201079750Y-118998000D01*
X200923000Y-119154750D01*
X200923000Y-119877000D01*
X200943000Y-119877000D01*
X200943000Y-120123000D01*
X200923000Y-120123000D01*
X200923000Y-120845250D01*
X201079750Y-121002000D01*
X201524718Y-121002000D01*
X201755167Y-120906545D01*
X201760099Y-120901613D01*
X201851283Y-120963917D01*
X202100000Y-121014283D01*
X203300000Y-121014283D01*
X203532352Y-120970563D01*
X203745753Y-120833243D01*
X203888917Y-120623717D01*
X203939283Y-120375000D01*
X203939283Y-119625000D01*
X203895563Y-119392648D01*
X203828140Y-119287870D01*
X203828140Y-119239333D01*
X203901570Y-119239333D01*
X204133922Y-119195613D01*
X204347323Y-119058293D01*
X204350109Y-119054215D01*
X204464799Y-119101839D01*
X204833583Y-119102161D01*
X205023000Y-119023895D01*
X205023000Y-120398866D01*
X201773866Y-123648000D01*
X193334101Y-123648000D01*
X193275789Y-123589586D01*
X192935201Y-123448161D01*
X192566417Y-123447839D01*
X192225583Y-123588669D01*
X191964586Y-123849211D01*
X191823161Y-124189799D01*
X191822839Y-124558583D01*
X191963669Y-124899417D01*
X192224211Y-125160414D01*
X192564799Y-125301839D01*
X192933583Y-125302161D01*
X193274417Y-125161331D01*
X193333852Y-125102000D01*
X202074995Y-125102000D01*
X202075000Y-125102001D01*
X202307052Y-125055842D01*
X202353211Y-125046660D01*
X202589067Y-124889067D01*
X206264067Y-121214067D01*
X206282865Y-121185933D01*
X206421660Y-120978211D01*
X206435915Y-120906545D01*
X206477001Y-120700000D01*
X206477000Y-120699995D01*
X206477000Y-118809101D01*
X206535414Y-118750789D01*
X206676839Y-118410201D01*
X206677161Y-118041417D01*
X206536331Y-117700583D01*
X206275789Y-117439586D01*
X205935201Y-117298161D01*
X205566417Y-117297839D01*
X205225583Y-117438669D01*
X205225184Y-117439067D01*
X205175789Y-117389586D01*
X204835201Y-117248161D01*
X204466417Y-117247839D01*
X204302985Y-117315368D01*
X204206099Y-117249168D01*
X204347323Y-117158293D01*
X204490487Y-116948767D01*
X204540853Y-116700050D01*
X204540853Y-115899950D01*
X204497133Y-115667598D01*
X204359813Y-115454197D01*
X204173655Y-115327000D01*
X206275000Y-115327000D01*
X206591479Y-115264048D01*
X206859777Y-115084777D01*
X207623000Y-114321554D01*
X207623000Y-124250000D01*
X207631685Y-124296159D01*
X207658965Y-124338553D01*
X207700590Y-124366994D01*
X207750000Y-124377000D01*
X208148536Y-124377000D01*
X207915456Y-124725829D01*
X207884734Y-124800000D01*
X207814369Y-124969874D01*
X207586008Y-126117924D01*
X207586008Y-126184604D01*
X207573000Y-126250000D01*
X207573000Y-126488796D01*
X207254013Y-126011399D01*
X206770428Y-125688277D01*
X206200000Y-125574812D01*
X205629572Y-125688277D01*
X205145987Y-126011399D01*
X204930000Y-126334646D01*
X204714013Y-126011399D01*
X204230428Y-125688277D01*
X203660000Y-125574812D01*
X203089572Y-125688277D01*
X202605987Y-126011399D01*
X202390000Y-126334646D01*
X202174013Y-126011399D01*
X201690428Y-125688277D01*
X201120000Y-125574812D01*
X200549572Y-125688277D01*
X200065987Y-126011399D01*
X199850000Y-126334646D01*
X199634013Y-126011399D01*
X199150428Y-125688277D01*
X198580000Y-125574812D01*
X198009572Y-125688277D01*
X197525987Y-126011399D01*
X197314180Y-126328389D01*
X196940649Y-125907981D01*
X196416844Y-125653872D01*
X196393872Y-125649614D01*
X196163000Y-125769433D01*
X196163000Y-127127000D01*
X196183000Y-127127000D01*
X196183000Y-127373000D01*
X196163000Y-127373000D01*
X196163000Y-127393000D01*
X195917000Y-127393000D01*
X195917000Y-127373000D01*
X193623000Y-127373000D01*
X193623000Y-127393000D01*
X193377000Y-127393000D01*
X193377000Y-127373000D01*
X192166150Y-127373000D01*
X192009400Y-127529750D01*
X192009400Y-128390718D01*
X192104855Y-128621167D01*
X192281233Y-128797545D01*
X192342687Y-128823000D01*
X186542132Y-128823000D01*
X186581737Y-128806595D01*
X186758115Y-128630217D01*
X186853570Y-128399768D01*
X186853570Y-128154750D01*
X186696820Y-127998000D01*
X185449140Y-127998000D01*
X185449140Y-128018000D01*
X185203140Y-128018000D01*
X185203140Y-127998000D01*
X183955460Y-127998000D01*
X183798710Y-128154750D01*
X183798710Y-128399768D01*
X183894165Y-128630217D01*
X184070543Y-128806595D01*
X184110148Y-128823000D01*
X181066679Y-128823000D01*
X180881468Y-128786159D01*
X180780983Y-128719017D01*
X180713841Y-128618532D01*
X180677000Y-128433320D01*
X180677000Y-120225232D01*
X180796430Y-120225232D01*
X180796430Y-120470250D01*
X180953180Y-120627000D01*
X182200860Y-120627000D01*
X182200860Y-119879700D01*
X182446860Y-119879700D01*
X182446860Y-120627000D01*
X183694540Y-120627000D01*
X183851290Y-120470250D01*
X183851290Y-120225232D01*
X183755835Y-119994783D01*
X183579457Y-119818405D01*
X183349008Y-119722950D01*
X182603610Y-119722950D01*
X182446860Y-119879700D01*
X182200860Y-119879700D01*
X182044110Y-119722950D01*
X181298712Y-119722950D01*
X181068263Y-119818405D01*
X180891885Y-119994783D01*
X180796430Y-120225232D01*
X180677000Y-120225232D01*
X180677000Y-112621720D01*
X181122675Y-112621720D01*
X181407829Y-113311846D01*
X181935376Y-113840316D01*
X182625004Y-114126674D01*
X183371720Y-114127325D01*
X184061846Y-113842171D01*
X184590316Y-113314624D01*
X184876674Y-112624996D01*
X184877325Y-111878280D01*
X184592171Y-111188154D01*
X184064624Y-110659684D01*
X183374996Y-110373326D01*
X182628280Y-110372675D01*
X181938154Y-110657829D01*
X181409684Y-111185376D01*
X181123326Y-111875004D01*
X181122675Y-112621720D01*
X180677000Y-112621720D01*
X180677000Y-95858583D01*
X181672839Y-95858583D01*
X181813669Y-96199417D01*
X182074211Y-96460414D01*
X182414799Y-96601839D01*
X182783583Y-96602161D01*
X183124417Y-96461331D01*
X183183852Y-96402000D01*
X186373866Y-96402000D01*
X188710931Y-98739064D01*
X188710933Y-98739067D01*
X188862325Y-98840223D01*
X188946790Y-98896661D01*
X189225000Y-98952001D01*
X189225005Y-98952000D01*
X190048866Y-98952000D01*
X190073000Y-98976134D01*
X190073000Y-101990899D01*
X190014586Y-102049211D01*
X189873161Y-102389799D01*
X189872839Y-102758583D01*
X189967182Y-102986911D01*
X189804247Y-103091757D01*
X189661083Y-103301283D01*
X189636435Y-103423000D01*
X189065386Y-103423000D01*
X189045563Y-103317648D01*
X188908243Y-103104247D01*
X188698717Y-102961083D01*
X188450000Y-102910717D01*
X187550000Y-102910717D01*
X187317648Y-102954437D01*
X187104247Y-103091757D01*
X186961083Y-103301283D01*
X186910717Y-103550000D01*
X186910717Y-104750000D01*
X186954437Y-104982352D01*
X187091757Y-105195753D01*
X187166479Y-105246809D01*
X187018455Y-105394833D01*
X186923000Y-105625282D01*
X186923000Y-106070250D01*
X187079750Y-106227000D01*
X187877000Y-106227000D01*
X187877000Y-106207000D01*
X188123000Y-106207000D01*
X188123000Y-106227000D01*
X188920250Y-106227000D01*
X189077000Y-106070250D01*
X189077000Y-105625282D01*
X188981545Y-105394833D01*
X188834421Y-105247709D01*
X188895753Y-105208243D01*
X189038917Y-104998717D01*
X189063565Y-104877000D01*
X189634614Y-104877000D01*
X189654437Y-104982352D01*
X189791757Y-105195753D01*
X189870174Y-105249334D01*
X189804247Y-105291757D01*
X189661083Y-105501283D01*
X189610717Y-105750000D01*
X189610717Y-106950000D01*
X189654437Y-107182352D01*
X189791757Y-107395753D01*
X190001283Y-107538917D01*
X190250000Y-107589283D01*
X191150000Y-107589283D01*
X191382352Y-107545563D01*
X191595753Y-107408243D01*
X191738917Y-107198717D01*
X191763565Y-107077000D01*
X191934614Y-107077000D01*
X191954437Y-107182352D01*
X192091757Y-107395753D01*
X192301283Y-107538917D01*
X192550000Y-107589283D01*
X193450000Y-107589283D01*
X193682352Y-107545563D01*
X193895753Y-107408243D01*
X194038917Y-107198717D01*
X194089283Y-106950000D01*
X194089283Y-106313851D01*
X194426044Y-105977089D01*
X194508583Y-105977161D01*
X194849417Y-105836331D01*
X195110414Y-105575789D01*
X195251839Y-105235201D01*
X195252161Y-104866417D01*
X195111331Y-104525583D01*
X194850789Y-104264586D01*
X194510201Y-104123161D01*
X194196667Y-104122887D01*
X194334777Y-103984777D01*
X194514048Y-103716479D01*
X194524473Y-103664067D01*
X194577000Y-103400000D01*
X194577000Y-100750000D01*
X194514048Y-100433521D01*
X194334777Y-100165223D01*
X194326288Y-100159551D01*
X194535414Y-99950789D01*
X194676839Y-99610201D01*
X194677161Y-99241417D01*
X194536331Y-98900583D01*
X194275789Y-98639586D01*
X194033557Y-98539002D01*
X191968147Y-96473593D01*
X191886331Y-96275583D01*
X191625789Y-96014586D01*
X191285201Y-95873161D01*
X190916417Y-95872839D01*
X190575583Y-96013669D01*
X190314586Y-96274211D01*
X190173161Y-96614799D01*
X190172839Y-96983583D01*
X190313669Y-97324417D01*
X190520880Y-97531990D01*
X190350000Y-97497999D01*
X190349995Y-97498000D01*
X189526133Y-97498000D01*
X187189067Y-95160933D01*
X187061639Y-95075789D01*
X186953211Y-95003340D01*
X186907052Y-94994158D01*
X186675000Y-94947999D01*
X186674995Y-94948000D01*
X183184101Y-94948000D01*
X183125789Y-94889586D01*
X182785201Y-94748161D01*
X182416417Y-94747839D01*
X182075583Y-94888669D01*
X181814586Y-95149211D01*
X181673161Y-95489799D01*
X181672839Y-95858583D01*
X180677000Y-95858583D01*
X180677000Y-74783583D01*
X186172839Y-74783583D01*
X186313669Y-75124417D01*
X186574211Y-75385414D01*
X186914799Y-75526839D01*
X186998778Y-75526912D01*
X192235933Y-80764067D01*
X192471789Y-80921660D01*
X192517948Y-80930842D01*
X192750000Y-80977001D01*
X192750005Y-80977000D01*
X205769887Y-80977000D01*
X205596880Y-81048662D01*
X205449231Y-81355283D01*
X206710000Y-82616052D01*
X206724143Y-82601910D01*
X206898091Y-82775858D01*
X206883948Y-82790000D01*
X208144717Y-84050769D01*
X208451338Y-83903120D01*
X208744759Y-83152008D01*
X208728407Y-82345783D01*
X208642511Y-82138413D01*
X208855025Y-82226656D01*
X209641524Y-82227343D01*
X209870600Y-82132691D01*
X209755241Y-82427992D01*
X209771593Y-83234217D01*
X210048662Y-83903120D01*
X210355283Y-84050769D01*
X211616052Y-82790000D01*
X211601910Y-82775858D01*
X211775858Y-82601910D01*
X211790000Y-82616052D01*
X213050769Y-81355283D01*
X212903120Y-81048662D01*
X212152008Y-80755241D01*
X211345783Y-80771593D01*
X211138413Y-80857489D01*
X211226656Y-80644975D01*
X211227343Y-79858476D01*
X211132691Y-79629400D01*
X211427992Y-79744759D01*
X212234217Y-79728407D01*
X212903120Y-79451338D01*
X213050769Y-79144717D01*
X211790000Y-77883948D01*
X211775858Y-77898091D01*
X211601910Y-77724143D01*
X211616052Y-77710000D01*
X210355283Y-76449231D01*
X210048662Y-76596880D01*
X209755241Y-77347992D01*
X209771593Y-78154217D01*
X209857489Y-78361587D01*
X209644975Y-78273344D01*
X208858476Y-78272657D01*
X208629400Y-78367309D01*
X208744759Y-78072008D01*
X208728407Y-77265783D01*
X208451338Y-76596880D01*
X208144717Y-76449231D01*
X206883948Y-77710000D01*
X206898091Y-77724143D01*
X206724143Y-77898091D01*
X206710000Y-77883948D01*
X205449231Y-79144717D01*
X205596880Y-79451338D01*
X205780324Y-79523000D01*
X195146554Y-79523000D01*
X197321562Y-77347992D01*
X204675241Y-77347992D01*
X204691593Y-78154217D01*
X204968662Y-78823120D01*
X205275283Y-78970769D01*
X206536052Y-77710000D01*
X205275283Y-76449231D01*
X204968662Y-76596880D01*
X204675241Y-77347992D01*
X197321562Y-77347992D01*
X198394271Y-76275283D01*
X205449231Y-76275283D01*
X206710000Y-77536052D01*
X207970769Y-76275283D01*
X210529231Y-76275283D01*
X211790000Y-77536052D01*
X213050769Y-76275283D01*
X212903120Y-75968662D01*
X212152008Y-75675241D01*
X211345783Y-75691593D01*
X210676880Y-75968662D01*
X210529231Y-76275283D01*
X207970769Y-76275283D01*
X207823120Y-75968662D01*
X207072008Y-75675241D01*
X206265783Y-75691593D01*
X205596880Y-75968662D01*
X205449231Y-76275283D01*
X198394271Y-76275283D01*
X202047834Y-72621720D01*
X209622675Y-72621720D01*
X209907829Y-73311846D01*
X210435376Y-73840316D01*
X211125004Y-74126674D01*
X211871720Y-74127325D01*
X212561846Y-73842171D01*
X213090316Y-73314624D01*
X213376674Y-72624996D01*
X213377325Y-71878280D01*
X213092171Y-71188154D01*
X212564624Y-70659684D01*
X211874996Y-70373326D01*
X211128280Y-70372675D01*
X210438154Y-70657829D01*
X209909684Y-71185376D01*
X209623326Y-71875004D01*
X209622675Y-72621720D01*
X202047834Y-72621720D01*
X205083805Y-69585750D01*
X205324417Y-69486331D01*
X205585414Y-69225789D01*
X205726839Y-68885201D01*
X205727161Y-68516417D01*
X205586331Y-68175583D01*
X205325789Y-67914586D01*
X204985201Y-67773161D01*
X204616417Y-67772839D01*
X204275583Y-67913669D01*
X204014586Y-68174211D01*
X203914002Y-68416443D01*
X193716197Y-78614249D01*
X193475583Y-78713669D01*
X193214586Y-78974211D01*
X193073161Y-79314799D01*
X193072979Y-79523000D01*
X193051134Y-79523000D01*
X188027089Y-74498955D01*
X188027161Y-74416417D01*
X187886331Y-74075583D01*
X187625789Y-73814586D01*
X187285201Y-73673161D01*
X186916417Y-73672839D01*
X186575583Y-73813669D01*
X186314586Y-74074211D01*
X186173161Y-74414799D01*
X186172839Y-74783583D01*
X180677000Y-74783583D01*
X180677000Y-68829750D01*
X185973000Y-68829750D01*
X185973000Y-71524718D01*
X186068455Y-71755167D01*
X186244833Y-71931545D01*
X186475282Y-72027000D01*
X188470250Y-72027000D01*
X188627000Y-71870250D01*
X188627000Y-68673000D01*
X188873000Y-68673000D01*
X188873000Y-71870250D01*
X189029750Y-72027000D01*
X191024718Y-72027000D01*
X191255167Y-71931545D01*
X191431545Y-71755167D01*
X191527000Y-71524718D01*
X191527000Y-68829750D01*
X191370250Y-68673000D01*
X188873000Y-68673000D01*
X188627000Y-68673000D01*
X186129750Y-68673000D01*
X185973000Y-68829750D01*
X180677000Y-68829750D01*
X180677000Y-65575282D01*
X185973000Y-65575282D01*
X185973000Y-68270250D01*
X186129750Y-68427000D01*
X188627000Y-68427000D01*
X188627000Y-65229750D01*
X188873000Y-65229750D01*
X188873000Y-68427000D01*
X191370250Y-68427000D01*
X191527000Y-68270250D01*
X191527000Y-65575282D01*
X191431545Y-65344833D01*
X191255167Y-65168455D01*
X191024718Y-65073000D01*
X189029750Y-65073000D01*
X188873000Y-65229750D01*
X188627000Y-65229750D01*
X188470250Y-65073000D01*
X186475282Y-65073000D01*
X186244833Y-65168455D01*
X186068455Y-65344833D01*
X185973000Y-65575282D01*
X180677000Y-65575282D01*
X180677000Y-63316680D01*
X180713841Y-63131468D01*
X180780983Y-63030983D01*
X180881468Y-62963841D01*
X181066679Y-62927000D01*
X208016509Y-62927000D01*
X207898224Y-63006036D01*
X207898224Y-63006036D01*
G37*
X207898224Y-63006036D02*
X207542066Y-63539063D01*
X207417000Y-64167812D01*
X207417000Y-64232188D01*
X207542066Y-64860937D01*
X207898224Y-65393964D01*
X208431251Y-65750122D01*
X209060000Y-65875188D01*
X209688749Y-65750122D01*
X210031670Y-65520989D01*
X210052455Y-65571167D01*
X210228833Y-65747545D01*
X210459282Y-65843000D01*
X211320250Y-65843000D01*
X211477000Y-65686250D01*
X211477000Y-64323000D01*
X211723000Y-64323000D01*
X211723000Y-65686250D01*
X211879750Y-65843000D01*
X212740718Y-65843000D01*
X212971167Y-65747545D01*
X213147545Y-65571167D01*
X213243000Y-65340718D01*
X213243000Y-64479750D01*
X213086250Y-64323000D01*
X211723000Y-64323000D01*
X211477000Y-64323000D01*
X211457000Y-64323000D01*
X211457000Y-64077000D01*
X211477000Y-64077000D01*
X211477000Y-64057000D01*
X211723000Y-64057000D01*
X211723000Y-64077000D01*
X213086250Y-64077000D01*
X213243000Y-63920250D01*
X213243000Y-63059282D01*
X213188207Y-62927000D01*
X213433320Y-62927000D01*
X213618532Y-62963841D01*
X213719017Y-63030983D01*
X213786159Y-63131468D01*
X213823000Y-63316679D01*
X213823000Y-77985282D01*
X213808407Y-77265783D01*
X213531338Y-76596880D01*
X213224717Y-76449231D01*
X211963948Y-77710000D01*
X213224717Y-78970769D01*
X213531338Y-78823120D01*
X213823000Y-78076511D01*
X213823000Y-83065282D01*
X213808407Y-82345783D01*
X213531338Y-81676880D01*
X213224717Y-81529231D01*
X211963948Y-82790000D01*
X213224717Y-84050769D01*
X213531338Y-83903120D01*
X213823000Y-83156511D01*
X213823000Y-87355568D01*
X213689527Y-87221862D01*
X213048545Y-86955703D01*
X212354500Y-86955098D01*
X211713054Y-87220137D01*
X211221862Y-87710473D01*
X210955703Y-88351455D01*
X210955098Y-89045500D01*
X211220137Y-89686946D01*
X211710473Y-90178138D01*
X212351455Y-90444297D01*
X213045500Y-90444902D01*
X213686946Y-90179863D01*
X213823000Y-90044046D01*
X213823000Y-106123000D01*
X208152000Y-106123000D01*
X208152000Y-103742554D01*
X211808803Y-100085751D01*
X212049417Y-99986331D01*
X212310414Y-99725789D01*
X212451839Y-99385201D01*
X212452161Y-99016417D01*
X212311331Y-98675583D01*
X212050789Y-98414586D01*
X211710201Y-98273161D01*
X211341417Y-98272839D01*
X211000583Y-98413669D01*
X210739586Y-98674211D01*
X210639002Y-98916444D01*
X209758209Y-99797237D01*
X209625789Y-99664586D01*
X209383556Y-99564002D01*
X209014283Y-99194729D01*
X209014283Y-99100000D01*
X208970563Y-98867648D01*
X208894788Y-98749890D01*
X208963917Y-98648717D01*
X209014283Y-98400000D01*
X209014283Y-97200000D01*
X208970563Y-96967648D01*
X208833243Y-96754247D01*
X208623717Y-96611083D01*
X208375000Y-96560717D01*
X207625000Y-96560717D01*
X207392648Y-96604437D01*
X207179247Y-96741757D01*
X207130696Y-96812814D01*
X207035201Y-96773161D01*
X206666417Y-96772839D01*
X206325583Y-96913669D01*
X206064586Y-97174211D01*
X205923161Y-97514799D01*
X205922839Y-97883583D01*
X206063669Y-98224417D01*
X206324211Y-98485414D01*
X206664799Y-98626839D01*
X207028459Y-98627157D01*
X207029437Y-98632352D01*
X207105212Y-98750110D01*
X207036083Y-98851283D01*
X206985717Y-99100000D01*
X206985717Y-100300000D01*
X207029437Y-100532352D01*
X207166757Y-100745753D01*
X207376283Y-100888917D01*
X207625000Y-100939283D01*
X208299152Y-100939283D01*
X208313669Y-100974417D01*
X208447232Y-101108214D01*
X206740223Y-102815223D01*
X206738081Y-102818429D01*
X206700000Y-102810717D01*
X205500000Y-102810717D01*
X205267648Y-102854437D01*
X205054247Y-102991757D01*
X205000666Y-103070174D01*
X204958243Y-103004247D01*
X204748717Y-102861083D01*
X204500000Y-102810717D01*
X203300000Y-102810717D01*
X203067648Y-102854437D01*
X202854247Y-102991757D01*
X202711083Y-103201283D01*
X202660717Y-103450000D01*
X202660717Y-104350000D01*
X202704437Y-104582352D01*
X202841757Y-104795753D01*
X203051283Y-104938917D01*
X203300000Y-104989283D01*
X203661149Y-104989283D01*
X204072911Y-105401045D01*
X204072839Y-105483583D01*
X204213669Y-105824417D01*
X204474211Y-106085414D01*
X204814799Y-106226839D01*
X205183583Y-106227161D01*
X205524417Y-106086331D01*
X205773000Y-105838181D01*
X205773000Y-108819866D01*
X205502089Y-108548955D01*
X205502161Y-108466417D01*
X205361331Y-108125583D01*
X205100789Y-107864586D01*
X204760201Y-107723161D01*
X204391417Y-107722839D01*
X204050583Y-107863669D01*
X203996145Y-107918012D01*
X203564067Y-107485933D01*
X203496661Y-107440894D01*
X203328211Y-107328340D01*
X203282052Y-107319158D01*
X203050000Y-107272999D01*
X203049995Y-107273000D01*
X200700005Y-107273000D01*
X200700000Y-107272999D01*
X200467948Y-107319158D01*
X200421789Y-107328340D01*
X200253339Y-107440894D01*
X200185933Y-107485933D01*
X199723955Y-107947911D01*
X199641417Y-107947839D01*
X199300583Y-108088669D01*
X199039586Y-108349211D01*
X198911297Y-108658164D01*
X197477000Y-107223866D01*
X197477000Y-105969620D01*
X197614799Y-106026839D01*
X197983583Y-106027161D01*
X198324417Y-105886331D01*
X198585414Y-105625789D01*
X198726839Y-105285201D01*
X198726912Y-105201221D01*
X200264064Y-103664069D01*
X200264067Y-103664067D01*
X200421660Y-103428211D01*
X200477000Y-103150000D01*
X200477000Y-92838002D01*
X200421660Y-92559791D01*
X200264067Y-92323935D01*
X200264064Y-92323933D01*
X192164849Y-84224717D01*
X205449231Y-84224717D01*
X205596880Y-84531338D01*
X206347992Y-84824759D01*
X207154217Y-84808407D01*
X207823120Y-84531338D01*
X207970769Y-84224717D01*
X210529231Y-84224717D01*
X210676880Y-84531338D01*
X211427992Y-84824759D01*
X212234217Y-84808407D01*
X212903120Y-84531338D01*
X213050769Y-84224717D01*
X211790000Y-82963948D01*
X210529231Y-84224717D01*
X207970769Y-84224717D01*
X206710000Y-82963948D01*
X205449231Y-84224717D01*
X192164849Y-84224717D01*
X191539283Y-83599151D01*
X191539283Y-82427992D01*
X204675241Y-82427992D01*
X204691593Y-83234217D01*
X204968662Y-83903120D01*
X205275283Y-84050769D01*
X206536052Y-82790000D01*
X205275283Y-81529231D01*
X204968662Y-81676880D01*
X204675241Y-82427992D01*
X191539283Y-82427992D01*
X191539283Y-81100000D01*
X191495563Y-80867648D01*
X191358243Y-80654247D01*
X191148717Y-80511083D01*
X190900000Y-80460717D01*
X189076667Y-80460717D01*
X189028211Y-80428340D01*
X188750000Y-80373000D01*
X188471789Y-80428340D01*
X188423333Y-80460717D01*
X186600000Y-80460717D01*
X186367648Y-80504437D01*
X186154247Y-80641757D01*
X186011083Y-80851283D01*
X185960717Y-81100000D01*
X185960717Y-86800000D01*
X186004437Y-87032352D01*
X186141757Y-87245753D01*
X186351283Y-87388917D01*
X186600000Y-87439283D01*
X190900000Y-87439283D01*
X191132352Y-87395563D01*
X191345753Y-87258243D01*
X191488917Y-87048717D01*
X191539283Y-86800000D01*
X191539283Y-85655419D01*
X199023000Y-93139135D01*
X199023000Y-102848867D01*
X197698955Y-104172911D01*
X197616417Y-104172839D01*
X197477000Y-104230445D01*
X197477000Y-96725000D01*
X197421660Y-96446789D01*
X197264067Y-96210933D01*
X197264064Y-96210931D01*
X195502089Y-94448955D01*
X195502161Y-94366417D01*
X195361331Y-94025583D01*
X195100789Y-93764586D01*
X194760201Y-93623161D01*
X194391417Y-93622839D01*
X194050583Y-93763669D01*
X193789586Y-94024211D01*
X193648161Y-94364799D01*
X193647839Y-94733583D01*
X193788669Y-95074417D01*
X194049211Y-95335414D01*
X194389799Y-95476839D01*
X194473779Y-95476912D01*
X196023000Y-97026133D01*
X196023000Y-107524995D01*
X196022999Y-107525000D01*
X196057913Y-107700519D01*
X196078340Y-107803211D01*
X196218008Y-108012240D01*
X196235933Y-108039067D01*
X198722911Y-110526044D01*
X198722839Y-110608583D01*
X198863669Y-110949417D01*
X199124211Y-111210414D01*
X199464799Y-111351839D01*
X199833583Y-111352161D01*
X199989955Y-111287549D01*
X200091757Y-111445753D01*
X200170174Y-111499334D01*
X200104247Y-111541757D01*
X199961083Y-111751283D01*
X199956685Y-111773000D01*
X198975639Y-111773000D01*
X198735201Y-111673161D01*
X198366417Y-111672839D01*
X198025583Y-111813669D01*
X197764586Y-112074211D01*
X197623161Y-112414799D01*
X197622839Y-112783583D01*
X197763669Y-113124417D01*
X198024211Y-113385414D01*
X198364799Y-113526839D01*
X198733583Y-113527161D01*
X198975991Y-113427000D01*
X199953430Y-113427000D01*
X199954437Y-113432352D01*
X200013222Y-113523706D01*
X199844833Y-113593455D01*
X199668455Y-113769833D01*
X199573000Y-114000282D01*
X199573000Y-114220250D01*
X199729750Y-114377000D01*
X200677000Y-114377000D01*
X200677000Y-114357000D01*
X200923000Y-114357000D01*
X200923000Y-114377000D01*
X200943000Y-114377000D01*
X200943000Y-114623000D01*
X200923000Y-114623000D01*
X200923000Y-114643000D01*
X200677000Y-114643000D01*
X200677000Y-114623000D01*
X199729750Y-114623000D01*
X199573000Y-114779750D01*
X199573000Y-114999718D01*
X199613710Y-115098000D01*
X197860671Y-115098000D01*
X197949417Y-115061331D01*
X198210414Y-114800789D01*
X198351839Y-114460201D01*
X198352161Y-114091417D01*
X198211331Y-113750583D01*
X197950789Y-113489586D01*
X197610201Y-113348161D01*
X197241417Y-113347839D01*
X196900583Y-113488669D01*
X196841148Y-113548000D01*
X193457195Y-113548000D01*
X188034459Y-108125263D01*
X188034531Y-108042725D01*
X187893701Y-107701891D01*
X187744660Y-107552590D01*
X187877000Y-107420250D01*
X187877000Y-106473000D01*
X188123000Y-106473000D01*
X188123000Y-107420250D01*
X188279750Y-107577000D01*
X188574718Y-107577000D01*
X188805167Y-107481545D01*
X188981545Y-107305167D01*
X189077000Y-107074718D01*
X189077000Y-106629750D01*
X188920250Y-106473000D01*
X188123000Y-106473000D01*
X187877000Y-106473000D01*
X187079750Y-106473000D01*
X186923000Y-106629750D01*
X186923000Y-107074718D01*
X187015995Y-107299228D01*
X186923787Y-107299147D01*
X186582953Y-107439977D01*
X186321956Y-107700519D01*
X186180531Y-108041107D01*
X186180209Y-108409891D01*
X186312329Y-108729646D01*
X186173161Y-109064799D01*
X186172839Y-109433583D01*
X186313669Y-109774417D01*
X186574211Y-110035414D01*
X186914799Y-110176839D01*
X186998778Y-110176912D01*
X191919866Y-115098000D01*
X185625000Y-115098000D01*
X185308521Y-115160952D01*
X185040223Y-115340223D01*
X184091197Y-116289249D01*
X183850583Y-116388669D01*
X183589586Y-116649211D01*
X183448161Y-116989799D01*
X183447839Y-117358583D01*
X183588669Y-117699417D01*
X183849211Y-117960414D01*
X184189799Y-118101839D01*
X184558583Y-118102161D01*
X184899417Y-117961331D01*
X184991103Y-117869804D01*
X185013669Y-117924417D01*
X185274211Y-118185414D01*
X185614799Y-118326839D01*
X185698779Y-118326912D01*
X186899571Y-119527704D01*
X186899571Y-120198866D01*
X186402203Y-120696233D01*
X186226570Y-120660667D01*
X184425710Y-120660667D01*
X184193358Y-120704387D01*
X183979957Y-120841707D01*
X183851290Y-121030016D01*
X183851290Y-121029750D01*
X183694540Y-120873000D01*
X182446860Y-120873000D01*
X182446860Y-120893000D01*
X182200860Y-120893000D01*
X182200860Y-120873000D01*
X180953180Y-120873000D01*
X180796430Y-121029750D01*
X180796430Y-121274768D01*
X180891885Y-121505217D01*
X181068263Y-121681595D01*
X181117258Y-121701889D01*
X180977677Y-121791707D01*
X180834513Y-122001233D01*
X180784147Y-122249950D01*
X180784147Y-123050050D01*
X180827867Y-123282402D01*
X180965187Y-123495803D01*
X181174713Y-123638967D01*
X181380152Y-123680569D01*
X181335717Y-123900000D01*
X181335717Y-124800000D01*
X181379437Y-125032352D01*
X181516757Y-125245753D01*
X181726283Y-125388917D01*
X181848000Y-125413565D01*
X181848000Y-125772676D01*
X181809793Y-125810883D01*
X181759824Y-125885667D01*
X181423430Y-125885667D01*
X181191078Y-125929387D01*
X180977677Y-126066707D01*
X180834513Y-126276233D01*
X180784147Y-126524950D01*
X180784147Y-127325050D01*
X180827867Y-127557402D01*
X180965187Y-127770803D01*
X181174713Y-127913967D01*
X181423430Y-127964333D01*
X183224290Y-127964333D01*
X183456642Y-127920613D01*
X183670043Y-127783293D01*
X183798710Y-127594984D01*
X183798710Y-127595250D01*
X183955460Y-127752000D01*
X185203140Y-127752000D01*
X185203140Y-127732000D01*
X185449140Y-127732000D01*
X185449140Y-127752000D01*
X186696820Y-127752000D01*
X186818988Y-127629832D01*
X187024211Y-127835414D01*
X187364799Y-127976839D01*
X187455166Y-127976918D01*
X187671789Y-128121660D01*
X187682945Y-128123879D01*
X187950000Y-128177001D01*
X187950005Y-128177000D01*
X188609614Y-128177000D01*
X188629437Y-128282352D01*
X188766757Y-128495753D01*
X188976283Y-128638917D01*
X189225000Y-128689283D01*
X189975000Y-128689283D01*
X190207352Y-128645563D01*
X190420753Y-128508243D01*
X190550157Y-128318855D01*
X190689799Y-128376839D01*
X191058583Y-128377161D01*
X191399417Y-128236331D01*
X191660414Y-127975789D01*
X191801839Y-127635201D01*
X191802161Y-127266417D01*
X191661331Y-126925583D01*
X191400789Y-126664586D01*
X191060201Y-126523161D01*
X190691417Y-126522839D01*
X190547753Y-126582200D01*
X190501457Y-126510255D01*
X190506545Y-126505167D01*
X190602000Y-126274718D01*
X190602000Y-126109282D01*
X192009400Y-126109282D01*
X192009400Y-126970250D01*
X192166150Y-127127000D01*
X193377000Y-127127000D01*
X193377000Y-125763750D01*
X193623000Y-125763750D01*
X193623000Y-127127000D01*
X195917000Y-127127000D01*
X195917000Y-125769433D01*
X195686128Y-125649614D01*
X195663156Y-125653872D01*
X195139351Y-125907981D01*
X194981028Y-126086173D01*
X194895145Y-125878833D01*
X194718767Y-125702455D01*
X194488318Y-125607000D01*
X193779750Y-125607000D01*
X193623000Y-125763750D01*
X193377000Y-125763750D01*
X193220250Y-125607000D01*
X192511682Y-125607000D01*
X192281233Y-125702455D01*
X192104855Y-125878833D01*
X192009400Y-126109282D01*
X190602000Y-126109282D01*
X190602000Y-125829750D01*
X190445250Y-125673000D01*
X189723000Y-125673000D01*
X189723000Y-125693000D01*
X189477000Y-125693000D01*
X189477000Y-125673000D01*
X188754750Y-125673000D01*
X188675000Y-125752750D01*
X188595250Y-125673000D01*
X187873000Y-125673000D01*
X187873000Y-125693000D01*
X187627000Y-125693000D01*
X187627000Y-125673000D01*
X187607000Y-125673000D01*
X187607000Y-125427000D01*
X187627000Y-125427000D01*
X187627000Y-125407000D01*
X187873000Y-125407000D01*
X187873000Y-125427000D01*
X188595250Y-125427000D01*
X188675000Y-125347250D01*
X188754750Y-125427000D01*
X189477000Y-125427000D01*
X189477000Y-125407000D01*
X189723000Y-125407000D01*
X189723000Y-125427000D01*
X190445250Y-125427000D01*
X190602000Y-125270250D01*
X190602000Y-124825282D01*
X190528260Y-124647257D01*
X190663917Y-124448717D01*
X190668315Y-124427000D01*
X191000000Y-124427000D01*
X191316479Y-124364048D01*
X191584777Y-124184777D01*
X191734777Y-124034777D01*
X191914048Y-123766479D01*
X191977000Y-123450000D01*
X191977000Y-121625639D01*
X192006152Y-121555434D01*
X192664804Y-122214085D01*
X192664806Y-122214088D01*
X192900662Y-122371681D01*
X193178873Y-122427021D01*
X193754870Y-122427021D01*
X193754875Y-122427022D01*
X193986927Y-122380863D01*
X194033086Y-122371681D01*
X194174787Y-122277000D01*
X196165899Y-122277000D01*
X196224211Y-122335414D01*
X196564799Y-122476839D01*
X196933583Y-122477161D01*
X197274417Y-122336331D01*
X197535414Y-122075789D01*
X197676839Y-121735201D01*
X197677161Y-121366417D01*
X197536331Y-121025583D01*
X197275789Y-120764586D01*
X196935201Y-120623161D01*
X196669882Y-120622929D01*
X196788917Y-120448717D01*
X196823133Y-120279750D01*
X199573000Y-120279750D01*
X199573000Y-120499718D01*
X199668455Y-120730167D01*
X199844833Y-120906545D01*
X200075282Y-121002000D01*
X200520250Y-121002000D01*
X200677000Y-120845250D01*
X200677000Y-120123000D01*
X199729750Y-120123000D01*
X199573000Y-120279750D01*
X196823133Y-120279750D01*
X196839283Y-120200000D01*
X196839283Y-119500282D01*
X199573000Y-119500282D01*
X199573000Y-119720250D01*
X199729750Y-119877000D01*
X200677000Y-119877000D01*
X200677000Y-119154750D01*
X200520250Y-118998000D01*
X200075282Y-118998000D01*
X199844833Y-119093455D01*
X199668455Y-119269833D01*
X199573000Y-119500282D01*
X196839283Y-119500282D01*
X196839283Y-119000000D01*
X196795563Y-118767648D01*
X196658243Y-118554247D01*
X196579826Y-118500666D01*
X196645753Y-118458243D01*
X196788917Y-118248717D01*
X196839283Y-118000000D01*
X196839283Y-117529750D01*
X198471430Y-117529750D01*
X198471430Y-117774768D01*
X198566885Y-118005217D01*
X198743263Y-118181595D01*
X198973712Y-118277050D01*
X199719110Y-118277050D01*
X199875860Y-118120300D01*
X199875860Y-117373000D01*
X198628180Y-117373000D01*
X198471430Y-117529750D01*
X196839283Y-117529750D01*
X196839283Y-116800000D01*
X196830251Y-116752000D01*
X198471430Y-116752000D01*
X198471430Y-116970250D01*
X198628180Y-117127000D01*
X199875860Y-117127000D01*
X199875860Y-117107000D01*
X200121860Y-117107000D01*
X200121860Y-117127000D01*
X200141860Y-117127000D01*
X200141860Y-117373000D01*
X200121860Y-117373000D01*
X200121860Y-118120300D01*
X200278610Y-118277050D01*
X201024008Y-118277050D01*
X201254457Y-118181595D01*
X201333249Y-118102803D01*
X201461427Y-118230981D01*
X201461427Y-118600050D01*
X201505147Y-118832402D01*
X201642467Y-119045803D01*
X201646073Y-119048267D01*
X201524718Y-118998000D01*
X201079750Y-118998000D01*
X200923000Y-119154750D01*
X200923000Y-119877000D01*
X200943000Y-119877000D01*
X200943000Y-120123000D01*
X200923000Y-120123000D01*
X200923000Y-120845250D01*
X201079750Y-121002000D01*
X201524718Y-121002000D01*
X201755167Y-120906545D01*
X201760099Y-120901613D01*
X201851283Y-120963917D01*
X202100000Y-121014283D01*
X203300000Y-121014283D01*
X203532352Y-120970563D01*
X203745753Y-120833243D01*
X203888917Y-120623717D01*
X203939283Y-120375000D01*
X203939283Y-119625000D01*
X203895563Y-119392648D01*
X203828140Y-119287870D01*
X203828140Y-119239333D01*
X203901570Y-119239333D01*
X204133922Y-119195613D01*
X204347323Y-119058293D01*
X204350109Y-119054215D01*
X204464799Y-119101839D01*
X204833583Y-119102161D01*
X205023000Y-119023895D01*
X205023000Y-120398866D01*
X201773866Y-123648000D01*
X193334101Y-123648000D01*
X193275789Y-123589586D01*
X192935201Y-123448161D01*
X192566417Y-123447839D01*
X192225583Y-123588669D01*
X191964586Y-123849211D01*
X191823161Y-124189799D01*
X191822839Y-124558583D01*
X191963669Y-124899417D01*
X192224211Y-125160414D01*
X192564799Y-125301839D01*
X192933583Y-125302161D01*
X193274417Y-125161331D01*
X193333852Y-125102000D01*
X202074995Y-125102000D01*
X202075000Y-125102001D01*
X202307052Y-125055842D01*
X202353211Y-125046660D01*
X202589067Y-124889067D01*
X206264067Y-121214067D01*
X206282865Y-121185933D01*
X206421660Y-120978211D01*
X206435915Y-120906545D01*
X206477001Y-120700000D01*
X206477000Y-120699995D01*
X206477000Y-118809101D01*
X206535414Y-118750789D01*
X206676839Y-118410201D01*
X206677161Y-118041417D01*
X206536331Y-117700583D01*
X206275789Y-117439586D01*
X205935201Y-117298161D01*
X205566417Y-117297839D01*
X205225583Y-117438669D01*
X205225184Y-117439067D01*
X205175789Y-117389586D01*
X204835201Y-117248161D01*
X204466417Y-117247839D01*
X204302985Y-117315368D01*
X204206099Y-117249168D01*
X204347323Y-117158293D01*
X204490487Y-116948767D01*
X204540853Y-116700050D01*
X204540853Y-115899950D01*
X204497133Y-115667598D01*
X204359813Y-115454197D01*
X204173655Y-115327000D01*
X206275000Y-115327000D01*
X206591479Y-115264048D01*
X206859777Y-115084777D01*
X207623000Y-114321554D01*
X207623000Y-124250000D01*
X207631685Y-124296159D01*
X207658965Y-124338553D01*
X207700590Y-124366994D01*
X207750000Y-124377000D01*
X208148536Y-124377000D01*
X207915456Y-124725829D01*
X207884734Y-124800000D01*
X207814369Y-124969874D01*
X207586008Y-126117924D01*
X207586008Y-126184604D01*
X207573000Y-126250000D01*
X207573000Y-126488796D01*
X207254013Y-126011399D01*
X206770428Y-125688277D01*
X206200000Y-125574812D01*
X205629572Y-125688277D01*
X205145987Y-126011399D01*
X204930000Y-126334646D01*
X204714013Y-126011399D01*
X204230428Y-125688277D01*
X203660000Y-125574812D01*
X203089572Y-125688277D01*
X202605987Y-126011399D01*
X202390000Y-126334646D01*
X202174013Y-126011399D01*
X201690428Y-125688277D01*
X201120000Y-125574812D01*
X200549572Y-125688277D01*
X200065987Y-126011399D01*
X199850000Y-126334646D01*
X199634013Y-126011399D01*
X199150428Y-125688277D01*
X198580000Y-125574812D01*
X198009572Y-125688277D01*
X197525987Y-126011399D01*
X197314180Y-126328389D01*
X196940649Y-125907981D01*
X196416844Y-125653872D01*
X196393872Y-125649614D01*
X196163000Y-125769433D01*
X196163000Y-127127000D01*
X196183000Y-127127000D01*
X196183000Y-127373000D01*
X196163000Y-127373000D01*
X196163000Y-127393000D01*
X195917000Y-127393000D01*
X195917000Y-127373000D01*
X193623000Y-127373000D01*
X193623000Y-127393000D01*
X193377000Y-127393000D01*
X193377000Y-127373000D01*
X192166150Y-127373000D01*
X192009400Y-127529750D01*
X192009400Y-128390718D01*
X192104855Y-128621167D01*
X192281233Y-128797545D01*
X192342687Y-128823000D01*
X186542132Y-128823000D01*
X186581737Y-128806595D01*
X186758115Y-128630217D01*
X186853570Y-128399768D01*
X186853570Y-128154750D01*
X186696820Y-127998000D01*
X185449140Y-127998000D01*
X185449140Y-128018000D01*
X185203140Y-128018000D01*
X185203140Y-127998000D01*
X183955460Y-127998000D01*
X183798710Y-128154750D01*
X183798710Y-128399768D01*
X183894165Y-128630217D01*
X184070543Y-128806595D01*
X184110148Y-128823000D01*
X181066679Y-128823000D01*
X180881468Y-128786159D01*
X180780983Y-128719017D01*
X180713841Y-128618532D01*
X180677000Y-128433320D01*
X180677000Y-120225232D01*
X180796430Y-120225232D01*
X180796430Y-120470250D01*
X180953180Y-120627000D01*
X182200860Y-120627000D01*
X182200860Y-119879700D01*
X182446860Y-119879700D01*
X182446860Y-120627000D01*
X183694540Y-120627000D01*
X183851290Y-120470250D01*
X183851290Y-120225232D01*
X183755835Y-119994783D01*
X183579457Y-119818405D01*
X183349008Y-119722950D01*
X182603610Y-119722950D01*
X182446860Y-119879700D01*
X182200860Y-119879700D01*
X182044110Y-119722950D01*
X181298712Y-119722950D01*
X181068263Y-119818405D01*
X180891885Y-119994783D01*
X180796430Y-120225232D01*
X180677000Y-120225232D01*
X180677000Y-112621720D01*
X181122675Y-112621720D01*
X181407829Y-113311846D01*
X181935376Y-113840316D01*
X182625004Y-114126674D01*
X183371720Y-114127325D01*
X184061846Y-113842171D01*
X184590316Y-113314624D01*
X184876674Y-112624996D01*
X184877325Y-111878280D01*
X184592171Y-111188154D01*
X184064624Y-110659684D01*
X183374996Y-110373326D01*
X182628280Y-110372675D01*
X181938154Y-110657829D01*
X181409684Y-111185376D01*
X181123326Y-111875004D01*
X181122675Y-112621720D01*
X180677000Y-112621720D01*
X180677000Y-95858583D01*
X181672839Y-95858583D01*
X181813669Y-96199417D01*
X182074211Y-96460414D01*
X182414799Y-96601839D01*
X182783583Y-96602161D01*
X183124417Y-96461331D01*
X183183852Y-96402000D01*
X186373866Y-96402000D01*
X188710931Y-98739064D01*
X188710933Y-98739067D01*
X188862325Y-98840223D01*
X188946790Y-98896661D01*
X189225000Y-98952001D01*
X189225005Y-98952000D01*
X190048866Y-98952000D01*
X190073000Y-98976134D01*
X190073000Y-101990899D01*
X190014586Y-102049211D01*
X189873161Y-102389799D01*
X189872839Y-102758583D01*
X189967182Y-102986911D01*
X189804247Y-103091757D01*
X189661083Y-103301283D01*
X189636435Y-103423000D01*
X189065386Y-103423000D01*
X189045563Y-103317648D01*
X188908243Y-103104247D01*
X188698717Y-102961083D01*
X188450000Y-102910717D01*
X187550000Y-102910717D01*
X187317648Y-102954437D01*
X187104247Y-103091757D01*
X186961083Y-103301283D01*
X186910717Y-103550000D01*
X186910717Y-104750000D01*
X186954437Y-104982352D01*
X187091757Y-105195753D01*
X187166479Y-105246809D01*
X187018455Y-105394833D01*
X186923000Y-105625282D01*
X186923000Y-106070250D01*
X187079750Y-106227000D01*
X187877000Y-106227000D01*
X187877000Y-106207000D01*
X188123000Y-106207000D01*
X188123000Y-106227000D01*
X188920250Y-106227000D01*
X189077000Y-106070250D01*
X189077000Y-105625282D01*
X188981545Y-105394833D01*
X188834421Y-105247709D01*
X188895753Y-105208243D01*
X189038917Y-104998717D01*
X189063565Y-104877000D01*
X189634614Y-104877000D01*
X189654437Y-104982352D01*
X189791757Y-105195753D01*
X189870174Y-105249334D01*
X189804247Y-105291757D01*
X189661083Y-105501283D01*
X189610717Y-105750000D01*
X189610717Y-106950000D01*
X189654437Y-107182352D01*
X189791757Y-107395753D01*
X190001283Y-107538917D01*
X190250000Y-107589283D01*
X191150000Y-107589283D01*
X191382352Y-107545563D01*
X191595753Y-107408243D01*
X191738917Y-107198717D01*
X191763565Y-107077000D01*
X191934614Y-107077000D01*
X191954437Y-107182352D01*
X192091757Y-107395753D01*
X192301283Y-107538917D01*
X192550000Y-107589283D01*
X193450000Y-107589283D01*
X193682352Y-107545563D01*
X193895753Y-107408243D01*
X194038917Y-107198717D01*
X194089283Y-106950000D01*
X194089283Y-106313851D01*
X194426044Y-105977089D01*
X194508583Y-105977161D01*
X194849417Y-105836331D01*
X195110414Y-105575789D01*
X195251839Y-105235201D01*
X195252161Y-104866417D01*
X195111331Y-104525583D01*
X194850789Y-104264586D01*
X194510201Y-104123161D01*
X194196667Y-104122887D01*
X194334777Y-103984777D01*
X194514048Y-103716479D01*
X194524473Y-103664067D01*
X194577000Y-103400000D01*
X194577000Y-100750000D01*
X194514048Y-100433521D01*
X194334777Y-100165223D01*
X194326288Y-100159551D01*
X194535414Y-99950789D01*
X194676839Y-99610201D01*
X194677161Y-99241417D01*
X194536331Y-98900583D01*
X194275789Y-98639586D01*
X194033557Y-98539002D01*
X191968147Y-96473593D01*
X191886331Y-96275583D01*
X191625789Y-96014586D01*
X191285201Y-95873161D01*
X190916417Y-95872839D01*
X190575583Y-96013669D01*
X190314586Y-96274211D01*
X190173161Y-96614799D01*
X190172839Y-96983583D01*
X190313669Y-97324417D01*
X190520880Y-97531990D01*
X190350000Y-97497999D01*
X190349995Y-97498000D01*
X189526133Y-97498000D01*
X187189067Y-95160933D01*
X187061639Y-95075789D01*
X186953211Y-95003340D01*
X186907052Y-94994158D01*
X186675000Y-94947999D01*
X186674995Y-94948000D01*
X183184101Y-94948000D01*
X183125789Y-94889586D01*
X182785201Y-94748161D01*
X182416417Y-94747839D01*
X182075583Y-94888669D01*
X181814586Y-95149211D01*
X181673161Y-95489799D01*
X181672839Y-95858583D01*
X180677000Y-95858583D01*
X180677000Y-74783583D01*
X186172839Y-74783583D01*
X186313669Y-75124417D01*
X186574211Y-75385414D01*
X186914799Y-75526839D01*
X186998778Y-75526912D01*
X192235933Y-80764067D01*
X192471789Y-80921660D01*
X192517948Y-80930842D01*
X192750000Y-80977001D01*
X192750005Y-80977000D01*
X205769887Y-80977000D01*
X205596880Y-81048662D01*
X205449231Y-81355283D01*
X206710000Y-82616052D01*
X206724143Y-82601910D01*
X206898091Y-82775858D01*
X206883948Y-82790000D01*
X208144717Y-84050769D01*
X208451338Y-83903120D01*
X208744759Y-83152008D01*
X208728407Y-82345783D01*
X208642511Y-82138413D01*
X208855025Y-82226656D01*
X209641524Y-82227343D01*
X209870600Y-82132691D01*
X209755241Y-82427992D01*
X209771593Y-83234217D01*
X210048662Y-83903120D01*
X210355283Y-84050769D01*
X211616052Y-82790000D01*
X211601910Y-82775858D01*
X211775858Y-82601910D01*
X211790000Y-82616052D01*
X213050769Y-81355283D01*
X212903120Y-81048662D01*
X212152008Y-80755241D01*
X211345783Y-80771593D01*
X211138413Y-80857489D01*
X211226656Y-80644975D01*
X211227343Y-79858476D01*
X211132691Y-79629400D01*
X211427992Y-79744759D01*
X212234217Y-79728407D01*
X212903120Y-79451338D01*
X213050769Y-79144717D01*
X211790000Y-77883948D01*
X211775858Y-77898091D01*
X211601910Y-77724143D01*
X211616052Y-77710000D01*
X210355283Y-76449231D01*
X210048662Y-76596880D01*
X209755241Y-77347992D01*
X209771593Y-78154217D01*
X209857489Y-78361587D01*
X209644975Y-78273344D01*
X208858476Y-78272657D01*
X208629400Y-78367309D01*
X208744759Y-78072008D01*
X208728407Y-77265783D01*
X208451338Y-76596880D01*
X208144717Y-76449231D01*
X206883948Y-77710000D01*
X206898091Y-77724143D01*
X206724143Y-77898091D01*
X206710000Y-77883948D01*
X205449231Y-79144717D01*
X205596880Y-79451338D01*
X205780324Y-79523000D01*
X195146554Y-79523000D01*
X197321562Y-77347992D01*
X204675241Y-77347992D01*
X204691593Y-78154217D01*
X204968662Y-78823120D01*
X205275283Y-78970769D01*
X206536052Y-77710000D01*
X205275283Y-76449231D01*
X204968662Y-76596880D01*
X204675241Y-77347992D01*
X197321562Y-77347992D01*
X198394271Y-76275283D01*
X205449231Y-76275283D01*
X206710000Y-77536052D01*
X207970769Y-76275283D01*
X210529231Y-76275283D01*
X211790000Y-77536052D01*
X213050769Y-76275283D01*
X212903120Y-75968662D01*
X212152008Y-75675241D01*
X211345783Y-75691593D01*
X210676880Y-75968662D01*
X210529231Y-76275283D01*
X207970769Y-76275283D01*
X207823120Y-75968662D01*
X207072008Y-75675241D01*
X206265783Y-75691593D01*
X205596880Y-75968662D01*
X205449231Y-76275283D01*
X198394271Y-76275283D01*
X202047834Y-72621720D01*
X209622675Y-72621720D01*
X209907829Y-73311846D01*
X210435376Y-73840316D01*
X211125004Y-74126674D01*
X211871720Y-74127325D01*
X212561846Y-73842171D01*
X213090316Y-73314624D01*
X213376674Y-72624996D01*
X213377325Y-71878280D01*
X213092171Y-71188154D01*
X212564624Y-70659684D01*
X211874996Y-70373326D01*
X211128280Y-70372675D01*
X210438154Y-70657829D01*
X209909684Y-71185376D01*
X209623326Y-71875004D01*
X209622675Y-72621720D01*
X202047834Y-72621720D01*
X205083805Y-69585750D01*
X205324417Y-69486331D01*
X205585414Y-69225789D01*
X205726839Y-68885201D01*
X205727161Y-68516417D01*
X205586331Y-68175583D01*
X205325789Y-67914586D01*
X204985201Y-67773161D01*
X204616417Y-67772839D01*
X204275583Y-67913669D01*
X204014586Y-68174211D01*
X203914002Y-68416443D01*
X193716197Y-78614249D01*
X193475583Y-78713669D01*
X193214586Y-78974211D01*
X193073161Y-79314799D01*
X193072979Y-79523000D01*
X193051134Y-79523000D01*
X188027089Y-74498955D01*
X188027161Y-74416417D01*
X187886331Y-74075583D01*
X187625789Y-73814586D01*
X187285201Y-73673161D01*
X186916417Y-73672839D01*
X186575583Y-73813669D01*
X186314586Y-74074211D01*
X186173161Y-74414799D01*
X186172839Y-74783583D01*
X180677000Y-74783583D01*
X180677000Y-68829750D01*
X185973000Y-68829750D01*
X185973000Y-71524718D01*
X186068455Y-71755167D01*
X186244833Y-71931545D01*
X186475282Y-72027000D01*
X188470250Y-72027000D01*
X188627000Y-71870250D01*
X188627000Y-68673000D01*
X188873000Y-68673000D01*
X188873000Y-71870250D01*
X189029750Y-72027000D01*
X191024718Y-72027000D01*
X191255167Y-71931545D01*
X191431545Y-71755167D01*
X191527000Y-71524718D01*
X191527000Y-68829750D01*
X191370250Y-68673000D01*
X188873000Y-68673000D01*
X188627000Y-68673000D01*
X186129750Y-68673000D01*
X185973000Y-68829750D01*
X180677000Y-68829750D01*
X180677000Y-65575282D01*
X185973000Y-65575282D01*
X185973000Y-68270250D01*
X186129750Y-68427000D01*
X188627000Y-68427000D01*
X188627000Y-65229750D01*
X188873000Y-65229750D01*
X188873000Y-68427000D01*
X191370250Y-68427000D01*
X191527000Y-68270250D01*
X191527000Y-65575282D01*
X191431545Y-65344833D01*
X191255167Y-65168455D01*
X191024718Y-65073000D01*
X189029750Y-65073000D01*
X188873000Y-65229750D01*
X188627000Y-65229750D01*
X188470250Y-65073000D01*
X186475282Y-65073000D01*
X186244833Y-65168455D01*
X186068455Y-65344833D01*
X185973000Y-65575282D01*
X180677000Y-65575282D01*
X180677000Y-63316680D01*
X180713841Y-63131468D01*
X180780983Y-63030983D01*
X180881468Y-62963841D01*
X181066679Y-62927000D01*
X208016509Y-62927000D01*
X207898224Y-63006036D01*
G36*
X192673000Y-117120250D02*
X192829750Y-117277000D01*
X193627000Y-117277000D01*
X193627000Y-117257000D01*
X193873000Y-117257000D01*
X193873000Y-117277000D01*
X193893000Y-117277000D01*
X193893000Y-117523000D01*
X193873000Y-117523000D01*
X193873000Y-117543000D01*
X193627000Y-117543000D01*
X193627000Y-117523000D01*
X192829750Y-117523000D01*
X192673000Y-117679750D01*
X192673000Y-118124718D01*
X192768455Y-118355167D01*
X192915579Y-118502291D01*
X192854247Y-118541757D01*
X192711083Y-118751283D01*
X192660717Y-119000000D01*
X192660717Y-120153731D01*
X192492918Y-119985932D01*
X192361663Y-119898231D01*
X192257062Y-119828339D01*
X192207121Y-119818405D01*
X191978851Y-119772998D01*
X191978846Y-119772999D01*
X188353571Y-119772999D01*
X188353571Y-119226571D01*
X188298231Y-118948360D01*
X188140638Y-118712504D01*
X188140635Y-118712502D01*
X186727089Y-117298955D01*
X186727161Y-117216417D01*
X186586331Y-116875583D01*
X186462963Y-116752000D01*
X192673000Y-116752000D01*
X192673000Y-117120250D01*
X192673000Y-117120250D01*
G37*
X192673000Y-117120250D02*
X192829750Y-117277000D01*
X193627000Y-117277000D01*
X193627000Y-117257000D01*
X193873000Y-117257000D01*
X193873000Y-117277000D01*
X193893000Y-117277000D01*
X193893000Y-117523000D01*
X193873000Y-117523000D01*
X193873000Y-117543000D01*
X193627000Y-117543000D01*
X193627000Y-117523000D01*
X192829750Y-117523000D01*
X192673000Y-117679750D01*
X192673000Y-118124718D01*
X192768455Y-118355167D01*
X192915579Y-118502291D01*
X192854247Y-118541757D01*
X192711083Y-118751283D01*
X192660717Y-119000000D01*
X192660717Y-120153731D01*
X192492918Y-119985932D01*
X192361663Y-119898231D01*
X192257062Y-119828339D01*
X192207121Y-119818405D01*
X191978851Y-119772998D01*
X191978846Y-119772999D01*
X188353571Y-119772999D01*
X188353571Y-119226571D01*
X188298231Y-118948360D01*
X188140638Y-118712504D01*
X188140635Y-118712502D01*
X186727089Y-117298955D01*
X186727161Y-117216417D01*
X186586331Y-116875583D01*
X186462963Y-116752000D01*
X192673000Y-116752000D01*
X192673000Y-117120250D01*
G36*
X202224211Y-109510414D02*
X202230717Y-109513116D01*
X202230717Y-110125000D01*
X202257233Y-110265920D01*
X202243000Y-110300282D01*
X202243000Y-110470250D01*
X202399750Y-110627000D01*
X202494077Y-110627000D01*
X202621283Y-110713917D01*
X202796879Y-110749476D01*
X202637648Y-110779437D01*
X202492247Y-110873000D01*
X202399750Y-110873000D01*
X202243000Y-111029750D01*
X202243000Y-111199718D01*
X202258590Y-111237356D01*
X202230717Y-111375000D01*
X202230717Y-112025000D01*
X202249136Y-112122889D01*
X202191417Y-112122839D01*
X202089283Y-112165040D01*
X202089283Y-112000000D01*
X202045563Y-111767648D01*
X201908243Y-111554247D01*
X201829826Y-111500666D01*
X201895753Y-111458243D01*
X202038917Y-111248717D01*
X202089283Y-111000000D01*
X202089283Y-109800000D01*
X202045563Y-109567648D01*
X202044664Y-109566250D01*
X202162512Y-109448607D01*
X202224211Y-109510414D01*
X202224211Y-109510414D01*
G37*
X202224211Y-109510414D02*
X202230717Y-109513116D01*
X202230717Y-110125000D01*
X202257233Y-110265920D01*
X202243000Y-110300282D01*
X202243000Y-110470250D01*
X202399750Y-110627000D01*
X202494077Y-110627000D01*
X202621283Y-110713917D01*
X202796879Y-110749476D01*
X202637648Y-110779437D01*
X202492247Y-110873000D01*
X202399750Y-110873000D01*
X202243000Y-111029750D01*
X202243000Y-111199718D01*
X202258590Y-111237356D01*
X202230717Y-111375000D01*
X202230717Y-112025000D01*
X202249136Y-112122889D01*
X202191417Y-112122839D01*
X202089283Y-112165040D01*
X202089283Y-112000000D01*
X202045563Y-111767648D01*
X201908243Y-111554247D01*
X201829826Y-111500666D01*
X201895753Y-111458243D01*
X202038917Y-111248717D01*
X202089283Y-111000000D01*
X202089283Y-109800000D01*
X202045563Y-109567648D01*
X202044664Y-109566250D01*
X202162512Y-109448607D01*
X202224211Y-109510414D01*
M02*
