G04 #@! TF.FileFunction,Copper,L2,Bot,Signal*
%FSLAX46Y46*%
G04 Gerber Fmt 4.6, Leading zero omitted, Abs format (unit mm)*
G04 Created by KiCad (PCBNEW (2015-11-03 BZR 6296)-product) date Tuesday, November 17, 2015 'PMt' 04:43:17 PM*
%MOMM*%
G01*
G04 APERTURE LIST*
%ADD10C,0.100000*%
%ADD11C,0.010000*%
%ADD12R,1.800860X0.800100*%
%ADD13R,0.750000X1.200000*%
%ADD14R,1.200000X0.750000*%
%ADD15C,2.800000*%
%ADD16C,2.700000*%
%ADD17R,4.300000X5.700000*%
%ADD18R,0.900000X1.200000*%
%ADD19R,1.200000X0.900000*%
%ADD20R,1.060000X0.650000*%
%ADD21R,1.727200X2.032000*%
%ADD22O,1.727200X2.032000*%
%ADD23R,2.032000X2.032000*%
%ADD24O,2.032000X2.032000*%
%ADD25C,0.600000*%
%ADD26C,0.200000*%
%ADD27C,0.400000*%
%ADD28C,0.254000*%
G04 APERTURE END LIST*
D10*
D11*
G36*
X183894931Y-103740577D02*
X183894428Y-103708906D01*
X183893379Y-103681275D01*
X183891660Y-103656176D01*
X183889149Y-103632107D01*
X183885724Y-103607561D01*
X183881260Y-103581033D01*
X183877185Y-103559069D01*
X183864422Y-103500214D01*
X183848355Y-103439117D01*
X183829818Y-103378664D01*
X183809646Y-103321740D01*
X183805223Y-103310361D01*
X183788030Y-103267183D01*
X183770892Y-103224808D01*
X183753630Y-103182850D01*
X183736063Y-103140920D01*
X183718011Y-103098631D01*
X183699293Y-103055596D01*
X183679729Y-103011427D01*
X183659138Y-102965735D01*
X183637341Y-102918134D01*
X183614156Y-102868236D01*
X183589403Y-102815653D01*
X183562901Y-102759997D01*
X183534472Y-102700882D01*
X183503933Y-102637918D01*
X183471104Y-102570720D01*
X183435806Y-102498898D01*
X183397857Y-102422065D01*
X183357077Y-102339834D01*
X183313286Y-102251817D01*
X183301963Y-102229097D01*
X183263019Y-102150817D01*
X183227120Y-102078298D01*
X183194039Y-102011051D01*
X183163552Y-101948585D01*
X183135433Y-101890411D01*
X183109455Y-101836038D01*
X183085394Y-101784976D01*
X183063022Y-101736735D01*
X183042115Y-101690825D01*
X183022447Y-101646756D01*
X183003792Y-101604038D01*
X182985924Y-101562181D01*
X182968618Y-101520694D01*
X182951647Y-101479088D01*
X182934787Y-101436872D01*
X182921719Y-101403597D01*
X182912482Y-101380074D01*
X182903963Y-101358681D01*
X182896527Y-101340312D01*
X182890540Y-101325857D01*
X182886365Y-101316209D01*
X182884376Y-101312268D01*
X182880281Y-101312801D01*
X182872263Y-101318013D01*
X182861032Y-101327261D01*
X182847296Y-101339900D01*
X182831764Y-101355288D01*
X182815145Y-101372781D01*
X182803343Y-101385822D01*
X182747242Y-101453801D01*
X182693747Y-101528236D01*
X182642914Y-101609006D01*
X182594800Y-101695989D01*
X182549462Y-101789062D01*
X182506957Y-101888103D01*
X182467342Y-101992991D01*
X182430673Y-102103602D01*
X182397008Y-102219815D01*
X182374704Y-102306708D01*
X182351462Y-102407303D01*
X182332133Y-102502291D01*
X182316697Y-102591919D01*
X182305132Y-102676439D01*
X182297420Y-102756099D01*
X182293538Y-102831149D01*
X182293465Y-102901837D01*
X182297182Y-102968413D01*
X182304668Y-103031126D01*
X182311340Y-103068918D01*
X182326252Y-103129550D01*
X182345633Y-103184906D01*
X182369410Y-103234914D01*
X182397509Y-103279501D01*
X182429858Y-103318596D01*
X182466383Y-103352127D01*
X182507012Y-103380021D01*
X182551671Y-103402205D01*
X182600287Y-103418608D01*
X182652786Y-103429158D01*
X182679060Y-103432097D01*
X182690167Y-103432915D01*
X182698302Y-103433851D01*
X182704006Y-103435889D01*
X182707822Y-103440009D01*
X182710290Y-103447194D01*
X182711954Y-103458425D01*
X182713354Y-103474685D01*
X182715033Y-103496955D01*
X182715063Y-103497333D01*
X182717290Y-103524885D01*
X182719184Y-103546056D01*
X182720834Y-103561509D01*
X182722327Y-103571906D01*
X182723751Y-103577910D01*
X182725193Y-103580183D01*
X182726026Y-103580082D01*
X182727335Y-103582027D01*
X182727560Y-103588861D01*
X182726886Y-103598532D01*
X182725503Y-103608990D01*
X182723597Y-103618183D01*
X182722141Y-103622569D01*
X182720624Y-103628077D01*
X182718164Y-103639384D01*
X182714992Y-103655331D01*
X182711335Y-103674759D01*
X182707422Y-103696511D01*
X182706471Y-103701944D01*
X182692964Y-103783430D01*
X182681591Y-103860846D01*
X182672013Y-103936734D01*
X182663891Y-104013633D01*
X182661706Y-104037083D01*
X182660112Y-104059513D01*
X182658879Y-104086719D01*
X182658007Y-104117348D01*
X182657496Y-104150049D01*
X182657348Y-104183471D01*
X182657562Y-104216262D01*
X182658139Y-104247070D01*
X182659080Y-104274545D01*
X182660385Y-104297334D01*
X182661598Y-104310486D01*
X182671253Y-104383314D01*
X182683140Y-104454171D01*
X182697651Y-104524932D01*
X182715178Y-104597473D01*
X182736110Y-104673669D01*
X182740632Y-104689143D01*
X182747425Y-104711757D01*
X182752778Y-104728423D01*
X182757041Y-104740018D01*
X182760562Y-104747422D01*
X182763691Y-104751510D01*
X182766032Y-104752943D01*
X182771145Y-104753909D01*
X182782439Y-104755491D01*
X182799075Y-104757590D01*
X182820217Y-104760105D01*
X182845025Y-104762937D01*
X182872662Y-104765987D01*
X182901608Y-104769082D01*
X182935601Y-104772679D01*
X182963243Y-104775565D01*
X182985209Y-104777688D01*
X183002170Y-104778999D01*
X183014802Y-104779447D01*
X183023777Y-104778982D01*
X183029770Y-104777553D01*
X183033453Y-104775110D01*
X183035501Y-104771603D01*
X183036587Y-104766982D01*
X183037385Y-104761195D01*
X183037717Y-104758909D01*
X183039746Y-104747663D01*
X183043203Y-104730611D01*
X183047849Y-104708807D01*
X183053445Y-104683300D01*
X183059751Y-104655142D01*
X183066529Y-104625385D01*
X183073539Y-104595079D01*
X183080543Y-104565275D01*
X183087300Y-104537025D01*
X183093573Y-104511380D01*
X183098407Y-104492167D01*
X183125766Y-104389538D01*
X183153603Y-104293547D01*
X183182055Y-104203787D01*
X183211258Y-104119847D01*
X183241350Y-104041320D01*
X183272466Y-103967797D01*
X183277787Y-103955944D01*
X183312240Y-103885270D01*
X183351978Y-103813300D01*
X183395908Y-103741754D01*
X183442934Y-103672352D01*
X183491963Y-103606810D01*
X183528214Y-103562597D01*
X183543577Y-103544935D01*
X183559988Y-103526602D01*
X183576756Y-103508316D01*
X183593190Y-103490794D01*
X183608599Y-103474751D01*
X183622291Y-103460905D01*
X183633576Y-103449973D01*
X183641762Y-103442671D01*
X183646159Y-103439717D01*
X183646632Y-103439781D01*
X183649881Y-103445886D01*
X183654203Y-103457863D01*
X183659337Y-103474653D01*
X183665020Y-103495199D01*
X183670989Y-103518444D01*
X183676981Y-103543330D01*
X183682735Y-103568801D01*
X183687987Y-103593799D01*
X183692474Y-103617268D01*
X183695935Y-103638148D01*
X183695979Y-103638444D01*
X183702523Y-103693487D01*
X183705577Y-103747821D01*
X183705107Y-103802961D01*
X183701077Y-103860419D01*
X183693452Y-103921711D01*
X183688739Y-103951539D01*
X183670150Y-104044796D01*
X183646293Y-104134229D01*
X183617275Y-104219623D01*
X183583203Y-104300766D01*
X183544182Y-104377443D01*
X183500319Y-104449442D01*
X183451720Y-104516549D01*
X183398491Y-104578551D01*
X183355085Y-104622051D01*
X183306444Y-104664426D01*
X183255667Y-104702464D01*
X183203770Y-104735507D01*
X183151770Y-104762895D01*
X183110645Y-104780344D01*
X183098231Y-104785320D01*
X183088063Y-104789944D01*
X183082348Y-104793211D01*
X183079042Y-104796468D01*
X183071330Y-104804369D01*
X183059666Y-104816439D01*
X183044504Y-104832207D01*
X183026296Y-104851199D01*
X183005496Y-104872943D01*
X182982558Y-104896966D01*
X182957935Y-104922795D01*
X182939691Y-104941958D01*
X182914263Y-104968659D01*
X182890288Y-104993792D01*
X182868206Y-105016896D01*
X182848460Y-105037514D01*
X182831487Y-105055187D01*
X182817730Y-105069455D01*
X182807629Y-105079861D01*
X182801624Y-105085945D01*
X182800078Y-105087393D01*
X182798301Y-105084428D01*
X182793948Y-105075616D01*
X182787299Y-105061564D01*
X182778632Y-105042877D01*
X182768227Y-105020164D01*
X182756363Y-104994028D01*
X182743317Y-104965077D01*
X182729370Y-104933917D01*
X182726077Y-104926532D01*
X182654058Y-104764874D01*
X182593786Y-104748019D01*
X182565801Y-104739906D01*
X182533466Y-104730059D01*
X182498653Y-104719084D01*
X182463238Y-104707589D01*
X182429093Y-104696183D01*
X182398093Y-104685473D01*
X182373243Y-104676489D01*
X182359557Y-104671041D01*
X182351083Y-104666521D01*
X182346267Y-104661864D01*
X182343608Y-104656170D01*
X182342442Y-104648868D01*
X182341504Y-104635547D01*
X182340791Y-104617240D01*
X182340303Y-104594980D01*
X182340035Y-104569799D01*
X182339987Y-104542731D01*
X182340155Y-104514808D01*
X182340539Y-104487063D01*
X182341134Y-104460528D01*
X182341940Y-104436237D01*
X182342954Y-104415223D01*
X182344159Y-104398681D01*
X182361788Y-104235739D01*
X182375162Y-104135861D01*
X182381600Y-104093141D01*
X182387900Y-104056322D01*
X182394376Y-104024266D01*
X182401339Y-103995833D01*
X182409101Y-103969884D01*
X182417975Y-103945279D01*
X182428273Y-103920878D01*
X182440306Y-103895543D01*
X182441853Y-103892444D01*
X182473187Y-103836885D01*
X182510789Y-103782336D01*
X182553872Y-103729767D01*
X182601647Y-103680148D01*
X182646958Y-103639686D01*
X182668681Y-103621653D01*
X182643431Y-103619252D01*
X182596009Y-103612225D01*
X182546832Y-103600319D01*
X182497776Y-103584198D01*
X182450718Y-103564523D01*
X182407537Y-103541958D01*
X182385711Y-103528281D01*
X182335994Y-103490660D01*
X182290997Y-103447859D01*
X182250749Y-103399963D01*
X182215277Y-103347063D01*
X182184611Y-103289243D01*
X182158777Y-103226594D01*
X182137803Y-103159201D01*
X182121718Y-103087152D01*
X182110549Y-103010535D01*
X182104324Y-102929438D01*
X182103071Y-102843947D01*
X182106818Y-102754152D01*
X182113861Y-102675361D01*
X182123178Y-102602218D01*
X182135491Y-102524125D01*
X182150519Y-102442379D01*
X182167976Y-102358276D01*
X182187582Y-102273113D01*
X182209051Y-102188187D01*
X182232101Y-102104795D01*
X182255255Y-102028014D01*
X182287888Y-101930540D01*
X182323330Y-101836214D01*
X182361371Y-101745387D01*
X182401797Y-101658408D01*
X182444400Y-101575628D01*
X182488966Y-101497396D01*
X182535286Y-101424063D01*
X182583147Y-101355979D01*
X182632339Y-101293494D01*
X182682650Y-101236959D01*
X182733869Y-101186722D01*
X182785785Y-101143135D01*
X182791897Y-101138484D01*
X182804324Y-101128868D01*
X182811896Y-101122108D01*
X182815578Y-101117071D01*
X182816336Y-101112623D01*
X182815921Y-101110274D01*
X182811612Y-101090837D01*
X182806930Y-101065760D01*
X182802078Y-101036432D01*
X182797263Y-101004243D01*
X182792687Y-100970585D01*
X182788557Y-100936848D01*
X182785077Y-100904422D01*
X182784068Y-100893833D01*
X182781538Y-100862095D01*
X182779816Y-100830112D01*
X182778933Y-100797209D01*
X182778920Y-100762710D01*
X182779806Y-100725940D01*
X182781623Y-100686225D01*
X182784401Y-100642887D01*
X182788171Y-100595254D01*
X182792963Y-100542648D01*
X182798808Y-100484395D01*
X182805400Y-100422875D01*
X182815763Y-100333835D01*
X182827982Y-100238361D01*
X182841993Y-100136807D01*
X182857731Y-100029531D01*
X182875132Y-99916885D01*
X182894133Y-99799226D01*
X182914668Y-99676909D01*
X182936674Y-99550288D01*
X182960086Y-99419720D01*
X182984840Y-99285559D01*
X183010872Y-99148160D01*
X183038118Y-99007879D01*
X183066514Y-98865070D01*
X183095994Y-98720089D01*
X183126495Y-98573291D01*
X183157954Y-98425031D01*
X183190304Y-98275665D01*
X183209592Y-98188028D01*
X183219446Y-98143534D01*
X183227733Y-98105316D01*
X183234320Y-98072742D01*
X183239072Y-98045177D01*
X183241854Y-98021989D01*
X183242532Y-98002545D01*
X183240972Y-97986212D01*
X183237038Y-97972358D01*
X183230596Y-97960348D01*
X183221512Y-97949551D01*
X183209652Y-97939333D01*
X183194880Y-97929062D01*
X183177062Y-97918104D01*
X183156064Y-97905826D01*
X183148705Y-97901547D01*
X183082928Y-97864278D01*
X183017678Y-97829346D01*
X182953786Y-97797145D01*
X182892085Y-97768071D01*
X182833406Y-97742519D01*
X182778581Y-97720883D01*
X182739141Y-97707018D01*
X182686728Y-97691558D01*
X182637816Y-97680842D01*
X182592633Y-97674842D01*
X182551406Y-97673531D01*
X182514365Y-97676881D01*
X182481738Y-97684866D01*
X182453753Y-97697457D01*
X182430638Y-97714628D01*
X182412622Y-97736351D01*
X182406605Y-97746876D01*
X182401846Y-97757009D01*
X182397476Y-97768059D01*
X182393467Y-97780385D01*
X182389791Y-97794343D01*
X182386419Y-97810291D01*
X182383323Y-97828587D01*
X182380476Y-97849586D01*
X182377848Y-97873648D01*
X182375413Y-97901128D01*
X182373141Y-97932385D01*
X182371005Y-97967775D01*
X182368977Y-98007657D01*
X182367027Y-98052387D01*
X182365129Y-98102323D01*
X182363254Y-98157822D01*
X182361374Y-98219241D01*
X182359460Y-98286938D01*
X182357485Y-98361269D01*
X182357131Y-98375000D01*
X182353793Y-98497077D01*
X182350214Y-98612656D01*
X182346361Y-98722293D01*
X182342206Y-98826544D01*
X182337716Y-98925963D01*
X182332862Y-99021105D01*
X182327612Y-99112526D01*
X182321936Y-99200781D01*
X182315804Y-99286426D01*
X182309184Y-99370015D01*
X182302046Y-99452103D01*
X182294360Y-99533246D01*
X182291655Y-99560333D01*
X182277823Y-99689033D01*
X182262727Y-99813498D01*
X182246195Y-99934477D01*
X182228059Y-100052719D01*
X182208149Y-100168972D01*
X182186295Y-100283984D01*
X182162329Y-100398504D01*
X182136080Y-100513279D01*
X182107380Y-100629059D01*
X182076058Y-100746592D01*
X182041946Y-100866627D01*
X182004873Y-100989910D01*
X181964671Y-101117192D01*
X181921170Y-101249220D01*
X181885449Y-101354208D01*
X181867941Y-101404068D01*
X181850515Y-101451600D01*
X181832850Y-101497473D01*
X181814626Y-101542357D01*
X181795524Y-101586920D01*
X181775221Y-101631833D01*
X181753399Y-101677765D01*
X181729737Y-101725385D01*
X181703915Y-101775363D01*
X181675612Y-101828367D01*
X181644508Y-101885068D01*
X181610283Y-101946135D01*
X181572616Y-102012237D01*
X181560507Y-102033306D01*
X181526777Y-102091927D01*
X181496349Y-102144898D01*
X181468975Y-102192666D01*
X181444409Y-102235679D01*
X181422404Y-102274384D01*
X181402713Y-102309229D01*
X181385090Y-102340662D01*
X181369286Y-102369130D01*
X181355056Y-102395081D01*
X181342152Y-102418963D01*
X181330328Y-102441223D01*
X181319336Y-102462308D01*
X181308930Y-102482668D01*
X181298862Y-102502748D01*
X181288887Y-102522997D01*
X181278756Y-102543862D01*
X181277872Y-102545694D01*
X181246435Y-102613133D01*
X181219181Y-102676750D01*
X181195718Y-102737918D01*
X181175655Y-102798008D01*
X181158598Y-102858391D01*
X181144156Y-102920440D01*
X181131936Y-102985526D01*
X181121546Y-103055022D01*
X181113721Y-103119861D01*
X181109961Y-103160848D01*
X181107001Y-103206794D01*
X181104895Y-103255642D01*
X181103699Y-103305337D01*
X181103468Y-103353821D01*
X181104256Y-103399038D01*
X181105492Y-103428542D01*
X181112135Y-103508088D01*
X181123257Y-103588544D01*
X181138557Y-103668722D01*
X181157737Y-103747433D01*
X181180499Y-103823489D01*
X181206544Y-103895702D01*
X181235573Y-103962884D01*
X181244375Y-103980992D01*
X181288628Y-104061972D01*
X181339592Y-104141194D01*
X181397107Y-104218518D01*
X181461017Y-104293805D01*
X181531164Y-104366914D01*
X181607390Y-104437705D01*
X181689537Y-104506040D01*
X181777448Y-104571777D01*
X181870964Y-104634778D01*
X181969930Y-104694903D01*
X182074186Y-104752011D01*
X182164799Y-104797103D01*
X182204713Y-104815441D01*
X182246078Y-104833063D01*
X182290186Y-104850474D01*
X182338328Y-104868181D01*
X182391796Y-104886690D01*
X182404750Y-104891035D01*
X182428196Y-104898704D01*
X182453786Y-104906807D01*
X182480327Y-104914992D01*
X182506627Y-104922907D01*
X182531492Y-104930199D01*
X182553731Y-104936515D01*
X182572152Y-104941504D01*
X182585560Y-104944813D01*
X182589442Y-104945622D01*
X182601004Y-104947791D01*
X182683572Y-105152405D01*
X182698117Y-105188385D01*
X182711915Y-105222393D01*
X182724734Y-105253868D01*
X182736346Y-105282252D01*
X182746520Y-105306986D01*
X182755026Y-105327510D01*
X182761633Y-105343266D01*
X182766111Y-105353693D01*
X182768231Y-105358232D01*
X182768344Y-105358381D01*
X182770994Y-105356040D01*
X182777950Y-105348838D01*
X182788837Y-105337188D01*
X182803276Y-105321505D01*
X182820892Y-105302203D01*
X182841306Y-105279696D01*
X182864141Y-105254399D01*
X182889021Y-105226726D01*
X182915568Y-105197091D01*
X182938231Y-105171714D01*
X182970360Y-105135698D01*
X182998154Y-105104584D01*
X183021967Y-105078002D01*
X183042152Y-105055585D01*
X183059065Y-105036962D01*
X183073058Y-105021765D01*
X183084487Y-105009624D01*
X183093706Y-105000170D01*
X183101069Y-104993035D01*
X183106929Y-104987848D01*
X183111642Y-104984241D01*
X183115561Y-104981844D01*
X183119041Y-104980288D01*
X183122435Y-104979205D01*
X183123103Y-104979021D01*
X183143652Y-104972612D01*
X183168602Y-104963510D01*
X183196184Y-104952440D01*
X183224625Y-104940126D01*
X183252157Y-104927295D01*
X183265446Y-104920700D01*
X183323655Y-104888251D01*
X183379780Y-104851023D01*
X183434751Y-104808334D01*
X183489498Y-104759501D01*
X183503151Y-104746358D01*
X183556690Y-104690849D01*
X183605173Y-104633569D01*
X183649469Y-104573315D01*
X183690443Y-104508883D01*
X183728963Y-104439069D01*
X183739580Y-104418083D01*
X183771452Y-104350029D01*
X183799287Y-104282015D01*
X183823459Y-104212813D01*
X183844341Y-104141193D01*
X183862308Y-104065928D01*
X183877732Y-103985788D01*
X183885248Y-103939320D01*
X183888168Y-103919484D01*
X183890434Y-103902156D01*
X183892130Y-103885939D01*
X183893341Y-103869438D01*
X183894152Y-103851258D01*
X183894645Y-103830002D01*
X183894906Y-103804276D01*
X183895009Y-103777792D01*
X183894931Y-103740577D01*
X183894931Y-103740577D01*
G37*
X183894931Y-103740577D02*
X183894428Y-103708906D01*
X183893379Y-103681275D01*
X183891660Y-103656176D01*
X183889149Y-103632107D01*
X183885724Y-103607561D01*
X183881260Y-103581033D01*
X183877185Y-103559069D01*
X183864422Y-103500214D01*
X183848355Y-103439117D01*
X183829818Y-103378664D01*
X183809646Y-103321740D01*
X183805223Y-103310361D01*
X183788030Y-103267183D01*
X183770892Y-103224808D01*
X183753630Y-103182850D01*
X183736063Y-103140920D01*
X183718011Y-103098631D01*
X183699293Y-103055596D01*
X183679729Y-103011427D01*
X183659138Y-102965735D01*
X183637341Y-102918134D01*
X183614156Y-102868236D01*
X183589403Y-102815653D01*
X183562901Y-102759997D01*
X183534472Y-102700882D01*
X183503933Y-102637918D01*
X183471104Y-102570720D01*
X183435806Y-102498898D01*
X183397857Y-102422065D01*
X183357077Y-102339834D01*
X183313286Y-102251817D01*
X183301963Y-102229097D01*
X183263019Y-102150817D01*
X183227120Y-102078298D01*
X183194039Y-102011051D01*
X183163552Y-101948585D01*
X183135433Y-101890411D01*
X183109455Y-101836038D01*
X183085394Y-101784976D01*
X183063022Y-101736735D01*
X183042115Y-101690825D01*
X183022447Y-101646756D01*
X183003792Y-101604038D01*
X182985924Y-101562181D01*
X182968618Y-101520694D01*
X182951647Y-101479088D01*
X182934787Y-101436872D01*
X182921719Y-101403597D01*
X182912482Y-101380074D01*
X182903963Y-101358681D01*
X182896527Y-101340312D01*
X182890540Y-101325857D01*
X182886365Y-101316209D01*
X182884376Y-101312268D01*
X182880281Y-101312801D01*
X182872263Y-101318013D01*
X182861032Y-101327261D01*
X182847296Y-101339900D01*
X182831764Y-101355288D01*
X182815145Y-101372781D01*
X182803343Y-101385822D01*
X182747242Y-101453801D01*
X182693747Y-101528236D01*
X182642914Y-101609006D01*
X182594800Y-101695989D01*
X182549462Y-101789062D01*
X182506957Y-101888103D01*
X182467342Y-101992991D01*
X182430673Y-102103602D01*
X182397008Y-102219815D01*
X182374704Y-102306708D01*
X182351462Y-102407303D01*
X182332133Y-102502291D01*
X182316697Y-102591919D01*
X182305132Y-102676439D01*
X182297420Y-102756099D01*
X182293538Y-102831149D01*
X182293465Y-102901837D01*
X182297182Y-102968413D01*
X182304668Y-103031126D01*
X182311340Y-103068918D01*
X182326252Y-103129550D01*
X182345633Y-103184906D01*
X182369410Y-103234914D01*
X182397509Y-103279501D01*
X182429858Y-103318596D01*
X182466383Y-103352127D01*
X182507012Y-103380021D01*
X182551671Y-103402205D01*
X182600287Y-103418608D01*
X182652786Y-103429158D01*
X182679060Y-103432097D01*
X182690167Y-103432915D01*
X182698302Y-103433851D01*
X182704006Y-103435889D01*
X182707822Y-103440009D01*
X182710290Y-103447194D01*
X182711954Y-103458425D01*
X182713354Y-103474685D01*
X182715033Y-103496955D01*
X182715063Y-103497333D01*
X182717290Y-103524885D01*
X182719184Y-103546056D01*
X182720834Y-103561509D01*
X182722327Y-103571906D01*
X182723751Y-103577910D01*
X182725193Y-103580183D01*
X182726026Y-103580082D01*
X182727335Y-103582027D01*
X182727560Y-103588861D01*
X182726886Y-103598532D01*
X182725503Y-103608990D01*
X182723597Y-103618183D01*
X182722141Y-103622569D01*
X182720624Y-103628077D01*
X182718164Y-103639384D01*
X182714992Y-103655331D01*
X182711335Y-103674759D01*
X182707422Y-103696511D01*
X182706471Y-103701944D01*
X182692964Y-103783430D01*
X182681591Y-103860846D01*
X182672013Y-103936734D01*
X182663891Y-104013633D01*
X182661706Y-104037083D01*
X182660112Y-104059513D01*
X182658879Y-104086719D01*
X182658007Y-104117348D01*
X182657496Y-104150049D01*
X182657348Y-104183471D01*
X182657562Y-104216262D01*
X182658139Y-104247070D01*
X182659080Y-104274545D01*
X182660385Y-104297334D01*
X182661598Y-104310486D01*
X182671253Y-104383314D01*
X182683140Y-104454171D01*
X182697651Y-104524932D01*
X182715178Y-104597473D01*
X182736110Y-104673669D01*
X182740632Y-104689143D01*
X182747425Y-104711757D01*
X182752778Y-104728423D01*
X182757041Y-104740018D01*
X182760562Y-104747422D01*
X182763691Y-104751510D01*
X182766032Y-104752943D01*
X182771145Y-104753909D01*
X182782439Y-104755491D01*
X182799075Y-104757590D01*
X182820217Y-104760105D01*
X182845025Y-104762937D01*
X182872662Y-104765987D01*
X182901608Y-104769082D01*
X182935601Y-104772679D01*
X182963243Y-104775565D01*
X182985209Y-104777688D01*
X183002170Y-104778999D01*
X183014802Y-104779447D01*
X183023777Y-104778982D01*
X183029770Y-104777553D01*
X183033453Y-104775110D01*
X183035501Y-104771603D01*
X183036587Y-104766982D01*
X183037385Y-104761195D01*
X183037717Y-104758909D01*
X183039746Y-104747663D01*
X183043203Y-104730611D01*
X183047849Y-104708807D01*
X183053445Y-104683300D01*
X183059751Y-104655142D01*
X183066529Y-104625385D01*
X183073539Y-104595079D01*
X183080543Y-104565275D01*
X183087300Y-104537025D01*
X183093573Y-104511380D01*
X183098407Y-104492167D01*
X183125766Y-104389538D01*
X183153603Y-104293547D01*
X183182055Y-104203787D01*
X183211258Y-104119847D01*
X183241350Y-104041320D01*
X183272466Y-103967797D01*
X183277787Y-103955944D01*
X183312240Y-103885270D01*
X183351978Y-103813300D01*
X183395908Y-103741754D01*
X183442934Y-103672352D01*
X183491963Y-103606810D01*
X183528214Y-103562597D01*
X183543577Y-103544935D01*
X183559988Y-103526602D01*
X183576756Y-103508316D01*
X183593190Y-103490794D01*
X183608599Y-103474751D01*
X183622291Y-103460905D01*
X183633576Y-103449973D01*
X183641762Y-103442671D01*
X183646159Y-103439717D01*
X183646632Y-103439781D01*
X183649881Y-103445886D01*
X183654203Y-103457863D01*
X183659337Y-103474653D01*
X183665020Y-103495199D01*
X183670989Y-103518444D01*
X183676981Y-103543330D01*
X183682735Y-103568801D01*
X183687987Y-103593799D01*
X183692474Y-103617268D01*
X183695935Y-103638148D01*
X183695979Y-103638444D01*
X183702523Y-103693487D01*
X183705577Y-103747821D01*
X183705107Y-103802961D01*
X183701077Y-103860419D01*
X183693452Y-103921711D01*
X183688739Y-103951539D01*
X183670150Y-104044796D01*
X183646293Y-104134229D01*
X183617275Y-104219623D01*
X183583203Y-104300766D01*
X183544182Y-104377443D01*
X183500319Y-104449442D01*
X183451720Y-104516549D01*
X183398491Y-104578551D01*
X183355085Y-104622051D01*
X183306444Y-104664426D01*
X183255667Y-104702464D01*
X183203770Y-104735507D01*
X183151770Y-104762895D01*
X183110645Y-104780344D01*
X183098231Y-104785320D01*
X183088063Y-104789944D01*
X183082348Y-104793211D01*
X183079042Y-104796468D01*
X183071330Y-104804369D01*
X183059666Y-104816439D01*
X183044504Y-104832207D01*
X183026296Y-104851199D01*
X183005496Y-104872943D01*
X182982558Y-104896966D01*
X182957935Y-104922795D01*
X182939691Y-104941958D01*
X182914263Y-104968659D01*
X182890288Y-104993792D01*
X182868206Y-105016896D01*
X182848460Y-105037514D01*
X182831487Y-105055187D01*
X182817730Y-105069455D01*
X182807629Y-105079861D01*
X182801624Y-105085945D01*
X182800078Y-105087393D01*
X182798301Y-105084428D01*
X182793948Y-105075616D01*
X182787299Y-105061564D01*
X182778632Y-105042877D01*
X182768227Y-105020164D01*
X182756363Y-104994028D01*
X182743317Y-104965077D01*
X182729370Y-104933917D01*
X182726077Y-104926532D01*
X182654058Y-104764874D01*
X182593786Y-104748019D01*
X182565801Y-104739906D01*
X182533466Y-104730059D01*
X182498653Y-104719084D01*
X182463238Y-104707589D01*
X182429093Y-104696183D01*
X182398093Y-104685473D01*
X182373243Y-104676489D01*
X182359557Y-104671041D01*
X182351083Y-104666521D01*
X182346267Y-104661864D01*
X182343608Y-104656170D01*
X182342442Y-104648868D01*
X182341504Y-104635547D01*
X182340791Y-104617240D01*
X182340303Y-104594980D01*
X182340035Y-104569799D01*
X182339987Y-104542731D01*
X182340155Y-104514808D01*
X182340539Y-104487063D01*
X182341134Y-104460528D01*
X182341940Y-104436237D01*
X182342954Y-104415223D01*
X182344159Y-104398681D01*
X182361788Y-104235739D01*
X182375162Y-104135861D01*
X182381600Y-104093141D01*
X182387900Y-104056322D01*
X182394376Y-104024266D01*
X182401339Y-103995833D01*
X182409101Y-103969884D01*
X182417975Y-103945279D01*
X182428273Y-103920878D01*
X182440306Y-103895543D01*
X182441853Y-103892444D01*
X182473187Y-103836885D01*
X182510789Y-103782336D01*
X182553872Y-103729767D01*
X182601647Y-103680148D01*
X182646958Y-103639686D01*
X182668681Y-103621653D01*
X182643431Y-103619252D01*
X182596009Y-103612225D01*
X182546832Y-103600319D01*
X182497776Y-103584198D01*
X182450718Y-103564523D01*
X182407537Y-103541958D01*
X182385711Y-103528281D01*
X182335994Y-103490660D01*
X182290997Y-103447859D01*
X182250749Y-103399963D01*
X182215277Y-103347063D01*
X182184611Y-103289243D01*
X182158777Y-103226594D01*
X182137803Y-103159201D01*
X182121718Y-103087152D01*
X182110549Y-103010535D01*
X182104324Y-102929438D01*
X182103071Y-102843947D01*
X182106818Y-102754152D01*
X182113861Y-102675361D01*
X182123178Y-102602218D01*
X182135491Y-102524125D01*
X182150519Y-102442379D01*
X182167976Y-102358276D01*
X182187582Y-102273113D01*
X182209051Y-102188187D01*
X182232101Y-102104795D01*
X182255255Y-102028014D01*
X182287888Y-101930540D01*
X182323330Y-101836214D01*
X182361371Y-101745387D01*
X182401797Y-101658408D01*
X182444400Y-101575628D01*
X182488966Y-101497396D01*
X182535286Y-101424063D01*
X182583147Y-101355979D01*
X182632339Y-101293494D01*
X182682650Y-101236959D01*
X182733869Y-101186722D01*
X182785785Y-101143135D01*
X182791897Y-101138484D01*
X182804324Y-101128868D01*
X182811896Y-101122108D01*
X182815578Y-101117071D01*
X182816336Y-101112623D01*
X182815921Y-101110274D01*
X182811612Y-101090837D01*
X182806930Y-101065760D01*
X182802078Y-101036432D01*
X182797263Y-101004243D01*
X182792687Y-100970585D01*
X182788557Y-100936848D01*
X182785077Y-100904422D01*
X182784068Y-100893833D01*
X182781538Y-100862095D01*
X182779816Y-100830112D01*
X182778933Y-100797209D01*
X182778920Y-100762710D01*
X182779806Y-100725940D01*
X182781623Y-100686225D01*
X182784401Y-100642887D01*
X182788171Y-100595254D01*
X182792963Y-100542648D01*
X182798808Y-100484395D01*
X182805400Y-100422875D01*
X182815763Y-100333835D01*
X182827982Y-100238361D01*
X182841993Y-100136807D01*
X182857731Y-100029531D01*
X182875132Y-99916885D01*
X182894133Y-99799226D01*
X182914668Y-99676909D01*
X182936674Y-99550288D01*
X182960086Y-99419720D01*
X182984840Y-99285559D01*
X183010872Y-99148160D01*
X183038118Y-99007879D01*
X183066514Y-98865070D01*
X183095994Y-98720089D01*
X183126495Y-98573291D01*
X183157954Y-98425031D01*
X183190304Y-98275665D01*
X183209592Y-98188028D01*
X183219446Y-98143534D01*
X183227733Y-98105316D01*
X183234320Y-98072742D01*
X183239072Y-98045177D01*
X183241854Y-98021989D01*
X183242532Y-98002545D01*
X183240972Y-97986212D01*
X183237038Y-97972358D01*
X183230596Y-97960348D01*
X183221512Y-97949551D01*
X183209652Y-97939333D01*
X183194880Y-97929062D01*
X183177062Y-97918104D01*
X183156064Y-97905826D01*
X183148705Y-97901547D01*
X183082928Y-97864278D01*
X183017678Y-97829346D01*
X182953786Y-97797145D01*
X182892085Y-97768071D01*
X182833406Y-97742519D01*
X182778581Y-97720883D01*
X182739141Y-97707018D01*
X182686728Y-97691558D01*
X182637816Y-97680842D01*
X182592633Y-97674842D01*
X182551406Y-97673531D01*
X182514365Y-97676881D01*
X182481738Y-97684866D01*
X182453753Y-97697457D01*
X182430638Y-97714628D01*
X182412622Y-97736351D01*
X182406605Y-97746876D01*
X182401846Y-97757009D01*
X182397476Y-97768059D01*
X182393467Y-97780385D01*
X182389791Y-97794343D01*
X182386419Y-97810291D01*
X182383323Y-97828587D01*
X182380476Y-97849586D01*
X182377848Y-97873648D01*
X182375413Y-97901128D01*
X182373141Y-97932385D01*
X182371005Y-97967775D01*
X182368977Y-98007657D01*
X182367027Y-98052387D01*
X182365129Y-98102323D01*
X182363254Y-98157822D01*
X182361374Y-98219241D01*
X182359460Y-98286938D01*
X182357485Y-98361269D01*
X182357131Y-98375000D01*
X182353793Y-98497077D01*
X182350214Y-98612656D01*
X182346361Y-98722293D01*
X182342206Y-98826544D01*
X182337716Y-98925963D01*
X182332862Y-99021105D01*
X182327612Y-99112526D01*
X182321936Y-99200781D01*
X182315804Y-99286426D01*
X182309184Y-99370015D01*
X182302046Y-99452103D01*
X182294360Y-99533246D01*
X182291655Y-99560333D01*
X182277823Y-99689033D01*
X182262727Y-99813498D01*
X182246195Y-99934477D01*
X182228059Y-100052719D01*
X182208149Y-100168972D01*
X182186295Y-100283984D01*
X182162329Y-100398504D01*
X182136080Y-100513279D01*
X182107380Y-100629059D01*
X182076058Y-100746592D01*
X182041946Y-100866627D01*
X182004873Y-100989910D01*
X181964671Y-101117192D01*
X181921170Y-101249220D01*
X181885449Y-101354208D01*
X181867941Y-101404068D01*
X181850515Y-101451600D01*
X181832850Y-101497473D01*
X181814626Y-101542357D01*
X181795524Y-101586920D01*
X181775221Y-101631833D01*
X181753399Y-101677765D01*
X181729737Y-101725385D01*
X181703915Y-101775363D01*
X181675612Y-101828367D01*
X181644508Y-101885068D01*
X181610283Y-101946135D01*
X181572616Y-102012237D01*
X181560507Y-102033306D01*
X181526777Y-102091927D01*
X181496349Y-102144898D01*
X181468975Y-102192666D01*
X181444409Y-102235679D01*
X181422404Y-102274384D01*
X181402713Y-102309229D01*
X181385090Y-102340662D01*
X181369286Y-102369130D01*
X181355056Y-102395081D01*
X181342152Y-102418963D01*
X181330328Y-102441223D01*
X181319336Y-102462308D01*
X181308930Y-102482668D01*
X181298862Y-102502748D01*
X181288887Y-102522997D01*
X181278756Y-102543862D01*
X181277872Y-102545694D01*
X181246435Y-102613133D01*
X181219181Y-102676750D01*
X181195718Y-102737918D01*
X181175655Y-102798008D01*
X181158598Y-102858391D01*
X181144156Y-102920440D01*
X181131936Y-102985526D01*
X181121546Y-103055022D01*
X181113721Y-103119861D01*
X181109961Y-103160848D01*
X181107001Y-103206794D01*
X181104895Y-103255642D01*
X181103699Y-103305337D01*
X181103468Y-103353821D01*
X181104256Y-103399038D01*
X181105492Y-103428542D01*
X181112135Y-103508088D01*
X181123257Y-103588544D01*
X181138557Y-103668722D01*
X181157737Y-103747433D01*
X181180499Y-103823489D01*
X181206544Y-103895702D01*
X181235573Y-103962884D01*
X181244375Y-103980992D01*
X181288628Y-104061972D01*
X181339592Y-104141194D01*
X181397107Y-104218518D01*
X181461017Y-104293805D01*
X181531164Y-104366914D01*
X181607390Y-104437705D01*
X181689537Y-104506040D01*
X181777448Y-104571777D01*
X181870964Y-104634778D01*
X181969930Y-104694903D01*
X182074186Y-104752011D01*
X182164799Y-104797103D01*
X182204713Y-104815441D01*
X182246078Y-104833063D01*
X182290186Y-104850474D01*
X182338328Y-104868181D01*
X182391796Y-104886690D01*
X182404750Y-104891035D01*
X182428196Y-104898704D01*
X182453786Y-104906807D01*
X182480327Y-104914992D01*
X182506627Y-104922907D01*
X182531492Y-104930199D01*
X182553731Y-104936515D01*
X182572152Y-104941504D01*
X182585560Y-104944813D01*
X182589442Y-104945622D01*
X182601004Y-104947791D01*
X182683572Y-105152405D01*
X182698117Y-105188385D01*
X182711915Y-105222393D01*
X182724734Y-105253868D01*
X182736346Y-105282252D01*
X182746520Y-105306986D01*
X182755026Y-105327510D01*
X182761633Y-105343266D01*
X182766111Y-105353693D01*
X182768231Y-105358232D01*
X182768344Y-105358381D01*
X182770994Y-105356040D01*
X182777950Y-105348838D01*
X182788837Y-105337188D01*
X182803276Y-105321505D01*
X182820892Y-105302203D01*
X182841306Y-105279696D01*
X182864141Y-105254399D01*
X182889021Y-105226726D01*
X182915568Y-105197091D01*
X182938231Y-105171714D01*
X182970360Y-105135698D01*
X182998154Y-105104584D01*
X183021967Y-105078002D01*
X183042152Y-105055585D01*
X183059065Y-105036962D01*
X183073058Y-105021765D01*
X183084487Y-105009624D01*
X183093706Y-105000170D01*
X183101069Y-104993035D01*
X183106929Y-104987848D01*
X183111642Y-104984241D01*
X183115561Y-104981844D01*
X183119041Y-104980288D01*
X183122435Y-104979205D01*
X183123103Y-104979021D01*
X183143652Y-104972612D01*
X183168602Y-104963510D01*
X183196184Y-104952440D01*
X183224625Y-104940126D01*
X183252157Y-104927295D01*
X183265446Y-104920700D01*
X183323655Y-104888251D01*
X183379780Y-104851023D01*
X183434751Y-104808334D01*
X183489498Y-104759501D01*
X183503151Y-104746358D01*
X183556690Y-104690849D01*
X183605173Y-104633569D01*
X183649469Y-104573315D01*
X183690443Y-104508883D01*
X183728963Y-104439069D01*
X183739580Y-104418083D01*
X183771452Y-104350029D01*
X183799287Y-104282015D01*
X183823459Y-104212813D01*
X183844341Y-104141193D01*
X183862308Y-104065928D01*
X183877732Y-103985788D01*
X183885248Y-103939320D01*
X183888168Y-103919484D01*
X183890434Y-103902156D01*
X183892130Y-103885939D01*
X183893341Y-103869438D01*
X183894152Y-103851258D01*
X183894645Y-103830002D01*
X183894906Y-103804276D01*
X183895009Y-103777792D01*
X183894931Y-103740577D01*
D12*
X182323860Y-122650000D03*
X182323860Y-120750000D03*
X185326140Y-121700000D03*
X185326140Y-125975000D03*
X185326140Y-127875000D03*
X182323860Y-126925000D03*
D13*
X189600000Y-127450000D03*
X189600000Y-125550000D03*
X187750000Y-123650000D03*
X187750000Y-125550000D03*
D14*
X202700000Y-114500000D03*
X200800000Y-114500000D03*
X202700000Y-120000000D03*
X200800000Y-120000000D03*
D13*
X208000000Y-97800000D03*
X208000000Y-99700000D03*
D15*
X206710000Y-77710000D03*
X206710000Y-82790000D03*
X211790000Y-82790000D03*
X211790000Y-77710000D03*
D16*
X209250000Y-80250000D03*
D17*
X188750000Y-68550000D03*
X188750000Y-83950000D03*
D18*
X189625000Y-123600000D03*
X189625000Y-121400000D03*
D19*
X184775000Y-124350000D03*
X182575000Y-124350000D03*
D18*
X201000000Y-110400000D03*
X201000000Y-112600000D03*
X195750000Y-117400000D03*
X195750000Y-119600000D03*
X193750000Y-117400000D03*
X193750000Y-119600000D03*
X193000000Y-104150000D03*
X193000000Y-106350000D03*
X190700000Y-106350000D03*
X190700000Y-104150000D03*
X188000000Y-104150000D03*
X188000000Y-106350000D03*
D20*
X203400000Y-111700000D03*
X203400000Y-110750000D03*
X203400000Y-109800000D03*
X205600000Y-109800000D03*
X205600000Y-111700000D03*
X205600000Y-110750000D03*
D12*
X203001140Y-116300000D03*
X203001140Y-118200000D03*
X199998860Y-117250000D03*
D21*
X193500000Y-127250000D03*
D22*
X196040000Y-127250000D03*
X198580000Y-127250000D03*
X201120000Y-127250000D03*
X203660000Y-127250000D03*
X206200000Y-127250000D03*
D19*
X206100000Y-103900000D03*
X203900000Y-103900000D03*
D23*
X211600000Y-64200000D03*
D24*
X209060000Y-64200000D03*
D25*
X187550000Y-127050000D03*
X205000000Y-105300000D03*
X190875000Y-127450000D03*
X192750000Y-124375000D03*
X205750000Y-118225000D03*
X182540000Y-128400000D03*
X199425000Y-114500000D03*
X197275000Y-117400000D03*
X194750000Y-117400000D03*
X187825000Y-117400000D03*
X202300000Y-110750000D03*
X211525000Y-99200000D03*
X194750000Y-118525000D03*
X191150000Y-121200000D03*
X184375000Y-117175000D03*
X204650000Y-113725000D03*
X204650000Y-118175000D03*
X195800000Y-115925000D03*
X198550000Y-112600000D03*
X206850000Y-97700000D03*
X194800000Y-100900000D03*
X191100000Y-96800000D03*
X194000000Y-79500000D03*
X204800000Y-68700000D03*
X187100000Y-74600000D03*
X197800000Y-105100000D03*
X185800000Y-117400000D03*
X196750000Y-121550000D03*
X201425000Y-108875000D03*
X195760257Y-120849980D03*
X193675431Y-120995591D03*
X194299980Y-105050000D03*
X202750000Y-108725000D03*
X186000000Y-106600000D03*
X197425000Y-114275000D03*
X184900002Y-107300000D03*
X196600000Y-115050000D03*
X190800000Y-102575000D03*
X182600000Y-95675000D03*
X204575000Y-108650000D03*
X199825000Y-108875000D03*
X209100000Y-100450000D03*
X188250000Y-121400000D03*
X186300000Y-124350000D03*
X196600000Y-98600000D03*
X199400000Y-110100000D03*
X202375000Y-113050000D03*
D26*
X187550000Y-127050000D02*
X185801090Y-127050000D01*
X185801090Y-127050000D02*
X185326140Y-126575050D01*
X185326140Y-126575050D02*
X185326140Y-125975000D01*
X187849999Y-127349999D02*
X187550000Y-127050000D01*
X187950000Y-127450000D02*
X187849999Y-127349999D01*
X189600000Y-127450000D02*
X187950000Y-127450000D01*
X203900000Y-103900000D02*
X203900000Y-104200000D01*
X203900000Y-104200000D02*
X205000000Y-105300000D01*
X190875000Y-127450000D02*
X189600000Y-127450000D01*
X202075000Y-124375000D02*
X192750000Y-124375000D01*
X205750000Y-120700000D02*
X202075000Y-124375000D01*
X205750000Y-118225000D02*
X205750000Y-120700000D01*
D27*
X182540000Y-128400000D02*
X182964264Y-128400000D01*
X200800000Y-114500000D02*
X199425000Y-114500000D01*
X193750000Y-117400000D02*
X194750000Y-117400000D01*
X197425000Y-117250000D02*
X199998860Y-117250000D01*
X197275000Y-117400000D02*
X197425000Y-117250000D01*
X193750000Y-117400000D02*
X187825000Y-117400000D01*
X203400000Y-110750000D02*
X202300000Y-110750000D01*
D26*
X182323860Y-122650000D02*
X182824240Y-122650000D01*
X182824240Y-122650000D02*
X184524240Y-124350000D01*
X184524240Y-124350000D02*
X184775000Y-124350000D01*
X184925000Y-124350000D02*
X185625000Y-123650000D01*
X185625000Y-123650000D02*
X187175000Y-123650000D01*
X187175000Y-123650000D02*
X187750000Y-123650000D01*
X187075000Y-123650000D02*
X187750000Y-123650000D01*
D27*
X206275000Y-114500000D02*
X202700000Y-114500000D01*
X207325000Y-113450000D02*
X206275000Y-114500000D01*
X207325000Y-103400000D02*
X207325000Y-113450000D01*
X211525000Y-99200000D02*
X207325000Y-103400000D01*
X202700000Y-114500000D02*
X203001140Y-114801140D01*
X203001140Y-114801140D02*
X203001140Y-116300000D01*
X206100000Y-103900000D02*
X206100000Y-104750000D01*
X206100000Y-104750000D02*
X206600000Y-105250000D01*
X206600000Y-105250000D02*
X206600000Y-110750000D01*
X189625000Y-123600000D02*
X191000000Y-123600000D01*
X194750000Y-118525000D02*
X195750000Y-117525000D01*
X191150000Y-123450000D02*
X191150000Y-121200000D01*
X191000000Y-123600000D02*
X191150000Y-123450000D01*
X195750000Y-117525000D02*
X195750000Y-117400000D01*
X184375000Y-117175000D02*
X185625000Y-115925000D01*
X185625000Y-115925000D02*
X195800000Y-115925000D01*
X203001140Y-118200000D02*
X202600000Y-118200000D01*
X202600000Y-118200000D02*
X201475000Y-117075000D01*
X201275000Y-115925000D02*
X195800000Y-115925000D01*
X201475000Y-116125000D02*
X201275000Y-115925000D01*
X201475000Y-117075000D02*
X201475000Y-116125000D01*
X203001140Y-118200000D02*
X204625000Y-118200000D01*
X206600000Y-110750000D02*
X205600000Y-110750000D01*
X206600000Y-113150000D02*
X206600000Y-110750000D01*
X206025000Y-113725000D02*
X206600000Y-113150000D01*
X204650000Y-113725000D02*
X206025000Y-113725000D01*
X204625000Y-118200000D02*
X204650000Y-118175000D01*
X201000000Y-112600000D02*
X198550000Y-112600000D01*
X195750000Y-115975000D02*
X195750000Y-117400000D01*
X195800000Y-115925000D02*
X195750000Y-115975000D01*
X203001140Y-118200000D02*
X203001140Y-119698860D01*
X203001140Y-119698860D02*
X202700000Y-120000000D01*
D26*
X206850000Y-97700000D02*
X206950000Y-97800000D01*
X206950000Y-97800000D02*
X208000000Y-97800000D01*
D27*
X193000000Y-102700000D02*
X194500001Y-101199999D01*
X194500001Y-101199999D02*
X194800000Y-100900000D01*
X193000000Y-104150000D02*
X193000000Y-102700000D01*
X191100000Y-96800000D02*
X194800000Y-100500000D01*
X194800000Y-100500000D02*
X194800000Y-100900000D01*
X204800000Y-68700000D02*
X194000000Y-79500000D01*
D26*
X187399999Y-74899999D02*
X187100000Y-74600000D01*
X192750000Y-80250000D02*
X187399999Y-74899999D01*
X209250000Y-80250000D02*
X192750000Y-80250000D01*
X199750000Y-92838002D02*
X199750000Y-103150000D01*
X199750000Y-103150000D02*
X197800000Y-105100000D01*
X188750000Y-81838002D02*
X188750000Y-81100000D01*
X199750000Y-92838002D02*
X188750000Y-81838002D01*
X187626571Y-120499999D02*
X187626571Y-119226571D01*
X187626571Y-119226571D02*
X185800000Y-117400000D01*
X193754875Y-121700021D02*
X193178873Y-121700021D01*
X186426570Y-121700000D02*
X185326140Y-121700000D01*
X196750000Y-121550000D02*
X193904896Y-121550000D01*
X193904896Y-121550000D02*
X193754875Y-121700021D01*
X187626571Y-120499999D02*
X186426570Y-121700000D01*
X193178873Y-121700021D02*
X191978851Y-120499999D01*
X191978851Y-120499999D02*
X187626571Y-120499999D01*
X201000000Y-110400000D02*
X201000000Y-109300000D01*
X201000000Y-109300000D02*
X201425000Y-108875000D01*
X195750000Y-120839723D02*
X195760257Y-120849980D01*
X195750000Y-119600000D02*
X195750000Y-120839723D01*
X193750000Y-120921022D02*
X193675431Y-120995591D01*
X193750000Y-119600000D02*
X193750000Y-120921022D01*
X194150000Y-105050000D02*
X194299980Y-105050000D01*
X193000000Y-106200000D02*
X194150000Y-105050000D01*
X193000000Y-106350000D02*
X193000000Y-106200000D01*
X202750000Y-108725000D02*
X203400000Y-109375000D01*
X203400000Y-109800000D02*
X203400000Y-109375000D01*
X190700000Y-106350000D02*
X193000000Y-106350000D01*
X190700000Y-104150000D02*
X188000000Y-104150000D01*
X186299999Y-106899999D02*
X186000000Y-106600000D01*
X193675000Y-114275000D02*
X186299999Y-106899999D01*
X197425000Y-114275000D02*
X193675000Y-114275000D01*
X192650002Y-115050000D02*
X185200001Y-107599999D01*
X196600000Y-115050000D02*
X192650002Y-115050000D01*
X185200001Y-107599999D02*
X184900002Y-107300000D01*
X190350000Y-98225000D02*
X189225000Y-98225000D01*
X190800000Y-102575000D02*
X190800000Y-98675000D01*
X190800000Y-98675000D02*
X190350000Y-98225000D01*
X186675000Y-95675000D02*
X182600000Y-95675000D01*
X189225000Y-98225000D02*
X186675000Y-95675000D01*
X205600000Y-109800000D02*
X205600000Y-109675000D01*
X205600000Y-109675000D02*
X204575000Y-108650000D01*
X199825000Y-108875000D02*
X200700000Y-108000000D01*
X200700000Y-108000000D02*
X203050000Y-108000000D01*
X203050000Y-108000000D02*
X204500000Y-109450000D01*
X204500000Y-109450000D02*
X204500000Y-111700000D01*
X204500000Y-111700000D02*
X205600000Y-111700000D01*
D27*
X209100000Y-100450000D02*
X208350000Y-99700000D01*
X208350000Y-99700000D02*
X208000000Y-99700000D01*
D26*
X182575000Y-125350000D02*
X182575000Y-124750010D01*
X182575000Y-126073810D02*
X182575000Y-125350000D01*
X182575000Y-125350000D02*
X182650051Y-125274949D01*
X182650051Y-125274949D02*
X185375051Y-125274949D01*
X186000001Y-124649999D02*
X186300000Y-124350000D01*
X185375051Y-125274949D02*
X186000001Y-124649999D01*
X182323860Y-126925000D02*
X182323860Y-126324950D01*
X182323860Y-126324950D02*
X182575000Y-126073810D01*
X188250000Y-121400000D02*
X189625000Y-121400000D01*
X199400000Y-110100000D02*
X196600000Y-107300000D01*
X196600000Y-99024264D02*
X196600000Y-98600000D01*
X196600000Y-107300000D02*
X196600000Y-99024264D01*
X203400000Y-111700000D02*
X203400000Y-112025000D01*
X203400000Y-112025000D02*
X202375000Y-113050000D01*
D28*
G36*
X207898224Y-63006036D02*
X207542066Y-63539063D01*
X207417000Y-64167812D01*
X207417000Y-64232188D01*
X207542066Y-64860937D01*
X207898224Y-65393964D01*
X208431251Y-65750122D01*
X209060000Y-65875188D01*
X209688749Y-65750122D01*
X210031670Y-65520989D01*
X210052455Y-65571167D01*
X210228833Y-65747545D01*
X210459282Y-65843000D01*
X211320250Y-65843000D01*
X211477000Y-65686250D01*
X211477000Y-64323000D01*
X211723000Y-64323000D01*
X211723000Y-65686250D01*
X211879750Y-65843000D01*
X212740718Y-65843000D01*
X212971167Y-65747545D01*
X213147545Y-65571167D01*
X213243000Y-65340718D01*
X213243000Y-64479750D01*
X213086250Y-64323000D01*
X211723000Y-64323000D01*
X211477000Y-64323000D01*
X211457000Y-64323000D01*
X211457000Y-64077000D01*
X211477000Y-64077000D01*
X211477000Y-64057000D01*
X211723000Y-64057000D01*
X211723000Y-64077000D01*
X213086250Y-64077000D01*
X213243000Y-63920250D01*
X213243000Y-63059282D01*
X213188207Y-62927000D01*
X213433320Y-62927000D01*
X213618532Y-62963841D01*
X213719017Y-63030983D01*
X213786159Y-63131468D01*
X213823000Y-63316679D01*
X213823000Y-77985282D01*
X213808407Y-77265783D01*
X213531338Y-76596880D01*
X213224717Y-76449231D01*
X211963948Y-77710000D01*
X213224717Y-78970769D01*
X213531338Y-78823120D01*
X213823000Y-78076511D01*
X213823000Y-83065282D01*
X213808407Y-82345783D01*
X213531338Y-81676880D01*
X213224717Y-81529231D01*
X211963948Y-82790000D01*
X213224717Y-84050769D01*
X213531338Y-83903120D01*
X213823000Y-83156511D01*
X213823000Y-106123000D01*
X208152000Y-106123000D01*
X208152000Y-103742554D01*
X211808803Y-100085751D01*
X212049417Y-99986331D01*
X212310414Y-99725789D01*
X212451839Y-99385201D01*
X212452161Y-99016417D01*
X212311331Y-98675583D01*
X212050789Y-98414586D01*
X211710201Y-98273161D01*
X211341417Y-98272839D01*
X211000583Y-98413669D01*
X210739586Y-98674211D01*
X210639002Y-98916444D01*
X209758209Y-99797237D01*
X209625789Y-99664586D01*
X209383556Y-99564002D01*
X209014283Y-99194729D01*
X209014283Y-99100000D01*
X208970563Y-98867648D01*
X208894788Y-98749890D01*
X208963917Y-98648717D01*
X209014283Y-98400000D01*
X209014283Y-97200000D01*
X208970563Y-96967648D01*
X208833243Y-96754247D01*
X208623717Y-96611083D01*
X208375000Y-96560717D01*
X207625000Y-96560717D01*
X207392648Y-96604437D01*
X207179247Y-96741757D01*
X207130696Y-96812814D01*
X207035201Y-96773161D01*
X206666417Y-96772839D01*
X206325583Y-96913669D01*
X206064586Y-97174211D01*
X205923161Y-97514799D01*
X205922839Y-97883583D01*
X206063669Y-98224417D01*
X206324211Y-98485414D01*
X206664799Y-98626839D01*
X207028459Y-98627157D01*
X207029437Y-98632352D01*
X207105212Y-98750110D01*
X207036083Y-98851283D01*
X206985717Y-99100000D01*
X206985717Y-100300000D01*
X207029437Y-100532352D01*
X207166757Y-100745753D01*
X207376283Y-100888917D01*
X207625000Y-100939283D01*
X208299152Y-100939283D01*
X208313669Y-100974417D01*
X208447232Y-101108214D01*
X206740223Y-102815223D01*
X206738081Y-102818429D01*
X206700000Y-102810717D01*
X205500000Y-102810717D01*
X205267648Y-102854437D01*
X205054247Y-102991757D01*
X205000666Y-103070174D01*
X204958243Y-103004247D01*
X204748717Y-102861083D01*
X204500000Y-102810717D01*
X203300000Y-102810717D01*
X203067648Y-102854437D01*
X202854247Y-102991757D01*
X202711083Y-103201283D01*
X202660717Y-103450000D01*
X202660717Y-104350000D01*
X202704437Y-104582352D01*
X202841757Y-104795753D01*
X203051283Y-104938917D01*
X203300000Y-104989283D01*
X203661149Y-104989283D01*
X204072911Y-105401045D01*
X204072839Y-105483583D01*
X204213669Y-105824417D01*
X204474211Y-106085414D01*
X204814799Y-106226839D01*
X205183583Y-106227161D01*
X205524417Y-106086331D01*
X205773000Y-105838181D01*
X205773000Y-108819866D01*
X205502089Y-108548955D01*
X205502161Y-108466417D01*
X205361331Y-108125583D01*
X205100789Y-107864586D01*
X204760201Y-107723161D01*
X204391417Y-107722839D01*
X204050583Y-107863669D01*
X203996145Y-107918012D01*
X203564067Y-107485933D01*
X203557500Y-107481545D01*
X203328211Y-107328340D01*
X203282052Y-107319158D01*
X203050000Y-107272999D01*
X203049995Y-107273000D01*
X200700005Y-107273000D01*
X200700000Y-107272999D01*
X200467948Y-107319158D01*
X200421789Y-107328340D01*
X200192500Y-107481545D01*
X200185933Y-107485933D01*
X199723955Y-107947911D01*
X199641417Y-107947839D01*
X199300583Y-108088669D01*
X199039586Y-108349211D01*
X198933303Y-108605169D01*
X197327000Y-106998866D01*
X197327000Y-105907334D01*
X197614799Y-106026839D01*
X197983583Y-106027161D01*
X198324417Y-105886331D01*
X198585414Y-105625789D01*
X198726839Y-105285201D01*
X198726912Y-105201221D01*
X200264064Y-103664069D01*
X200264067Y-103664067D01*
X200421660Y-103428211D01*
X200477000Y-103150000D01*
X200477000Y-92838002D01*
X200421660Y-92559791D01*
X200264067Y-92323935D01*
X200264064Y-92323933D01*
X192164849Y-84224717D01*
X205449231Y-84224717D01*
X205596880Y-84531338D01*
X206347992Y-84824759D01*
X207154217Y-84808407D01*
X207823120Y-84531338D01*
X207970769Y-84224717D01*
X210529231Y-84224717D01*
X210676880Y-84531338D01*
X211427992Y-84824759D01*
X212234217Y-84808407D01*
X212903120Y-84531338D01*
X213050769Y-84224717D01*
X211790000Y-82963948D01*
X210529231Y-84224717D01*
X207970769Y-84224717D01*
X206710000Y-82963948D01*
X205449231Y-84224717D01*
X192164849Y-84224717D01*
X191539283Y-83599151D01*
X191539283Y-82427992D01*
X204675241Y-82427992D01*
X204691593Y-83234217D01*
X204968662Y-83903120D01*
X205275283Y-84050769D01*
X206536052Y-82790000D01*
X205275283Y-81529231D01*
X204968662Y-81676880D01*
X204675241Y-82427992D01*
X191539283Y-82427992D01*
X191539283Y-81100000D01*
X191495563Y-80867648D01*
X191358243Y-80654247D01*
X191148717Y-80511083D01*
X190900000Y-80460717D01*
X189076667Y-80460717D01*
X189028211Y-80428340D01*
X188750000Y-80373000D01*
X188471789Y-80428340D01*
X188423333Y-80460717D01*
X186600000Y-80460717D01*
X186367648Y-80504437D01*
X186154247Y-80641757D01*
X186011083Y-80851283D01*
X185960717Y-81100000D01*
X185960717Y-86800000D01*
X186004437Y-87032352D01*
X186141757Y-87245753D01*
X186351283Y-87388917D01*
X186600000Y-87439283D01*
X190900000Y-87439283D01*
X191132352Y-87395563D01*
X191345753Y-87258243D01*
X191488917Y-87048717D01*
X191539283Y-86800000D01*
X191539283Y-85655419D01*
X199023000Y-93139135D01*
X199023000Y-102848867D01*
X197698955Y-104172911D01*
X197616417Y-104172839D01*
X197327000Y-104292424D01*
X197327000Y-99184101D01*
X197385414Y-99125789D01*
X197526839Y-98785201D01*
X197527161Y-98416417D01*
X197386331Y-98075583D01*
X197125789Y-97814586D01*
X196785201Y-97673161D01*
X196416417Y-97672839D01*
X196075583Y-97813669D01*
X195814586Y-98074211D01*
X195673161Y-98414799D01*
X195672839Y-98783583D01*
X195813669Y-99124417D01*
X195873000Y-99183852D01*
X195873000Y-107299995D01*
X195872999Y-107300000D01*
X195918121Y-107526839D01*
X195928340Y-107578211D01*
X195960940Y-107627000D01*
X196085933Y-107814067D01*
X198472911Y-110201045D01*
X198472839Y-110283583D01*
X198613669Y-110624417D01*
X198874211Y-110885414D01*
X199214799Y-111026839D01*
X199583583Y-111027161D01*
X199910717Y-110891992D01*
X199910717Y-111000000D01*
X199954437Y-111232352D01*
X200091757Y-111445753D01*
X200170174Y-111499334D01*
X200104247Y-111541757D01*
X199961083Y-111751283D01*
X199956685Y-111773000D01*
X198975639Y-111773000D01*
X198735201Y-111673161D01*
X198366417Y-111672839D01*
X198025583Y-111813669D01*
X197764586Y-112074211D01*
X197623161Y-112414799D01*
X197622839Y-112783583D01*
X197763669Y-113124417D01*
X198024211Y-113385414D01*
X198364799Y-113526839D01*
X198733583Y-113527161D01*
X198975991Y-113427000D01*
X199953430Y-113427000D01*
X199954437Y-113432352D01*
X200013222Y-113523706D01*
X199844833Y-113593455D01*
X199668455Y-113769833D01*
X199573000Y-114000282D01*
X199573000Y-114220250D01*
X199729750Y-114377000D01*
X200677000Y-114377000D01*
X200677000Y-114357000D01*
X200923000Y-114357000D01*
X200923000Y-114377000D01*
X200943000Y-114377000D01*
X200943000Y-114623000D01*
X200923000Y-114623000D01*
X200923000Y-114643000D01*
X200677000Y-114643000D01*
X200677000Y-114623000D01*
X199729750Y-114623000D01*
X199573000Y-114779750D01*
X199573000Y-114999718D01*
X199613710Y-115098000D01*
X197860671Y-115098000D01*
X197949417Y-115061331D01*
X198210414Y-114800789D01*
X198351839Y-114460201D01*
X198352161Y-114091417D01*
X198211331Y-113750583D01*
X197950789Y-113489586D01*
X197610201Y-113348161D01*
X197241417Y-113347839D01*
X196900583Y-113488669D01*
X196841148Y-113548000D01*
X193976133Y-113548000D01*
X188005134Y-107577000D01*
X188123002Y-107577000D01*
X188123002Y-107420252D01*
X188279750Y-107577000D01*
X188574718Y-107577000D01*
X188805167Y-107481545D01*
X188981545Y-107305167D01*
X189077000Y-107074718D01*
X189077000Y-106629750D01*
X188920250Y-106473000D01*
X188123000Y-106473000D01*
X188123000Y-106493000D01*
X187877000Y-106493000D01*
X187877000Y-106473000D01*
X187079750Y-106473000D01*
X186990442Y-106562308D01*
X186927089Y-106498955D01*
X186927161Y-106416417D01*
X186786331Y-106075583D01*
X186525789Y-105814586D01*
X186185201Y-105673161D01*
X185816417Y-105672839D01*
X185475583Y-105813669D01*
X185214586Y-106074211D01*
X185089679Y-106375020D01*
X185085203Y-106373161D01*
X184716419Y-106372839D01*
X184375585Y-106513669D01*
X184114588Y-106774211D01*
X183973163Y-107114799D01*
X183972841Y-107483583D01*
X184113671Y-107824417D01*
X184374213Y-108085414D01*
X184714801Y-108226839D01*
X184798780Y-108226912D01*
X191669869Y-115098000D01*
X185625000Y-115098000D01*
X185308521Y-115160952D01*
X185040223Y-115340223D01*
X184091197Y-116289249D01*
X183850583Y-116388669D01*
X183589586Y-116649211D01*
X183448161Y-116989799D01*
X183447839Y-117358583D01*
X183588669Y-117699417D01*
X183849211Y-117960414D01*
X184189799Y-118101839D01*
X184558583Y-118102161D01*
X184899417Y-117961331D01*
X184991103Y-117869804D01*
X185013669Y-117924417D01*
X185274211Y-118185414D01*
X185614799Y-118326839D01*
X185698779Y-118326912D01*
X186899571Y-119527704D01*
X186899571Y-120198866D01*
X186402203Y-120696233D01*
X186226570Y-120660667D01*
X184425710Y-120660667D01*
X184193358Y-120704387D01*
X183979957Y-120841707D01*
X183851290Y-121030016D01*
X183851290Y-121029750D01*
X183694540Y-120873000D01*
X182446860Y-120873000D01*
X182446860Y-120893000D01*
X182200860Y-120893000D01*
X182200860Y-120873000D01*
X180953180Y-120873000D01*
X180796430Y-121029750D01*
X180796430Y-121274768D01*
X180891885Y-121505217D01*
X181068263Y-121681595D01*
X181117258Y-121701889D01*
X180977677Y-121791707D01*
X180834513Y-122001233D01*
X180784147Y-122249950D01*
X180784147Y-123050050D01*
X180827867Y-123282402D01*
X180965187Y-123495803D01*
X181174713Y-123638967D01*
X181380152Y-123680569D01*
X181335717Y-123900000D01*
X181335717Y-124800000D01*
X181379437Y-125032352D01*
X181516757Y-125245753D01*
X181726283Y-125388917D01*
X181848000Y-125413565D01*
X181848000Y-125772676D01*
X181809793Y-125810883D01*
X181759824Y-125885667D01*
X181423430Y-125885667D01*
X181191078Y-125929387D01*
X180977677Y-126066707D01*
X180834513Y-126276233D01*
X180784147Y-126524950D01*
X180784147Y-127325050D01*
X180827867Y-127557402D01*
X180965187Y-127770803D01*
X181174713Y-127913967D01*
X181423430Y-127964333D01*
X183224290Y-127964333D01*
X183456642Y-127920613D01*
X183670043Y-127783293D01*
X183798710Y-127594984D01*
X183798710Y-127595250D01*
X183955460Y-127752000D01*
X185203140Y-127752000D01*
X185203140Y-127732000D01*
X185449140Y-127732000D01*
X185449140Y-127752000D01*
X185675405Y-127752000D01*
X185801090Y-127777001D01*
X185801095Y-127777000D01*
X186965899Y-127777000D01*
X187024211Y-127835414D01*
X187364799Y-127976839D01*
X187455166Y-127976918D01*
X187671789Y-128121660D01*
X187682945Y-128123879D01*
X187950000Y-128177001D01*
X187950005Y-128177000D01*
X188609614Y-128177000D01*
X188629437Y-128282352D01*
X188766757Y-128495753D01*
X188976283Y-128638917D01*
X189225000Y-128689283D01*
X189975000Y-128689283D01*
X190207352Y-128645563D01*
X190420753Y-128508243D01*
X190550157Y-128318855D01*
X190689799Y-128376839D01*
X191058583Y-128377161D01*
X191399417Y-128236331D01*
X191660414Y-127975789D01*
X191801839Y-127635201D01*
X191802161Y-127266417D01*
X191661331Y-126925583D01*
X191400789Y-126664586D01*
X191060201Y-126523161D01*
X190691417Y-126522839D01*
X190547753Y-126582200D01*
X190501457Y-126510255D01*
X190506545Y-126505167D01*
X190602000Y-126274718D01*
X190602000Y-126109282D01*
X192009400Y-126109282D01*
X192009400Y-126970250D01*
X192166150Y-127127000D01*
X193377000Y-127127000D01*
X193377000Y-125763750D01*
X193623000Y-125763750D01*
X193623000Y-127127000D01*
X195917000Y-127127000D01*
X195917000Y-125769433D01*
X195686128Y-125649614D01*
X195663156Y-125653872D01*
X195139351Y-125907981D01*
X194981028Y-126086173D01*
X194895145Y-125878833D01*
X194718767Y-125702455D01*
X194488318Y-125607000D01*
X193779750Y-125607000D01*
X193623000Y-125763750D01*
X193377000Y-125763750D01*
X193220250Y-125607000D01*
X192511682Y-125607000D01*
X192281233Y-125702455D01*
X192104855Y-125878833D01*
X192009400Y-126109282D01*
X190602000Y-126109282D01*
X190602000Y-125829750D01*
X190445250Y-125673000D01*
X189723000Y-125673000D01*
X189723000Y-125693000D01*
X189477000Y-125693000D01*
X189477000Y-125673000D01*
X188754750Y-125673000D01*
X188675000Y-125752750D01*
X188595250Y-125673000D01*
X187873000Y-125673000D01*
X187873000Y-125693000D01*
X187627000Y-125693000D01*
X187627000Y-125673000D01*
X187607000Y-125673000D01*
X187607000Y-125427000D01*
X187627000Y-125427000D01*
X187627000Y-125407000D01*
X187873000Y-125407000D01*
X187873000Y-125427000D01*
X188595250Y-125427000D01*
X188675000Y-125347250D01*
X188754750Y-125427000D01*
X189477000Y-125427000D01*
X189477000Y-125407000D01*
X189723000Y-125407000D01*
X189723000Y-125427000D01*
X190445250Y-125427000D01*
X190602000Y-125270250D01*
X190602000Y-124825282D01*
X190528260Y-124647257D01*
X190663917Y-124448717D01*
X190668315Y-124427000D01*
X191000000Y-124427000D01*
X191316479Y-124364048D01*
X191584777Y-124184777D01*
X191734777Y-124034777D01*
X191914048Y-123766479D01*
X191977000Y-123450000D01*
X191977000Y-121625639D01*
X192006152Y-121555434D01*
X192664804Y-122214085D01*
X192664806Y-122214088D01*
X192900662Y-122371681D01*
X193178873Y-122427021D01*
X193754870Y-122427021D01*
X193754875Y-122427022D01*
X193986927Y-122380863D01*
X194033086Y-122371681D01*
X194174787Y-122277000D01*
X196165899Y-122277000D01*
X196224211Y-122335414D01*
X196564799Y-122476839D01*
X196933583Y-122477161D01*
X197274417Y-122336331D01*
X197535414Y-122075789D01*
X197676839Y-121735201D01*
X197677161Y-121366417D01*
X197536331Y-121025583D01*
X197275789Y-120764586D01*
X196935201Y-120623161D01*
X196669882Y-120622929D01*
X196788917Y-120448717D01*
X196823133Y-120279750D01*
X199573000Y-120279750D01*
X199573000Y-120499718D01*
X199668455Y-120730167D01*
X199844833Y-120906545D01*
X200075282Y-121002000D01*
X200520250Y-121002000D01*
X200677000Y-120845250D01*
X200677000Y-120123000D01*
X199729750Y-120123000D01*
X199573000Y-120279750D01*
X196823133Y-120279750D01*
X196839283Y-120200000D01*
X196839283Y-119500282D01*
X199573000Y-119500282D01*
X199573000Y-119720250D01*
X199729750Y-119877000D01*
X200677000Y-119877000D01*
X200677000Y-119154750D01*
X200520250Y-118998000D01*
X200075282Y-118998000D01*
X199844833Y-119093455D01*
X199668455Y-119269833D01*
X199573000Y-119500282D01*
X196839283Y-119500282D01*
X196839283Y-119000000D01*
X196795563Y-118767648D01*
X196658243Y-118554247D01*
X196579826Y-118500666D01*
X196645753Y-118458243D01*
X196788917Y-118248717D01*
X196839283Y-118000000D01*
X196839283Y-117529750D01*
X198471430Y-117529750D01*
X198471430Y-117774768D01*
X198566885Y-118005217D01*
X198743263Y-118181595D01*
X198973712Y-118277050D01*
X199719110Y-118277050D01*
X199875860Y-118120300D01*
X199875860Y-117373000D01*
X198628180Y-117373000D01*
X198471430Y-117529750D01*
X196839283Y-117529750D01*
X196839283Y-116800000D01*
X196830251Y-116752000D01*
X198471430Y-116752000D01*
X198471430Y-116970250D01*
X198628180Y-117127000D01*
X199875860Y-117127000D01*
X199875860Y-117107000D01*
X200121860Y-117107000D01*
X200121860Y-117127000D01*
X200141860Y-117127000D01*
X200141860Y-117373000D01*
X200121860Y-117373000D01*
X200121860Y-118120300D01*
X200278610Y-118277050D01*
X201024008Y-118277050D01*
X201254457Y-118181595D01*
X201333249Y-118102803D01*
X201461427Y-118230981D01*
X201461427Y-118600050D01*
X201505147Y-118832402D01*
X201642467Y-119045803D01*
X201646073Y-119048267D01*
X201524718Y-118998000D01*
X201079750Y-118998000D01*
X200923000Y-119154750D01*
X200923000Y-119877000D01*
X200943000Y-119877000D01*
X200943000Y-120123000D01*
X200923000Y-120123000D01*
X200923000Y-120845250D01*
X201079750Y-121002000D01*
X201524718Y-121002000D01*
X201755167Y-120906545D01*
X201760099Y-120901613D01*
X201851283Y-120963917D01*
X202100000Y-121014283D01*
X203300000Y-121014283D01*
X203532352Y-120970563D01*
X203745753Y-120833243D01*
X203888917Y-120623717D01*
X203939283Y-120375000D01*
X203939283Y-119625000D01*
X203895563Y-119392648D01*
X203828140Y-119287870D01*
X203828140Y-119239333D01*
X203901570Y-119239333D01*
X204133922Y-119195613D01*
X204347323Y-119058293D01*
X204350109Y-119054215D01*
X204464799Y-119101839D01*
X204833583Y-119102161D01*
X205023000Y-119023895D01*
X205023000Y-120398866D01*
X201773866Y-123648000D01*
X193334101Y-123648000D01*
X193275789Y-123589586D01*
X192935201Y-123448161D01*
X192566417Y-123447839D01*
X192225583Y-123588669D01*
X191964586Y-123849211D01*
X191823161Y-124189799D01*
X191822839Y-124558583D01*
X191963669Y-124899417D01*
X192224211Y-125160414D01*
X192564799Y-125301839D01*
X192933583Y-125302161D01*
X193274417Y-125161331D01*
X193333852Y-125102000D01*
X202074995Y-125102000D01*
X202075000Y-125102001D01*
X202307052Y-125055842D01*
X202353211Y-125046660D01*
X202589067Y-124889067D01*
X206264067Y-121214067D01*
X206282865Y-121185933D01*
X206421660Y-120978211D01*
X206435915Y-120906545D01*
X206477001Y-120700000D01*
X206477000Y-120699995D01*
X206477000Y-118809101D01*
X206535414Y-118750789D01*
X206676839Y-118410201D01*
X206677161Y-118041417D01*
X206536331Y-117700583D01*
X206275789Y-117439586D01*
X205935201Y-117298161D01*
X205566417Y-117297839D01*
X205225583Y-117438669D01*
X205225184Y-117439067D01*
X205175789Y-117389586D01*
X204835201Y-117248161D01*
X204466417Y-117247839D01*
X204302985Y-117315368D01*
X204206099Y-117249168D01*
X204347323Y-117158293D01*
X204490487Y-116948767D01*
X204540853Y-116700050D01*
X204540853Y-115899950D01*
X204497133Y-115667598D01*
X204359813Y-115454197D01*
X204173655Y-115327000D01*
X206275000Y-115327000D01*
X206591479Y-115264048D01*
X206859777Y-115084777D01*
X207623000Y-114321554D01*
X207623000Y-124250000D01*
X207631685Y-124296159D01*
X207658965Y-124338553D01*
X207700590Y-124366994D01*
X207750000Y-124377000D01*
X208148536Y-124377000D01*
X207915456Y-124725829D01*
X207884734Y-124800000D01*
X207814369Y-124969874D01*
X207586008Y-126117924D01*
X207586008Y-126184604D01*
X207573000Y-126250000D01*
X207573000Y-126488796D01*
X207254013Y-126011399D01*
X206770428Y-125688277D01*
X206200000Y-125574812D01*
X205629572Y-125688277D01*
X205145987Y-126011399D01*
X204930000Y-126334646D01*
X204714013Y-126011399D01*
X204230428Y-125688277D01*
X203660000Y-125574812D01*
X203089572Y-125688277D01*
X202605987Y-126011399D01*
X202390000Y-126334646D01*
X202174013Y-126011399D01*
X201690428Y-125688277D01*
X201120000Y-125574812D01*
X200549572Y-125688277D01*
X200065987Y-126011399D01*
X199850000Y-126334646D01*
X199634013Y-126011399D01*
X199150428Y-125688277D01*
X198580000Y-125574812D01*
X198009572Y-125688277D01*
X197525987Y-126011399D01*
X197314180Y-126328389D01*
X196940649Y-125907981D01*
X196416844Y-125653872D01*
X196393872Y-125649614D01*
X196163000Y-125769433D01*
X196163000Y-127127000D01*
X196183000Y-127127000D01*
X196183000Y-127373000D01*
X196163000Y-127373000D01*
X196163000Y-127393000D01*
X195917000Y-127393000D01*
X195917000Y-127373000D01*
X193623000Y-127373000D01*
X193623000Y-127393000D01*
X193377000Y-127393000D01*
X193377000Y-127373000D01*
X192166150Y-127373000D01*
X192009400Y-127529750D01*
X192009400Y-128390718D01*
X192104855Y-128621167D01*
X192281233Y-128797545D01*
X192342687Y-128823000D01*
X186542132Y-128823000D01*
X186581737Y-128806595D01*
X186758115Y-128630217D01*
X186853570Y-128399768D01*
X186853570Y-128154750D01*
X186696820Y-127998000D01*
X185449140Y-127998000D01*
X185449140Y-128018000D01*
X185203140Y-128018000D01*
X185203140Y-127998000D01*
X183955460Y-127998000D01*
X183798710Y-128154750D01*
X183798710Y-128399768D01*
X183894165Y-128630217D01*
X184070543Y-128806595D01*
X184110148Y-128823000D01*
X181066679Y-128823000D01*
X180881468Y-128786159D01*
X180780983Y-128719017D01*
X180713841Y-128618532D01*
X180677000Y-128433320D01*
X180677000Y-120225232D01*
X180796430Y-120225232D01*
X180796430Y-120470250D01*
X180953180Y-120627000D01*
X182200860Y-120627000D01*
X182200860Y-119879700D01*
X182446860Y-119879700D01*
X182446860Y-120627000D01*
X183694540Y-120627000D01*
X183851290Y-120470250D01*
X183851290Y-120225232D01*
X183755835Y-119994783D01*
X183579457Y-119818405D01*
X183349008Y-119722950D01*
X182603610Y-119722950D01*
X182446860Y-119879700D01*
X182200860Y-119879700D01*
X182044110Y-119722950D01*
X181298712Y-119722950D01*
X181068263Y-119818405D01*
X180891885Y-119994783D01*
X180796430Y-120225232D01*
X180677000Y-120225232D01*
X180677000Y-112621720D01*
X181122675Y-112621720D01*
X181407829Y-113311846D01*
X181935376Y-113840316D01*
X182625004Y-114126674D01*
X183371720Y-114127325D01*
X184061846Y-113842171D01*
X184590316Y-113314624D01*
X184876674Y-112624996D01*
X184877325Y-111878280D01*
X184592171Y-111188154D01*
X184064624Y-110659684D01*
X183374996Y-110373326D01*
X182628280Y-110372675D01*
X181938154Y-110657829D01*
X181409684Y-111185376D01*
X181123326Y-111875004D01*
X181122675Y-112621720D01*
X180677000Y-112621720D01*
X180677000Y-104258646D01*
X180685208Y-104269471D01*
X180689782Y-104284060D01*
X180734035Y-104365040D01*
X180748720Y-104382600D01*
X180757112Y-104403900D01*
X180808076Y-104483122D01*
X180823172Y-104498752D01*
X180832491Y-104518385D01*
X180890006Y-104595709D01*
X180905286Y-104609519D01*
X180915296Y-104627520D01*
X180979206Y-104702807D01*
X180994486Y-104714928D01*
X181004983Y-104731363D01*
X181075130Y-104804472D01*
X181090268Y-104815046D01*
X181101087Y-104830010D01*
X181177313Y-104900801D01*
X181192207Y-104909976D01*
X181203215Y-104923572D01*
X181285362Y-104991907D01*
X181299957Y-104999833D01*
X181311061Y-105012182D01*
X181398971Y-105077919D01*
X181413214Y-105084724D01*
X181424332Y-105095927D01*
X181517848Y-105158928D01*
X181531728Y-105164739D01*
X181542816Y-105174910D01*
X181641782Y-105235035D01*
X181655289Y-105239959D01*
X181666308Y-105249193D01*
X181770564Y-105306301D01*
X181782619Y-105310093D01*
X181792619Y-105317824D01*
X181883232Y-105362916D01*
X181892867Y-105365535D01*
X181900949Y-105371391D01*
X181940863Y-105389729D01*
X181949597Y-105391814D01*
X181957014Y-105396878D01*
X181998378Y-105414500D01*
X182006799Y-105416263D01*
X182014029Y-105420921D01*
X182058137Y-105438332D01*
X182065573Y-105439682D01*
X182072021Y-105443625D01*
X182120162Y-105461332D01*
X182126261Y-105462292D01*
X182127513Y-105463025D01*
X182139417Y-105492253D01*
X182139695Y-105492674D01*
X182139791Y-105493170D01*
X182151403Y-105521554D01*
X182151742Y-105522066D01*
X182151861Y-105522672D01*
X182162035Y-105547406D01*
X182162508Y-105548118D01*
X182162675Y-105548956D01*
X182171181Y-105569480D01*
X182171927Y-105570595D01*
X182172194Y-105571910D01*
X182178801Y-105587666D01*
X182180347Y-105589958D01*
X182180921Y-105592660D01*
X182185399Y-105603087D01*
X182191093Y-105611375D01*
X182193490Y-105621143D01*
X182195610Y-105625682D01*
X182235326Y-105679778D01*
X182264666Y-105740130D01*
X182264779Y-105740279D01*
X182282663Y-105756143D01*
X182294692Y-105776804D01*
X182315799Y-105792879D01*
X182325042Y-105806332D01*
X182331156Y-105810304D01*
X182341547Y-105824457D01*
X182398769Y-105859131D01*
X182449257Y-105903915D01*
X182471851Y-105911727D01*
X182490870Y-105926212D01*
X182522402Y-105934539D01*
X182531834Y-105940666D01*
X182533982Y-105941064D01*
X182552443Y-105952251D01*
X182618208Y-105962332D01*
X182682313Y-105984497D01*
X182706175Y-105983069D01*
X182729291Y-105989173D01*
X182763293Y-105984571D01*
X182763541Y-105984609D01*
X182781974Y-105987944D01*
X182783349Y-105987646D01*
X182796190Y-105989614D01*
X182860528Y-105973828D01*
X182928466Y-105969761D01*
X182949968Y-105959308D01*
X182973657Y-105956102D01*
X183000386Y-105940541D01*
X183022957Y-105935642D01*
X183026676Y-105933062D01*
X183035681Y-105930853D01*
X183088954Y-105891741D01*
X183150242Y-105861946D01*
X183166106Y-105844062D01*
X183186767Y-105832033D01*
X183189417Y-105829692D01*
X183204766Y-105809538D01*
X183225582Y-105795100D01*
X183232538Y-105787898D01*
X183235403Y-105783444D01*
X183239707Y-105780353D01*
X183250594Y-105768703D01*
X183251856Y-105766669D01*
X183253788Y-105765259D01*
X183268227Y-105749575D01*
X183268958Y-105748376D01*
X183270090Y-105747543D01*
X183287706Y-105728242D01*
X183288221Y-105727389D01*
X183289019Y-105726798D01*
X183309434Y-105704291D01*
X183309829Y-105703632D01*
X183310443Y-105703175D01*
X183333278Y-105677878D01*
X183333606Y-105677329D01*
X183334120Y-105676944D01*
X183359000Y-105649271D01*
X183359299Y-105648768D01*
X183359765Y-105648418D01*
X183386312Y-105618783D01*
X183386562Y-105618360D01*
X183386955Y-105618064D01*
X183409618Y-105592687D01*
X183409706Y-105592537D01*
X183409847Y-105592431D01*
X183441976Y-105556415D01*
X183469191Y-105525949D01*
X183473607Y-105521020D01*
X183475733Y-105520099D01*
X183483006Y-105515071D01*
X183491594Y-105512971D01*
X183519125Y-105500140D01*
X183525489Y-105495476D01*
X183533108Y-105493414D01*
X183546396Y-105486819D01*
X183558557Y-105477439D01*
X183573174Y-105472721D01*
X183631383Y-105440272D01*
X183650175Y-105424286D01*
X183672999Y-105414922D01*
X183729124Y-105377695D01*
X183746064Y-105360869D01*
X183767416Y-105350185D01*
X183822387Y-105307496D01*
X183836661Y-105291028D01*
X183855442Y-105279973D01*
X183910188Y-105231140D01*
X183917531Y-105221401D01*
X183927805Y-105214816D01*
X183941458Y-105201673D01*
X183948261Y-105191899D01*
X183958042Y-105185105D01*
X184011580Y-105129596D01*
X184022815Y-105112105D01*
X184039087Y-105099160D01*
X184087570Y-105041880D01*
X184098198Y-105022703D01*
X184114378Y-105007914D01*
X184158674Y-104947660D01*
X184167834Y-104928081D01*
X184182769Y-104912454D01*
X184223743Y-104848022D01*
X184230952Y-104829439D01*
X184243802Y-104814200D01*
X184282322Y-104744385D01*
X184285807Y-104733425D01*
X184292902Y-104724371D01*
X184303519Y-104703384D01*
X184306140Y-104693989D01*
X184311922Y-104686130D01*
X184343794Y-104618076D01*
X184347596Y-104602651D01*
X184356364Y-104589407D01*
X184384199Y-104521393D01*
X184387407Y-104504899D01*
X184395936Y-104490422D01*
X184420108Y-104421220D01*
X184422445Y-104404602D01*
X184430195Y-104389717D01*
X184451077Y-104318097D01*
X184452458Y-104302325D01*
X184459068Y-104287939D01*
X184477035Y-104212673D01*
X184477573Y-104198506D01*
X184482918Y-104185373D01*
X184498342Y-104105232D01*
X184498283Y-104095667D01*
X184501624Y-104086700D01*
X184509140Y-104040232D01*
X184508976Y-104035666D01*
X184510510Y-104031363D01*
X184513430Y-104011527D01*
X184513170Y-104006345D01*
X184514832Y-104001434D01*
X184517098Y-103984105D01*
X184516548Y-103975823D01*
X184519006Y-103967893D01*
X184520702Y-103951677D01*
X184519787Y-103941779D01*
X184522435Y-103932197D01*
X184523646Y-103915696D01*
X184522515Y-103906551D01*
X184524713Y-103897603D01*
X184525524Y-103879423D01*
X184524484Y-103872625D01*
X184525982Y-103865912D01*
X184526475Y-103844656D01*
X184525752Y-103840521D01*
X184526612Y-103836414D01*
X184526873Y-103810688D01*
X184526500Y-103808709D01*
X184526901Y-103806734D01*
X184527004Y-103780250D01*
X184526636Y-103778360D01*
X184527008Y-103776467D01*
X184526930Y-103739252D01*
X184526055Y-103734902D01*
X184526851Y-103730541D01*
X184526348Y-103698870D01*
X184524854Y-103691936D01*
X184525973Y-103684930D01*
X184524924Y-103657299D01*
X184522654Y-103647789D01*
X184523902Y-103638091D01*
X184522183Y-103612992D01*
X184519195Y-103601971D01*
X184520249Y-103590599D01*
X184517738Y-103566529D01*
X184514443Y-103555887D01*
X184515085Y-103544768D01*
X184511660Y-103520222D01*
X184508695Y-103511704D01*
X184508962Y-103502686D01*
X184504498Y-103476158D01*
X184502587Y-103471127D01*
X184502656Y-103465745D01*
X184498581Y-103443781D01*
X184494995Y-103434798D01*
X184494829Y-103425130D01*
X184482066Y-103366275D01*
X184476490Y-103353442D01*
X184475640Y-103339478D01*
X184459574Y-103278382D01*
X184453896Y-103266732D01*
X184452587Y-103253838D01*
X184434050Y-103193385D01*
X184427505Y-103181228D01*
X184425521Y-103167566D01*
X184405349Y-103110642D01*
X184400392Y-103102315D01*
X184398711Y-103092771D01*
X184394288Y-103081392D01*
X184392866Y-103079159D01*
X184392386Y-103076559D01*
X184375193Y-103033381D01*
X184374250Y-103031926D01*
X184373926Y-103030225D01*
X184356789Y-102987850D01*
X184355732Y-102986239D01*
X184355361Y-102984351D01*
X184338099Y-102942393D01*
X184336952Y-102940668D01*
X184336539Y-102938634D01*
X184318972Y-102896704D01*
X184317764Y-102894912D01*
X184317320Y-102892798D01*
X184299268Y-102850509D01*
X184298030Y-102848698D01*
X184297564Y-102846555D01*
X184278846Y-102803520D01*
X184277617Y-102801748D01*
X184277145Y-102799645D01*
X184257581Y-102755476D01*
X184256389Y-102753782D01*
X184255923Y-102751766D01*
X184235333Y-102706074D01*
X184234207Y-102704495D01*
X184233759Y-102702610D01*
X184211962Y-102655009D01*
X184210914Y-102653558D01*
X184210491Y-102651821D01*
X184187306Y-102601923D01*
X184186357Y-102600624D01*
X184185968Y-102599061D01*
X184161215Y-102546478D01*
X184160365Y-102545327D01*
X184160014Y-102543942D01*
X184133512Y-102488286D01*
X184132770Y-102487291D01*
X184132461Y-102486090D01*
X184104032Y-102426975D01*
X184103386Y-102426116D01*
X184103115Y-102425076D01*
X184072577Y-102362113D01*
X184072024Y-102361382D01*
X184071790Y-102360496D01*
X184038961Y-102293299D01*
X184038501Y-102292695D01*
X184038305Y-102291960D01*
X184003007Y-102220138D01*
X184002620Y-102219633D01*
X184002456Y-102219021D01*
X183964507Y-102142188D01*
X183964192Y-102141777D01*
X183964056Y-102141276D01*
X183923276Y-102059045D01*
X183923022Y-102058716D01*
X183922913Y-102058314D01*
X183879122Y-101970297D01*
X183878989Y-101970125D01*
X183878932Y-101969915D01*
X183867609Y-101947195D01*
X183867608Y-101947193D01*
X183829080Y-101869749D01*
X183793821Y-101798522D01*
X183761540Y-101732902D01*
X183731983Y-101672340D01*
X183705052Y-101616621D01*
X183680408Y-101565041D01*
X183657953Y-101517387D01*
X183637263Y-101472772D01*
X183618298Y-101431127D01*
X183600580Y-101391427D01*
X183584028Y-101353525D01*
X183568183Y-101316405D01*
X183552859Y-101279670D01*
X183537696Y-101242495D01*
X183522380Y-101204145D01*
X183509980Y-101172571D01*
X183500753Y-101149072D01*
X183499920Y-101147773D01*
X183499640Y-101146259D01*
X183491121Y-101124866D01*
X183490125Y-101123331D01*
X183489783Y-101121534D01*
X183482347Y-101103165D01*
X183480929Y-101101005D01*
X183480425Y-101098472D01*
X183474438Y-101084017D01*
X183471627Y-101079810D01*
X183470562Y-101074863D01*
X183466387Y-101065215D01*
X183455640Y-101049665D01*
X183450579Y-101031453D01*
X183448591Y-101027512D01*
X183438443Y-101014537D01*
X183438698Y-101002669D01*
X183438283Y-101000321D01*
X183433244Y-100987376D01*
X183432941Y-100973487D01*
X183430926Y-100964399D01*
X183429392Y-100956179D01*
X183426401Y-100938099D01*
X183422931Y-100914905D01*
X183419490Y-100889596D01*
X183416442Y-100864692D01*
X183413872Y-100840746D01*
X183413684Y-100838778D01*
X183412187Y-100820000D01*
X183411361Y-100804656D01*
X183410930Y-100788595D01*
X183410923Y-100770218D01*
X183411458Y-100747996D01*
X183412699Y-100720888D01*
X183414805Y-100688024D01*
X183417908Y-100648826D01*
X183422097Y-100602830D01*
X183427426Y-100549724D01*
X183433494Y-100493097D01*
X183443111Y-100410466D01*
X183454472Y-100321690D01*
X183467695Y-100225854D01*
X183482690Y-100123641D01*
X183499389Y-100015538D01*
X183517737Y-99901922D01*
X183537667Y-99783211D01*
X183559033Y-99660271D01*
X183581912Y-99532675D01*
X183606071Y-99401740D01*
X183631565Y-99267182D01*
X183658246Y-99129809D01*
X183686125Y-98989599D01*
X183715059Y-98847304D01*
X183744965Y-98703368D01*
X183775937Y-98557407D01*
X183807755Y-98410498D01*
X183826722Y-98324318D01*
X183836495Y-98280191D01*
X183836526Y-98278767D01*
X183837093Y-98277461D01*
X183845380Y-98239244D01*
X183845457Y-98234739D01*
X183847195Y-98230581D01*
X183853781Y-98198008D01*
X183853810Y-98188752D01*
X183857133Y-98180110D01*
X183861885Y-98152545D01*
X183861463Y-98136100D01*
X183866572Y-98120462D01*
X183869354Y-98097274D01*
X183867276Y-98070323D01*
X183873470Y-98044013D01*
X183874148Y-98024569D01*
X183867486Y-97983676D01*
X183871669Y-97942454D01*
X183870109Y-97926122D01*
X183865712Y-97911472D01*
X183865904Y-97909495D01*
X183853341Y-97868297D01*
X183848936Y-97813574D01*
X183845002Y-97799720D01*
X183834078Y-97778374D01*
X183833095Y-97769509D01*
X183811122Y-97729582D01*
X183799223Y-97689936D01*
X183798790Y-97689406D01*
X183793978Y-97673624D01*
X183787535Y-97661613D01*
X183752602Y-97619173D01*
X183732658Y-97580203D01*
X183725615Y-97574210D01*
X183714201Y-97553469D01*
X183705117Y-97542672D01*
X183665371Y-97510859D01*
X183634028Y-97470746D01*
X183622168Y-97460527D01*
X183593385Y-97444244D01*
X183570442Y-97420436D01*
X183555670Y-97410165D01*
X183539163Y-97402967D01*
X183525958Y-97390721D01*
X183508140Y-97379763D01*
X183501430Y-97377275D01*
X183496074Y-97372526D01*
X183475076Y-97360248D01*
X183474336Y-97359992D01*
X183473749Y-97359474D01*
X183466390Y-97355195D01*
X183462984Y-97354027D01*
X183460260Y-97351677D01*
X183394483Y-97314407D01*
X183387167Y-97311989D01*
X183381217Y-97307100D01*
X183315967Y-97272168D01*
X183308374Y-97269859D01*
X183302118Y-97264972D01*
X183238226Y-97232771D01*
X183230024Y-97230497D01*
X183223180Y-97225436D01*
X183161479Y-97196362D01*
X183152232Y-97194060D01*
X183144407Y-97188625D01*
X183085728Y-97163073D01*
X183074804Y-97160695D01*
X183065405Y-97154641D01*
X183010580Y-97133005D01*
X182998632Y-97130837D01*
X182988184Y-97124653D01*
X182948744Y-97110788D01*
X182932487Y-97108469D01*
X182917943Y-97100838D01*
X182865530Y-97085378D01*
X182842848Y-97083320D01*
X182821983Y-97074201D01*
X182773071Y-97063485D01*
X182746329Y-97062968D01*
X182721011Y-97054342D01*
X182675828Y-97048342D01*
X182643894Y-97050399D01*
X182612720Y-97043161D01*
X182571493Y-97041850D01*
X182533138Y-97048219D01*
X182494480Y-97044100D01*
X182457439Y-97047450D01*
X182411731Y-97060918D01*
X182364126Y-97062998D01*
X182331499Y-97070983D01*
X182302811Y-97084361D01*
X182299715Y-97084516D01*
X182274290Y-97096565D01*
X182222426Y-97108514D01*
X182194441Y-97121105D01*
X182153228Y-97150474D01*
X182135596Y-97155723D01*
X182116451Y-97171271D01*
X182108012Y-97175206D01*
X182107752Y-97175489D01*
X182076878Y-97190121D01*
X182053763Y-97207292D01*
X182028474Y-97235238D01*
X182025753Y-97236594D01*
X182014966Y-97249001D01*
X181993620Y-97264212D01*
X181985715Y-97276850D01*
X181980913Y-97279746D01*
X181977985Y-97283716D01*
X181944171Y-97311176D01*
X181926155Y-97332899D01*
X181905414Y-97371225D01*
X181888302Y-97390135D01*
X181885550Y-97397846D01*
X181863954Y-97422684D01*
X181857936Y-97433210D01*
X181849788Y-97457552D01*
X181834554Y-97478210D01*
X181829795Y-97488343D01*
X181824985Y-97507767D01*
X181814136Y-97524584D01*
X181809766Y-97535634D01*
X181806197Y-97555217D01*
X181796466Y-97572582D01*
X181792457Y-97584908D01*
X181790307Y-97603031D01*
X181782307Y-97619429D01*
X181778631Y-97633387D01*
X181777668Y-97649116D01*
X181771461Y-97663605D01*
X181768089Y-97679553D01*
X181767932Y-97692629D01*
X181763278Y-97704845D01*
X181760182Y-97723141D01*
X181760485Y-97733695D01*
X181757053Y-97743679D01*
X181754206Y-97764678D01*
X181754720Y-97773007D01*
X181752212Y-97780968D01*
X181749584Y-97805030D01*
X181750158Y-97811568D01*
X181748315Y-97817865D01*
X181745880Y-97845345D01*
X181746428Y-97850404D01*
X181745076Y-97855311D01*
X181742804Y-97886567D01*
X181743292Y-97890488D01*
X181742289Y-97894310D01*
X181740153Y-97929699D01*
X181740567Y-97932723D01*
X181739821Y-97935679D01*
X181737793Y-97975561D01*
X181738131Y-97977867D01*
X181737577Y-97980132D01*
X181735627Y-98024861D01*
X181735900Y-98026635D01*
X181735483Y-98028383D01*
X181733585Y-98078319D01*
X181733799Y-98079659D01*
X181733489Y-98080983D01*
X181731614Y-98136482D01*
X181731780Y-98137492D01*
X181731550Y-98138486D01*
X181729670Y-98199905D01*
X181729794Y-98200645D01*
X181729626Y-98201380D01*
X181727712Y-98269077D01*
X181727804Y-98269619D01*
X181727683Y-98270152D01*
X181725708Y-98344482D01*
X181725751Y-98344732D01*
X181725695Y-98344980D01*
X181725357Y-98358080D01*
X181722058Y-98478756D01*
X181718559Y-98591745D01*
X181714807Y-98698515D01*
X181710767Y-98799863D01*
X181706446Y-98895544D01*
X181701783Y-98986945D01*
X181696780Y-99074063D01*
X181691383Y-99157975D01*
X181685590Y-99238895D01*
X181679351Y-99317671D01*
X181672637Y-99394880D01*
X181665324Y-99472082D01*
X181663016Y-99495196D01*
X181649904Y-99617202D01*
X181635904Y-99732629D01*
X181620723Y-99843728D01*
X181604193Y-99951499D01*
X181586195Y-100056589D01*
X181566492Y-100160282D01*
X181544928Y-100263322D01*
X181521267Y-100366781D01*
X181495285Y-100471599D01*
X181466696Y-100578875D01*
X181435342Y-100689206D01*
X181400906Y-100803720D01*
X181363200Y-100923098D01*
X181321865Y-101048554D01*
X181288108Y-101147769D01*
X181273055Y-101190636D01*
X181258874Y-101229313D01*
X181245121Y-101265026D01*
X181231350Y-101298944D01*
X181217075Y-101332246D01*
X181201806Y-101366022D01*
X181184932Y-101401538D01*
X181165964Y-101439712D01*
X181144413Y-101481425D01*
X181119796Y-101527525D01*
X181091753Y-101578646D01*
X181060084Y-101635152D01*
X181024075Y-101698345D01*
X181012558Y-101718383D01*
X181012556Y-101718387D01*
X180978985Y-101776732D01*
X180978910Y-101776954D01*
X180978757Y-101777129D01*
X180948329Y-101830100D01*
X180948223Y-101830414D01*
X180948006Y-101830663D01*
X180920631Y-101878431D01*
X180920481Y-101878878D01*
X180920175Y-101879230D01*
X180895609Y-101922243D01*
X180895409Y-101922842D01*
X180894995Y-101923320D01*
X180872990Y-101962025D01*
X180872727Y-101962818D01*
X180872181Y-101963452D01*
X180852490Y-101998297D01*
X180852149Y-101999332D01*
X180851443Y-102000158D01*
X180833820Y-102031591D01*
X180833402Y-102032876D01*
X180832528Y-102033907D01*
X180816723Y-102062375D01*
X180816209Y-102063978D01*
X180815130Y-102065264D01*
X180800900Y-102091214D01*
X180800301Y-102093114D01*
X180799031Y-102094648D01*
X180786127Y-102118530D01*
X180785453Y-102120717D01*
X180784006Y-102122489D01*
X180772182Y-102144749D01*
X180771466Y-102147130D01*
X180769910Y-102149067D01*
X180758918Y-102170152D01*
X180758190Y-102172645D01*
X180756579Y-102174683D01*
X180746173Y-102195043D01*
X180745495Y-102197436D01*
X180743968Y-102199399D01*
X180733899Y-102219479D01*
X180733298Y-102221665D01*
X180731920Y-102223462D01*
X180721945Y-102243712D01*
X180721471Y-102245484D01*
X180720361Y-102246949D01*
X180710230Y-102267814D01*
X180710031Y-102268577D01*
X180709557Y-102269205D01*
X180708673Y-102271037D01*
X180707595Y-102275203D01*
X180705052Y-102278672D01*
X180677000Y-102338849D01*
X180677000Y-95858583D01*
X181672839Y-95858583D01*
X181813669Y-96199417D01*
X182074211Y-96460414D01*
X182414799Y-96601839D01*
X182783583Y-96602161D01*
X183124417Y-96461331D01*
X183183852Y-96402000D01*
X186373866Y-96402000D01*
X188710931Y-98739064D01*
X188710933Y-98739067D01*
X188851904Y-98833260D01*
X188946790Y-98896661D01*
X189225000Y-98952001D01*
X189225005Y-98952000D01*
X190048866Y-98952000D01*
X190073000Y-98976134D01*
X190073000Y-101990899D01*
X190014586Y-102049211D01*
X189873161Y-102389799D01*
X189872839Y-102758583D01*
X189967182Y-102986911D01*
X189804247Y-103091757D01*
X189661083Y-103301283D01*
X189636435Y-103423000D01*
X189065386Y-103423000D01*
X189045563Y-103317648D01*
X188908243Y-103104247D01*
X188698717Y-102961083D01*
X188450000Y-102910717D01*
X187550000Y-102910717D01*
X187317648Y-102954437D01*
X187104247Y-103091757D01*
X186961083Y-103301283D01*
X186910717Y-103550000D01*
X186910717Y-104750000D01*
X186954437Y-104982352D01*
X187091757Y-105195753D01*
X187166479Y-105246809D01*
X187018455Y-105394833D01*
X186923000Y-105625282D01*
X186923000Y-106070250D01*
X187079750Y-106227000D01*
X187877000Y-106227000D01*
X187877000Y-106207000D01*
X188123000Y-106207000D01*
X188123000Y-106227000D01*
X188920250Y-106227000D01*
X189077000Y-106070250D01*
X189077000Y-105625282D01*
X188981545Y-105394833D01*
X188834421Y-105247709D01*
X188895753Y-105208243D01*
X189038917Y-104998717D01*
X189063565Y-104877000D01*
X189634614Y-104877000D01*
X189654437Y-104982352D01*
X189791757Y-105195753D01*
X189870174Y-105249334D01*
X189804247Y-105291757D01*
X189661083Y-105501283D01*
X189610717Y-105750000D01*
X189610717Y-106950000D01*
X189654437Y-107182352D01*
X189791757Y-107395753D01*
X190001283Y-107538917D01*
X190250000Y-107589283D01*
X191150000Y-107589283D01*
X191382352Y-107545563D01*
X191595753Y-107408243D01*
X191738917Y-107198717D01*
X191763565Y-107077000D01*
X191934614Y-107077000D01*
X191954437Y-107182352D01*
X192091757Y-107395753D01*
X192301283Y-107538917D01*
X192550000Y-107589283D01*
X193450000Y-107589283D01*
X193682352Y-107545563D01*
X193895753Y-107408243D01*
X194038917Y-107198717D01*
X194089283Y-106950000D01*
X194089283Y-106138850D01*
X194251175Y-105976958D01*
X194483563Y-105977161D01*
X194824397Y-105836331D01*
X195085394Y-105575789D01*
X195226819Y-105235201D01*
X195227141Y-104866417D01*
X195086311Y-104525583D01*
X194825769Y-104264586D01*
X194485181Y-104123161D01*
X194116397Y-104122839D01*
X194089283Y-104134042D01*
X194089283Y-103550000D01*
X194045563Y-103317648D01*
X193908243Y-103104247D01*
X193827000Y-103048736D01*
X193827000Y-103042554D01*
X195083803Y-101785751D01*
X195324417Y-101686331D01*
X195585414Y-101425789D01*
X195726839Y-101085201D01*
X195727161Y-100716417D01*
X195617031Y-100449882D01*
X195564048Y-100183521D01*
X195384777Y-99915223D01*
X191985751Y-96516197D01*
X191886331Y-96275583D01*
X191625789Y-96014586D01*
X191285201Y-95873161D01*
X190916417Y-95872839D01*
X190575583Y-96013669D01*
X190314586Y-96274211D01*
X190173161Y-96614799D01*
X190172839Y-96983583D01*
X190313669Y-97324417D01*
X190520880Y-97531990D01*
X190350000Y-97497999D01*
X190349995Y-97498000D01*
X189526133Y-97498000D01*
X187189067Y-95160933D01*
X187171524Y-95149211D01*
X186953211Y-95003340D01*
X186907052Y-94994158D01*
X186675000Y-94947999D01*
X186674995Y-94948000D01*
X183184101Y-94948000D01*
X183125789Y-94889586D01*
X182785201Y-94748161D01*
X182416417Y-94747839D01*
X182075583Y-94888669D01*
X181814586Y-95149211D01*
X181673161Y-95489799D01*
X181672839Y-95858583D01*
X180677000Y-95858583D01*
X180677000Y-74783583D01*
X186172839Y-74783583D01*
X186313669Y-75124417D01*
X186574211Y-75385414D01*
X186914799Y-75526839D01*
X186998778Y-75526912D01*
X192235933Y-80764067D01*
X192471789Y-80921660D01*
X192517948Y-80930842D01*
X192750000Y-80977001D01*
X192750005Y-80977000D01*
X205769887Y-80977000D01*
X205596880Y-81048662D01*
X205449231Y-81355283D01*
X206710000Y-82616052D01*
X206724143Y-82601910D01*
X206898091Y-82775858D01*
X206883948Y-82790000D01*
X208144717Y-84050769D01*
X208451338Y-83903120D01*
X208744759Y-83152008D01*
X208728407Y-82345783D01*
X208642511Y-82138413D01*
X208855025Y-82226656D01*
X209641524Y-82227343D01*
X209870600Y-82132691D01*
X209755241Y-82427992D01*
X209771593Y-83234217D01*
X210048662Y-83903120D01*
X210355283Y-84050769D01*
X211616052Y-82790000D01*
X211601910Y-82775858D01*
X211775858Y-82601910D01*
X211790000Y-82616052D01*
X213050769Y-81355283D01*
X212903120Y-81048662D01*
X212152008Y-80755241D01*
X211345783Y-80771593D01*
X211138413Y-80857489D01*
X211226656Y-80644975D01*
X211227343Y-79858476D01*
X211132691Y-79629400D01*
X211427992Y-79744759D01*
X212234217Y-79728407D01*
X212903120Y-79451338D01*
X213050769Y-79144717D01*
X211790000Y-77883948D01*
X211775858Y-77898091D01*
X211601910Y-77724143D01*
X211616052Y-77710000D01*
X210355283Y-76449231D01*
X210048662Y-76596880D01*
X209755241Y-77347992D01*
X209771593Y-78154217D01*
X209857489Y-78361587D01*
X209644975Y-78273344D01*
X208858476Y-78272657D01*
X208629400Y-78367309D01*
X208744759Y-78072008D01*
X208728407Y-77265783D01*
X208451338Y-76596880D01*
X208144717Y-76449231D01*
X206883948Y-77710000D01*
X206898091Y-77724143D01*
X206724143Y-77898091D01*
X206710000Y-77883948D01*
X205449231Y-79144717D01*
X205596880Y-79451338D01*
X205780324Y-79523000D01*
X195146554Y-79523000D01*
X197321562Y-77347992D01*
X204675241Y-77347992D01*
X204691593Y-78154217D01*
X204968662Y-78823120D01*
X205275283Y-78970769D01*
X206536052Y-77710000D01*
X205275283Y-76449231D01*
X204968662Y-76596880D01*
X204675241Y-77347992D01*
X197321562Y-77347992D01*
X198394271Y-76275283D01*
X205449231Y-76275283D01*
X206710000Y-77536052D01*
X207970769Y-76275283D01*
X210529231Y-76275283D01*
X211790000Y-77536052D01*
X213050769Y-76275283D01*
X212903120Y-75968662D01*
X212152008Y-75675241D01*
X211345783Y-75691593D01*
X210676880Y-75968662D01*
X210529231Y-76275283D01*
X207970769Y-76275283D01*
X207823120Y-75968662D01*
X207072008Y-75675241D01*
X206265783Y-75691593D01*
X205596880Y-75968662D01*
X205449231Y-76275283D01*
X198394271Y-76275283D01*
X202047834Y-72621720D01*
X209622675Y-72621720D01*
X209907829Y-73311846D01*
X210435376Y-73840316D01*
X211125004Y-74126674D01*
X211871720Y-74127325D01*
X212561846Y-73842171D01*
X213090316Y-73314624D01*
X213376674Y-72624996D01*
X213377325Y-71878280D01*
X213092171Y-71188154D01*
X212564624Y-70659684D01*
X211874996Y-70373326D01*
X211128280Y-70372675D01*
X210438154Y-70657829D01*
X209909684Y-71185376D01*
X209623326Y-71875004D01*
X209622675Y-72621720D01*
X202047834Y-72621720D01*
X205083805Y-69585750D01*
X205324417Y-69486331D01*
X205585414Y-69225789D01*
X205726839Y-68885201D01*
X205727161Y-68516417D01*
X205586331Y-68175583D01*
X205325789Y-67914586D01*
X204985201Y-67773161D01*
X204616417Y-67772839D01*
X204275583Y-67913669D01*
X204014586Y-68174211D01*
X203914002Y-68416443D01*
X193716197Y-78614249D01*
X193475583Y-78713669D01*
X193214586Y-78974211D01*
X193073161Y-79314799D01*
X193072979Y-79523000D01*
X193051134Y-79523000D01*
X188027089Y-74498955D01*
X188027161Y-74416417D01*
X187886331Y-74075583D01*
X187625789Y-73814586D01*
X187285201Y-73673161D01*
X186916417Y-73672839D01*
X186575583Y-73813669D01*
X186314586Y-74074211D01*
X186173161Y-74414799D01*
X186172839Y-74783583D01*
X180677000Y-74783583D01*
X180677000Y-68829750D01*
X185973000Y-68829750D01*
X185973000Y-71524718D01*
X186068455Y-71755167D01*
X186244833Y-71931545D01*
X186475282Y-72027000D01*
X188470250Y-72027000D01*
X188627000Y-71870250D01*
X188627000Y-68673000D01*
X188873000Y-68673000D01*
X188873000Y-71870250D01*
X189029750Y-72027000D01*
X191024718Y-72027000D01*
X191255167Y-71931545D01*
X191431545Y-71755167D01*
X191527000Y-71524718D01*
X191527000Y-68829750D01*
X191370250Y-68673000D01*
X188873000Y-68673000D01*
X188627000Y-68673000D01*
X186129750Y-68673000D01*
X185973000Y-68829750D01*
X180677000Y-68829750D01*
X180677000Y-65575282D01*
X185973000Y-65575282D01*
X185973000Y-68270250D01*
X186129750Y-68427000D01*
X188627000Y-68427000D01*
X188627000Y-65229750D01*
X188873000Y-65229750D01*
X188873000Y-68427000D01*
X191370250Y-68427000D01*
X191527000Y-68270250D01*
X191527000Y-65575282D01*
X191431545Y-65344833D01*
X191255167Y-65168455D01*
X191024718Y-65073000D01*
X189029750Y-65073000D01*
X188873000Y-65229750D01*
X188627000Y-65229750D01*
X188470250Y-65073000D01*
X186475282Y-65073000D01*
X186244833Y-65168455D01*
X186068455Y-65344833D01*
X185973000Y-65575282D01*
X180677000Y-65575282D01*
X180677000Y-63316680D01*
X180713841Y-63131468D01*
X180780983Y-63030983D01*
X180881468Y-62963841D01*
X181066679Y-62927000D01*
X208016509Y-62927000D01*
X207898224Y-63006036D01*
X207898224Y-63006036D01*
G37*
X207898224Y-63006036D02*
X207542066Y-63539063D01*
X207417000Y-64167812D01*
X207417000Y-64232188D01*
X207542066Y-64860937D01*
X207898224Y-65393964D01*
X208431251Y-65750122D01*
X209060000Y-65875188D01*
X209688749Y-65750122D01*
X210031670Y-65520989D01*
X210052455Y-65571167D01*
X210228833Y-65747545D01*
X210459282Y-65843000D01*
X211320250Y-65843000D01*
X211477000Y-65686250D01*
X211477000Y-64323000D01*
X211723000Y-64323000D01*
X211723000Y-65686250D01*
X211879750Y-65843000D01*
X212740718Y-65843000D01*
X212971167Y-65747545D01*
X213147545Y-65571167D01*
X213243000Y-65340718D01*
X213243000Y-64479750D01*
X213086250Y-64323000D01*
X211723000Y-64323000D01*
X211477000Y-64323000D01*
X211457000Y-64323000D01*
X211457000Y-64077000D01*
X211477000Y-64077000D01*
X211477000Y-64057000D01*
X211723000Y-64057000D01*
X211723000Y-64077000D01*
X213086250Y-64077000D01*
X213243000Y-63920250D01*
X213243000Y-63059282D01*
X213188207Y-62927000D01*
X213433320Y-62927000D01*
X213618532Y-62963841D01*
X213719017Y-63030983D01*
X213786159Y-63131468D01*
X213823000Y-63316679D01*
X213823000Y-77985282D01*
X213808407Y-77265783D01*
X213531338Y-76596880D01*
X213224717Y-76449231D01*
X211963948Y-77710000D01*
X213224717Y-78970769D01*
X213531338Y-78823120D01*
X213823000Y-78076511D01*
X213823000Y-83065282D01*
X213808407Y-82345783D01*
X213531338Y-81676880D01*
X213224717Y-81529231D01*
X211963948Y-82790000D01*
X213224717Y-84050769D01*
X213531338Y-83903120D01*
X213823000Y-83156511D01*
X213823000Y-106123000D01*
X208152000Y-106123000D01*
X208152000Y-103742554D01*
X211808803Y-100085751D01*
X212049417Y-99986331D01*
X212310414Y-99725789D01*
X212451839Y-99385201D01*
X212452161Y-99016417D01*
X212311331Y-98675583D01*
X212050789Y-98414586D01*
X211710201Y-98273161D01*
X211341417Y-98272839D01*
X211000583Y-98413669D01*
X210739586Y-98674211D01*
X210639002Y-98916444D01*
X209758209Y-99797237D01*
X209625789Y-99664586D01*
X209383556Y-99564002D01*
X209014283Y-99194729D01*
X209014283Y-99100000D01*
X208970563Y-98867648D01*
X208894788Y-98749890D01*
X208963917Y-98648717D01*
X209014283Y-98400000D01*
X209014283Y-97200000D01*
X208970563Y-96967648D01*
X208833243Y-96754247D01*
X208623717Y-96611083D01*
X208375000Y-96560717D01*
X207625000Y-96560717D01*
X207392648Y-96604437D01*
X207179247Y-96741757D01*
X207130696Y-96812814D01*
X207035201Y-96773161D01*
X206666417Y-96772839D01*
X206325583Y-96913669D01*
X206064586Y-97174211D01*
X205923161Y-97514799D01*
X205922839Y-97883583D01*
X206063669Y-98224417D01*
X206324211Y-98485414D01*
X206664799Y-98626839D01*
X207028459Y-98627157D01*
X207029437Y-98632352D01*
X207105212Y-98750110D01*
X207036083Y-98851283D01*
X206985717Y-99100000D01*
X206985717Y-100300000D01*
X207029437Y-100532352D01*
X207166757Y-100745753D01*
X207376283Y-100888917D01*
X207625000Y-100939283D01*
X208299152Y-100939283D01*
X208313669Y-100974417D01*
X208447232Y-101108214D01*
X206740223Y-102815223D01*
X206738081Y-102818429D01*
X206700000Y-102810717D01*
X205500000Y-102810717D01*
X205267648Y-102854437D01*
X205054247Y-102991757D01*
X205000666Y-103070174D01*
X204958243Y-103004247D01*
X204748717Y-102861083D01*
X204500000Y-102810717D01*
X203300000Y-102810717D01*
X203067648Y-102854437D01*
X202854247Y-102991757D01*
X202711083Y-103201283D01*
X202660717Y-103450000D01*
X202660717Y-104350000D01*
X202704437Y-104582352D01*
X202841757Y-104795753D01*
X203051283Y-104938917D01*
X203300000Y-104989283D01*
X203661149Y-104989283D01*
X204072911Y-105401045D01*
X204072839Y-105483583D01*
X204213669Y-105824417D01*
X204474211Y-106085414D01*
X204814799Y-106226839D01*
X205183583Y-106227161D01*
X205524417Y-106086331D01*
X205773000Y-105838181D01*
X205773000Y-108819866D01*
X205502089Y-108548955D01*
X205502161Y-108466417D01*
X205361331Y-108125583D01*
X205100789Y-107864586D01*
X204760201Y-107723161D01*
X204391417Y-107722839D01*
X204050583Y-107863669D01*
X203996145Y-107918012D01*
X203564067Y-107485933D01*
X203557500Y-107481545D01*
X203328211Y-107328340D01*
X203282052Y-107319158D01*
X203050000Y-107272999D01*
X203049995Y-107273000D01*
X200700005Y-107273000D01*
X200700000Y-107272999D01*
X200467948Y-107319158D01*
X200421789Y-107328340D01*
X200192500Y-107481545D01*
X200185933Y-107485933D01*
X199723955Y-107947911D01*
X199641417Y-107947839D01*
X199300583Y-108088669D01*
X199039586Y-108349211D01*
X198933303Y-108605169D01*
X197327000Y-106998866D01*
X197327000Y-105907334D01*
X197614799Y-106026839D01*
X197983583Y-106027161D01*
X198324417Y-105886331D01*
X198585414Y-105625789D01*
X198726839Y-105285201D01*
X198726912Y-105201221D01*
X200264064Y-103664069D01*
X200264067Y-103664067D01*
X200421660Y-103428211D01*
X200477000Y-103150000D01*
X200477000Y-92838002D01*
X200421660Y-92559791D01*
X200264067Y-92323935D01*
X200264064Y-92323933D01*
X192164849Y-84224717D01*
X205449231Y-84224717D01*
X205596880Y-84531338D01*
X206347992Y-84824759D01*
X207154217Y-84808407D01*
X207823120Y-84531338D01*
X207970769Y-84224717D01*
X210529231Y-84224717D01*
X210676880Y-84531338D01*
X211427992Y-84824759D01*
X212234217Y-84808407D01*
X212903120Y-84531338D01*
X213050769Y-84224717D01*
X211790000Y-82963948D01*
X210529231Y-84224717D01*
X207970769Y-84224717D01*
X206710000Y-82963948D01*
X205449231Y-84224717D01*
X192164849Y-84224717D01*
X191539283Y-83599151D01*
X191539283Y-82427992D01*
X204675241Y-82427992D01*
X204691593Y-83234217D01*
X204968662Y-83903120D01*
X205275283Y-84050769D01*
X206536052Y-82790000D01*
X205275283Y-81529231D01*
X204968662Y-81676880D01*
X204675241Y-82427992D01*
X191539283Y-82427992D01*
X191539283Y-81100000D01*
X191495563Y-80867648D01*
X191358243Y-80654247D01*
X191148717Y-80511083D01*
X190900000Y-80460717D01*
X189076667Y-80460717D01*
X189028211Y-80428340D01*
X188750000Y-80373000D01*
X188471789Y-80428340D01*
X188423333Y-80460717D01*
X186600000Y-80460717D01*
X186367648Y-80504437D01*
X186154247Y-80641757D01*
X186011083Y-80851283D01*
X185960717Y-81100000D01*
X185960717Y-86800000D01*
X186004437Y-87032352D01*
X186141757Y-87245753D01*
X186351283Y-87388917D01*
X186600000Y-87439283D01*
X190900000Y-87439283D01*
X191132352Y-87395563D01*
X191345753Y-87258243D01*
X191488917Y-87048717D01*
X191539283Y-86800000D01*
X191539283Y-85655419D01*
X199023000Y-93139135D01*
X199023000Y-102848867D01*
X197698955Y-104172911D01*
X197616417Y-104172839D01*
X197327000Y-104292424D01*
X197327000Y-99184101D01*
X197385414Y-99125789D01*
X197526839Y-98785201D01*
X197527161Y-98416417D01*
X197386331Y-98075583D01*
X197125789Y-97814586D01*
X196785201Y-97673161D01*
X196416417Y-97672839D01*
X196075583Y-97813669D01*
X195814586Y-98074211D01*
X195673161Y-98414799D01*
X195672839Y-98783583D01*
X195813669Y-99124417D01*
X195873000Y-99183852D01*
X195873000Y-107299995D01*
X195872999Y-107300000D01*
X195918121Y-107526839D01*
X195928340Y-107578211D01*
X195960940Y-107627000D01*
X196085933Y-107814067D01*
X198472911Y-110201045D01*
X198472839Y-110283583D01*
X198613669Y-110624417D01*
X198874211Y-110885414D01*
X199214799Y-111026839D01*
X199583583Y-111027161D01*
X199910717Y-110891992D01*
X199910717Y-111000000D01*
X199954437Y-111232352D01*
X200091757Y-111445753D01*
X200170174Y-111499334D01*
X200104247Y-111541757D01*
X199961083Y-111751283D01*
X199956685Y-111773000D01*
X198975639Y-111773000D01*
X198735201Y-111673161D01*
X198366417Y-111672839D01*
X198025583Y-111813669D01*
X197764586Y-112074211D01*
X197623161Y-112414799D01*
X197622839Y-112783583D01*
X197763669Y-113124417D01*
X198024211Y-113385414D01*
X198364799Y-113526839D01*
X198733583Y-113527161D01*
X198975991Y-113427000D01*
X199953430Y-113427000D01*
X199954437Y-113432352D01*
X200013222Y-113523706D01*
X199844833Y-113593455D01*
X199668455Y-113769833D01*
X199573000Y-114000282D01*
X199573000Y-114220250D01*
X199729750Y-114377000D01*
X200677000Y-114377000D01*
X200677000Y-114357000D01*
X200923000Y-114357000D01*
X200923000Y-114377000D01*
X200943000Y-114377000D01*
X200943000Y-114623000D01*
X200923000Y-114623000D01*
X200923000Y-114643000D01*
X200677000Y-114643000D01*
X200677000Y-114623000D01*
X199729750Y-114623000D01*
X199573000Y-114779750D01*
X199573000Y-114999718D01*
X199613710Y-115098000D01*
X197860671Y-115098000D01*
X197949417Y-115061331D01*
X198210414Y-114800789D01*
X198351839Y-114460201D01*
X198352161Y-114091417D01*
X198211331Y-113750583D01*
X197950789Y-113489586D01*
X197610201Y-113348161D01*
X197241417Y-113347839D01*
X196900583Y-113488669D01*
X196841148Y-113548000D01*
X193976133Y-113548000D01*
X188005134Y-107577000D01*
X188123002Y-107577000D01*
X188123002Y-107420252D01*
X188279750Y-107577000D01*
X188574718Y-107577000D01*
X188805167Y-107481545D01*
X188981545Y-107305167D01*
X189077000Y-107074718D01*
X189077000Y-106629750D01*
X188920250Y-106473000D01*
X188123000Y-106473000D01*
X188123000Y-106493000D01*
X187877000Y-106493000D01*
X187877000Y-106473000D01*
X187079750Y-106473000D01*
X186990442Y-106562308D01*
X186927089Y-106498955D01*
X186927161Y-106416417D01*
X186786331Y-106075583D01*
X186525789Y-105814586D01*
X186185201Y-105673161D01*
X185816417Y-105672839D01*
X185475583Y-105813669D01*
X185214586Y-106074211D01*
X185089679Y-106375020D01*
X185085203Y-106373161D01*
X184716419Y-106372839D01*
X184375585Y-106513669D01*
X184114588Y-106774211D01*
X183973163Y-107114799D01*
X183972841Y-107483583D01*
X184113671Y-107824417D01*
X184374213Y-108085414D01*
X184714801Y-108226839D01*
X184798780Y-108226912D01*
X191669869Y-115098000D01*
X185625000Y-115098000D01*
X185308521Y-115160952D01*
X185040223Y-115340223D01*
X184091197Y-116289249D01*
X183850583Y-116388669D01*
X183589586Y-116649211D01*
X183448161Y-116989799D01*
X183447839Y-117358583D01*
X183588669Y-117699417D01*
X183849211Y-117960414D01*
X184189799Y-118101839D01*
X184558583Y-118102161D01*
X184899417Y-117961331D01*
X184991103Y-117869804D01*
X185013669Y-117924417D01*
X185274211Y-118185414D01*
X185614799Y-118326839D01*
X185698779Y-118326912D01*
X186899571Y-119527704D01*
X186899571Y-120198866D01*
X186402203Y-120696233D01*
X186226570Y-120660667D01*
X184425710Y-120660667D01*
X184193358Y-120704387D01*
X183979957Y-120841707D01*
X183851290Y-121030016D01*
X183851290Y-121029750D01*
X183694540Y-120873000D01*
X182446860Y-120873000D01*
X182446860Y-120893000D01*
X182200860Y-120893000D01*
X182200860Y-120873000D01*
X180953180Y-120873000D01*
X180796430Y-121029750D01*
X180796430Y-121274768D01*
X180891885Y-121505217D01*
X181068263Y-121681595D01*
X181117258Y-121701889D01*
X180977677Y-121791707D01*
X180834513Y-122001233D01*
X180784147Y-122249950D01*
X180784147Y-123050050D01*
X180827867Y-123282402D01*
X180965187Y-123495803D01*
X181174713Y-123638967D01*
X181380152Y-123680569D01*
X181335717Y-123900000D01*
X181335717Y-124800000D01*
X181379437Y-125032352D01*
X181516757Y-125245753D01*
X181726283Y-125388917D01*
X181848000Y-125413565D01*
X181848000Y-125772676D01*
X181809793Y-125810883D01*
X181759824Y-125885667D01*
X181423430Y-125885667D01*
X181191078Y-125929387D01*
X180977677Y-126066707D01*
X180834513Y-126276233D01*
X180784147Y-126524950D01*
X180784147Y-127325050D01*
X180827867Y-127557402D01*
X180965187Y-127770803D01*
X181174713Y-127913967D01*
X181423430Y-127964333D01*
X183224290Y-127964333D01*
X183456642Y-127920613D01*
X183670043Y-127783293D01*
X183798710Y-127594984D01*
X183798710Y-127595250D01*
X183955460Y-127752000D01*
X185203140Y-127752000D01*
X185203140Y-127732000D01*
X185449140Y-127732000D01*
X185449140Y-127752000D01*
X185675405Y-127752000D01*
X185801090Y-127777001D01*
X185801095Y-127777000D01*
X186965899Y-127777000D01*
X187024211Y-127835414D01*
X187364799Y-127976839D01*
X187455166Y-127976918D01*
X187671789Y-128121660D01*
X187682945Y-128123879D01*
X187950000Y-128177001D01*
X187950005Y-128177000D01*
X188609614Y-128177000D01*
X188629437Y-128282352D01*
X188766757Y-128495753D01*
X188976283Y-128638917D01*
X189225000Y-128689283D01*
X189975000Y-128689283D01*
X190207352Y-128645563D01*
X190420753Y-128508243D01*
X190550157Y-128318855D01*
X190689799Y-128376839D01*
X191058583Y-128377161D01*
X191399417Y-128236331D01*
X191660414Y-127975789D01*
X191801839Y-127635201D01*
X191802161Y-127266417D01*
X191661331Y-126925583D01*
X191400789Y-126664586D01*
X191060201Y-126523161D01*
X190691417Y-126522839D01*
X190547753Y-126582200D01*
X190501457Y-126510255D01*
X190506545Y-126505167D01*
X190602000Y-126274718D01*
X190602000Y-126109282D01*
X192009400Y-126109282D01*
X192009400Y-126970250D01*
X192166150Y-127127000D01*
X193377000Y-127127000D01*
X193377000Y-125763750D01*
X193623000Y-125763750D01*
X193623000Y-127127000D01*
X195917000Y-127127000D01*
X195917000Y-125769433D01*
X195686128Y-125649614D01*
X195663156Y-125653872D01*
X195139351Y-125907981D01*
X194981028Y-126086173D01*
X194895145Y-125878833D01*
X194718767Y-125702455D01*
X194488318Y-125607000D01*
X193779750Y-125607000D01*
X193623000Y-125763750D01*
X193377000Y-125763750D01*
X193220250Y-125607000D01*
X192511682Y-125607000D01*
X192281233Y-125702455D01*
X192104855Y-125878833D01*
X192009400Y-126109282D01*
X190602000Y-126109282D01*
X190602000Y-125829750D01*
X190445250Y-125673000D01*
X189723000Y-125673000D01*
X189723000Y-125693000D01*
X189477000Y-125693000D01*
X189477000Y-125673000D01*
X188754750Y-125673000D01*
X188675000Y-125752750D01*
X188595250Y-125673000D01*
X187873000Y-125673000D01*
X187873000Y-125693000D01*
X187627000Y-125693000D01*
X187627000Y-125673000D01*
X187607000Y-125673000D01*
X187607000Y-125427000D01*
X187627000Y-125427000D01*
X187627000Y-125407000D01*
X187873000Y-125407000D01*
X187873000Y-125427000D01*
X188595250Y-125427000D01*
X188675000Y-125347250D01*
X188754750Y-125427000D01*
X189477000Y-125427000D01*
X189477000Y-125407000D01*
X189723000Y-125407000D01*
X189723000Y-125427000D01*
X190445250Y-125427000D01*
X190602000Y-125270250D01*
X190602000Y-124825282D01*
X190528260Y-124647257D01*
X190663917Y-124448717D01*
X190668315Y-124427000D01*
X191000000Y-124427000D01*
X191316479Y-124364048D01*
X191584777Y-124184777D01*
X191734777Y-124034777D01*
X191914048Y-123766479D01*
X191977000Y-123450000D01*
X191977000Y-121625639D01*
X192006152Y-121555434D01*
X192664804Y-122214085D01*
X192664806Y-122214088D01*
X192900662Y-122371681D01*
X193178873Y-122427021D01*
X193754870Y-122427021D01*
X193754875Y-122427022D01*
X193986927Y-122380863D01*
X194033086Y-122371681D01*
X194174787Y-122277000D01*
X196165899Y-122277000D01*
X196224211Y-122335414D01*
X196564799Y-122476839D01*
X196933583Y-122477161D01*
X197274417Y-122336331D01*
X197535414Y-122075789D01*
X197676839Y-121735201D01*
X197677161Y-121366417D01*
X197536331Y-121025583D01*
X197275789Y-120764586D01*
X196935201Y-120623161D01*
X196669882Y-120622929D01*
X196788917Y-120448717D01*
X196823133Y-120279750D01*
X199573000Y-120279750D01*
X199573000Y-120499718D01*
X199668455Y-120730167D01*
X199844833Y-120906545D01*
X200075282Y-121002000D01*
X200520250Y-121002000D01*
X200677000Y-120845250D01*
X200677000Y-120123000D01*
X199729750Y-120123000D01*
X199573000Y-120279750D01*
X196823133Y-120279750D01*
X196839283Y-120200000D01*
X196839283Y-119500282D01*
X199573000Y-119500282D01*
X199573000Y-119720250D01*
X199729750Y-119877000D01*
X200677000Y-119877000D01*
X200677000Y-119154750D01*
X200520250Y-118998000D01*
X200075282Y-118998000D01*
X199844833Y-119093455D01*
X199668455Y-119269833D01*
X199573000Y-119500282D01*
X196839283Y-119500282D01*
X196839283Y-119000000D01*
X196795563Y-118767648D01*
X196658243Y-118554247D01*
X196579826Y-118500666D01*
X196645753Y-118458243D01*
X196788917Y-118248717D01*
X196839283Y-118000000D01*
X196839283Y-117529750D01*
X198471430Y-117529750D01*
X198471430Y-117774768D01*
X198566885Y-118005217D01*
X198743263Y-118181595D01*
X198973712Y-118277050D01*
X199719110Y-118277050D01*
X199875860Y-118120300D01*
X199875860Y-117373000D01*
X198628180Y-117373000D01*
X198471430Y-117529750D01*
X196839283Y-117529750D01*
X196839283Y-116800000D01*
X196830251Y-116752000D01*
X198471430Y-116752000D01*
X198471430Y-116970250D01*
X198628180Y-117127000D01*
X199875860Y-117127000D01*
X199875860Y-117107000D01*
X200121860Y-117107000D01*
X200121860Y-117127000D01*
X200141860Y-117127000D01*
X200141860Y-117373000D01*
X200121860Y-117373000D01*
X200121860Y-118120300D01*
X200278610Y-118277050D01*
X201024008Y-118277050D01*
X201254457Y-118181595D01*
X201333249Y-118102803D01*
X201461427Y-118230981D01*
X201461427Y-118600050D01*
X201505147Y-118832402D01*
X201642467Y-119045803D01*
X201646073Y-119048267D01*
X201524718Y-118998000D01*
X201079750Y-118998000D01*
X200923000Y-119154750D01*
X200923000Y-119877000D01*
X200943000Y-119877000D01*
X200943000Y-120123000D01*
X200923000Y-120123000D01*
X200923000Y-120845250D01*
X201079750Y-121002000D01*
X201524718Y-121002000D01*
X201755167Y-120906545D01*
X201760099Y-120901613D01*
X201851283Y-120963917D01*
X202100000Y-121014283D01*
X203300000Y-121014283D01*
X203532352Y-120970563D01*
X203745753Y-120833243D01*
X203888917Y-120623717D01*
X203939283Y-120375000D01*
X203939283Y-119625000D01*
X203895563Y-119392648D01*
X203828140Y-119287870D01*
X203828140Y-119239333D01*
X203901570Y-119239333D01*
X204133922Y-119195613D01*
X204347323Y-119058293D01*
X204350109Y-119054215D01*
X204464799Y-119101839D01*
X204833583Y-119102161D01*
X205023000Y-119023895D01*
X205023000Y-120398866D01*
X201773866Y-123648000D01*
X193334101Y-123648000D01*
X193275789Y-123589586D01*
X192935201Y-123448161D01*
X192566417Y-123447839D01*
X192225583Y-123588669D01*
X191964586Y-123849211D01*
X191823161Y-124189799D01*
X191822839Y-124558583D01*
X191963669Y-124899417D01*
X192224211Y-125160414D01*
X192564799Y-125301839D01*
X192933583Y-125302161D01*
X193274417Y-125161331D01*
X193333852Y-125102000D01*
X202074995Y-125102000D01*
X202075000Y-125102001D01*
X202307052Y-125055842D01*
X202353211Y-125046660D01*
X202589067Y-124889067D01*
X206264067Y-121214067D01*
X206282865Y-121185933D01*
X206421660Y-120978211D01*
X206435915Y-120906545D01*
X206477001Y-120700000D01*
X206477000Y-120699995D01*
X206477000Y-118809101D01*
X206535414Y-118750789D01*
X206676839Y-118410201D01*
X206677161Y-118041417D01*
X206536331Y-117700583D01*
X206275789Y-117439586D01*
X205935201Y-117298161D01*
X205566417Y-117297839D01*
X205225583Y-117438669D01*
X205225184Y-117439067D01*
X205175789Y-117389586D01*
X204835201Y-117248161D01*
X204466417Y-117247839D01*
X204302985Y-117315368D01*
X204206099Y-117249168D01*
X204347323Y-117158293D01*
X204490487Y-116948767D01*
X204540853Y-116700050D01*
X204540853Y-115899950D01*
X204497133Y-115667598D01*
X204359813Y-115454197D01*
X204173655Y-115327000D01*
X206275000Y-115327000D01*
X206591479Y-115264048D01*
X206859777Y-115084777D01*
X207623000Y-114321554D01*
X207623000Y-124250000D01*
X207631685Y-124296159D01*
X207658965Y-124338553D01*
X207700590Y-124366994D01*
X207750000Y-124377000D01*
X208148536Y-124377000D01*
X207915456Y-124725829D01*
X207884734Y-124800000D01*
X207814369Y-124969874D01*
X207586008Y-126117924D01*
X207586008Y-126184604D01*
X207573000Y-126250000D01*
X207573000Y-126488796D01*
X207254013Y-126011399D01*
X206770428Y-125688277D01*
X206200000Y-125574812D01*
X205629572Y-125688277D01*
X205145987Y-126011399D01*
X204930000Y-126334646D01*
X204714013Y-126011399D01*
X204230428Y-125688277D01*
X203660000Y-125574812D01*
X203089572Y-125688277D01*
X202605987Y-126011399D01*
X202390000Y-126334646D01*
X202174013Y-126011399D01*
X201690428Y-125688277D01*
X201120000Y-125574812D01*
X200549572Y-125688277D01*
X200065987Y-126011399D01*
X199850000Y-126334646D01*
X199634013Y-126011399D01*
X199150428Y-125688277D01*
X198580000Y-125574812D01*
X198009572Y-125688277D01*
X197525987Y-126011399D01*
X197314180Y-126328389D01*
X196940649Y-125907981D01*
X196416844Y-125653872D01*
X196393872Y-125649614D01*
X196163000Y-125769433D01*
X196163000Y-127127000D01*
X196183000Y-127127000D01*
X196183000Y-127373000D01*
X196163000Y-127373000D01*
X196163000Y-127393000D01*
X195917000Y-127393000D01*
X195917000Y-127373000D01*
X193623000Y-127373000D01*
X193623000Y-127393000D01*
X193377000Y-127393000D01*
X193377000Y-127373000D01*
X192166150Y-127373000D01*
X192009400Y-127529750D01*
X192009400Y-128390718D01*
X192104855Y-128621167D01*
X192281233Y-128797545D01*
X192342687Y-128823000D01*
X186542132Y-128823000D01*
X186581737Y-128806595D01*
X186758115Y-128630217D01*
X186853570Y-128399768D01*
X186853570Y-128154750D01*
X186696820Y-127998000D01*
X185449140Y-127998000D01*
X185449140Y-128018000D01*
X185203140Y-128018000D01*
X185203140Y-127998000D01*
X183955460Y-127998000D01*
X183798710Y-128154750D01*
X183798710Y-128399768D01*
X183894165Y-128630217D01*
X184070543Y-128806595D01*
X184110148Y-128823000D01*
X181066679Y-128823000D01*
X180881468Y-128786159D01*
X180780983Y-128719017D01*
X180713841Y-128618532D01*
X180677000Y-128433320D01*
X180677000Y-120225232D01*
X180796430Y-120225232D01*
X180796430Y-120470250D01*
X180953180Y-120627000D01*
X182200860Y-120627000D01*
X182200860Y-119879700D01*
X182446860Y-119879700D01*
X182446860Y-120627000D01*
X183694540Y-120627000D01*
X183851290Y-120470250D01*
X183851290Y-120225232D01*
X183755835Y-119994783D01*
X183579457Y-119818405D01*
X183349008Y-119722950D01*
X182603610Y-119722950D01*
X182446860Y-119879700D01*
X182200860Y-119879700D01*
X182044110Y-119722950D01*
X181298712Y-119722950D01*
X181068263Y-119818405D01*
X180891885Y-119994783D01*
X180796430Y-120225232D01*
X180677000Y-120225232D01*
X180677000Y-112621720D01*
X181122675Y-112621720D01*
X181407829Y-113311846D01*
X181935376Y-113840316D01*
X182625004Y-114126674D01*
X183371720Y-114127325D01*
X184061846Y-113842171D01*
X184590316Y-113314624D01*
X184876674Y-112624996D01*
X184877325Y-111878280D01*
X184592171Y-111188154D01*
X184064624Y-110659684D01*
X183374996Y-110373326D01*
X182628280Y-110372675D01*
X181938154Y-110657829D01*
X181409684Y-111185376D01*
X181123326Y-111875004D01*
X181122675Y-112621720D01*
X180677000Y-112621720D01*
X180677000Y-104258646D01*
X180685208Y-104269471D01*
X180689782Y-104284060D01*
X180734035Y-104365040D01*
X180748720Y-104382600D01*
X180757112Y-104403900D01*
X180808076Y-104483122D01*
X180823172Y-104498752D01*
X180832491Y-104518385D01*
X180890006Y-104595709D01*
X180905286Y-104609519D01*
X180915296Y-104627520D01*
X180979206Y-104702807D01*
X180994486Y-104714928D01*
X181004983Y-104731363D01*
X181075130Y-104804472D01*
X181090268Y-104815046D01*
X181101087Y-104830010D01*
X181177313Y-104900801D01*
X181192207Y-104909976D01*
X181203215Y-104923572D01*
X181285362Y-104991907D01*
X181299957Y-104999833D01*
X181311061Y-105012182D01*
X181398971Y-105077919D01*
X181413214Y-105084724D01*
X181424332Y-105095927D01*
X181517848Y-105158928D01*
X181531728Y-105164739D01*
X181542816Y-105174910D01*
X181641782Y-105235035D01*
X181655289Y-105239959D01*
X181666308Y-105249193D01*
X181770564Y-105306301D01*
X181782619Y-105310093D01*
X181792619Y-105317824D01*
X181883232Y-105362916D01*
X181892867Y-105365535D01*
X181900949Y-105371391D01*
X181940863Y-105389729D01*
X181949597Y-105391814D01*
X181957014Y-105396878D01*
X181998378Y-105414500D01*
X182006799Y-105416263D01*
X182014029Y-105420921D01*
X182058137Y-105438332D01*
X182065573Y-105439682D01*
X182072021Y-105443625D01*
X182120162Y-105461332D01*
X182126261Y-105462292D01*
X182127513Y-105463025D01*
X182139417Y-105492253D01*
X182139695Y-105492674D01*
X182139791Y-105493170D01*
X182151403Y-105521554D01*
X182151742Y-105522066D01*
X182151861Y-105522672D01*
X182162035Y-105547406D01*
X182162508Y-105548118D01*
X182162675Y-105548956D01*
X182171181Y-105569480D01*
X182171927Y-105570595D01*
X182172194Y-105571910D01*
X182178801Y-105587666D01*
X182180347Y-105589958D01*
X182180921Y-105592660D01*
X182185399Y-105603087D01*
X182191093Y-105611375D01*
X182193490Y-105621143D01*
X182195610Y-105625682D01*
X182235326Y-105679778D01*
X182264666Y-105740130D01*
X182264779Y-105740279D01*
X182282663Y-105756143D01*
X182294692Y-105776804D01*
X182315799Y-105792879D01*
X182325042Y-105806332D01*
X182331156Y-105810304D01*
X182341547Y-105824457D01*
X182398769Y-105859131D01*
X182449257Y-105903915D01*
X182471851Y-105911727D01*
X182490870Y-105926212D01*
X182522402Y-105934539D01*
X182531834Y-105940666D01*
X182533982Y-105941064D01*
X182552443Y-105952251D01*
X182618208Y-105962332D01*
X182682313Y-105984497D01*
X182706175Y-105983069D01*
X182729291Y-105989173D01*
X182763293Y-105984571D01*
X182763541Y-105984609D01*
X182781974Y-105987944D01*
X182783349Y-105987646D01*
X182796190Y-105989614D01*
X182860528Y-105973828D01*
X182928466Y-105969761D01*
X182949968Y-105959308D01*
X182973657Y-105956102D01*
X183000386Y-105940541D01*
X183022957Y-105935642D01*
X183026676Y-105933062D01*
X183035681Y-105930853D01*
X183088954Y-105891741D01*
X183150242Y-105861946D01*
X183166106Y-105844062D01*
X183186767Y-105832033D01*
X183189417Y-105829692D01*
X183204766Y-105809538D01*
X183225582Y-105795100D01*
X183232538Y-105787898D01*
X183235403Y-105783444D01*
X183239707Y-105780353D01*
X183250594Y-105768703D01*
X183251856Y-105766669D01*
X183253788Y-105765259D01*
X183268227Y-105749575D01*
X183268958Y-105748376D01*
X183270090Y-105747543D01*
X183287706Y-105728242D01*
X183288221Y-105727389D01*
X183289019Y-105726798D01*
X183309434Y-105704291D01*
X183309829Y-105703632D01*
X183310443Y-105703175D01*
X183333278Y-105677878D01*
X183333606Y-105677329D01*
X183334120Y-105676944D01*
X183359000Y-105649271D01*
X183359299Y-105648768D01*
X183359765Y-105648418D01*
X183386312Y-105618783D01*
X183386562Y-105618360D01*
X183386955Y-105618064D01*
X183409618Y-105592687D01*
X183409706Y-105592537D01*
X183409847Y-105592431D01*
X183441976Y-105556415D01*
X183469191Y-105525949D01*
X183473607Y-105521020D01*
X183475733Y-105520099D01*
X183483006Y-105515071D01*
X183491594Y-105512971D01*
X183519125Y-105500140D01*
X183525489Y-105495476D01*
X183533108Y-105493414D01*
X183546396Y-105486819D01*
X183558557Y-105477439D01*
X183573174Y-105472721D01*
X183631383Y-105440272D01*
X183650175Y-105424286D01*
X183672999Y-105414922D01*
X183729124Y-105377695D01*
X183746064Y-105360869D01*
X183767416Y-105350185D01*
X183822387Y-105307496D01*
X183836661Y-105291028D01*
X183855442Y-105279973D01*
X183910188Y-105231140D01*
X183917531Y-105221401D01*
X183927805Y-105214816D01*
X183941458Y-105201673D01*
X183948261Y-105191899D01*
X183958042Y-105185105D01*
X184011580Y-105129596D01*
X184022815Y-105112105D01*
X184039087Y-105099160D01*
X184087570Y-105041880D01*
X184098198Y-105022703D01*
X184114378Y-105007914D01*
X184158674Y-104947660D01*
X184167834Y-104928081D01*
X184182769Y-104912454D01*
X184223743Y-104848022D01*
X184230952Y-104829439D01*
X184243802Y-104814200D01*
X184282322Y-104744385D01*
X184285807Y-104733425D01*
X184292902Y-104724371D01*
X184303519Y-104703384D01*
X184306140Y-104693989D01*
X184311922Y-104686130D01*
X184343794Y-104618076D01*
X184347596Y-104602651D01*
X184356364Y-104589407D01*
X184384199Y-104521393D01*
X184387407Y-104504899D01*
X184395936Y-104490422D01*
X184420108Y-104421220D01*
X184422445Y-104404602D01*
X184430195Y-104389717D01*
X184451077Y-104318097D01*
X184452458Y-104302325D01*
X184459068Y-104287939D01*
X184477035Y-104212673D01*
X184477573Y-104198506D01*
X184482918Y-104185373D01*
X184498342Y-104105232D01*
X184498283Y-104095667D01*
X184501624Y-104086700D01*
X184509140Y-104040232D01*
X184508976Y-104035666D01*
X184510510Y-104031363D01*
X184513430Y-104011527D01*
X184513170Y-104006345D01*
X184514832Y-104001434D01*
X184517098Y-103984105D01*
X184516548Y-103975823D01*
X184519006Y-103967893D01*
X184520702Y-103951677D01*
X184519787Y-103941779D01*
X184522435Y-103932197D01*
X184523646Y-103915696D01*
X184522515Y-103906551D01*
X184524713Y-103897603D01*
X184525524Y-103879423D01*
X184524484Y-103872625D01*
X184525982Y-103865912D01*
X184526475Y-103844656D01*
X184525752Y-103840521D01*
X184526612Y-103836414D01*
X184526873Y-103810688D01*
X184526500Y-103808709D01*
X184526901Y-103806734D01*
X184527004Y-103780250D01*
X184526636Y-103778360D01*
X184527008Y-103776467D01*
X184526930Y-103739252D01*
X184526055Y-103734902D01*
X184526851Y-103730541D01*
X184526348Y-103698870D01*
X184524854Y-103691936D01*
X184525973Y-103684930D01*
X184524924Y-103657299D01*
X184522654Y-103647789D01*
X184523902Y-103638091D01*
X184522183Y-103612992D01*
X184519195Y-103601971D01*
X184520249Y-103590599D01*
X184517738Y-103566529D01*
X184514443Y-103555887D01*
X184515085Y-103544768D01*
X184511660Y-103520222D01*
X184508695Y-103511704D01*
X184508962Y-103502686D01*
X184504498Y-103476158D01*
X184502587Y-103471127D01*
X184502656Y-103465745D01*
X184498581Y-103443781D01*
X184494995Y-103434798D01*
X184494829Y-103425130D01*
X184482066Y-103366275D01*
X184476490Y-103353442D01*
X184475640Y-103339478D01*
X184459574Y-103278382D01*
X184453896Y-103266732D01*
X184452587Y-103253838D01*
X184434050Y-103193385D01*
X184427505Y-103181228D01*
X184425521Y-103167566D01*
X184405349Y-103110642D01*
X184400392Y-103102315D01*
X184398711Y-103092771D01*
X184394288Y-103081392D01*
X184392866Y-103079159D01*
X184392386Y-103076559D01*
X184375193Y-103033381D01*
X184374250Y-103031926D01*
X184373926Y-103030225D01*
X184356789Y-102987850D01*
X184355732Y-102986239D01*
X184355361Y-102984351D01*
X184338099Y-102942393D01*
X184336952Y-102940668D01*
X184336539Y-102938634D01*
X184318972Y-102896704D01*
X184317764Y-102894912D01*
X184317320Y-102892798D01*
X184299268Y-102850509D01*
X184298030Y-102848698D01*
X184297564Y-102846555D01*
X184278846Y-102803520D01*
X184277617Y-102801748D01*
X184277145Y-102799645D01*
X184257581Y-102755476D01*
X184256389Y-102753782D01*
X184255923Y-102751766D01*
X184235333Y-102706074D01*
X184234207Y-102704495D01*
X184233759Y-102702610D01*
X184211962Y-102655009D01*
X184210914Y-102653558D01*
X184210491Y-102651821D01*
X184187306Y-102601923D01*
X184186357Y-102600624D01*
X184185968Y-102599061D01*
X184161215Y-102546478D01*
X184160365Y-102545327D01*
X184160014Y-102543942D01*
X184133512Y-102488286D01*
X184132770Y-102487291D01*
X184132461Y-102486090D01*
X184104032Y-102426975D01*
X184103386Y-102426116D01*
X184103115Y-102425076D01*
X184072577Y-102362113D01*
X184072024Y-102361382D01*
X184071790Y-102360496D01*
X184038961Y-102293299D01*
X184038501Y-102292695D01*
X184038305Y-102291960D01*
X184003007Y-102220138D01*
X184002620Y-102219633D01*
X184002456Y-102219021D01*
X183964507Y-102142188D01*
X183964192Y-102141777D01*
X183964056Y-102141276D01*
X183923276Y-102059045D01*
X183923022Y-102058716D01*
X183922913Y-102058314D01*
X183879122Y-101970297D01*
X183878989Y-101970125D01*
X183878932Y-101969915D01*
X183867609Y-101947195D01*
X183867608Y-101947193D01*
X183829080Y-101869749D01*
X183793821Y-101798522D01*
X183761540Y-101732902D01*
X183731983Y-101672340D01*
X183705052Y-101616621D01*
X183680408Y-101565041D01*
X183657953Y-101517387D01*
X183637263Y-101472772D01*
X183618298Y-101431127D01*
X183600580Y-101391427D01*
X183584028Y-101353525D01*
X183568183Y-101316405D01*
X183552859Y-101279670D01*
X183537696Y-101242495D01*
X183522380Y-101204145D01*
X183509980Y-101172571D01*
X183500753Y-101149072D01*
X183499920Y-101147773D01*
X183499640Y-101146259D01*
X183491121Y-101124866D01*
X183490125Y-101123331D01*
X183489783Y-101121534D01*
X183482347Y-101103165D01*
X183480929Y-101101005D01*
X183480425Y-101098472D01*
X183474438Y-101084017D01*
X183471627Y-101079810D01*
X183470562Y-101074863D01*
X183466387Y-101065215D01*
X183455640Y-101049665D01*
X183450579Y-101031453D01*
X183448591Y-101027512D01*
X183438443Y-101014537D01*
X183438698Y-101002669D01*
X183438283Y-101000321D01*
X183433244Y-100987376D01*
X183432941Y-100973487D01*
X183430926Y-100964399D01*
X183429392Y-100956179D01*
X183426401Y-100938099D01*
X183422931Y-100914905D01*
X183419490Y-100889596D01*
X183416442Y-100864692D01*
X183413872Y-100840746D01*
X183413684Y-100838778D01*
X183412187Y-100820000D01*
X183411361Y-100804656D01*
X183410930Y-100788595D01*
X183410923Y-100770218D01*
X183411458Y-100747996D01*
X183412699Y-100720888D01*
X183414805Y-100688024D01*
X183417908Y-100648826D01*
X183422097Y-100602830D01*
X183427426Y-100549724D01*
X183433494Y-100493097D01*
X183443111Y-100410466D01*
X183454472Y-100321690D01*
X183467695Y-100225854D01*
X183482690Y-100123641D01*
X183499389Y-100015538D01*
X183517737Y-99901922D01*
X183537667Y-99783211D01*
X183559033Y-99660271D01*
X183581912Y-99532675D01*
X183606071Y-99401740D01*
X183631565Y-99267182D01*
X183658246Y-99129809D01*
X183686125Y-98989599D01*
X183715059Y-98847304D01*
X183744965Y-98703368D01*
X183775937Y-98557407D01*
X183807755Y-98410498D01*
X183826722Y-98324318D01*
X183836495Y-98280191D01*
X183836526Y-98278767D01*
X183837093Y-98277461D01*
X183845380Y-98239244D01*
X183845457Y-98234739D01*
X183847195Y-98230581D01*
X183853781Y-98198008D01*
X183853810Y-98188752D01*
X183857133Y-98180110D01*
X183861885Y-98152545D01*
X183861463Y-98136100D01*
X183866572Y-98120462D01*
X183869354Y-98097274D01*
X183867276Y-98070323D01*
X183873470Y-98044013D01*
X183874148Y-98024569D01*
X183867486Y-97983676D01*
X183871669Y-97942454D01*
X183870109Y-97926122D01*
X183865712Y-97911472D01*
X183865904Y-97909495D01*
X183853341Y-97868297D01*
X183848936Y-97813574D01*
X183845002Y-97799720D01*
X183834078Y-97778374D01*
X183833095Y-97769509D01*
X183811122Y-97729582D01*
X183799223Y-97689936D01*
X183798790Y-97689406D01*
X183793978Y-97673624D01*
X183787535Y-97661613D01*
X183752602Y-97619173D01*
X183732658Y-97580203D01*
X183725615Y-97574210D01*
X183714201Y-97553469D01*
X183705117Y-97542672D01*
X183665371Y-97510859D01*
X183634028Y-97470746D01*
X183622168Y-97460527D01*
X183593385Y-97444244D01*
X183570442Y-97420436D01*
X183555670Y-97410165D01*
X183539163Y-97402967D01*
X183525958Y-97390721D01*
X183508140Y-97379763D01*
X183501430Y-97377275D01*
X183496074Y-97372526D01*
X183475076Y-97360248D01*
X183474336Y-97359992D01*
X183473749Y-97359474D01*
X183466390Y-97355195D01*
X183462984Y-97354027D01*
X183460260Y-97351677D01*
X183394483Y-97314407D01*
X183387167Y-97311989D01*
X183381217Y-97307100D01*
X183315967Y-97272168D01*
X183308374Y-97269859D01*
X183302118Y-97264972D01*
X183238226Y-97232771D01*
X183230024Y-97230497D01*
X183223180Y-97225436D01*
X183161479Y-97196362D01*
X183152232Y-97194060D01*
X183144407Y-97188625D01*
X183085728Y-97163073D01*
X183074804Y-97160695D01*
X183065405Y-97154641D01*
X183010580Y-97133005D01*
X182998632Y-97130837D01*
X182988184Y-97124653D01*
X182948744Y-97110788D01*
X182932487Y-97108469D01*
X182917943Y-97100838D01*
X182865530Y-97085378D01*
X182842848Y-97083320D01*
X182821983Y-97074201D01*
X182773071Y-97063485D01*
X182746329Y-97062968D01*
X182721011Y-97054342D01*
X182675828Y-97048342D01*
X182643894Y-97050399D01*
X182612720Y-97043161D01*
X182571493Y-97041850D01*
X182533138Y-97048219D01*
X182494480Y-97044100D01*
X182457439Y-97047450D01*
X182411731Y-97060918D01*
X182364126Y-97062998D01*
X182331499Y-97070983D01*
X182302811Y-97084361D01*
X182299715Y-97084516D01*
X182274290Y-97096565D01*
X182222426Y-97108514D01*
X182194441Y-97121105D01*
X182153228Y-97150474D01*
X182135596Y-97155723D01*
X182116451Y-97171271D01*
X182108012Y-97175206D01*
X182107752Y-97175489D01*
X182076878Y-97190121D01*
X182053763Y-97207292D01*
X182028474Y-97235238D01*
X182025753Y-97236594D01*
X182014966Y-97249001D01*
X181993620Y-97264212D01*
X181985715Y-97276850D01*
X181980913Y-97279746D01*
X181977985Y-97283716D01*
X181944171Y-97311176D01*
X181926155Y-97332899D01*
X181905414Y-97371225D01*
X181888302Y-97390135D01*
X181885550Y-97397846D01*
X181863954Y-97422684D01*
X181857936Y-97433210D01*
X181849788Y-97457552D01*
X181834554Y-97478210D01*
X181829795Y-97488343D01*
X181824985Y-97507767D01*
X181814136Y-97524584D01*
X181809766Y-97535634D01*
X181806197Y-97555217D01*
X181796466Y-97572582D01*
X181792457Y-97584908D01*
X181790307Y-97603031D01*
X181782307Y-97619429D01*
X181778631Y-97633387D01*
X181777668Y-97649116D01*
X181771461Y-97663605D01*
X181768089Y-97679553D01*
X181767932Y-97692629D01*
X181763278Y-97704845D01*
X181760182Y-97723141D01*
X181760485Y-97733695D01*
X181757053Y-97743679D01*
X181754206Y-97764678D01*
X181754720Y-97773007D01*
X181752212Y-97780968D01*
X181749584Y-97805030D01*
X181750158Y-97811568D01*
X181748315Y-97817865D01*
X181745880Y-97845345D01*
X181746428Y-97850404D01*
X181745076Y-97855311D01*
X181742804Y-97886567D01*
X181743292Y-97890488D01*
X181742289Y-97894310D01*
X181740153Y-97929699D01*
X181740567Y-97932723D01*
X181739821Y-97935679D01*
X181737793Y-97975561D01*
X181738131Y-97977867D01*
X181737577Y-97980132D01*
X181735627Y-98024861D01*
X181735900Y-98026635D01*
X181735483Y-98028383D01*
X181733585Y-98078319D01*
X181733799Y-98079659D01*
X181733489Y-98080983D01*
X181731614Y-98136482D01*
X181731780Y-98137492D01*
X181731550Y-98138486D01*
X181729670Y-98199905D01*
X181729794Y-98200645D01*
X181729626Y-98201380D01*
X181727712Y-98269077D01*
X181727804Y-98269619D01*
X181727683Y-98270152D01*
X181725708Y-98344482D01*
X181725751Y-98344732D01*
X181725695Y-98344980D01*
X181725357Y-98358080D01*
X181722058Y-98478756D01*
X181718559Y-98591745D01*
X181714807Y-98698515D01*
X181710767Y-98799863D01*
X181706446Y-98895544D01*
X181701783Y-98986945D01*
X181696780Y-99074063D01*
X181691383Y-99157975D01*
X181685590Y-99238895D01*
X181679351Y-99317671D01*
X181672637Y-99394880D01*
X181665324Y-99472082D01*
X181663016Y-99495196D01*
X181649904Y-99617202D01*
X181635904Y-99732629D01*
X181620723Y-99843728D01*
X181604193Y-99951499D01*
X181586195Y-100056589D01*
X181566492Y-100160282D01*
X181544928Y-100263322D01*
X181521267Y-100366781D01*
X181495285Y-100471599D01*
X181466696Y-100578875D01*
X181435342Y-100689206D01*
X181400906Y-100803720D01*
X181363200Y-100923098D01*
X181321865Y-101048554D01*
X181288108Y-101147769D01*
X181273055Y-101190636D01*
X181258874Y-101229313D01*
X181245121Y-101265026D01*
X181231350Y-101298944D01*
X181217075Y-101332246D01*
X181201806Y-101366022D01*
X181184932Y-101401538D01*
X181165964Y-101439712D01*
X181144413Y-101481425D01*
X181119796Y-101527525D01*
X181091753Y-101578646D01*
X181060084Y-101635152D01*
X181024075Y-101698345D01*
X181012558Y-101718383D01*
X181012556Y-101718387D01*
X180978985Y-101776732D01*
X180978910Y-101776954D01*
X180978757Y-101777129D01*
X180948329Y-101830100D01*
X180948223Y-101830414D01*
X180948006Y-101830663D01*
X180920631Y-101878431D01*
X180920481Y-101878878D01*
X180920175Y-101879230D01*
X180895609Y-101922243D01*
X180895409Y-101922842D01*
X180894995Y-101923320D01*
X180872990Y-101962025D01*
X180872727Y-101962818D01*
X180872181Y-101963452D01*
X180852490Y-101998297D01*
X180852149Y-101999332D01*
X180851443Y-102000158D01*
X180833820Y-102031591D01*
X180833402Y-102032876D01*
X180832528Y-102033907D01*
X180816723Y-102062375D01*
X180816209Y-102063978D01*
X180815130Y-102065264D01*
X180800900Y-102091214D01*
X180800301Y-102093114D01*
X180799031Y-102094648D01*
X180786127Y-102118530D01*
X180785453Y-102120717D01*
X180784006Y-102122489D01*
X180772182Y-102144749D01*
X180771466Y-102147130D01*
X180769910Y-102149067D01*
X180758918Y-102170152D01*
X180758190Y-102172645D01*
X180756579Y-102174683D01*
X180746173Y-102195043D01*
X180745495Y-102197436D01*
X180743968Y-102199399D01*
X180733899Y-102219479D01*
X180733298Y-102221665D01*
X180731920Y-102223462D01*
X180721945Y-102243712D01*
X180721471Y-102245484D01*
X180720361Y-102246949D01*
X180710230Y-102267814D01*
X180710031Y-102268577D01*
X180709557Y-102269205D01*
X180708673Y-102271037D01*
X180707595Y-102275203D01*
X180705052Y-102278672D01*
X180677000Y-102338849D01*
X180677000Y-95858583D01*
X181672839Y-95858583D01*
X181813669Y-96199417D01*
X182074211Y-96460414D01*
X182414799Y-96601839D01*
X182783583Y-96602161D01*
X183124417Y-96461331D01*
X183183852Y-96402000D01*
X186373866Y-96402000D01*
X188710931Y-98739064D01*
X188710933Y-98739067D01*
X188851904Y-98833260D01*
X188946790Y-98896661D01*
X189225000Y-98952001D01*
X189225005Y-98952000D01*
X190048866Y-98952000D01*
X190073000Y-98976134D01*
X190073000Y-101990899D01*
X190014586Y-102049211D01*
X189873161Y-102389799D01*
X189872839Y-102758583D01*
X189967182Y-102986911D01*
X189804247Y-103091757D01*
X189661083Y-103301283D01*
X189636435Y-103423000D01*
X189065386Y-103423000D01*
X189045563Y-103317648D01*
X188908243Y-103104247D01*
X188698717Y-102961083D01*
X188450000Y-102910717D01*
X187550000Y-102910717D01*
X187317648Y-102954437D01*
X187104247Y-103091757D01*
X186961083Y-103301283D01*
X186910717Y-103550000D01*
X186910717Y-104750000D01*
X186954437Y-104982352D01*
X187091757Y-105195753D01*
X187166479Y-105246809D01*
X187018455Y-105394833D01*
X186923000Y-105625282D01*
X186923000Y-106070250D01*
X187079750Y-106227000D01*
X187877000Y-106227000D01*
X187877000Y-106207000D01*
X188123000Y-106207000D01*
X188123000Y-106227000D01*
X188920250Y-106227000D01*
X189077000Y-106070250D01*
X189077000Y-105625282D01*
X188981545Y-105394833D01*
X188834421Y-105247709D01*
X188895753Y-105208243D01*
X189038917Y-104998717D01*
X189063565Y-104877000D01*
X189634614Y-104877000D01*
X189654437Y-104982352D01*
X189791757Y-105195753D01*
X189870174Y-105249334D01*
X189804247Y-105291757D01*
X189661083Y-105501283D01*
X189610717Y-105750000D01*
X189610717Y-106950000D01*
X189654437Y-107182352D01*
X189791757Y-107395753D01*
X190001283Y-107538917D01*
X190250000Y-107589283D01*
X191150000Y-107589283D01*
X191382352Y-107545563D01*
X191595753Y-107408243D01*
X191738917Y-107198717D01*
X191763565Y-107077000D01*
X191934614Y-107077000D01*
X191954437Y-107182352D01*
X192091757Y-107395753D01*
X192301283Y-107538917D01*
X192550000Y-107589283D01*
X193450000Y-107589283D01*
X193682352Y-107545563D01*
X193895753Y-107408243D01*
X194038917Y-107198717D01*
X194089283Y-106950000D01*
X194089283Y-106138850D01*
X194251175Y-105976958D01*
X194483563Y-105977161D01*
X194824397Y-105836331D01*
X195085394Y-105575789D01*
X195226819Y-105235201D01*
X195227141Y-104866417D01*
X195086311Y-104525583D01*
X194825769Y-104264586D01*
X194485181Y-104123161D01*
X194116397Y-104122839D01*
X194089283Y-104134042D01*
X194089283Y-103550000D01*
X194045563Y-103317648D01*
X193908243Y-103104247D01*
X193827000Y-103048736D01*
X193827000Y-103042554D01*
X195083803Y-101785751D01*
X195324417Y-101686331D01*
X195585414Y-101425789D01*
X195726839Y-101085201D01*
X195727161Y-100716417D01*
X195617031Y-100449882D01*
X195564048Y-100183521D01*
X195384777Y-99915223D01*
X191985751Y-96516197D01*
X191886331Y-96275583D01*
X191625789Y-96014586D01*
X191285201Y-95873161D01*
X190916417Y-95872839D01*
X190575583Y-96013669D01*
X190314586Y-96274211D01*
X190173161Y-96614799D01*
X190172839Y-96983583D01*
X190313669Y-97324417D01*
X190520880Y-97531990D01*
X190350000Y-97497999D01*
X190349995Y-97498000D01*
X189526133Y-97498000D01*
X187189067Y-95160933D01*
X187171524Y-95149211D01*
X186953211Y-95003340D01*
X186907052Y-94994158D01*
X186675000Y-94947999D01*
X186674995Y-94948000D01*
X183184101Y-94948000D01*
X183125789Y-94889586D01*
X182785201Y-94748161D01*
X182416417Y-94747839D01*
X182075583Y-94888669D01*
X181814586Y-95149211D01*
X181673161Y-95489799D01*
X181672839Y-95858583D01*
X180677000Y-95858583D01*
X180677000Y-74783583D01*
X186172839Y-74783583D01*
X186313669Y-75124417D01*
X186574211Y-75385414D01*
X186914799Y-75526839D01*
X186998778Y-75526912D01*
X192235933Y-80764067D01*
X192471789Y-80921660D01*
X192517948Y-80930842D01*
X192750000Y-80977001D01*
X192750005Y-80977000D01*
X205769887Y-80977000D01*
X205596880Y-81048662D01*
X205449231Y-81355283D01*
X206710000Y-82616052D01*
X206724143Y-82601910D01*
X206898091Y-82775858D01*
X206883948Y-82790000D01*
X208144717Y-84050769D01*
X208451338Y-83903120D01*
X208744759Y-83152008D01*
X208728407Y-82345783D01*
X208642511Y-82138413D01*
X208855025Y-82226656D01*
X209641524Y-82227343D01*
X209870600Y-82132691D01*
X209755241Y-82427992D01*
X209771593Y-83234217D01*
X210048662Y-83903120D01*
X210355283Y-84050769D01*
X211616052Y-82790000D01*
X211601910Y-82775858D01*
X211775858Y-82601910D01*
X211790000Y-82616052D01*
X213050769Y-81355283D01*
X212903120Y-81048662D01*
X212152008Y-80755241D01*
X211345783Y-80771593D01*
X211138413Y-80857489D01*
X211226656Y-80644975D01*
X211227343Y-79858476D01*
X211132691Y-79629400D01*
X211427992Y-79744759D01*
X212234217Y-79728407D01*
X212903120Y-79451338D01*
X213050769Y-79144717D01*
X211790000Y-77883948D01*
X211775858Y-77898091D01*
X211601910Y-77724143D01*
X211616052Y-77710000D01*
X210355283Y-76449231D01*
X210048662Y-76596880D01*
X209755241Y-77347992D01*
X209771593Y-78154217D01*
X209857489Y-78361587D01*
X209644975Y-78273344D01*
X208858476Y-78272657D01*
X208629400Y-78367309D01*
X208744759Y-78072008D01*
X208728407Y-77265783D01*
X208451338Y-76596880D01*
X208144717Y-76449231D01*
X206883948Y-77710000D01*
X206898091Y-77724143D01*
X206724143Y-77898091D01*
X206710000Y-77883948D01*
X205449231Y-79144717D01*
X205596880Y-79451338D01*
X205780324Y-79523000D01*
X195146554Y-79523000D01*
X197321562Y-77347992D01*
X204675241Y-77347992D01*
X204691593Y-78154217D01*
X204968662Y-78823120D01*
X205275283Y-78970769D01*
X206536052Y-77710000D01*
X205275283Y-76449231D01*
X204968662Y-76596880D01*
X204675241Y-77347992D01*
X197321562Y-77347992D01*
X198394271Y-76275283D01*
X205449231Y-76275283D01*
X206710000Y-77536052D01*
X207970769Y-76275283D01*
X210529231Y-76275283D01*
X211790000Y-77536052D01*
X213050769Y-76275283D01*
X212903120Y-75968662D01*
X212152008Y-75675241D01*
X211345783Y-75691593D01*
X210676880Y-75968662D01*
X210529231Y-76275283D01*
X207970769Y-76275283D01*
X207823120Y-75968662D01*
X207072008Y-75675241D01*
X206265783Y-75691593D01*
X205596880Y-75968662D01*
X205449231Y-76275283D01*
X198394271Y-76275283D01*
X202047834Y-72621720D01*
X209622675Y-72621720D01*
X209907829Y-73311846D01*
X210435376Y-73840316D01*
X211125004Y-74126674D01*
X211871720Y-74127325D01*
X212561846Y-73842171D01*
X213090316Y-73314624D01*
X213376674Y-72624996D01*
X213377325Y-71878280D01*
X213092171Y-71188154D01*
X212564624Y-70659684D01*
X211874996Y-70373326D01*
X211128280Y-70372675D01*
X210438154Y-70657829D01*
X209909684Y-71185376D01*
X209623326Y-71875004D01*
X209622675Y-72621720D01*
X202047834Y-72621720D01*
X205083805Y-69585750D01*
X205324417Y-69486331D01*
X205585414Y-69225789D01*
X205726839Y-68885201D01*
X205727161Y-68516417D01*
X205586331Y-68175583D01*
X205325789Y-67914586D01*
X204985201Y-67773161D01*
X204616417Y-67772839D01*
X204275583Y-67913669D01*
X204014586Y-68174211D01*
X203914002Y-68416443D01*
X193716197Y-78614249D01*
X193475583Y-78713669D01*
X193214586Y-78974211D01*
X193073161Y-79314799D01*
X193072979Y-79523000D01*
X193051134Y-79523000D01*
X188027089Y-74498955D01*
X188027161Y-74416417D01*
X187886331Y-74075583D01*
X187625789Y-73814586D01*
X187285201Y-73673161D01*
X186916417Y-73672839D01*
X186575583Y-73813669D01*
X186314586Y-74074211D01*
X186173161Y-74414799D01*
X186172839Y-74783583D01*
X180677000Y-74783583D01*
X180677000Y-68829750D01*
X185973000Y-68829750D01*
X185973000Y-71524718D01*
X186068455Y-71755167D01*
X186244833Y-71931545D01*
X186475282Y-72027000D01*
X188470250Y-72027000D01*
X188627000Y-71870250D01*
X188627000Y-68673000D01*
X188873000Y-68673000D01*
X188873000Y-71870250D01*
X189029750Y-72027000D01*
X191024718Y-72027000D01*
X191255167Y-71931545D01*
X191431545Y-71755167D01*
X191527000Y-71524718D01*
X191527000Y-68829750D01*
X191370250Y-68673000D01*
X188873000Y-68673000D01*
X188627000Y-68673000D01*
X186129750Y-68673000D01*
X185973000Y-68829750D01*
X180677000Y-68829750D01*
X180677000Y-65575282D01*
X185973000Y-65575282D01*
X185973000Y-68270250D01*
X186129750Y-68427000D01*
X188627000Y-68427000D01*
X188627000Y-65229750D01*
X188873000Y-65229750D01*
X188873000Y-68427000D01*
X191370250Y-68427000D01*
X191527000Y-68270250D01*
X191527000Y-65575282D01*
X191431545Y-65344833D01*
X191255167Y-65168455D01*
X191024718Y-65073000D01*
X189029750Y-65073000D01*
X188873000Y-65229750D01*
X188627000Y-65229750D01*
X188470250Y-65073000D01*
X186475282Y-65073000D01*
X186244833Y-65168455D01*
X186068455Y-65344833D01*
X185973000Y-65575282D01*
X180677000Y-65575282D01*
X180677000Y-63316680D01*
X180713841Y-63131468D01*
X180780983Y-63030983D01*
X180881468Y-62963841D01*
X181066679Y-62927000D01*
X208016509Y-62927000D01*
X207898224Y-63006036D01*
G36*
X192673000Y-117120250D02*
X192829750Y-117277000D01*
X193627000Y-117277000D01*
X193627000Y-117257000D01*
X193873000Y-117257000D01*
X193873000Y-117277000D01*
X193893000Y-117277000D01*
X193893000Y-117523000D01*
X193873000Y-117523000D01*
X193873000Y-117543000D01*
X193627000Y-117543000D01*
X193627000Y-117523000D01*
X192829750Y-117523000D01*
X192673000Y-117679750D01*
X192673000Y-118124718D01*
X192768455Y-118355167D01*
X192915579Y-118502291D01*
X192854247Y-118541757D01*
X192711083Y-118751283D01*
X192660717Y-119000000D01*
X192660717Y-120153731D01*
X192492918Y-119985932D01*
X192361663Y-119898231D01*
X192257062Y-119828339D01*
X192207121Y-119818405D01*
X191978851Y-119772998D01*
X191978846Y-119772999D01*
X188353571Y-119772999D01*
X188353571Y-119226571D01*
X188298231Y-118948360D01*
X188140638Y-118712504D01*
X188140635Y-118712502D01*
X186727089Y-117298955D01*
X186727161Y-117216417D01*
X186586331Y-116875583D01*
X186462963Y-116752000D01*
X192673000Y-116752000D01*
X192673000Y-117120250D01*
X192673000Y-117120250D01*
G37*
X192673000Y-117120250D02*
X192829750Y-117277000D01*
X193627000Y-117277000D01*
X193627000Y-117257000D01*
X193873000Y-117257000D01*
X193873000Y-117277000D01*
X193893000Y-117277000D01*
X193893000Y-117523000D01*
X193873000Y-117523000D01*
X193873000Y-117543000D01*
X193627000Y-117543000D01*
X193627000Y-117523000D01*
X192829750Y-117523000D01*
X192673000Y-117679750D01*
X192673000Y-118124718D01*
X192768455Y-118355167D01*
X192915579Y-118502291D01*
X192854247Y-118541757D01*
X192711083Y-118751283D01*
X192660717Y-119000000D01*
X192660717Y-120153731D01*
X192492918Y-119985932D01*
X192361663Y-119898231D01*
X192257062Y-119828339D01*
X192207121Y-119818405D01*
X191978851Y-119772998D01*
X191978846Y-119772999D01*
X188353571Y-119772999D01*
X188353571Y-119226571D01*
X188298231Y-118948360D01*
X188140638Y-118712504D01*
X188140635Y-118712502D01*
X186727089Y-117298955D01*
X186727161Y-117216417D01*
X186586331Y-116875583D01*
X186462963Y-116752000D01*
X192673000Y-116752000D01*
X192673000Y-117120250D01*
G36*
X202224211Y-109510414D02*
X202230717Y-109513116D01*
X202230717Y-110125000D01*
X202257233Y-110265920D01*
X202243000Y-110300282D01*
X202243000Y-110470250D01*
X202399750Y-110627000D01*
X202494077Y-110627000D01*
X202621283Y-110713917D01*
X202796879Y-110749476D01*
X202637648Y-110779437D01*
X202492247Y-110873000D01*
X202399750Y-110873000D01*
X202243000Y-111029750D01*
X202243000Y-111199718D01*
X202258590Y-111237356D01*
X202230717Y-111375000D01*
X202230717Y-112025000D01*
X202249136Y-112122889D01*
X202191417Y-112122839D01*
X202089283Y-112165040D01*
X202089283Y-112000000D01*
X202045563Y-111767648D01*
X201908243Y-111554247D01*
X201829826Y-111500666D01*
X201895753Y-111458243D01*
X202038917Y-111248717D01*
X202089283Y-111000000D01*
X202089283Y-109800000D01*
X202045563Y-109567648D01*
X202044664Y-109566250D01*
X202162512Y-109448607D01*
X202224211Y-109510414D01*
X202224211Y-109510414D01*
G37*
X202224211Y-109510414D02*
X202230717Y-109513116D01*
X202230717Y-110125000D01*
X202257233Y-110265920D01*
X202243000Y-110300282D01*
X202243000Y-110470250D01*
X202399750Y-110627000D01*
X202494077Y-110627000D01*
X202621283Y-110713917D01*
X202796879Y-110749476D01*
X202637648Y-110779437D01*
X202492247Y-110873000D01*
X202399750Y-110873000D01*
X202243000Y-111029750D01*
X202243000Y-111199718D01*
X202258590Y-111237356D01*
X202230717Y-111375000D01*
X202230717Y-112025000D01*
X202249136Y-112122889D01*
X202191417Y-112122839D01*
X202089283Y-112165040D01*
X202089283Y-112000000D01*
X202045563Y-111767648D01*
X201908243Y-111554247D01*
X201829826Y-111500666D01*
X201895753Y-111458243D01*
X202038917Y-111248717D01*
X202089283Y-111000000D01*
X202089283Y-109800000D01*
X202045563Y-109567648D01*
X202044664Y-109566250D01*
X202162512Y-109448607D01*
X202224211Y-109510414D01*
M02*
