G04 #@! TF.FileFunction,Soldermask,Bot*
%FSLAX46Y46*%
G04 Gerber Fmt 4.6, Leading zero omitted, Abs format (unit mm)*
G04 Created by KiCad (PCBNEW (2015-11-03 BZR 6296)-product) date Wednesday, November 04, 2015 'PMt' 10:27:15 PM*
%MOMM*%
G01*
G04 APERTURE LIST*
%ADD10C,0.100000*%
%ADD11R,1.800860X0.800100*%
%ADD12R,0.750000X1.200000*%
%ADD13R,1.200000X0.750000*%
%ADD14C,2.800000*%
%ADD15C,2.700000*%
%ADD16R,4.300000X5.700000*%
%ADD17R,0.900000X1.200000*%
%ADD18R,1.200000X0.900000*%
%ADD19R,1.060000X0.650000*%
%ADD20R,1.727200X2.032000*%
%ADD21O,1.727200X2.032000*%
%ADD22C,2.235200*%
%ADD23R,2.032000X2.032000*%
%ADD24O,2.032000X2.032000*%
G04 APERTURE END LIST*
D10*
D11*
X182323860Y-122650000D03*
X182323860Y-120750000D03*
X185326140Y-121700000D03*
X185326140Y-125975000D03*
X185326140Y-127875000D03*
X182323860Y-126925000D03*
D12*
X189600000Y-127450000D03*
X189600000Y-125550000D03*
X187750000Y-123650000D03*
X187750000Y-125550000D03*
D13*
X202700000Y-114500000D03*
X200800000Y-114500000D03*
X202700000Y-120000000D03*
X200800000Y-120000000D03*
D12*
X208000000Y-97800000D03*
X208000000Y-99700000D03*
D14*
X206710000Y-77710000D03*
X206710000Y-82790000D03*
X211790000Y-82790000D03*
X211790000Y-77710000D03*
D15*
X209250000Y-80250000D03*
D16*
X188750000Y-68550000D03*
X188750000Y-83950000D03*
D17*
X189625000Y-123600000D03*
X189625000Y-121400000D03*
D18*
X184775000Y-124350000D03*
X182575000Y-124350000D03*
D17*
X201000000Y-110400000D03*
X201000000Y-112600000D03*
X195750000Y-117400000D03*
X195750000Y-119600000D03*
X193750000Y-117400000D03*
X193750000Y-119600000D03*
X193000000Y-104150000D03*
X193000000Y-106350000D03*
X190700000Y-106350000D03*
X190700000Y-104150000D03*
X188000000Y-104150000D03*
X188000000Y-106350000D03*
D19*
X203400000Y-111700000D03*
X203400000Y-110750000D03*
X203400000Y-109800000D03*
X205600000Y-109800000D03*
X205600000Y-111700000D03*
X205600000Y-110750000D03*
D11*
X203001140Y-116300000D03*
X203001140Y-118200000D03*
X199998860Y-117250000D03*
D20*
X193500000Y-127250000D03*
D21*
X196040000Y-127250000D03*
X198580000Y-127250000D03*
X201120000Y-127250000D03*
X203660000Y-127250000D03*
X206200000Y-127250000D03*
D18*
X206100000Y-103900000D03*
X203900000Y-103900000D03*
D22*
X212700000Y-88700000D03*
D23*
X211600000Y-64200000D03*
D24*
X209060000Y-64200000D03*
M02*
