G04 #@! TF.FileFunction,Copper,L1,Top,Signal*
%FSLAX46Y46*%
G04 Gerber Fmt 4.6, Leading zero omitted, Abs format (unit mm)*
G04 Created by KiCad (PCBNEW (2015-11-03 BZR 6296)-product) date Wednesday, November 04, 2015 'PMt' 10:27:15 PM*
%MOMM*%
G01*
G04 APERTURE LIST*
%ADD10C,0.100000*%
%ADD11C,0.010000*%
%ADD12R,1.600200X3.599180*%
%ADD13R,2.700020X4.000500*%
%ADD14R,0.590000X0.450000*%
%ADD15R,0.797560X0.797560*%
%ADD16C,2.800000*%
%ADD17C,2.700000*%
%ADD18R,2.200000X1.500000*%
%ADD19R,1.200000X0.900000*%
%ADD20R,1.600000X2.000000*%
%ADD21O,2.400000X1.100000*%
%ADD22R,1.100000X2.400000*%
%ADD23O,1.100000X2.400000*%
%ADD24R,0.600000X1.550000*%
%ADD25R,1.727200X2.032000*%
%ADD26O,1.727200X2.032000*%
%ADD27R,1.300000X1.550000*%
%ADD28C,2.235200*%
%ADD29R,2.032000X2.032000*%
%ADD30O,2.032000X2.032000*%
%ADD31C,0.600000*%
%ADD32C,0.200000*%
%ADD33C,0.400000*%
%ADD34C,0.254000*%
%ADD35C,0.300000*%
G04 APERTURE END LIST*
D10*
D11*
G36*
X183894931Y-99359423D02*
X183894428Y-99391094D01*
X183893379Y-99418725D01*
X183891660Y-99443824D01*
X183889149Y-99467893D01*
X183885724Y-99492439D01*
X183881260Y-99518967D01*
X183877185Y-99540931D01*
X183864422Y-99599786D01*
X183848355Y-99660883D01*
X183829818Y-99721336D01*
X183809646Y-99778260D01*
X183805223Y-99789639D01*
X183788030Y-99832817D01*
X183770892Y-99875192D01*
X183753630Y-99917150D01*
X183736063Y-99959080D01*
X183718011Y-100001369D01*
X183699293Y-100044404D01*
X183679729Y-100088573D01*
X183659138Y-100134265D01*
X183637341Y-100181866D01*
X183614156Y-100231764D01*
X183589403Y-100284347D01*
X183562901Y-100340003D01*
X183534472Y-100399118D01*
X183503933Y-100462082D01*
X183471104Y-100529280D01*
X183435806Y-100601102D01*
X183397857Y-100677935D01*
X183357077Y-100760166D01*
X183313286Y-100848183D01*
X183301963Y-100870903D01*
X183263019Y-100949183D01*
X183227120Y-101021702D01*
X183194039Y-101088949D01*
X183163552Y-101151415D01*
X183135433Y-101209589D01*
X183109455Y-101263962D01*
X183085394Y-101315024D01*
X183063022Y-101363265D01*
X183042115Y-101409175D01*
X183022447Y-101453244D01*
X183003792Y-101495962D01*
X182985924Y-101537819D01*
X182968618Y-101579306D01*
X182951647Y-101620912D01*
X182934787Y-101663128D01*
X182921719Y-101696403D01*
X182912482Y-101719926D01*
X182903963Y-101741319D01*
X182896527Y-101759688D01*
X182890540Y-101774143D01*
X182886365Y-101783791D01*
X182884376Y-101787732D01*
X182880281Y-101787199D01*
X182872263Y-101781987D01*
X182861032Y-101772739D01*
X182847296Y-101760100D01*
X182831764Y-101744712D01*
X182815145Y-101727219D01*
X182803343Y-101714178D01*
X182747242Y-101646199D01*
X182693747Y-101571764D01*
X182642914Y-101490994D01*
X182594800Y-101404011D01*
X182549462Y-101310938D01*
X182506957Y-101211897D01*
X182467342Y-101107009D01*
X182430673Y-100996398D01*
X182397008Y-100880185D01*
X182374704Y-100793292D01*
X182351462Y-100692697D01*
X182332133Y-100597709D01*
X182316697Y-100508081D01*
X182305132Y-100423561D01*
X182297420Y-100343901D01*
X182293538Y-100268851D01*
X182293465Y-100198163D01*
X182297182Y-100131587D01*
X182304668Y-100068874D01*
X182311340Y-100031082D01*
X182326252Y-99970450D01*
X182345633Y-99915094D01*
X182369410Y-99865086D01*
X182397509Y-99820499D01*
X182429858Y-99781404D01*
X182466383Y-99747873D01*
X182507012Y-99719979D01*
X182551671Y-99697795D01*
X182600287Y-99681392D01*
X182652786Y-99670842D01*
X182679060Y-99667903D01*
X182690167Y-99667085D01*
X182698302Y-99666149D01*
X182704006Y-99664111D01*
X182707822Y-99659991D01*
X182710290Y-99652806D01*
X182711954Y-99641575D01*
X182713354Y-99625315D01*
X182715033Y-99603045D01*
X182715063Y-99602667D01*
X182717290Y-99575115D01*
X182719184Y-99553944D01*
X182720834Y-99538491D01*
X182722327Y-99528094D01*
X182723751Y-99522090D01*
X182725193Y-99519817D01*
X182726026Y-99519918D01*
X182727335Y-99517973D01*
X182727560Y-99511139D01*
X182726886Y-99501468D01*
X182725503Y-99491010D01*
X182723597Y-99481817D01*
X182722141Y-99477431D01*
X182720624Y-99471923D01*
X182718164Y-99460616D01*
X182714992Y-99444669D01*
X182711335Y-99425241D01*
X182707422Y-99403489D01*
X182706471Y-99398056D01*
X182692964Y-99316570D01*
X182681591Y-99239154D01*
X182672013Y-99163266D01*
X182663891Y-99086367D01*
X182661706Y-99062917D01*
X182660112Y-99040487D01*
X182658879Y-99013281D01*
X182658007Y-98982652D01*
X182657496Y-98949951D01*
X182657348Y-98916529D01*
X182657562Y-98883738D01*
X182658139Y-98852930D01*
X182659080Y-98825455D01*
X182660385Y-98802666D01*
X182661598Y-98789514D01*
X182671253Y-98716686D01*
X182683140Y-98645829D01*
X182697651Y-98575068D01*
X182715178Y-98502527D01*
X182736110Y-98426331D01*
X182740632Y-98410857D01*
X182747425Y-98388243D01*
X182752778Y-98371577D01*
X182757041Y-98359982D01*
X182760562Y-98352578D01*
X182763691Y-98348490D01*
X182766032Y-98347057D01*
X182771145Y-98346091D01*
X182782439Y-98344509D01*
X182799075Y-98342410D01*
X182820217Y-98339895D01*
X182845025Y-98337063D01*
X182872662Y-98334013D01*
X182901608Y-98330918D01*
X182935601Y-98327321D01*
X182963243Y-98324435D01*
X182985209Y-98322312D01*
X183002170Y-98321001D01*
X183014802Y-98320553D01*
X183023777Y-98321018D01*
X183029770Y-98322447D01*
X183033453Y-98324890D01*
X183035501Y-98328397D01*
X183036587Y-98333018D01*
X183037385Y-98338805D01*
X183037717Y-98341091D01*
X183039746Y-98352337D01*
X183043203Y-98369389D01*
X183047849Y-98391193D01*
X183053445Y-98416700D01*
X183059751Y-98444858D01*
X183066529Y-98474615D01*
X183073539Y-98504921D01*
X183080543Y-98534725D01*
X183087300Y-98562975D01*
X183093573Y-98588620D01*
X183098407Y-98607833D01*
X183125766Y-98710462D01*
X183153603Y-98806453D01*
X183182055Y-98896213D01*
X183211258Y-98980153D01*
X183241350Y-99058680D01*
X183272466Y-99132203D01*
X183277787Y-99144056D01*
X183312240Y-99214730D01*
X183351978Y-99286700D01*
X183395908Y-99358246D01*
X183442934Y-99427648D01*
X183491963Y-99493190D01*
X183528214Y-99537403D01*
X183543577Y-99555065D01*
X183559988Y-99573398D01*
X183576756Y-99591684D01*
X183593190Y-99609206D01*
X183608599Y-99625249D01*
X183622291Y-99639095D01*
X183633576Y-99650027D01*
X183641762Y-99657329D01*
X183646159Y-99660283D01*
X183646632Y-99660219D01*
X183649881Y-99654114D01*
X183654203Y-99642137D01*
X183659337Y-99625347D01*
X183665020Y-99604801D01*
X183670989Y-99581556D01*
X183676981Y-99556670D01*
X183682735Y-99531199D01*
X183687987Y-99506201D01*
X183692474Y-99482732D01*
X183695935Y-99461852D01*
X183695979Y-99461556D01*
X183702523Y-99406513D01*
X183705577Y-99352179D01*
X183705107Y-99297039D01*
X183701077Y-99239581D01*
X183693452Y-99178289D01*
X183688739Y-99148461D01*
X183670150Y-99055204D01*
X183646293Y-98965771D01*
X183617275Y-98880377D01*
X183583203Y-98799234D01*
X183544182Y-98722557D01*
X183500319Y-98650558D01*
X183451720Y-98583451D01*
X183398491Y-98521449D01*
X183355085Y-98477949D01*
X183306444Y-98435574D01*
X183255667Y-98397536D01*
X183203770Y-98364493D01*
X183151770Y-98337105D01*
X183110645Y-98319656D01*
X183098231Y-98314680D01*
X183088063Y-98310056D01*
X183082348Y-98306789D01*
X183079042Y-98303532D01*
X183071330Y-98295631D01*
X183059666Y-98283561D01*
X183044504Y-98267793D01*
X183026296Y-98248801D01*
X183005496Y-98227057D01*
X182982558Y-98203034D01*
X182957935Y-98177205D01*
X182939691Y-98158042D01*
X182914263Y-98131341D01*
X182890288Y-98106208D01*
X182868206Y-98083104D01*
X182848460Y-98062486D01*
X182831487Y-98044813D01*
X182817730Y-98030545D01*
X182807629Y-98020139D01*
X182801624Y-98014055D01*
X182800078Y-98012607D01*
X182798301Y-98015572D01*
X182793948Y-98024384D01*
X182787299Y-98038436D01*
X182778632Y-98057123D01*
X182768227Y-98079836D01*
X182756363Y-98105972D01*
X182743317Y-98134923D01*
X182729370Y-98166083D01*
X182726077Y-98173468D01*
X182654058Y-98335126D01*
X182593786Y-98351981D01*
X182565801Y-98360094D01*
X182533466Y-98369941D01*
X182498653Y-98380916D01*
X182463238Y-98392411D01*
X182429093Y-98403817D01*
X182398093Y-98414527D01*
X182373243Y-98423511D01*
X182359557Y-98428959D01*
X182351083Y-98433479D01*
X182346267Y-98438136D01*
X182343608Y-98443830D01*
X182342442Y-98451132D01*
X182341504Y-98464453D01*
X182340791Y-98482760D01*
X182340303Y-98505020D01*
X182340035Y-98530201D01*
X182339987Y-98557269D01*
X182340155Y-98585192D01*
X182340539Y-98612937D01*
X182341134Y-98639472D01*
X182341940Y-98663763D01*
X182342954Y-98684777D01*
X182344159Y-98701319D01*
X182361788Y-98864261D01*
X182375162Y-98964139D01*
X182381600Y-99006859D01*
X182387900Y-99043678D01*
X182394376Y-99075734D01*
X182401339Y-99104167D01*
X182409101Y-99130116D01*
X182417975Y-99154721D01*
X182428273Y-99179122D01*
X182440306Y-99204457D01*
X182441853Y-99207556D01*
X182473187Y-99263115D01*
X182510789Y-99317664D01*
X182553872Y-99370233D01*
X182601647Y-99419852D01*
X182646958Y-99460314D01*
X182668681Y-99478347D01*
X182643431Y-99480748D01*
X182596009Y-99487775D01*
X182546832Y-99499681D01*
X182497776Y-99515802D01*
X182450718Y-99535477D01*
X182407537Y-99558042D01*
X182385711Y-99571719D01*
X182335994Y-99609340D01*
X182290997Y-99652141D01*
X182250749Y-99700037D01*
X182215277Y-99752937D01*
X182184611Y-99810757D01*
X182158777Y-99873406D01*
X182137803Y-99940799D01*
X182121718Y-100012848D01*
X182110549Y-100089465D01*
X182104324Y-100170562D01*
X182103071Y-100256053D01*
X182106818Y-100345848D01*
X182113861Y-100424639D01*
X182123178Y-100497782D01*
X182135491Y-100575875D01*
X182150519Y-100657621D01*
X182167976Y-100741724D01*
X182187582Y-100826887D01*
X182209051Y-100911813D01*
X182232101Y-100995205D01*
X182255255Y-101071986D01*
X182287888Y-101169460D01*
X182323330Y-101263786D01*
X182361371Y-101354613D01*
X182401797Y-101441592D01*
X182444400Y-101524372D01*
X182488966Y-101602604D01*
X182535286Y-101675937D01*
X182583147Y-101744021D01*
X182632339Y-101806506D01*
X182682650Y-101863041D01*
X182733869Y-101913278D01*
X182785785Y-101956865D01*
X182791897Y-101961516D01*
X182804324Y-101971132D01*
X182811896Y-101977892D01*
X182815578Y-101982929D01*
X182816336Y-101987377D01*
X182815921Y-101989726D01*
X182811612Y-102009163D01*
X182806930Y-102034240D01*
X182802078Y-102063568D01*
X182797263Y-102095757D01*
X182792687Y-102129415D01*
X182788557Y-102163152D01*
X182785077Y-102195578D01*
X182784068Y-102206167D01*
X182781538Y-102237905D01*
X182779816Y-102269888D01*
X182778933Y-102302791D01*
X182778920Y-102337290D01*
X182779806Y-102374060D01*
X182781623Y-102413775D01*
X182784401Y-102457113D01*
X182788171Y-102504746D01*
X182792963Y-102557352D01*
X182798808Y-102615605D01*
X182805400Y-102677125D01*
X182815763Y-102766165D01*
X182827982Y-102861639D01*
X182841993Y-102963193D01*
X182857731Y-103070469D01*
X182875132Y-103183115D01*
X182894133Y-103300774D01*
X182914668Y-103423091D01*
X182936674Y-103549712D01*
X182960086Y-103680280D01*
X182984840Y-103814441D01*
X183010872Y-103951840D01*
X183038118Y-104092121D01*
X183066514Y-104234930D01*
X183095994Y-104379911D01*
X183126495Y-104526709D01*
X183157954Y-104674969D01*
X183190304Y-104824335D01*
X183209592Y-104911972D01*
X183219446Y-104956466D01*
X183227733Y-104994684D01*
X183234320Y-105027258D01*
X183239072Y-105054823D01*
X183241854Y-105078011D01*
X183242532Y-105097455D01*
X183240972Y-105113788D01*
X183237038Y-105127642D01*
X183230596Y-105139652D01*
X183221512Y-105150449D01*
X183209652Y-105160667D01*
X183194880Y-105170938D01*
X183177062Y-105181896D01*
X183156064Y-105194174D01*
X183148705Y-105198453D01*
X183082928Y-105235722D01*
X183017678Y-105270654D01*
X182953786Y-105302855D01*
X182892085Y-105331929D01*
X182833406Y-105357481D01*
X182778581Y-105379117D01*
X182739141Y-105392982D01*
X182686728Y-105408442D01*
X182637816Y-105419158D01*
X182592633Y-105425158D01*
X182551406Y-105426469D01*
X182514365Y-105423119D01*
X182481738Y-105415134D01*
X182453753Y-105402543D01*
X182430638Y-105385372D01*
X182412622Y-105363649D01*
X182406605Y-105353124D01*
X182401846Y-105342991D01*
X182397476Y-105331941D01*
X182393467Y-105319615D01*
X182389791Y-105305657D01*
X182386419Y-105289709D01*
X182383323Y-105271413D01*
X182380476Y-105250414D01*
X182377848Y-105226352D01*
X182375413Y-105198872D01*
X182373141Y-105167615D01*
X182371005Y-105132225D01*
X182368977Y-105092343D01*
X182367027Y-105047613D01*
X182365129Y-104997677D01*
X182363254Y-104942178D01*
X182361374Y-104880759D01*
X182359460Y-104813062D01*
X182357485Y-104738731D01*
X182357131Y-104725000D01*
X182353793Y-104602923D01*
X182350214Y-104487344D01*
X182346361Y-104377707D01*
X182342206Y-104273456D01*
X182337716Y-104174037D01*
X182332862Y-104078895D01*
X182327612Y-103987474D01*
X182321936Y-103899219D01*
X182315804Y-103813574D01*
X182309184Y-103729985D01*
X182302046Y-103647897D01*
X182294360Y-103566754D01*
X182291655Y-103539667D01*
X182277823Y-103410967D01*
X182262727Y-103286502D01*
X182246195Y-103165523D01*
X182228059Y-103047281D01*
X182208149Y-102931028D01*
X182186295Y-102816016D01*
X182162329Y-102701496D01*
X182136080Y-102586721D01*
X182107380Y-102470941D01*
X182076058Y-102353408D01*
X182041946Y-102233373D01*
X182004873Y-102110090D01*
X181964671Y-101982808D01*
X181921170Y-101850780D01*
X181885449Y-101745792D01*
X181867941Y-101695932D01*
X181850515Y-101648400D01*
X181832850Y-101602527D01*
X181814626Y-101557643D01*
X181795524Y-101513080D01*
X181775221Y-101468167D01*
X181753399Y-101422235D01*
X181729737Y-101374615D01*
X181703915Y-101324637D01*
X181675612Y-101271633D01*
X181644508Y-101214932D01*
X181610283Y-101153865D01*
X181572616Y-101087763D01*
X181560507Y-101066694D01*
X181526777Y-101008073D01*
X181496349Y-100955102D01*
X181468975Y-100907334D01*
X181444409Y-100864321D01*
X181422404Y-100825616D01*
X181402713Y-100790771D01*
X181385090Y-100759338D01*
X181369286Y-100730870D01*
X181355056Y-100704919D01*
X181342152Y-100681037D01*
X181330328Y-100658777D01*
X181319336Y-100637692D01*
X181308930Y-100617332D01*
X181298862Y-100597252D01*
X181288887Y-100577003D01*
X181278756Y-100556138D01*
X181277872Y-100554306D01*
X181246435Y-100486867D01*
X181219181Y-100423250D01*
X181195718Y-100362082D01*
X181175655Y-100301992D01*
X181158598Y-100241609D01*
X181144156Y-100179560D01*
X181131936Y-100114474D01*
X181121546Y-100044978D01*
X181113721Y-99980139D01*
X181109961Y-99939152D01*
X181107001Y-99893206D01*
X181104895Y-99844358D01*
X181103699Y-99794663D01*
X181103468Y-99746179D01*
X181104256Y-99700962D01*
X181105492Y-99671458D01*
X181112135Y-99591912D01*
X181123257Y-99511456D01*
X181138557Y-99431278D01*
X181157737Y-99352567D01*
X181180499Y-99276511D01*
X181206544Y-99204298D01*
X181235573Y-99137116D01*
X181244375Y-99119008D01*
X181288628Y-99038028D01*
X181339592Y-98958806D01*
X181397107Y-98881482D01*
X181461017Y-98806195D01*
X181531164Y-98733086D01*
X181607390Y-98662295D01*
X181689537Y-98593960D01*
X181777448Y-98528223D01*
X181870964Y-98465222D01*
X181969930Y-98405097D01*
X182074186Y-98347989D01*
X182164799Y-98302897D01*
X182204713Y-98284559D01*
X182246078Y-98266937D01*
X182290186Y-98249526D01*
X182338328Y-98231819D01*
X182391796Y-98213310D01*
X182404750Y-98208965D01*
X182428196Y-98201296D01*
X182453786Y-98193193D01*
X182480327Y-98185008D01*
X182506627Y-98177093D01*
X182531492Y-98169801D01*
X182553731Y-98163485D01*
X182572152Y-98158496D01*
X182585560Y-98155187D01*
X182589442Y-98154378D01*
X182601004Y-98152209D01*
X182683572Y-97947595D01*
X182698117Y-97911615D01*
X182711915Y-97877607D01*
X182724734Y-97846132D01*
X182736346Y-97817748D01*
X182746520Y-97793014D01*
X182755026Y-97772490D01*
X182761633Y-97756734D01*
X182766111Y-97746307D01*
X182768231Y-97741768D01*
X182768344Y-97741619D01*
X182770994Y-97743960D01*
X182777950Y-97751162D01*
X182788837Y-97762812D01*
X182803276Y-97778495D01*
X182820892Y-97797797D01*
X182841306Y-97820304D01*
X182864141Y-97845601D01*
X182889021Y-97873274D01*
X182915568Y-97902909D01*
X182938231Y-97928286D01*
X182970360Y-97964302D01*
X182998154Y-97995416D01*
X183021967Y-98021998D01*
X183042152Y-98044415D01*
X183059065Y-98063038D01*
X183073058Y-98078235D01*
X183084487Y-98090376D01*
X183093706Y-98099830D01*
X183101069Y-98106965D01*
X183106929Y-98112152D01*
X183111642Y-98115759D01*
X183115561Y-98118156D01*
X183119041Y-98119712D01*
X183122435Y-98120795D01*
X183123103Y-98120979D01*
X183143652Y-98127388D01*
X183168602Y-98136490D01*
X183196184Y-98147560D01*
X183224625Y-98159874D01*
X183252157Y-98172705D01*
X183265446Y-98179300D01*
X183323655Y-98211749D01*
X183379780Y-98248977D01*
X183434751Y-98291666D01*
X183489498Y-98340499D01*
X183503151Y-98353642D01*
X183556690Y-98409151D01*
X183605173Y-98466431D01*
X183649469Y-98526685D01*
X183690443Y-98591117D01*
X183728963Y-98660931D01*
X183739580Y-98681917D01*
X183771452Y-98749971D01*
X183799287Y-98817985D01*
X183823459Y-98887187D01*
X183844341Y-98958807D01*
X183862308Y-99034072D01*
X183877732Y-99114212D01*
X183885248Y-99160680D01*
X183888168Y-99180516D01*
X183890434Y-99197844D01*
X183892130Y-99214061D01*
X183893341Y-99230562D01*
X183894152Y-99248742D01*
X183894645Y-99269998D01*
X183894906Y-99295724D01*
X183895009Y-99322208D01*
X183894931Y-99359423D01*
X183894931Y-99359423D01*
G37*
X183894931Y-99359423D02*
X183894428Y-99391094D01*
X183893379Y-99418725D01*
X183891660Y-99443824D01*
X183889149Y-99467893D01*
X183885724Y-99492439D01*
X183881260Y-99518967D01*
X183877185Y-99540931D01*
X183864422Y-99599786D01*
X183848355Y-99660883D01*
X183829818Y-99721336D01*
X183809646Y-99778260D01*
X183805223Y-99789639D01*
X183788030Y-99832817D01*
X183770892Y-99875192D01*
X183753630Y-99917150D01*
X183736063Y-99959080D01*
X183718011Y-100001369D01*
X183699293Y-100044404D01*
X183679729Y-100088573D01*
X183659138Y-100134265D01*
X183637341Y-100181866D01*
X183614156Y-100231764D01*
X183589403Y-100284347D01*
X183562901Y-100340003D01*
X183534472Y-100399118D01*
X183503933Y-100462082D01*
X183471104Y-100529280D01*
X183435806Y-100601102D01*
X183397857Y-100677935D01*
X183357077Y-100760166D01*
X183313286Y-100848183D01*
X183301963Y-100870903D01*
X183263019Y-100949183D01*
X183227120Y-101021702D01*
X183194039Y-101088949D01*
X183163552Y-101151415D01*
X183135433Y-101209589D01*
X183109455Y-101263962D01*
X183085394Y-101315024D01*
X183063022Y-101363265D01*
X183042115Y-101409175D01*
X183022447Y-101453244D01*
X183003792Y-101495962D01*
X182985924Y-101537819D01*
X182968618Y-101579306D01*
X182951647Y-101620912D01*
X182934787Y-101663128D01*
X182921719Y-101696403D01*
X182912482Y-101719926D01*
X182903963Y-101741319D01*
X182896527Y-101759688D01*
X182890540Y-101774143D01*
X182886365Y-101783791D01*
X182884376Y-101787732D01*
X182880281Y-101787199D01*
X182872263Y-101781987D01*
X182861032Y-101772739D01*
X182847296Y-101760100D01*
X182831764Y-101744712D01*
X182815145Y-101727219D01*
X182803343Y-101714178D01*
X182747242Y-101646199D01*
X182693747Y-101571764D01*
X182642914Y-101490994D01*
X182594800Y-101404011D01*
X182549462Y-101310938D01*
X182506957Y-101211897D01*
X182467342Y-101107009D01*
X182430673Y-100996398D01*
X182397008Y-100880185D01*
X182374704Y-100793292D01*
X182351462Y-100692697D01*
X182332133Y-100597709D01*
X182316697Y-100508081D01*
X182305132Y-100423561D01*
X182297420Y-100343901D01*
X182293538Y-100268851D01*
X182293465Y-100198163D01*
X182297182Y-100131587D01*
X182304668Y-100068874D01*
X182311340Y-100031082D01*
X182326252Y-99970450D01*
X182345633Y-99915094D01*
X182369410Y-99865086D01*
X182397509Y-99820499D01*
X182429858Y-99781404D01*
X182466383Y-99747873D01*
X182507012Y-99719979D01*
X182551671Y-99697795D01*
X182600287Y-99681392D01*
X182652786Y-99670842D01*
X182679060Y-99667903D01*
X182690167Y-99667085D01*
X182698302Y-99666149D01*
X182704006Y-99664111D01*
X182707822Y-99659991D01*
X182710290Y-99652806D01*
X182711954Y-99641575D01*
X182713354Y-99625315D01*
X182715033Y-99603045D01*
X182715063Y-99602667D01*
X182717290Y-99575115D01*
X182719184Y-99553944D01*
X182720834Y-99538491D01*
X182722327Y-99528094D01*
X182723751Y-99522090D01*
X182725193Y-99519817D01*
X182726026Y-99519918D01*
X182727335Y-99517973D01*
X182727560Y-99511139D01*
X182726886Y-99501468D01*
X182725503Y-99491010D01*
X182723597Y-99481817D01*
X182722141Y-99477431D01*
X182720624Y-99471923D01*
X182718164Y-99460616D01*
X182714992Y-99444669D01*
X182711335Y-99425241D01*
X182707422Y-99403489D01*
X182706471Y-99398056D01*
X182692964Y-99316570D01*
X182681591Y-99239154D01*
X182672013Y-99163266D01*
X182663891Y-99086367D01*
X182661706Y-99062917D01*
X182660112Y-99040487D01*
X182658879Y-99013281D01*
X182658007Y-98982652D01*
X182657496Y-98949951D01*
X182657348Y-98916529D01*
X182657562Y-98883738D01*
X182658139Y-98852930D01*
X182659080Y-98825455D01*
X182660385Y-98802666D01*
X182661598Y-98789514D01*
X182671253Y-98716686D01*
X182683140Y-98645829D01*
X182697651Y-98575068D01*
X182715178Y-98502527D01*
X182736110Y-98426331D01*
X182740632Y-98410857D01*
X182747425Y-98388243D01*
X182752778Y-98371577D01*
X182757041Y-98359982D01*
X182760562Y-98352578D01*
X182763691Y-98348490D01*
X182766032Y-98347057D01*
X182771145Y-98346091D01*
X182782439Y-98344509D01*
X182799075Y-98342410D01*
X182820217Y-98339895D01*
X182845025Y-98337063D01*
X182872662Y-98334013D01*
X182901608Y-98330918D01*
X182935601Y-98327321D01*
X182963243Y-98324435D01*
X182985209Y-98322312D01*
X183002170Y-98321001D01*
X183014802Y-98320553D01*
X183023777Y-98321018D01*
X183029770Y-98322447D01*
X183033453Y-98324890D01*
X183035501Y-98328397D01*
X183036587Y-98333018D01*
X183037385Y-98338805D01*
X183037717Y-98341091D01*
X183039746Y-98352337D01*
X183043203Y-98369389D01*
X183047849Y-98391193D01*
X183053445Y-98416700D01*
X183059751Y-98444858D01*
X183066529Y-98474615D01*
X183073539Y-98504921D01*
X183080543Y-98534725D01*
X183087300Y-98562975D01*
X183093573Y-98588620D01*
X183098407Y-98607833D01*
X183125766Y-98710462D01*
X183153603Y-98806453D01*
X183182055Y-98896213D01*
X183211258Y-98980153D01*
X183241350Y-99058680D01*
X183272466Y-99132203D01*
X183277787Y-99144056D01*
X183312240Y-99214730D01*
X183351978Y-99286700D01*
X183395908Y-99358246D01*
X183442934Y-99427648D01*
X183491963Y-99493190D01*
X183528214Y-99537403D01*
X183543577Y-99555065D01*
X183559988Y-99573398D01*
X183576756Y-99591684D01*
X183593190Y-99609206D01*
X183608599Y-99625249D01*
X183622291Y-99639095D01*
X183633576Y-99650027D01*
X183641762Y-99657329D01*
X183646159Y-99660283D01*
X183646632Y-99660219D01*
X183649881Y-99654114D01*
X183654203Y-99642137D01*
X183659337Y-99625347D01*
X183665020Y-99604801D01*
X183670989Y-99581556D01*
X183676981Y-99556670D01*
X183682735Y-99531199D01*
X183687987Y-99506201D01*
X183692474Y-99482732D01*
X183695935Y-99461852D01*
X183695979Y-99461556D01*
X183702523Y-99406513D01*
X183705577Y-99352179D01*
X183705107Y-99297039D01*
X183701077Y-99239581D01*
X183693452Y-99178289D01*
X183688739Y-99148461D01*
X183670150Y-99055204D01*
X183646293Y-98965771D01*
X183617275Y-98880377D01*
X183583203Y-98799234D01*
X183544182Y-98722557D01*
X183500319Y-98650558D01*
X183451720Y-98583451D01*
X183398491Y-98521449D01*
X183355085Y-98477949D01*
X183306444Y-98435574D01*
X183255667Y-98397536D01*
X183203770Y-98364493D01*
X183151770Y-98337105D01*
X183110645Y-98319656D01*
X183098231Y-98314680D01*
X183088063Y-98310056D01*
X183082348Y-98306789D01*
X183079042Y-98303532D01*
X183071330Y-98295631D01*
X183059666Y-98283561D01*
X183044504Y-98267793D01*
X183026296Y-98248801D01*
X183005496Y-98227057D01*
X182982558Y-98203034D01*
X182957935Y-98177205D01*
X182939691Y-98158042D01*
X182914263Y-98131341D01*
X182890288Y-98106208D01*
X182868206Y-98083104D01*
X182848460Y-98062486D01*
X182831487Y-98044813D01*
X182817730Y-98030545D01*
X182807629Y-98020139D01*
X182801624Y-98014055D01*
X182800078Y-98012607D01*
X182798301Y-98015572D01*
X182793948Y-98024384D01*
X182787299Y-98038436D01*
X182778632Y-98057123D01*
X182768227Y-98079836D01*
X182756363Y-98105972D01*
X182743317Y-98134923D01*
X182729370Y-98166083D01*
X182726077Y-98173468D01*
X182654058Y-98335126D01*
X182593786Y-98351981D01*
X182565801Y-98360094D01*
X182533466Y-98369941D01*
X182498653Y-98380916D01*
X182463238Y-98392411D01*
X182429093Y-98403817D01*
X182398093Y-98414527D01*
X182373243Y-98423511D01*
X182359557Y-98428959D01*
X182351083Y-98433479D01*
X182346267Y-98438136D01*
X182343608Y-98443830D01*
X182342442Y-98451132D01*
X182341504Y-98464453D01*
X182340791Y-98482760D01*
X182340303Y-98505020D01*
X182340035Y-98530201D01*
X182339987Y-98557269D01*
X182340155Y-98585192D01*
X182340539Y-98612937D01*
X182341134Y-98639472D01*
X182341940Y-98663763D01*
X182342954Y-98684777D01*
X182344159Y-98701319D01*
X182361788Y-98864261D01*
X182375162Y-98964139D01*
X182381600Y-99006859D01*
X182387900Y-99043678D01*
X182394376Y-99075734D01*
X182401339Y-99104167D01*
X182409101Y-99130116D01*
X182417975Y-99154721D01*
X182428273Y-99179122D01*
X182440306Y-99204457D01*
X182441853Y-99207556D01*
X182473187Y-99263115D01*
X182510789Y-99317664D01*
X182553872Y-99370233D01*
X182601647Y-99419852D01*
X182646958Y-99460314D01*
X182668681Y-99478347D01*
X182643431Y-99480748D01*
X182596009Y-99487775D01*
X182546832Y-99499681D01*
X182497776Y-99515802D01*
X182450718Y-99535477D01*
X182407537Y-99558042D01*
X182385711Y-99571719D01*
X182335994Y-99609340D01*
X182290997Y-99652141D01*
X182250749Y-99700037D01*
X182215277Y-99752937D01*
X182184611Y-99810757D01*
X182158777Y-99873406D01*
X182137803Y-99940799D01*
X182121718Y-100012848D01*
X182110549Y-100089465D01*
X182104324Y-100170562D01*
X182103071Y-100256053D01*
X182106818Y-100345848D01*
X182113861Y-100424639D01*
X182123178Y-100497782D01*
X182135491Y-100575875D01*
X182150519Y-100657621D01*
X182167976Y-100741724D01*
X182187582Y-100826887D01*
X182209051Y-100911813D01*
X182232101Y-100995205D01*
X182255255Y-101071986D01*
X182287888Y-101169460D01*
X182323330Y-101263786D01*
X182361371Y-101354613D01*
X182401797Y-101441592D01*
X182444400Y-101524372D01*
X182488966Y-101602604D01*
X182535286Y-101675937D01*
X182583147Y-101744021D01*
X182632339Y-101806506D01*
X182682650Y-101863041D01*
X182733869Y-101913278D01*
X182785785Y-101956865D01*
X182791897Y-101961516D01*
X182804324Y-101971132D01*
X182811896Y-101977892D01*
X182815578Y-101982929D01*
X182816336Y-101987377D01*
X182815921Y-101989726D01*
X182811612Y-102009163D01*
X182806930Y-102034240D01*
X182802078Y-102063568D01*
X182797263Y-102095757D01*
X182792687Y-102129415D01*
X182788557Y-102163152D01*
X182785077Y-102195578D01*
X182784068Y-102206167D01*
X182781538Y-102237905D01*
X182779816Y-102269888D01*
X182778933Y-102302791D01*
X182778920Y-102337290D01*
X182779806Y-102374060D01*
X182781623Y-102413775D01*
X182784401Y-102457113D01*
X182788171Y-102504746D01*
X182792963Y-102557352D01*
X182798808Y-102615605D01*
X182805400Y-102677125D01*
X182815763Y-102766165D01*
X182827982Y-102861639D01*
X182841993Y-102963193D01*
X182857731Y-103070469D01*
X182875132Y-103183115D01*
X182894133Y-103300774D01*
X182914668Y-103423091D01*
X182936674Y-103549712D01*
X182960086Y-103680280D01*
X182984840Y-103814441D01*
X183010872Y-103951840D01*
X183038118Y-104092121D01*
X183066514Y-104234930D01*
X183095994Y-104379911D01*
X183126495Y-104526709D01*
X183157954Y-104674969D01*
X183190304Y-104824335D01*
X183209592Y-104911972D01*
X183219446Y-104956466D01*
X183227733Y-104994684D01*
X183234320Y-105027258D01*
X183239072Y-105054823D01*
X183241854Y-105078011D01*
X183242532Y-105097455D01*
X183240972Y-105113788D01*
X183237038Y-105127642D01*
X183230596Y-105139652D01*
X183221512Y-105150449D01*
X183209652Y-105160667D01*
X183194880Y-105170938D01*
X183177062Y-105181896D01*
X183156064Y-105194174D01*
X183148705Y-105198453D01*
X183082928Y-105235722D01*
X183017678Y-105270654D01*
X182953786Y-105302855D01*
X182892085Y-105331929D01*
X182833406Y-105357481D01*
X182778581Y-105379117D01*
X182739141Y-105392982D01*
X182686728Y-105408442D01*
X182637816Y-105419158D01*
X182592633Y-105425158D01*
X182551406Y-105426469D01*
X182514365Y-105423119D01*
X182481738Y-105415134D01*
X182453753Y-105402543D01*
X182430638Y-105385372D01*
X182412622Y-105363649D01*
X182406605Y-105353124D01*
X182401846Y-105342991D01*
X182397476Y-105331941D01*
X182393467Y-105319615D01*
X182389791Y-105305657D01*
X182386419Y-105289709D01*
X182383323Y-105271413D01*
X182380476Y-105250414D01*
X182377848Y-105226352D01*
X182375413Y-105198872D01*
X182373141Y-105167615D01*
X182371005Y-105132225D01*
X182368977Y-105092343D01*
X182367027Y-105047613D01*
X182365129Y-104997677D01*
X182363254Y-104942178D01*
X182361374Y-104880759D01*
X182359460Y-104813062D01*
X182357485Y-104738731D01*
X182357131Y-104725000D01*
X182353793Y-104602923D01*
X182350214Y-104487344D01*
X182346361Y-104377707D01*
X182342206Y-104273456D01*
X182337716Y-104174037D01*
X182332862Y-104078895D01*
X182327612Y-103987474D01*
X182321936Y-103899219D01*
X182315804Y-103813574D01*
X182309184Y-103729985D01*
X182302046Y-103647897D01*
X182294360Y-103566754D01*
X182291655Y-103539667D01*
X182277823Y-103410967D01*
X182262727Y-103286502D01*
X182246195Y-103165523D01*
X182228059Y-103047281D01*
X182208149Y-102931028D01*
X182186295Y-102816016D01*
X182162329Y-102701496D01*
X182136080Y-102586721D01*
X182107380Y-102470941D01*
X182076058Y-102353408D01*
X182041946Y-102233373D01*
X182004873Y-102110090D01*
X181964671Y-101982808D01*
X181921170Y-101850780D01*
X181885449Y-101745792D01*
X181867941Y-101695932D01*
X181850515Y-101648400D01*
X181832850Y-101602527D01*
X181814626Y-101557643D01*
X181795524Y-101513080D01*
X181775221Y-101468167D01*
X181753399Y-101422235D01*
X181729737Y-101374615D01*
X181703915Y-101324637D01*
X181675612Y-101271633D01*
X181644508Y-101214932D01*
X181610283Y-101153865D01*
X181572616Y-101087763D01*
X181560507Y-101066694D01*
X181526777Y-101008073D01*
X181496349Y-100955102D01*
X181468975Y-100907334D01*
X181444409Y-100864321D01*
X181422404Y-100825616D01*
X181402713Y-100790771D01*
X181385090Y-100759338D01*
X181369286Y-100730870D01*
X181355056Y-100704919D01*
X181342152Y-100681037D01*
X181330328Y-100658777D01*
X181319336Y-100637692D01*
X181308930Y-100617332D01*
X181298862Y-100597252D01*
X181288887Y-100577003D01*
X181278756Y-100556138D01*
X181277872Y-100554306D01*
X181246435Y-100486867D01*
X181219181Y-100423250D01*
X181195718Y-100362082D01*
X181175655Y-100301992D01*
X181158598Y-100241609D01*
X181144156Y-100179560D01*
X181131936Y-100114474D01*
X181121546Y-100044978D01*
X181113721Y-99980139D01*
X181109961Y-99939152D01*
X181107001Y-99893206D01*
X181104895Y-99844358D01*
X181103699Y-99794663D01*
X181103468Y-99746179D01*
X181104256Y-99700962D01*
X181105492Y-99671458D01*
X181112135Y-99591912D01*
X181123257Y-99511456D01*
X181138557Y-99431278D01*
X181157737Y-99352567D01*
X181180499Y-99276511D01*
X181206544Y-99204298D01*
X181235573Y-99137116D01*
X181244375Y-99119008D01*
X181288628Y-99038028D01*
X181339592Y-98958806D01*
X181397107Y-98881482D01*
X181461017Y-98806195D01*
X181531164Y-98733086D01*
X181607390Y-98662295D01*
X181689537Y-98593960D01*
X181777448Y-98528223D01*
X181870964Y-98465222D01*
X181969930Y-98405097D01*
X182074186Y-98347989D01*
X182164799Y-98302897D01*
X182204713Y-98284559D01*
X182246078Y-98266937D01*
X182290186Y-98249526D01*
X182338328Y-98231819D01*
X182391796Y-98213310D01*
X182404750Y-98208965D01*
X182428196Y-98201296D01*
X182453786Y-98193193D01*
X182480327Y-98185008D01*
X182506627Y-98177093D01*
X182531492Y-98169801D01*
X182553731Y-98163485D01*
X182572152Y-98158496D01*
X182585560Y-98155187D01*
X182589442Y-98154378D01*
X182601004Y-98152209D01*
X182683572Y-97947595D01*
X182698117Y-97911615D01*
X182711915Y-97877607D01*
X182724734Y-97846132D01*
X182736346Y-97817748D01*
X182746520Y-97793014D01*
X182755026Y-97772490D01*
X182761633Y-97756734D01*
X182766111Y-97746307D01*
X182768231Y-97741768D01*
X182768344Y-97741619D01*
X182770994Y-97743960D01*
X182777950Y-97751162D01*
X182788837Y-97762812D01*
X182803276Y-97778495D01*
X182820892Y-97797797D01*
X182841306Y-97820304D01*
X182864141Y-97845601D01*
X182889021Y-97873274D01*
X182915568Y-97902909D01*
X182938231Y-97928286D01*
X182970360Y-97964302D01*
X182998154Y-97995416D01*
X183021967Y-98021998D01*
X183042152Y-98044415D01*
X183059065Y-98063038D01*
X183073058Y-98078235D01*
X183084487Y-98090376D01*
X183093706Y-98099830D01*
X183101069Y-98106965D01*
X183106929Y-98112152D01*
X183111642Y-98115759D01*
X183115561Y-98118156D01*
X183119041Y-98119712D01*
X183122435Y-98120795D01*
X183123103Y-98120979D01*
X183143652Y-98127388D01*
X183168602Y-98136490D01*
X183196184Y-98147560D01*
X183224625Y-98159874D01*
X183252157Y-98172705D01*
X183265446Y-98179300D01*
X183323655Y-98211749D01*
X183379780Y-98248977D01*
X183434751Y-98291666D01*
X183489498Y-98340499D01*
X183503151Y-98353642D01*
X183556690Y-98409151D01*
X183605173Y-98466431D01*
X183649469Y-98526685D01*
X183690443Y-98591117D01*
X183728963Y-98660931D01*
X183739580Y-98681917D01*
X183771452Y-98749971D01*
X183799287Y-98817985D01*
X183823459Y-98887187D01*
X183844341Y-98958807D01*
X183862308Y-99034072D01*
X183877732Y-99114212D01*
X183885248Y-99160680D01*
X183888168Y-99180516D01*
X183890434Y-99197844D01*
X183892130Y-99214061D01*
X183893341Y-99230562D01*
X183894152Y-99248742D01*
X183894645Y-99269998D01*
X183894906Y-99295724D01*
X183895009Y-99322208D01*
X183894931Y-99359423D01*
D12*
X199000000Y-102000820D03*
X199000000Y-96499180D03*
D13*
X211500000Y-104138740D03*
X211500000Y-96361260D03*
D14*
X207555000Y-103750000D03*
X205445000Y-103750000D03*
D15*
X181525000Y-117199300D03*
X181525000Y-115700700D03*
D16*
X206710000Y-77710000D03*
X206710000Y-82790000D03*
X211790000Y-82790000D03*
X211790000Y-77710000D03*
D17*
X209250000Y-80250000D03*
D18*
X207500000Y-86600000D03*
X207500000Y-92900000D03*
D19*
X183350000Y-115850000D03*
X185550000Y-115850000D03*
D20*
X181850000Y-64250000D03*
X184390000Y-64250000D03*
X186930000Y-64250000D03*
X202170000Y-92250000D03*
X199630000Y-92250000D03*
X197090000Y-92250000D03*
X194550000Y-92250000D03*
X192010000Y-92250000D03*
X189470000Y-92250000D03*
X186930000Y-92250000D03*
X184390000Y-92250000D03*
X181850000Y-92250000D03*
D21*
X190000000Y-109990000D03*
X190000000Y-111990000D03*
X190000000Y-113990000D03*
X190000000Y-115990000D03*
X190000000Y-117990000D03*
X190000000Y-119990000D03*
D22*
X205750000Y-107000000D03*
D23*
X203750000Y-107000000D03*
X201750000Y-107000000D03*
X199750000Y-107000000D03*
X197750000Y-107000000D03*
X195750000Y-107000000D03*
X193750000Y-107000000D03*
X191750000Y-107000000D03*
X191750000Y-123000000D03*
X193750000Y-123000000D03*
X195750000Y-123000000D03*
X197750000Y-123000000D03*
X199750000Y-123000000D03*
X201750000Y-123000000D03*
X203750000Y-123000000D03*
X205750000Y-123000000D03*
D24*
X207905000Y-96050000D03*
X206635000Y-96050000D03*
X205365000Y-96050000D03*
X204095000Y-96050000D03*
X204095000Y-101450000D03*
X205365000Y-101450000D03*
X206635000Y-101450000D03*
X207905000Y-101450000D03*
D25*
X193500000Y-127250000D03*
D26*
X196040000Y-127250000D03*
X198580000Y-127250000D03*
X201120000Y-127250000D03*
X203660000Y-127250000D03*
X206200000Y-127250000D03*
D27*
X186100000Y-127675000D03*
X181600000Y-127675000D03*
X181600000Y-119725000D03*
X186100000Y-119725000D03*
D28*
X212700000Y-88700000D03*
D29*
X211600000Y-64200000D03*
D30*
X209060000Y-64200000D03*
D31*
X187550000Y-127050000D03*
X205000000Y-105300000D03*
X190875000Y-127450000D03*
X192750000Y-124375000D03*
X205750000Y-118225000D03*
X199425000Y-114500000D03*
X197275000Y-117400000D03*
X194750000Y-117400000D03*
X187825000Y-117400000D03*
X202300000Y-110750000D03*
X211525000Y-99200000D03*
X194750000Y-118525000D03*
X191150000Y-121200000D03*
X184375000Y-117175000D03*
X204650000Y-113725000D03*
X204650000Y-118175000D03*
X195800000Y-115925000D03*
X198550000Y-112600000D03*
X206850000Y-97700000D03*
X193750000Y-99425000D03*
X191100000Y-96800000D03*
X194000000Y-79500000D03*
X204800000Y-68700000D03*
X187100000Y-74600000D03*
X197800000Y-105100000D03*
X185800000Y-117400000D03*
X196750000Y-121550000D03*
X201425000Y-108875000D03*
X195760257Y-120849980D03*
X193675431Y-120995591D03*
X194325000Y-105050000D03*
X202750000Y-108725000D03*
X202375000Y-113050000D03*
X199650000Y-110425000D03*
X194575000Y-94550000D03*
X187107370Y-108226308D03*
X197425000Y-114275000D03*
X187100000Y-109250000D03*
X196600000Y-115050000D03*
X190800000Y-102575000D03*
X182600000Y-95675000D03*
X204575000Y-108650000D03*
X199825000Y-108875000D03*
X209100000Y-100450000D03*
X188250000Y-121400000D03*
X186300000Y-124350000D03*
D32*
X187550000Y-127075000D02*
X187550000Y-127050000D01*
X186950000Y-127675000D02*
X187550000Y-127075000D01*
X186100000Y-127675000D02*
X186950000Y-127675000D01*
X205000000Y-105300000D02*
X205750000Y-106050000D01*
X205750000Y-106050000D02*
X205750000Y-107000000D01*
X190875000Y-126250000D02*
X190875000Y-127450000D01*
X192750000Y-124375000D02*
X190875000Y-126250000D01*
X205750000Y-107000000D02*
X205750000Y-118225000D01*
X186100000Y-127675000D02*
X186100000Y-126375000D01*
X184925000Y-120900000D02*
X186100000Y-119725000D01*
X184925000Y-125200000D02*
X184925000Y-120900000D01*
X186100000Y-126375000D02*
X184925000Y-125200000D01*
D33*
X199425000Y-114500000D02*
X199050000Y-114125000D01*
X194750000Y-117400000D02*
X197275000Y-117400000D01*
X187825000Y-117400000D02*
X186975000Y-117400000D01*
X202300000Y-110750000D02*
X202300000Y-109875000D01*
X207500000Y-86600000D02*
X198284547Y-86600000D01*
X198284547Y-86600000D02*
X194569547Y-90315000D01*
X192010000Y-92050000D02*
X192010000Y-92250000D01*
X194569547Y-90315000D02*
X193745000Y-90315000D01*
X193745000Y-90315000D02*
X192010000Y-92050000D01*
X211500000Y-96361260D02*
X211500000Y-99175000D01*
X211500000Y-99175000D02*
X211525000Y-99200000D01*
X204095000Y-96050000D02*
X204095000Y-95205000D01*
X204095000Y-95205000D02*
X205025000Y-94275000D01*
X193825000Y-118525000D02*
X194750000Y-118525000D01*
X191150000Y-121200000D02*
X193825000Y-118525000D01*
X181525000Y-117199300D02*
X184350700Y-117199300D01*
X184350700Y-117199300D02*
X184375000Y-117175000D01*
X204650000Y-118175000D02*
X204650000Y-113725000D01*
X191750000Y-107000000D02*
X191750000Y-108550000D01*
X191750000Y-108550000D02*
X195800000Y-112600000D01*
X195800000Y-112600000D02*
X195800000Y-115925000D01*
X198550000Y-112600000D02*
X195800000Y-112600000D01*
D32*
X207905000Y-96050000D02*
X207905000Y-96645000D01*
X207905000Y-96645000D02*
X206850000Y-97700000D01*
D33*
X209060000Y-64200000D02*
X208044001Y-65215999D01*
X208044001Y-65215999D02*
X208044001Y-65455999D01*
X208044001Y-65455999D02*
X207963160Y-65536840D01*
X190809999Y-96484999D02*
X190809999Y-96509999D01*
X190809999Y-96509999D02*
X191100000Y-96800000D01*
X196100002Y-87936002D02*
X193899998Y-87936002D01*
X197749180Y-100750000D02*
X199000000Y-102000820D01*
X190809999Y-91026001D02*
X190809999Y-96484999D01*
X194000000Y-79500000D02*
X196100002Y-81600002D01*
X193750000Y-100750000D02*
X197749180Y-100750000D01*
X196100002Y-81600002D02*
X196100002Y-87936002D01*
X193899998Y-87936002D02*
X190809999Y-91026001D01*
X193750000Y-99425000D02*
X193750000Y-100750000D01*
X208000000Y-65536840D02*
X207963160Y-65536840D01*
X207963160Y-65536840D02*
X204800000Y-68700000D01*
X199000000Y-102000820D02*
X201474180Y-102000820D01*
X206635000Y-99335000D02*
X206635000Y-101450000D01*
X206575000Y-99275000D02*
X206635000Y-99335000D01*
X204200000Y-99275000D02*
X206575000Y-99275000D01*
X201474180Y-102000820D02*
X204200000Y-99275000D01*
D32*
X183350000Y-115850000D02*
X181674300Y-115850000D01*
X181674300Y-115850000D02*
X181525000Y-115700700D01*
X184390000Y-71890000D02*
X186800001Y-74300001D01*
X184390000Y-64250000D02*
X184390000Y-71890000D01*
X186800001Y-74300001D02*
X187100000Y-74600000D01*
X184390000Y-64250000D02*
X184390000Y-63360000D01*
X197800000Y-105100000D02*
X197800000Y-106950000D01*
X197800000Y-106950000D02*
X197750000Y-107000000D01*
X203725000Y-125050000D02*
X203725000Y-123025000D01*
X203725000Y-123025000D02*
X203750000Y-123000000D01*
X201120000Y-127250000D02*
X201525000Y-127250000D01*
X201525000Y-127250000D02*
X203725000Y-125050000D01*
X203725000Y-125050000D02*
X203750000Y-125025000D01*
X203660000Y-127250000D02*
X203900000Y-127250000D01*
X203900000Y-127250000D02*
X205750000Y-125400000D01*
X205750000Y-125400000D02*
X205750000Y-123000000D01*
X185575008Y-117175008D02*
X185550000Y-117150000D01*
X185550000Y-117150000D02*
X185550000Y-115850000D01*
X185800000Y-117400000D02*
X185575008Y-117175008D01*
X185575008Y-117175008D02*
X185550000Y-117175008D01*
X197750000Y-121100000D02*
X197200000Y-121100000D01*
X197200000Y-121100000D02*
X196750000Y-121550000D01*
X197750000Y-121100000D02*
X197750000Y-123000000D01*
X201750000Y-108550000D02*
X201750000Y-107000000D01*
X201425000Y-108875000D02*
X201750000Y-108550000D01*
X195750000Y-120860237D02*
X195760257Y-120849980D01*
X195750000Y-123000000D02*
X195750000Y-120860237D01*
X193750000Y-123000000D02*
X193750000Y-121070160D01*
X193750000Y-121070160D02*
X193675431Y-120995591D01*
X194325000Y-105050000D02*
X195075000Y-104300000D01*
X202750000Y-105050000D02*
X202750000Y-108725000D01*
X202000000Y-104300000D02*
X202750000Y-105050000D01*
X195075000Y-104300000D02*
X202000000Y-104300000D01*
X202375000Y-113050000D02*
X199750000Y-110425000D01*
X199750000Y-110425000D02*
X199650000Y-110425000D01*
X194575000Y-94550000D02*
X194550000Y-94525000D01*
X194550000Y-94525000D02*
X194550000Y-92250000D01*
X186930000Y-108048938D02*
X187107370Y-108226308D01*
X186930000Y-92250000D02*
X186930000Y-108048938D01*
X201750000Y-118600000D02*
X201750000Y-123000000D01*
X197425000Y-114275000D02*
X201750000Y-118600000D01*
X186800001Y-108950001D02*
X187100000Y-109250000D01*
X184390000Y-106540000D02*
X186800001Y-108950001D01*
X184390000Y-92250000D02*
X184390000Y-106540000D01*
X199750000Y-123000000D02*
X199750000Y-118200000D01*
X199750000Y-118200000D02*
X196600000Y-115050000D01*
X193750000Y-105525000D02*
X190800000Y-102575000D01*
X182600000Y-95675000D02*
X181850000Y-95675000D01*
X181850000Y-92250000D02*
X181850000Y-95675000D01*
X193750000Y-105525000D02*
X193750000Y-107000000D01*
X204575000Y-108650000D02*
X203750000Y-107825000D01*
X203750000Y-107825000D02*
X203750000Y-107000000D01*
X195750000Y-107000000D02*
X195750000Y-107250000D01*
X195750000Y-107250000D02*
X197375000Y-108875000D01*
X197375000Y-108875000D02*
X199825000Y-108875000D01*
D33*
X209100000Y-100450000D02*
X209100000Y-94500000D01*
X209100000Y-94500000D02*
X207500000Y-92900000D01*
X207905000Y-101450000D02*
X208100000Y-101450000D01*
X208100000Y-101450000D02*
X209100000Y-100450000D01*
X207905000Y-101450000D02*
X207905000Y-103400000D01*
X207905000Y-103400000D02*
X207555000Y-103750000D01*
D32*
X188250000Y-122400000D02*
X188250000Y-121400000D01*
X186300000Y-124350000D02*
X188250000Y-122400000D01*
D34*
G36*
X185013669Y-117924417D02*
X185274211Y-118185414D01*
X185575973Y-118310717D01*
X185450000Y-118310717D01*
X185217648Y-118354437D01*
X185004247Y-118491757D01*
X184861083Y-118701283D01*
X184810717Y-118950000D01*
X184810717Y-119986149D01*
X184410933Y-120385933D01*
X184253340Y-120621789D01*
X184244789Y-120664779D01*
X184197999Y-120900000D01*
X184198000Y-120900005D01*
X184198000Y-125199995D01*
X184197999Y-125200000D01*
X184237783Y-125400000D01*
X184253340Y-125478211D01*
X184410933Y-125714067D01*
X185086010Y-126389144D01*
X185004247Y-126441757D01*
X184861083Y-126651283D01*
X184810717Y-126900000D01*
X184810717Y-128450000D01*
X184854437Y-128682352D01*
X184944942Y-128823000D01*
X182763712Y-128823000D01*
X182781545Y-128805167D01*
X182877000Y-128574718D01*
X182877000Y-127954750D01*
X182720250Y-127798000D01*
X181723000Y-127798000D01*
X181723000Y-127818000D01*
X181477000Y-127818000D01*
X181477000Y-127798000D01*
X181457000Y-127798000D01*
X181457000Y-127552000D01*
X181477000Y-127552000D01*
X181477000Y-126429750D01*
X181723000Y-126429750D01*
X181723000Y-127552000D01*
X182720250Y-127552000D01*
X182877000Y-127395250D01*
X182877000Y-126775282D01*
X182781545Y-126544833D01*
X182605167Y-126368455D01*
X182374718Y-126273000D01*
X181879750Y-126273000D01*
X181723000Y-126429750D01*
X181477000Y-126429750D01*
X181320250Y-126273000D01*
X180825282Y-126273000D01*
X180677000Y-126334420D01*
X180677000Y-121065580D01*
X180825282Y-121127000D01*
X181320250Y-121127000D01*
X181477000Y-120970250D01*
X181477000Y-119848000D01*
X181723000Y-119848000D01*
X181723000Y-120970250D01*
X181879750Y-121127000D01*
X182374718Y-121127000D01*
X182605167Y-121031545D01*
X182781545Y-120855167D01*
X182877000Y-120624718D01*
X182877000Y-120004750D01*
X182720250Y-119848000D01*
X181723000Y-119848000D01*
X181477000Y-119848000D01*
X181457000Y-119848000D01*
X181457000Y-119602000D01*
X181477000Y-119602000D01*
X181477000Y-118479750D01*
X181723000Y-118479750D01*
X181723000Y-119602000D01*
X182720250Y-119602000D01*
X182877000Y-119445250D01*
X182877000Y-118825282D01*
X182781545Y-118594833D01*
X182605167Y-118418455D01*
X182374718Y-118323000D01*
X181879750Y-118323000D01*
X181723000Y-118479750D01*
X181477000Y-118479750D01*
X181320250Y-118323000D01*
X180825282Y-118323000D01*
X180677000Y-118384420D01*
X180677000Y-118049998D01*
X180877503Y-118186997D01*
X181126220Y-118237363D01*
X181923780Y-118237363D01*
X182156132Y-118193643D01*
X182369533Y-118056323D01*
X182390047Y-118026300D01*
X184007882Y-118026300D01*
X184189799Y-118101839D01*
X184558583Y-118102161D01*
X184899417Y-117961331D01*
X184991103Y-117869804D01*
X185013669Y-117924417D01*
X185013669Y-117924417D01*
G37*
X185013669Y-117924417D02*
X185274211Y-118185414D01*
X185575973Y-118310717D01*
X185450000Y-118310717D01*
X185217648Y-118354437D01*
X185004247Y-118491757D01*
X184861083Y-118701283D01*
X184810717Y-118950000D01*
X184810717Y-119986149D01*
X184410933Y-120385933D01*
X184253340Y-120621789D01*
X184244789Y-120664779D01*
X184197999Y-120900000D01*
X184198000Y-120900005D01*
X184198000Y-125199995D01*
X184197999Y-125200000D01*
X184237783Y-125400000D01*
X184253340Y-125478211D01*
X184410933Y-125714067D01*
X185086010Y-126389144D01*
X185004247Y-126441757D01*
X184861083Y-126651283D01*
X184810717Y-126900000D01*
X184810717Y-128450000D01*
X184854437Y-128682352D01*
X184944942Y-128823000D01*
X182763712Y-128823000D01*
X182781545Y-128805167D01*
X182877000Y-128574718D01*
X182877000Y-127954750D01*
X182720250Y-127798000D01*
X181723000Y-127798000D01*
X181723000Y-127818000D01*
X181477000Y-127818000D01*
X181477000Y-127798000D01*
X181457000Y-127798000D01*
X181457000Y-127552000D01*
X181477000Y-127552000D01*
X181477000Y-126429750D01*
X181723000Y-126429750D01*
X181723000Y-127552000D01*
X182720250Y-127552000D01*
X182877000Y-127395250D01*
X182877000Y-126775282D01*
X182781545Y-126544833D01*
X182605167Y-126368455D01*
X182374718Y-126273000D01*
X181879750Y-126273000D01*
X181723000Y-126429750D01*
X181477000Y-126429750D01*
X181320250Y-126273000D01*
X180825282Y-126273000D01*
X180677000Y-126334420D01*
X180677000Y-121065580D01*
X180825282Y-121127000D01*
X181320250Y-121127000D01*
X181477000Y-120970250D01*
X181477000Y-119848000D01*
X181723000Y-119848000D01*
X181723000Y-120970250D01*
X181879750Y-121127000D01*
X182374718Y-121127000D01*
X182605167Y-121031545D01*
X182781545Y-120855167D01*
X182877000Y-120624718D01*
X182877000Y-120004750D01*
X182720250Y-119848000D01*
X181723000Y-119848000D01*
X181477000Y-119848000D01*
X181457000Y-119848000D01*
X181457000Y-119602000D01*
X181477000Y-119602000D01*
X181477000Y-118479750D01*
X181723000Y-118479750D01*
X181723000Y-119602000D01*
X182720250Y-119602000D01*
X182877000Y-119445250D01*
X182877000Y-118825282D01*
X182781545Y-118594833D01*
X182605167Y-118418455D01*
X182374718Y-118323000D01*
X181879750Y-118323000D01*
X181723000Y-118479750D01*
X181477000Y-118479750D01*
X181320250Y-118323000D01*
X180825282Y-118323000D01*
X180677000Y-118384420D01*
X180677000Y-118049998D01*
X180877503Y-118186997D01*
X181126220Y-118237363D01*
X181923780Y-118237363D01*
X182156132Y-118193643D01*
X182369533Y-118056323D01*
X182390047Y-118026300D01*
X184007882Y-118026300D01*
X184189799Y-118101839D01*
X184558583Y-118102161D01*
X184899417Y-117961331D01*
X184991103Y-117869804D01*
X185013669Y-117924417D01*
G36*
X189314207Y-121167000D02*
X190223028Y-121167000D01*
X190222839Y-121383583D01*
X190363669Y-121724417D01*
X190624211Y-121985414D01*
X190645161Y-121994113D01*
X190573000Y-122227000D01*
X190573000Y-122877000D01*
X191627000Y-122877000D01*
X191627000Y-122857000D01*
X191873000Y-122857000D01*
X191873000Y-122877000D01*
X191893000Y-122877000D01*
X191893000Y-123123000D01*
X191873000Y-123123000D01*
X191873000Y-123143000D01*
X191627000Y-123143000D01*
X191627000Y-123123000D01*
X190573000Y-123123000D01*
X190573000Y-123773000D01*
X190709664Y-124214056D01*
X191004710Y-124569239D01*
X191347184Y-124749683D01*
X190360933Y-125735933D01*
X190203340Y-125971789D01*
X190203340Y-125971790D01*
X190147999Y-126250000D01*
X190148000Y-126250005D01*
X190148000Y-126865899D01*
X190089586Y-126924211D01*
X189948161Y-127264799D01*
X189947839Y-127633583D01*
X190088669Y-127974417D01*
X190349211Y-128235414D01*
X190689799Y-128376839D01*
X191058583Y-128377161D01*
X191399417Y-128236331D01*
X191660414Y-127975789D01*
X191801839Y-127635201D01*
X191802161Y-127266417D01*
X191661331Y-126925583D01*
X191602000Y-126866148D01*
X191602000Y-126551134D01*
X192009400Y-126143734D01*
X192009400Y-126970250D01*
X192166150Y-127127000D01*
X193377000Y-127127000D01*
X193377000Y-125763750D01*
X193623000Y-125763750D01*
X193623000Y-127127000D01*
X195917000Y-127127000D01*
X195917000Y-125769433D01*
X195686128Y-125649614D01*
X195663156Y-125653872D01*
X195139351Y-125907981D01*
X194981028Y-126086173D01*
X194895145Y-125878833D01*
X194718767Y-125702455D01*
X194488318Y-125607000D01*
X193779750Y-125607000D01*
X193623000Y-125763750D01*
X193377000Y-125763750D01*
X193220250Y-125607000D01*
X192546133Y-125607000D01*
X192851044Y-125302089D01*
X192933583Y-125302161D01*
X193274417Y-125161331D01*
X193535414Y-124900789D01*
X193566359Y-124826264D01*
X193750000Y-124862793D01*
X194200418Y-124773199D01*
X194582265Y-124518058D01*
X194750000Y-124267024D01*
X194917735Y-124518058D01*
X195299582Y-124773199D01*
X195750000Y-124862793D01*
X196200418Y-124773199D01*
X196582265Y-124518058D01*
X196750000Y-124267024D01*
X196917735Y-124518058D01*
X197299582Y-124773199D01*
X197750000Y-124862793D01*
X198200418Y-124773199D01*
X198582265Y-124518058D01*
X198750000Y-124267024D01*
X198917735Y-124518058D01*
X199299582Y-124773199D01*
X199750000Y-124862793D01*
X200200418Y-124773199D01*
X200582265Y-124518058D01*
X200750000Y-124267024D01*
X200917735Y-124518058D01*
X201299582Y-124773199D01*
X201750000Y-124862793D01*
X202200418Y-124773199D01*
X202582265Y-124518058D01*
X202750000Y-124267024D01*
X202917735Y-124518058D01*
X202998000Y-124571689D01*
X202998000Y-124748866D01*
X201911124Y-125835742D01*
X201690428Y-125688277D01*
X201120000Y-125574812D01*
X200549572Y-125688277D01*
X200065987Y-126011399D01*
X199850000Y-126334646D01*
X199634013Y-126011399D01*
X199150428Y-125688277D01*
X198580000Y-125574812D01*
X198009572Y-125688277D01*
X197525987Y-126011399D01*
X197314180Y-126328389D01*
X196940649Y-125907981D01*
X196416844Y-125653872D01*
X196393872Y-125649614D01*
X196163000Y-125769433D01*
X196163000Y-127127000D01*
X196183000Y-127127000D01*
X196183000Y-127373000D01*
X196163000Y-127373000D01*
X196163000Y-127393000D01*
X195917000Y-127393000D01*
X195917000Y-127373000D01*
X193623000Y-127373000D01*
X193623000Y-127393000D01*
X193377000Y-127393000D01*
X193377000Y-127373000D01*
X192166150Y-127373000D01*
X192009400Y-127529750D01*
X192009400Y-128390718D01*
X192104855Y-128621167D01*
X192281233Y-128797545D01*
X192342687Y-128823000D01*
X187253997Y-128823000D01*
X187338917Y-128698717D01*
X187389283Y-128450000D01*
X187389283Y-128239036D01*
X187464067Y-128189067D01*
X187676023Y-127977111D01*
X187733583Y-127977161D01*
X188074417Y-127836331D01*
X188335414Y-127575789D01*
X188476839Y-127235201D01*
X188477161Y-126866417D01*
X188336331Y-126525583D01*
X188075789Y-126264586D01*
X187735201Y-126123161D01*
X187366417Y-126122839D01*
X187025583Y-126263669D01*
X186981565Y-126307610D01*
X186806546Y-126272168D01*
X186771660Y-126096790D01*
X186771660Y-126096789D01*
X186614067Y-125860933D01*
X185969738Y-125216604D01*
X186114799Y-125276839D01*
X186483583Y-125277161D01*
X186824417Y-125136331D01*
X187085414Y-124875789D01*
X187226839Y-124535201D01*
X187226912Y-124451221D01*
X188764064Y-122914069D01*
X188764067Y-122914067D01*
X188921660Y-122678211D01*
X188977000Y-122400000D01*
X188977000Y-121984101D01*
X189035414Y-121925789D01*
X189176839Y-121585201D01*
X189177161Y-121216417D01*
X189142641Y-121132873D01*
X189314207Y-121167000D01*
X189314207Y-121167000D01*
G37*
X189314207Y-121167000D02*
X190223028Y-121167000D01*
X190222839Y-121383583D01*
X190363669Y-121724417D01*
X190624211Y-121985414D01*
X190645161Y-121994113D01*
X190573000Y-122227000D01*
X190573000Y-122877000D01*
X191627000Y-122877000D01*
X191627000Y-122857000D01*
X191873000Y-122857000D01*
X191873000Y-122877000D01*
X191893000Y-122877000D01*
X191893000Y-123123000D01*
X191873000Y-123123000D01*
X191873000Y-123143000D01*
X191627000Y-123143000D01*
X191627000Y-123123000D01*
X190573000Y-123123000D01*
X190573000Y-123773000D01*
X190709664Y-124214056D01*
X191004710Y-124569239D01*
X191347184Y-124749683D01*
X190360933Y-125735933D01*
X190203340Y-125971789D01*
X190203340Y-125971790D01*
X190147999Y-126250000D01*
X190148000Y-126250005D01*
X190148000Y-126865899D01*
X190089586Y-126924211D01*
X189948161Y-127264799D01*
X189947839Y-127633583D01*
X190088669Y-127974417D01*
X190349211Y-128235414D01*
X190689799Y-128376839D01*
X191058583Y-128377161D01*
X191399417Y-128236331D01*
X191660414Y-127975789D01*
X191801839Y-127635201D01*
X191802161Y-127266417D01*
X191661331Y-126925583D01*
X191602000Y-126866148D01*
X191602000Y-126551134D01*
X192009400Y-126143734D01*
X192009400Y-126970250D01*
X192166150Y-127127000D01*
X193377000Y-127127000D01*
X193377000Y-125763750D01*
X193623000Y-125763750D01*
X193623000Y-127127000D01*
X195917000Y-127127000D01*
X195917000Y-125769433D01*
X195686128Y-125649614D01*
X195663156Y-125653872D01*
X195139351Y-125907981D01*
X194981028Y-126086173D01*
X194895145Y-125878833D01*
X194718767Y-125702455D01*
X194488318Y-125607000D01*
X193779750Y-125607000D01*
X193623000Y-125763750D01*
X193377000Y-125763750D01*
X193220250Y-125607000D01*
X192546133Y-125607000D01*
X192851044Y-125302089D01*
X192933583Y-125302161D01*
X193274417Y-125161331D01*
X193535414Y-124900789D01*
X193566359Y-124826264D01*
X193750000Y-124862793D01*
X194200418Y-124773199D01*
X194582265Y-124518058D01*
X194750000Y-124267024D01*
X194917735Y-124518058D01*
X195299582Y-124773199D01*
X195750000Y-124862793D01*
X196200418Y-124773199D01*
X196582265Y-124518058D01*
X196750000Y-124267024D01*
X196917735Y-124518058D01*
X197299582Y-124773199D01*
X197750000Y-124862793D01*
X198200418Y-124773199D01*
X198582265Y-124518058D01*
X198750000Y-124267024D01*
X198917735Y-124518058D01*
X199299582Y-124773199D01*
X199750000Y-124862793D01*
X200200418Y-124773199D01*
X200582265Y-124518058D01*
X200750000Y-124267024D01*
X200917735Y-124518058D01*
X201299582Y-124773199D01*
X201750000Y-124862793D01*
X202200418Y-124773199D01*
X202582265Y-124518058D01*
X202750000Y-124267024D01*
X202917735Y-124518058D01*
X202998000Y-124571689D01*
X202998000Y-124748866D01*
X201911124Y-125835742D01*
X201690428Y-125688277D01*
X201120000Y-125574812D01*
X200549572Y-125688277D01*
X200065987Y-126011399D01*
X199850000Y-126334646D01*
X199634013Y-126011399D01*
X199150428Y-125688277D01*
X198580000Y-125574812D01*
X198009572Y-125688277D01*
X197525987Y-126011399D01*
X197314180Y-126328389D01*
X196940649Y-125907981D01*
X196416844Y-125653872D01*
X196393872Y-125649614D01*
X196163000Y-125769433D01*
X196163000Y-127127000D01*
X196183000Y-127127000D01*
X196183000Y-127373000D01*
X196163000Y-127373000D01*
X196163000Y-127393000D01*
X195917000Y-127393000D01*
X195917000Y-127373000D01*
X193623000Y-127373000D01*
X193623000Y-127393000D01*
X193377000Y-127393000D01*
X193377000Y-127373000D01*
X192166150Y-127373000D01*
X192009400Y-127529750D01*
X192009400Y-128390718D01*
X192104855Y-128621167D01*
X192281233Y-128797545D01*
X192342687Y-128823000D01*
X187253997Y-128823000D01*
X187338917Y-128698717D01*
X187389283Y-128450000D01*
X187389283Y-128239036D01*
X187464067Y-128189067D01*
X187676023Y-127977111D01*
X187733583Y-127977161D01*
X188074417Y-127836331D01*
X188335414Y-127575789D01*
X188476839Y-127235201D01*
X188477161Y-126866417D01*
X188336331Y-126525583D01*
X188075789Y-126264586D01*
X187735201Y-126123161D01*
X187366417Y-126122839D01*
X187025583Y-126263669D01*
X186981565Y-126307610D01*
X186806546Y-126272168D01*
X186771660Y-126096790D01*
X186771660Y-126096789D01*
X186614067Y-125860933D01*
X185969738Y-125216604D01*
X186114799Y-125276839D01*
X186483583Y-125277161D01*
X186824417Y-125136331D01*
X187085414Y-124875789D01*
X187226839Y-124535201D01*
X187226912Y-124451221D01*
X188764064Y-122914069D01*
X188764067Y-122914067D01*
X188921660Y-122678211D01*
X188977000Y-122400000D01*
X188977000Y-121984101D01*
X189035414Y-121925789D01*
X189176839Y-121585201D01*
X189177161Y-121216417D01*
X189142641Y-121132873D01*
X189314207Y-121167000D01*
G36*
X213823000Y-106123000D02*
X213477010Y-106123000D01*
X213477010Y-104418490D01*
X213320260Y-104261740D01*
X211623000Y-104261740D01*
X211623000Y-104281740D01*
X211377000Y-104281740D01*
X211377000Y-104261740D01*
X209679740Y-104261740D01*
X209522990Y-104418490D01*
X209522990Y-106123000D01*
X207750000Y-106123000D01*
X207703841Y-106131685D01*
X207661447Y-106158965D01*
X207633006Y-106200590D01*
X207623000Y-106250000D01*
X207623000Y-124250000D01*
X207631685Y-124296159D01*
X207658965Y-124338553D01*
X207700590Y-124366994D01*
X207750000Y-124377000D01*
X208148536Y-124377000D01*
X207915456Y-124725829D01*
X207895835Y-124773199D01*
X207814369Y-124969874D01*
X207586008Y-126117924D01*
X207586008Y-126184604D01*
X207573000Y-126250000D01*
X207573000Y-126488796D01*
X207254013Y-126011399D01*
X206770428Y-125688277D01*
X206433008Y-125621160D01*
X206477000Y-125400000D01*
X206477000Y-124588394D01*
X206582265Y-124518058D01*
X206837406Y-124136211D01*
X206927000Y-123685793D01*
X206927000Y-122314207D01*
X206837406Y-121863789D01*
X206582265Y-121481942D01*
X206200418Y-121226801D01*
X205750000Y-121137207D01*
X205299582Y-121226801D01*
X204917735Y-121481942D01*
X204750000Y-121732976D01*
X204582265Y-121481942D01*
X204200418Y-121226801D01*
X203750000Y-121137207D01*
X203299582Y-121226801D01*
X202917735Y-121481942D01*
X202750000Y-121732976D01*
X202582265Y-121481942D01*
X202477000Y-121411606D01*
X202477000Y-118600005D01*
X202477001Y-118600000D01*
X202425242Y-118339799D01*
X202421660Y-118321789D01*
X202264067Y-118085933D01*
X202264064Y-118085931D01*
X198352089Y-114173955D01*
X198352161Y-114091417D01*
X198211331Y-113750583D01*
X197950789Y-113489586D01*
X197800066Y-113427000D01*
X198124361Y-113427000D01*
X198364799Y-113526839D01*
X198733583Y-113527161D01*
X199074417Y-113386331D01*
X199335414Y-113125789D01*
X199476839Y-112785201D01*
X199477161Y-112416417D01*
X199336331Y-112075583D01*
X199075789Y-111814586D01*
X198735201Y-111673161D01*
X198366417Y-111672839D01*
X198124009Y-111773000D01*
X196142554Y-111773000D01*
X192704570Y-108335016D01*
X192750000Y-108267024D01*
X192917735Y-108518058D01*
X193299582Y-108773199D01*
X193750000Y-108862793D01*
X194200418Y-108773199D01*
X194582265Y-108518058D01*
X194750000Y-108267024D01*
X194917735Y-108518058D01*
X195299582Y-108773199D01*
X195750000Y-108862793D01*
X196200418Y-108773199D01*
X196227182Y-108755316D01*
X196860933Y-109389067D01*
X197096789Y-109546660D01*
X197375000Y-109602000D01*
X199214329Y-109602000D01*
X199125583Y-109638669D01*
X198864586Y-109899211D01*
X198723161Y-110239799D01*
X198722839Y-110608583D01*
X198863669Y-110949417D01*
X199124211Y-111210414D01*
X199464799Y-111351839D01*
X199648866Y-111352000D01*
X201447911Y-113151044D01*
X201447839Y-113233583D01*
X201588669Y-113574417D01*
X201849211Y-113835414D01*
X202189799Y-113976839D01*
X202558583Y-113977161D01*
X202899417Y-113836331D01*
X203160414Y-113575789D01*
X203301839Y-113235201D01*
X203302161Y-112866417D01*
X203161331Y-112525583D01*
X202900789Y-112264586D01*
X202560201Y-112123161D01*
X202476221Y-112123088D01*
X200564916Y-110211782D01*
X200436331Y-109900583D01*
X200241860Y-109705773D01*
X200349417Y-109661331D01*
X200610414Y-109400789D01*
X200624861Y-109365998D01*
X200638669Y-109399417D01*
X200899211Y-109660414D01*
X201239799Y-109801839D01*
X201608583Y-109802161D01*
X201949417Y-109661331D01*
X202162512Y-109448607D01*
X202224211Y-109510414D01*
X202564799Y-109651839D01*
X202933583Y-109652161D01*
X203274417Y-109511331D01*
X203535414Y-109250789D01*
X203676839Y-108910201D01*
X203676845Y-108903782D01*
X203788669Y-109174417D01*
X204049211Y-109435414D01*
X204389799Y-109576839D01*
X204758583Y-109577161D01*
X205023000Y-109467906D01*
X205023000Y-112876142D01*
X204835201Y-112798161D01*
X204466417Y-112797839D01*
X204125583Y-112938669D01*
X203864586Y-113199211D01*
X203723161Y-113539799D01*
X203722839Y-113908583D01*
X203823000Y-114150991D01*
X203823000Y-117749361D01*
X203723161Y-117989799D01*
X203722839Y-118358583D01*
X203863669Y-118699417D01*
X204124211Y-118960414D01*
X204464799Y-119101839D01*
X204833583Y-119102161D01*
X205174417Y-118961331D01*
X205174816Y-118960933D01*
X205224211Y-119010414D01*
X205564799Y-119151839D01*
X205933583Y-119152161D01*
X206274417Y-119011331D01*
X206535414Y-118750789D01*
X206676839Y-118410201D01*
X206677161Y-118041417D01*
X206536331Y-117700583D01*
X206477000Y-117641148D01*
X206477000Y-108805978D01*
X206532352Y-108795563D01*
X206745753Y-108658243D01*
X206888917Y-108448717D01*
X206939283Y-108200000D01*
X206939283Y-105800000D01*
X206895563Y-105567648D01*
X206758243Y-105354247D01*
X206548717Y-105211083D01*
X206300000Y-105160717D01*
X205927122Y-105160717D01*
X205927161Y-105116417D01*
X205786331Y-104775583D01*
X205568002Y-104556873D01*
X205568002Y-104445252D01*
X205724750Y-104602000D01*
X205864718Y-104602000D01*
X206095167Y-104506545D01*
X206271545Y-104330167D01*
X206367000Y-104099718D01*
X206367000Y-104019250D01*
X206210250Y-103862500D01*
X205568000Y-103862500D01*
X205568000Y-103893000D01*
X205322000Y-103893000D01*
X205322000Y-103862500D01*
X204679750Y-103862500D01*
X204523000Y-104019250D01*
X204523000Y-104099718D01*
X204618455Y-104330167D01*
X204706531Y-104418243D01*
X204475583Y-104513669D01*
X204214586Y-104774211D01*
X204073161Y-105114799D01*
X204073085Y-105201473D01*
X203750000Y-105137207D01*
X203477000Y-105191510D01*
X203477000Y-105050000D01*
X203421660Y-104771789D01*
X203264067Y-104535933D01*
X202514067Y-103785933D01*
X202476942Y-103761127D01*
X202278211Y-103628340D01*
X202232052Y-103619158D01*
X202000000Y-103572999D01*
X201999995Y-103573000D01*
X200439383Y-103573000D01*
X200439383Y-103400282D01*
X204523000Y-103400282D01*
X204523000Y-103480750D01*
X204679750Y-103637500D01*
X205322000Y-103637500D01*
X205322000Y-103054750D01*
X205568000Y-103054750D01*
X205568000Y-103637500D01*
X206210250Y-103637500D01*
X206367000Y-103480750D01*
X206367000Y-103400282D01*
X206271545Y-103169833D01*
X206095167Y-102993455D01*
X205864718Y-102898000D01*
X205724750Y-102898000D01*
X205568000Y-103054750D01*
X205322000Y-103054750D01*
X205165250Y-102898000D01*
X205025282Y-102898000D01*
X204794833Y-102993455D01*
X204618455Y-103169833D01*
X204523000Y-103400282D01*
X200439383Y-103400282D01*
X200439383Y-102827820D01*
X201474180Y-102827820D01*
X201790659Y-102764868D01*
X202058957Y-102585597D01*
X203155717Y-101488837D01*
X203155717Y-102225000D01*
X203199437Y-102457352D01*
X203336757Y-102670753D01*
X203546283Y-102813917D01*
X203795000Y-102864283D01*
X204395000Y-102864283D01*
X204627352Y-102820563D01*
X204720179Y-102760830D01*
X204940282Y-102852000D01*
X205085250Y-102852000D01*
X205242000Y-102695250D01*
X205242000Y-101573000D01*
X205222000Y-101573000D01*
X205222000Y-101327000D01*
X205242000Y-101327000D01*
X205242000Y-101307000D01*
X205488000Y-101307000D01*
X205488000Y-101327000D01*
X205508000Y-101327000D01*
X205508000Y-101573000D01*
X205488000Y-101573000D01*
X205488000Y-102695250D01*
X205644750Y-102852000D01*
X205789718Y-102852000D01*
X206009054Y-102761148D01*
X206086283Y-102813917D01*
X206335000Y-102864283D01*
X206935000Y-102864283D01*
X207078000Y-102837376D01*
X207078000Y-102919963D01*
X207027648Y-102929437D01*
X206814247Y-103066757D01*
X206671083Y-103276283D01*
X206620717Y-103525000D01*
X206620717Y-103975000D01*
X206664437Y-104207352D01*
X206801757Y-104420753D01*
X207011283Y-104563917D01*
X207260000Y-104614283D01*
X207850000Y-104614283D01*
X208082352Y-104570563D01*
X208295753Y-104433243D01*
X208438917Y-104223717D01*
X208486675Y-103987879D01*
X208489777Y-103984777D01*
X208669048Y-103716479D01*
X208732000Y-103400000D01*
X208732000Y-102564335D01*
X208793917Y-102473717D01*
X208844283Y-102225000D01*
X208844283Y-102013772D01*
X209522990Y-102013772D01*
X209522990Y-103858990D01*
X209679740Y-104015740D01*
X211377000Y-104015740D01*
X211377000Y-101668240D01*
X211623000Y-101668240D01*
X211623000Y-104015740D01*
X213320260Y-104015740D01*
X213477010Y-103858990D01*
X213477010Y-102013772D01*
X213381555Y-101783323D01*
X213205177Y-101606945D01*
X212974728Y-101511490D01*
X211779750Y-101511490D01*
X211623000Y-101668240D01*
X211377000Y-101668240D01*
X211220250Y-101511490D01*
X210025272Y-101511490D01*
X209794823Y-101606945D01*
X209618445Y-101783323D01*
X209522990Y-102013772D01*
X208844283Y-102013772D01*
X208844283Y-101875271D01*
X209383804Y-101335750D01*
X209624417Y-101236331D01*
X209885414Y-100975789D01*
X210026839Y-100635201D01*
X210027161Y-100266417D01*
X209927000Y-100024009D01*
X209927000Y-98955637D01*
X210149990Y-99000793D01*
X210603977Y-99000793D01*
X210598161Y-99014799D01*
X210597839Y-99383583D01*
X210738669Y-99724417D01*
X210999211Y-99985414D01*
X211339799Y-100126839D01*
X211708583Y-100127161D01*
X212049417Y-99986331D01*
X212310414Y-99725789D01*
X212451839Y-99385201D01*
X212452161Y-99016417D01*
X212445705Y-99000793D01*
X212850010Y-99000793D01*
X213082362Y-98957073D01*
X213295763Y-98819753D01*
X213438927Y-98610227D01*
X213486156Y-98377000D01*
X213823000Y-98377000D01*
X213823000Y-106123000D01*
X213823000Y-106123000D01*
G37*
X213823000Y-106123000D02*
X213477010Y-106123000D01*
X213477010Y-104418490D01*
X213320260Y-104261740D01*
X211623000Y-104261740D01*
X211623000Y-104281740D01*
X211377000Y-104281740D01*
X211377000Y-104261740D01*
X209679740Y-104261740D01*
X209522990Y-104418490D01*
X209522990Y-106123000D01*
X207750000Y-106123000D01*
X207703841Y-106131685D01*
X207661447Y-106158965D01*
X207633006Y-106200590D01*
X207623000Y-106250000D01*
X207623000Y-124250000D01*
X207631685Y-124296159D01*
X207658965Y-124338553D01*
X207700590Y-124366994D01*
X207750000Y-124377000D01*
X208148536Y-124377000D01*
X207915456Y-124725829D01*
X207895835Y-124773199D01*
X207814369Y-124969874D01*
X207586008Y-126117924D01*
X207586008Y-126184604D01*
X207573000Y-126250000D01*
X207573000Y-126488796D01*
X207254013Y-126011399D01*
X206770428Y-125688277D01*
X206433008Y-125621160D01*
X206477000Y-125400000D01*
X206477000Y-124588394D01*
X206582265Y-124518058D01*
X206837406Y-124136211D01*
X206927000Y-123685793D01*
X206927000Y-122314207D01*
X206837406Y-121863789D01*
X206582265Y-121481942D01*
X206200418Y-121226801D01*
X205750000Y-121137207D01*
X205299582Y-121226801D01*
X204917735Y-121481942D01*
X204750000Y-121732976D01*
X204582265Y-121481942D01*
X204200418Y-121226801D01*
X203750000Y-121137207D01*
X203299582Y-121226801D01*
X202917735Y-121481942D01*
X202750000Y-121732976D01*
X202582265Y-121481942D01*
X202477000Y-121411606D01*
X202477000Y-118600005D01*
X202477001Y-118600000D01*
X202425242Y-118339799D01*
X202421660Y-118321789D01*
X202264067Y-118085933D01*
X202264064Y-118085931D01*
X198352089Y-114173955D01*
X198352161Y-114091417D01*
X198211331Y-113750583D01*
X197950789Y-113489586D01*
X197800066Y-113427000D01*
X198124361Y-113427000D01*
X198364799Y-113526839D01*
X198733583Y-113527161D01*
X199074417Y-113386331D01*
X199335414Y-113125789D01*
X199476839Y-112785201D01*
X199477161Y-112416417D01*
X199336331Y-112075583D01*
X199075789Y-111814586D01*
X198735201Y-111673161D01*
X198366417Y-111672839D01*
X198124009Y-111773000D01*
X196142554Y-111773000D01*
X192704570Y-108335016D01*
X192750000Y-108267024D01*
X192917735Y-108518058D01*
X193299582Y-108773199D01*
X193750000Y-108862793D01*
X194200418Y-108773199D01*
X194582265Y-108518058D01*
X194750000Y-108267024D01*
X194917735Y-108518058D01*
X195299582Y-108773199D01*
X195750000Y-108862793D01*
X196200418Y-108773199D01*
X196227182Y-108755316D01*
X196860933Y-109389067D01*
X197096789Y-109546660D01*
X197375000Y-109602000D01*
X199214329Y-109602000D01*
X199125583Y-109638669D01*
X198864586Y-109899211D01*
X198723161Y-110239799D01*
X198722839Y-110608583D01*
X198863669Y-110949417D01*
X199124211Y-111210414D01*
X199464799Y-111351839D01*
X199648866Y-111352000D01*
X201447911Y-113151044D01*
X201447839Y-113233583D01*
X201588669Y-113574417D01*
X201849211Y-113835414D01*
X202189799Y-113976839D01*
X202558583Y-113977161D01*
X202899417Y-113836331D01*
X203160414Y-113575789D01*
X203301839Y-113235201D01*
X203302161Y-112866417D01*
X203161331Y-112525583D01*
X202900789Y-112264586D01*
X202560201Y-112123161D01*
X202476221Y-112123088D01*
X200564916Y-110211782D01*
X200436331Y-109900583D01*
X200241860Y-109705773D01*
X200349417Y-109661331D01*
X200610414Y-109400789D01*
X200624861Y-109365998D01*
X200638669Y-109399417D01*
X200899211Y-109660414D01*
X201239799Y-109801839D01*
X201608583Y-109802161D01*
X201949417Y-109661331D01*
X202162512Y-109448607D01*
X202224211Y-109510414D01*
X202564799Y-109651839D01*
X202933583Y-109652161D01*
X203274417Y-109511331D01*
X203535414Y-109250789D01*
X203676839Y-108910201D01*
X203676845Y-108903782D01*
X203788669Y-109174417D01*
X204049211Y-109435414D01*
X204389799Y-109576839D01*
X204758583Y-109577161D01*
X205023000Y-109467906D01*
X205023000Y-112876142D01*
X204835201Y-112798161D01*
X204466417Y-112797839D01*
X204125583Y-112938669D01*
X203864586Y-113199211D01*
X203723161Y-113539799D01*
X203722839Y-113908583D01*
X203823000Y-114150991D01*
X203823000Y-117749361D01*
X203723161Y-117989799D01*
X203722839Y-118358583D01*
X203863669Y-118699417D01*
X204124211Y-118960414D01*
X204464799Y-119101839D01*
X204833583Y-119102161D01*
X205174417Y-118961331D01*
X205174816Y-118960933D01*
X205224211Y-119010414D01*
X205564799Y-119151839D01*
X205933583Y-119152161D01*
X206274417Y-119011331D01*
X206535414Y-118750789D01*
X206676839Y-118410201D01*
X206677161Y-118041417D01*
X206536331Y-117700583D01*
X206477000Y-117641148D01*
X206477000Y-108805978D01*
X206532352Y-108795563D01*
X206745753Y-108658243D01*
X206888917Y-108448717D01*
X206939283Y-108200000D01*
X206939283Y-105800000D01*
X206895563Y-105567648D01*
X206758243Y-105354247D01*
X206548717Y-105211083D01*
X206300000Y-105160717D01*
X205927122Y-105160717D01*
X205927161Y-105116417D01*
X205786331Y-104775583D01*
X205568002Y-104556873D01*
X205568002Y-104445252D01*
X205724750Y-104602000D01*
X205864718Y-104602000D01*
X206095167Y-104506545D01*
X206271545Y-104330167D01*
X206367000Y-104099718D01*
X206367000Y-104019250D01*
X206210250Y-103862500D01*
X205568000Y-103862500D01*
X205568000Y-103893000D01*
X205322000Y-103893000D01*
X205322000Y-103862500D01*
X204679750Y-103862500D01*
X204523000Y-104019250D01*
X204523000Y-104099718D01*
X204618455Y-104330167D01*
X204706531Y-104418243D01*
X204475583Y-104513669D01*
X204214586Y-104774211D01*
X204073161Y-105114799D01*
X204073085Y-105201473D01*
X203750000Y-105137207D01*
X203477000Y-105191510D01*
X203477000Y-105050000D01*
X203421660Y-104771789D01*
X203264067Y-104535933D01*
X202514067Y-103785933D01*
X202476942Y-103761127D01*
X202278211Y-103628340D01*
X202232052Y-103619158D01*
X202000000Y-103572999D01*
X201999995Y-103573000D01*
X200439383Y-103573000D01*
X200439383Y-103400282D01*
X204523000Y-103400282D01*
X204523000Y-103480750D01*
X204679750Y-103637500D01*
X205322000Y-103637500D01*
X205322000Y-103054750D01*
X205568000Y-103054750D01*
X205568000Y-103637500D01*
X206210250Y-103637500D01*
X206367000Y-103480750D01*
X206367000Y-103400282D01*
X206271545Y-103169833D01*
X206095167Y-102993455D01*
X205864718Y-102898000D01*
X205724750Y-102898000D01*
X205568000Y-103054750D01*
X205322000Y-103054750D01*
X205165250Y-102898000D01*
X205025282Y-102898000D01*
X204794833Y-102993455D01*
X204618455Y-103169833D01*
X204523000Y-103400282D01*
X200439383Y-103400282D01*
X200439383Y-102827820D01*
X201474180Y-102827820D01*
X201790659Y-102764868D01*
X202058957Y-102585597D01*
X203155717Y-101488837D01*
X203155717Y-102225000D01*
X203199437Y-102457352D01*
X203336757Y-102670753D01*
X203546283Y-102813917D01*
X203795000Y-102864283D01*
X204395000Y-102864283D01*
X204627352Y-102820563D01*
X204720179Y-102760830D01*
X204940282Y-102852000D01*
X205085250Y-102852000D01*
X205242000Y-102695250D01*
X205242000Y-101573000D01*
X205222000Y-101573000D01*
X205222000Y-101327000D01*
X205242000Y-101327000D01*
X205242000Y-101307000D01*
X205488000Y-101307000D01*
X205488000Y-101327000D01*
X205508000Y-101327000D01*
X205508000Y-101573000D01*
X205488000Y-101573000D01*
X205488000Y-102695250D01*
X205644750Y-102852000D01*
X205789718Y-102852000D01*
X206009054Y-102761148D01*
X206086283Y-102813917D01*
X206335000Y-102864283D01*
X206935000Y-102864283D01*
X207078000Y-102837376D01*
X207078000Y-102919963D01*
X207027648Y-102929437D01*
X206814247Y-103066757D01*
X206671083Y-103276283D01*
X206620717Y-103525000D01*
X206620717Y-103975000D01*
X206664437Y-104207352D01*
X206801757Y-104420753D01*
X207011283Y-104563917D01*
X207260000Y-104614283D01*
X207850000Y-104614283D01*
X208082352Y-104570563D01*
X208295753Y-104433243D01*
X208438917Y-104223717D01*
X208486675Y-103987879D01*
X208489777Y-103984777D01*
X208669048Y-103716479D01*
X208732000Y-103400000D01*
X208732000Y-102564335D01*
X208793917Y-102473717D01*
X208844283Y-102225000D01*
X208844283Y-102013772D01*
X209522990Y-102013772D01*
X209522990Y-103858990D01*
X209679740Y-104015740D01*
X211377000Y-104015740D01*
X211377000Y-101668240D01*
X211623000Y-101668240D01*
X211623000Y-104015740D01*
X213320260Y-104015740D01*
X213477010Y-103858990D01*
X213477010Y-102013772D01*
X213381555Y-101783323D01*
X213205177Y-101606945D01*
X212974728Y-101511490D01*
X211779750Y-101511490D01*
X211623000Y-101668240D01*
X211377000Y-101668240D01*
X211220250Y-101511490D01*
X210025272Y-101511490D01*
X209794823Y-101606945D01*
X209618445Y-101783323D01*
X209522990Y-102013772D01*
X208844283Y-102013772D01*
X208844283Y-101875271D01*
X209383804Y-101335750D01*
X209624417Y-101236331D01*
X209885414Y-100975789D01*
X210026839Y-100635201D01*
X210027161Y-100266417D01*
X209927000Y-100024009D01*
X209927000Y-98955637D01*
X210149990Y-99000793D01*
X210603977Y-99000793D01*
X210598161Y-99014799D01*
X210597839Y-99383583D01*
X210738669Y-99724417D01*
X210999211Y-99985414D01*
X211339799Y-100126839D01*
X211708583Y-100127161D01*
X212049417Y-99986331D01*
X212310414Y-99725789D01*
X212451839Y-99385201D01*
X212452161Y-99016417D01*
X212445705Y-99000793D01*
X212850010Y-99000793D01*
X213082362Y-98957073D01*
X213295763Y-98819753D01*
X213438927Y-98610227D01*
X213486156Y-98377000D01*
X213823000Y-98377000D01*
X213823000Y-106123000D01*
G36*
X207898224Y-63006036D02*
X207542066Y-63539063D01*
X207417000Y-64167812D01*
X207417000Y-64232188D01*
X207490209Y-64600237D01*
X207459224Y-64631222D01*
X207279953Y-64899520D01*
X207242466Y-65087980D01*
X204516197Y-67814249D01*
X204275583Y-67913669D01*
X204014586Y-68174211D01*
X203873161Y-68514799D01*
X203872839Y-68883583D01*
X204013669Y-69224417D01*
X204274211Y-69485414D01*
X204614799Y-69626839D01*
X204983583Y-69627161D01*
X205324417Y-69486331D01*
X205585414Y-69225789D01*
X205685998Y-68983556D01*
X208473753Y-66195801D01*
X208584777Y-66121617D01*
X208764048Y-65853319D01*
X208768293Y-65831977D01*
X208777030Y-65818902D01*
X209060000Y-65875188D01*
X209688749Y-65750122D01*
X210031670Y-65520989D01*
X210052455Y-65571167D01*
X210228833Y-65747545D01*
X210459282Y-65843000D01*
X211320250Y-65843000D01*
X211477000Y-65686250D01*
X211477000Y-64323000D01*
X211723000Y-64323000D01*
X211723000Y-65686250D01*
X211879750Y-65843000D01*
X212740718Y-65843000D01*
X212971167Y-65747545D01*
X213147545Y-65571167D01*
X213243000Y-65340718D01*
X213243000Y-64479750D01*
X213086250Y-64323000D01*
X211723000Y-64323000D01*
X211477000Y-64323000D01*
X211457000Y-64323000D01*
X211457000Y-64077000D01*
X211477000Y-64077000D01*
X211477000Y-64057000D01*
X211723000Y-64057000D01*
X211723000Y-64077000D01*
X213086250Y-64077000D01*
X213243000Y-63920250D01*
X213243000Y-63059282D01*
X213188207Y-62927000D01*
X213433320Y-62927000D01*
X213618532Y-62963841D01*
X213719017Y-63030983D01*
X213786159Y-63131468D01*
X213823000Y-63316679D01*
X213823000Y-77985282D01*
X213808407Y-77265783D01*
X213531338Y-76596880D01*
X213224717Y-76449231D01*
X211963948Y-77710000D01*
X213224717Y-78970769D01*
X213531338Y-78823120D01*
X213823000Y-78076511D01*
X213823000Y-83065282D01*
X213808407Y-82345783D01*
X213531338Y-81676880D01*
X213224717Y-81529231D01*
X211963948Y-82790000D01*
X213224717Y-84050769D01*
X213531338Y-83903120D01*
X213823000Y-83156511D01*
X213823000Y-85073000D01*
X203825000Y-85073000D01*
X203775590Y-85083006D01*
X203733965Y-85111447D01*
X203706685Y-85153841D01*
X203698000Y-85200000D01*
X203698000Y-85773000D01*
X198284547Y-85773000D01*
X197968068Y-85835952D01*
X197699769Y-86015223D01*
X196927002Y-86787990D01*
X196927002Y-84224717D01*
X205449231Y-84224717D01*
X205596880Y-84531338D01*
X206347992Y-84824759D01*
X207154217Y-84808407D01*
X207823120Y-84531338D01*
X207970769Y-84224717D01*
X210529231Y-84224717D01*
X210676880Y-84531338D01*
X211427992Y-84824759D01*
X212234217Y-84808407D01*
X212903120Y-84531338D01*
X213050769Y-84224717D01*
X211790000Y-82963948D01*
X210529231Y-84224717D01*
X207970769Y-84224717D01*
X206710000Y-82963948D01*
X205449231Y-84224717D01*
X196927002Y-84224717D01*
X196927002Y-82427992D01*
X204675241Y-82427992D01*
X204691593Y-83234217D01*
X204968662Y-83903120D01*
X205275283Y-84050769D01*
X206536052Y-82790000D01*
X205275283Y-81529231D01*
X204968662Y-81676880D01*
X204675241Y-82427992D01*
X196927002Y-82427992D01*
X196927002Y-81600002D01*
X196864050Y-81283523D01*
X196707121Y-81048662D01*
X196684779Y-81015224D01*
X194885751Y-79216197D01*
X194856216Y-79144717D01*
X205449231Y-79144717D01*
X205596880Y-79451338D01*
X206347992Y-79744759D01*
X207154217Y-79728407D01*
X207361587Y-79642511D01*
X207273344Y-79855025D01*
X207272657Y-80641524D01*
X207367309Y-80870600D01*
X207072008Y-80755241D01*
X206265783Y-80771593D01*
X205596880Y-81048662D01*
X205449231Y-81355283D01*
X206710000Y-82616052D01*
X206724143Y-82601910D01*
X206898091Y-82775858D01*
X206883948Y-82790000D01*
X208144717Y-84050769D01*
X208451338Y-83903120D01*
X208744759Y-83152008D01*
X208728407Y-82345783D01*
X208642511Y-82138413D01*
X208855025Y-82226656D01*
X209641524Y-82227343D01*
X209870600Y-82132691D01*
X209755241Y-82427992D01*
X209771593Y-83234217D01*
X210048662Y-83903120D01*
X210355283Y-84050769D01*
X211616052Y-82790000D01*
X211601910Y-82775858D01*
X211775858Y-82601910D01*
X211790000Y-82616052D01*
X213050769Y-81355283D01*
X212903120Y-81048662D01*
X212152008Y-80755241D01*
X211345783Y-80771593D01*
X211138413Y-80857489D01*
X211226656Y-80644975D01*
X211227343Y-79858476D01*
X211132691Y-79629400D01*
X211427992Y-79744759D01*
X212234217Y-79728407D01*
X212903120Y-79451338D01*
X213050769Y-79144717D01*
X211790000Y-77883948D01*
X211775858Y-77898091D01*
X211601910Y-77724143D01*
X211616052Y-77710000D01*
X210355283Y-76449231D01*
X210048662Y-76596880D01*
X209755241Y-77347992D01*
X209771593Y-78154217D01*
X209857489Y-78361587D01*
X209644975Y-78273344D01*
X208858476Y-78272657D01*
X208629400Y-78367309D01*
X208744759Y-78072008D01*
X208728407Y-77265783D01*
X208451338Y-76596880D01*
X208144717Y-76449231D01*
X206883948Y-77710000D01*
X206898091Y-77724143D01*
X206724143Y-77898091D01*
X206710000Y-77883948D01*
X205449231Y-79144717D01*
X194856216Y-79144717D01*
X194786331Y-78975583D01*
X194525789Y-78714586D01*
X194185201Y-78573161D01*
X193816417Y-78572839D01*
X193475583Y-78713669D01*
X193214586Y-78974211D01*
X193073161Y-79314799D01*
X193072839Y-79683583D01*
X193213669Y-80024417D01*
X193474211Y-80285414D01*
X193716444Y-80385998D01*
X195273002Y-81942557D01*
X195273002Y-87109002D01*
X193899998Y-87109002D01*
X193583519Y-87171954D01*
X193315220Y-87351225D01*
X190225222Y-90441224D01*
X190103763Y-90623000D01*
X189749750Y-90623000D01*
X189593000Y-90779750D01*
X189593000Y-92127000D01*
X189613000Y-92127000D01*
X189613000Y-92373000D01*
X189593000Y-92373000D01*
X189593000Y-93720250D01*
X189749750Y-93877000D01*
X189982999Y-93877000D01*
X189982999Y-96509999D01*
X190045951Y-96826478D01*
X190208349Y-97069524D01*
X190313669Y-97324417D01*
X190574211Y-97585414D01*
X190914799Y-97726839D01*
X191283583Y-97727161D01*
X191624417Y-97586331D01*
X191885414Y-97325789D01*
X192026839Y-96985201D01*
X192027019Y-96778930D01*
X197572900Y-96778930D01*
X197572900Y-98423488D01*
X197668355Y-98653937D01*
X197844733Y-98830315D01*
X198075182Y-98925770D01*
X198720250Y-98925770D01*
X198877000Y-98769020D01*
X198877000Y-96622180D01*
X199123000Y-96622180D01*
X199123000Y-98769020D01*
X199279750Y-98925770D01*
X199924818Y-98925770D01*
X200155267Y-98830315D01*
X200331645Y-98653937D01*
X200427100Y-98423488D01*
X200427100Y-96778930D01*
X200270350Y-96622180D01*
X199123000Y-96622180D01*
X198877000Y-96622180D01*
X197729650Y-96622180D01*
X197572900Y-96778930D01*
X192027019Y-96778930D01*
X192027161Y-96616417D01*
X191886331Y-96275583D01*
X191636999Y-96025816D01*
X191636999Y-93889283D01*
X192810000Y-93889283D01*
X193042352Y-93845563D01*
X193255753Y-93708243D01*
X193278434Y-93675048D01*
X193291757Y-93695753D01*
X193501283Y-93838917D01*
X193750000Y-93889283D01*
X193823000Y-93889283D01*
X193823000Y-93990855D01*
X193789586Y-94024211D01*
X193648161Y-94364799D01*
X193647839Y-94733583D01*
X193788669Y-95074417D01*
X194049211Y-95335414D01*
X194389799Y-95476839D01*
X194758583Y-95477161D01*
X195099417Y-95336331D01*
X195360414Y-95075789D01*
X195501839Y-94735201D01*
X195501978Y-94574872D01*
X197572900Y-94574872D01*
X197572900Y-96219430D01*
X197729650Y-96376180D01*
X198877000Y-96376180D01*
X198877000Y-94229340D01*
X199123000Y-94229340D01*
X199123000Y-96376180D01*
X200270350Y-96376180D01*
X200427100Y-96219430D01*
X200427100Y-94574872D01*
X200331645Y-94344423D01*
X200155267Y-94168045D01*
X199924818Y-94072590D01*
X199279750Y-94072590D01*
X199123000Y-94229340D01*
X198877000Y-94229340D01*
X198720250Y-94072590D01*
X198075182Y-94072590D01*
X197844733Y-94168045D01*
X197668355Y-94344423D01*
X197572900Y-94574872D01*
X195501978Y-94574872D01*
X195502161Y-94366417D01*
X195361331Y-94025583D01*
X195277000Y-93941105D01*
X195277000Y-93889283D01*
X195350000Y-93889283D01*
X195582352Y-93845563D01*
X195795753Y-93708243D01*
X195818434Y-93675048D01*
X195831757Y-93695753D01*
X196041283Y-93838917D01*
X196290000Y-93889283D01*
X197890000Y-93889283D01*
X198122352Y-93845563D01*
X198335753Y-93708243D01*
X198358434Y-93675048D01*
X198371757Y-93695753D01*
X198581283Y-93838917D01*
X198830000Y-93889283D01*
X200430000Y-93889283D01*
X200662352Y-93845563D01*
X200875753Y-93708243D01*
X200902454Y-93669166D01*
X201014833Y-93781545D01*
X201245282Y-93877000D01*
X201890250Y-93877000D01*
X202047000Y-93720250D01*
X202047000Y-92373000D01*
X202293000Y-92373000D01*
X202293000Y-93720250D01*
X202449750Y-93877000D01*
X203094718Y-93877000D01*
X203325167Y-93781545D01*
X203501545Y-93605167D01*
X203597000Y-93374718D01*
X203597000Y-92529750D01*
X203440250Y-92373000D01*
X202293000Y-92373000D01*
X202047000Y-92373000D01*
X202027000Y-92373000D01*
X202027000Y-92127000D01*
X202047000Y-92127000D01*
X202047000Y-90779750D01*
X202293000Y-90779750D01*
X202293000Y-92127000D01*
X203440250Y-92127000D01*
X203597000Y-91970250D01*
X203597000Y-91125282D01*
X203501545Y-90894833D01*
X203325167Y-90718455D01*
X203094718Y-90623000D01*
X202449750Y-90623000D01*
X202293000Y-90779750D01*
X202047000Y-90779750D01*
X201890250Y-90623000D01*
X201245282Y-90623000D01*
X201014833Y-90718455D01*
X200904217Y-90829071D01*
X200888243Y-90804247D01*
X200678717Y-90661083D01*
X200430000Y-90610717D01*
X198830000Y-90610717D01*
X198597648Y-90654437D01*
X198384247Y-90791757D01*
X198361566Y-90824952D01*
X198348243Y-90804247D01*
X198138717Y-90661083D01*
X197890000Y-90610717D01*
X196290000Y-90610717D01*
X196057648Y-90654437D01*
X195844247Y-90791757D01*
X195821566Y-90824952D01*
X195808243Y-90804247D01*
X195598717Y-90661083D01*
X195427658Y-90626443D01*
X198627102Y-87427000D01*
X203698000Y-87427000D01*
X203698000Y-94432446D01*
X203510223Y-94620223D01*
X203401272Y-94783280D01*
X203349247Y-94816757D01*
X203206083Y-95026283D01*
X203155717Y-95275000D01*
X203155717Y-96825000D01*
X203199437Y-97057352D01*
X203336757Y-97270753D01*
X203546283Y-97413917D01*
X203698000Y-97444640D01*
X203698000Y-98250000D01*
X203708006Y-98299410D01*
X203736447Y-98341035D01*
X203778841Y-98368315D01*
X203825000Y-98377000D01*
X206215986Y-98377000D01*
X206286862Y-98448000D01*
X204200000Y-98448000D01*
X203883521Y-98510952D01*
X203615223Y-98690222D01*
X201131626Y-101173820D01*
X200439383Y-101173820D01*
X200439383Y-100201230D01*
X200395663Y-99968878D01*
X200258343Y-99755477D01*
X200048817Y-99612313D01*
X199800100Y-99561947D01*
X198199900Y-99561947D01*
X197967548Y-99605667D01*
X197754147Y-99742987D01*
X197631149Y-99923000D01*
X194577000Y-99923000D01*
X194577000Y-99850639D01*
X194676839Y-99610201D01*
X194677161Y-99241417D01*
X194536331Y-98900583D01*
X194275789Y-98639586D01*
X193935201Y-98498161D01*
X193566417Y-98497839D01*
X193225583Y-98638669D01*
X192964586Y-98899211D01*
X192823161Y-99239799D01*
X192822839Y-99608583D01*
X192923000Y-99850991D01*
X192923000Y-100750000D01*
X192985952Y-101066479D01*
X193165223Y-101334777D01*
X193433521Y-101514048D01*
X193750000Y-101577000D01*
X197406626Y-101577000D01*
X197560617Y-101730991D01*
X197560617Y-103573000D01*
X195075000Y-103573000D01*
X194796789Y-103628340D01*
X194560933Y-103785933D01*
X194223955Y-104122911D01*
X194141417Y-104122839D01*
X193800583Y-104263669D01*
X193658569Y-104405435D01*
X191727089Y-102473955D01*
X191727161Y-102391417D01*
X191586331Y-102050583D01*
X191325789Y-101789586D01*
X190985201Y-101648161D01*
X190616417Y-101647839D01*
X190275583Y-101788669D01*
X190014586Y-102049211D01*
X189873161Y-102389799D01*
X189872839Y-102758583D01*
X190013669Y-103099417D01*
X190274211Y-103360414D01*
X190614799Y-103501839D01*
X190698778Y-103501912D01*
X192822034Y-105625168D01*
X192750000Y-105732976D01*
X192582265Y-105481942D01*
X192200418Y-105226801D01*
X191750000Y-105137207D01*
X191299582Y-105226801D01*
X190917735Y-105481942D01*
X190662594Y-105863789D01*
X190573000Y-106314207D01*
X190573000Y-107685793D01*
X190662594Y-108136211D01*
X190917735Y-108518058D01*
X190923000Y-108521576D01*
X190923000Y-108550000D01*
X190985952Y-108866479D01*
X190990750Y-108873660D01*
X190685793Y-108813000D01*
X189314207Y-108813000D01*
X188863789Y-108902594D01*
X188481942Y-109157735D01*
X188226801Y-109539582D01*
X188137207Y-109990000D01*
X188226801Y-110440418D01*
X188481942Y-110822265D01*
X188732976Y-110990000D01*
X188481942Y-111157735D01*
X188226801Y-111539582D01*
X188137207Y-111990000D01*
X188226801Y-112440418D01*
X188481942Y-112822265D01*
X188732976Y-112990000D01*
X188481942Y-113157735D01*
X188226801Y-113539582D01*
X188137207Y-113990000D01*
X188226801Y-114440418D01*
X188481942Y-114822265D01*
X188732976Y-114990000D01*
X188481942Y-115157735D01*
X188226801Y-115539582D01*
X188137207Y-115990000D01*
X188226801Y-116440418D01*
X188481942Y-116822265D01*
X188732976Y-116990000D01*
X188481942Y-117157735D01*
X188226801Y-117539582D01*
X188137207Y-117990000D01*
X188226801Y-118440418D01*
X188481942Y-118822265D01*
X188732976Y-118990000D01*
X188481942Y-119157735D01*
X188226801Y-119539582D01*
X188137207Y-119990000D01*
X188226801Y-120440418D01*
X188248570Y-120472998D01*
X188066417Y-120472839D01*
X187725583Y-120613669D01*
X187464586Y-120874211D01*
X187323161Y-121214799D01*
X187322839Y-121583583D01*
X187463669Y-121924417D01*
X187523000Y-121983852D01*
X187523000Y-122098867D01*
X186198955Y-123422911D01*
X186116417Y-123422839D01*
X185775583Y-123563669D01*
X185652000Y-123687037D01*
X185652000Y-121201134D01*
X185713851Y-121139283D01*
X186750000Y-121139283D01*
X186982352Y-121095563D01*
X187195753Y-120958243D01*
X187338917Y-120748717D01*
X187389283Y-120500000D01*
X187389283Y-118950000D01*
X187345563Y-118717648D01*
X187208243Y-118504247D01*
X186998717Y-118361083D01*
X186750000Y-118310717D01*
X186023380Y-118310717D01*
X186324417Y-118186331D01*
X186585414Y-117925789D01*
X186726839Y-117585201D01*
X186727161Y-117216417D01*
X186586331Y-116875583D01*
X186518695Y-116807829D01*
X186595753Y-116758243D01*
X186738917Y-116548717D01*
X186789283Y-116300000D01*
X186789283Y-115400000D01*
X186745563Y-115167648D01*
X186608243Y-114954247D01*
X186398717Y-114811083D01*
X186150000Y-114760717D01*
X184950000Y-114760717D01*
X184717648Y-114804437D01*
X184504247Y-114941757D01*
X184450666Y-115020174D01*
X184408243Y-114954247D01*
X184198717Y-114811083D01*
X183950000Y-114760717D01*
X182750000Y-114760717D01*
X182517648Y-114804437D01*
X182398197Y-114881302D01*
X182382023Y-114856167D01*
X182172497Y-114713003D01*
X181923780Y-114662637D01*
X181126220Y-114662637D01*
X180893868Y-114706357D01*
X180680467Y-114843677D01*
X180677000Y-114848751D01*
X180677000Y-112621720D01*
X181122675Y-112621720D01*
X181407829Y-113311846D01*
X181935376Y-113840316D01*
X182625004Y-114126674D01*
X183371720Y-114127325D01*
X184061846Y-113842171D01*
X184590316Y-113314624D01*
X184876674Y-112624996D01*
X184877325Y-111878280D01*
X184592171Y-111188154D01*
X184064624Y-110659684D01*
X183374996Y-110373326D01*
X182628280Y-110372675D01*
X181938154Y-110657829D01*
X181409684Y-111185376D01*
X181123326Y-111875004D01*
X181122675Y-112621720D01*
X180677000Y-112621720D01*
X180677000Y-100761151D01*
X180705052Y-100821328D01*
X180707595Y-100824797D01*
X180708673Y-100828963D01*
X180709557Y-100830795D01*
X180710031Y-100831423D01*
X180710230Y-100832186D01*
X180720361Y-100853051D01*
X180721471Y-100854516D01*
X180721945Y-100856288D01*
X180731920Y-100876538D01*
X180733298Y-100878335D01*
X180733899Y-100880521D01*
X180743968Y-100900601D01*
X180745495Y-100902564D01*
X180746173Y-100904957D01*
X180756579Y-100925317D01*
X180758190Y-100927355D01*
X180758918Y-100929848D01*
X180769910Y-100950933D01*
X180771466Y-100952870D01*
X180772182Y-100955251D01*
X180784006Y-100977511D01*
X180785453Y-100979283D01*
X180786127Y-100981470D01*
X180799031Y-101005352D01*
X180800301Y-101006886D01*
X180800900Y-101008786D01*
X180815130Y-101034736D01*
X180816209Y-101036022D01*
X180816723Y-101037625D01*
X180832528Y-101066093D01*
X180833402Y-101067124D01*
X180833820Y-101068409D01*
X180851443Y-101099842D01*
X180852149Y-101100668D01*
X180852490Y-101101703D01*
X180872181Y-101136548D01*
X180872727Y-101137182D01*
X180872990Y-101137975D01*
X180894995Y-101176680D01*
X180895409Y-101177158D01*
X180895609Y-101177757D01*
X180920175Y-101220770D01*
X180920481Y-101221122D01*
X180920631Y-101221569D01*
X180948006Y-101269337D01*
X180948223Y-101269586D01*
X180948329Y-101269900D01*
X180978757Y-101322871D01*
X180978910Y-101323046D01*
X180978985Y-101323268D01*
X181012556Y-101381613D01*
X181012558Y-101381617D01*
X181024075Y-101401655D01*
X181060084Y-101464848D01*
X181091753Y-101521354D01*
X181119796Y-101572475D01*
X181144413Y-101618575D01*
X181165964Y-101660288D01*
X181184932Y-101698462D01*
X181201806Y-101733978D01*
X181217075Y-101767754D01*
X181231350Y-101801056D01*
X181245121Y-101834974D01*
X181258874Y-101870687D01*
X181273055Y-101909364D01*
X181288100Y-101952208D01*
X181321840Y-102051373D01*
X181363200Y-102176902D01*
X181400906Y-102296280D01*
X181435342Y-102410794D01*
X181466696Y-102521125D01*
X181495285Y-102628401D01*
X181521267Y-102733219D01*
X181544928Y-102836678D01*
X181566492Y-102939718D01*
X181586195Y-103043411D01*
X181604193Y-103148501D01*
X181620723Y-103256272D01*
X181635904Y-103367371D01*
X181649904Y-103482798D01*
X181663016Y-103604804D01*
X181665324Y-103627918D01*
X181672637Y-103705120D01*
X181679351Y-103782329D01*
X181685590Y-103861105D01*
X181691383Y-103942025D01*
X181696780Y-104025937D01*
X181701783Y-104113055D01*
X181706446Y-104204456D01*
X181710767Y-104300137D01*
X181714807Y-104401485D01*
X181718559Y-104508255D01*
X181722055Y-104621152D01*
X181725357Y-104741920D01*
X181725695Y-104755020D01*
X181725751Y-104755268D01*
X181725708Y-104755518D01*
X181727683Y-104829848D01*
X181727804Y-104830381D01*
X181727712Y-104830923D01*
X181729626Y-104898620D01*
X181729794Y-104899355D01*
X181729670Y-104900095D01*
X181731550Y-104961514D01*
X181731780Y-104962508D01*
X181731614Y-104963518D01*
X181733489Y-105019017D01*
X181733799Y-105020341D01*
X181733585Y-105021681D01*
X181735483Y-105071617D01*
X181735900Y-105073365D01*
X181735627Y-105075139D01*
X181737577Y-105119868D01*
X181738131Y-105122133D01*
X181737793Y-105124439D01*
X181739821Y-105164321D01*
X181740567Y-105167277D01*
X181740153Y-105170301D01*
X181742289Y-105205690D01*
X181743292Y-105209512D01*
X181742804Y-105213433D01*
X181745076Y-105244689D01*
X181746428Y-105249596D01*
X181745880Y-105254655D01*
X181748315Y-105282135D01*
X181750158Y-105288432D01*
X181749584Y-105294970D01*
X181752212Y-105319032D01*
X181754720Y-105326993D01*
X181754206Y-105335322D01*
X181757053Y-105356321D01*
X181760485Y-105366305D01*
X181760182Y-105376859D01*
X181763278Y-105395155D01*
X181767932Y-105407371D01*
X181768089Y-105420447D01*
X181771461Y-105436395D01*
X181777668Y-105450884D01*
X181778631Y-105466613D01*
X181782307Y-105480571D01*
X181790307Y-105496969D01*
X181792457Y-105515092D01*
X181796466Y-105527418D01*
X181806197Y-105544783D01*
X181809766Y-105564366D01*
X181814136Y-105575416D01*
X181824985Y-105592233D01*
X181829795Y-105611657D01*
X181834554Y-105621790D01*
X181849788Y-105642448D01*
X181857936Y-105666790D01*
X181863954Y-105677316D01*
X181885550Y-105702154D01*
X181888302Y-105709865D01*
X181905414Y-105728775D01*
X181926155Y-105767101D01*
X181944171Y-105788824D01*
X181977985Y-105816284D01*
X181980913Y-105820254D01*
X181985715Y-105823150D01*
X181993620Y-105835788D01*
X182014966Y-105850999D01*
X182025753Y-105863406D01*
X182028474Y-105864762D01*
X182053763Y-105892708D01*
X182076878Y-105909879D01*
X182107752Y-105924511D01*
X182108012Y-105924794D01*
X182116451Y-105928729D01*
X182135596Y-105944277D01*
X182153228Y-105949526D01*
X182194441Y-105978895D01*
X182222426Y-105991486D01*
X182274290Y-106003435D01*
X182299715Y-106015484D01*
X182302811Y-106015639D01*
X182331499Y-106029017D01*
X182364126Y-106037002D01*
X182411731Y-106039082D01*
X182457439Y-106052550D01*
X182494480Y-106055900D01*
X182533138Y-106051781D01*
X182571493Y-106058150D01*
X182612720Y-106056839D01*
X182643894Y-106049601D01*
X182675828Y-106051658D01*
X182721011Y-106045658D01*
X182746329Y-106037032D01*
X182773071Y-106036515D01*
X182821983Y-106025799D01*
X182842848Y-106016680D01*
X182865530Y-106014622D01*
X182917943Y-105999162D01*
X182932487Y-105991531D01*
X182948744Y-105989212D01*
X182988184Y-105975347D01*
X182998632Y-105969163D01*
X183010580Y-105966995D01*
X183065405Y-105945359D01*
X183074804Y-105939305D01*
X183085728Y-105936927D01*
X183144407Y-105911375D01*
X183152232Y-105905940D01*
X183161479Y-105903638D01*
X183223180Y-105874564D01*
X183230024Y-105869503D01*
X183238226Y-105867229D01*
X183302118Y-105835028D01*
X183308374Y-105830141D01*
X183315967Y-105827832D01*
X183381217Y-105792900D01*
X183387167Y-105788011D01*
X183394483Y-105785593D01*
X183460260Y-105748323D01*
X183462984Y-105745973D01*
X183466390Y-105744805D01*
X183473749Y-105740526D01*
X183474336Y-105740008D01*
X183475076Y-105739752D01*
X183496074Y-105727474D01*
X183501430Y-105722725D01*
X183508140Y-105720237D01*
X183525958Y-105709279D01*
X183539163Y-105697033D01*
X183555670Y-105689835D01*
X183570442Y-105679564D01*
X183593385Y-105655756D01*
X183622168Y-105639473D01*
X183634028Y-105629254D01*
X183663000Y-105592176D01*
X183663000Y-106539995D01*
X183662999Y-106540000D01*
X183709158Y-106772052D01*
X183718340Y-106818211D01*
X183806398Y-106950000D01*
X183875933Y-107054067D01*
X186172911Y-109351045D01*
X186172839Y-109433583D01*
X186313669Y-109774417D01*
X186574211Y-110035414D01*
X186914799Y-110176839D01*
X187283583Y-110177161D01*
X187624417Y-110036331D01*
X187885414Y-109775789D01*
X188026839Y-109435201D01*
X188027161Y-109066417D01*
X187895041Y-108746662D01*
X188034209Y-108411509D01*
X188034531Y-108042725D01*
X187893701Y-107701891D01*
X187657000Y-107464777D01*
X187657000Y-93889283D01*
X187730000Y-93889283D01*
X187962352Y-93845563D01*
X188175753Y-93708243D01*
X188202454Y-93669166D01*
X188314833Y-93781545D01*
X188545282Y-93877000D01*
X189190250Y-93877000D01*
X189347000Y-93720250D01*
X189347000Y-92373000D01*
X189327000Y-92373000D01*
X189327000Y-92127000D01*
X189347000Y-92127000D01*
X189347000Y-90779750D01*
X189190250Y-90623000D01*
X188545282Y-90623000D01*
X188314833Y-90718455D01*
X188204217Y-90829071D01*
X188188243Y-90804247D01*
X187978717Y-90661083D01*
X187730000Y-90610717D01*
X186130000Y-90610717D01*
X185897648Y-90654437D01*
X185684247Y-90791757D01*
X185661566Y-90824952D01*
X185648243Y-90804247D01*
X185438717Y-90661083D01*
X185190000Y-90610717D01*
X183590000Y-90610717D01*
X183357648Y-90654437D01*
X183144247Y-90791757D01*
X183121566Y-90824952D01*
X183108243Y-90804247D01*
X182898717Y-90661083D01*
X182650000Y-90610717D01*
X181050000Y-90610717D01*
X180817648Y-90654437D01*
X180677000Y-90744942D01*
X180677000Y-77347992D01*
X204675241Y-77347992D01*
X204691593Y-78154217D01*
X204968662Y-78823120D01*
X205275283Y-78970769D01*
X206536052Y-77710000D01*
X205275283Y-76449231D01*
X204968662Y-76596880D01*
X204675241Y-77347992D01*
X180677000Y-77347992D01*
X180677000Y-76275283D01*
X205449231Y-76275283D01*
X206710000Y-77536052D01*
X207970769Y-76275283D01*
X210529231Y-76275283D01*
X211790000Y-77536052D01*
X213050769Y-76275283D01*
X212903120Y-75968662D01*
X212152008Y-75675241D01*
X211345783Y-75691593D01*
X210676880Y-75968662D01*
X210529231Y-76275283D01*
X207970769Y-76275283D01*
X207823120Y-75968662D01*
X207072008Y-75675241D01*
X206265783Y-75691593D01*
X205596880Y-75968662D01*
X205449231Y-76275283D01*
X180677000Y-76275283D01*
X180677000Y-65763712D01*
X180694833Y-65781545D01*
X180925282Y-65877000D01*
X181570250Y-65877000D01*
X181727000Y-65720250D01*
X181727000Y-64373000D01*
X181707000Y-64373000D01*
X181707000Y-64127000D01*
X181727000Y-64127000D01*
X181727000Y-64107000D01*
X181973000Y-64107000D01*
X181973000Y-64127000D01*
X181993000Y-64127000D01*
X181993000Y-64373000D01*
X181973000Y-64373000D01*
X181973000Y-65720250D01*
X182129750Y-65877000D01*
X182774718Y-65877000D01*
X183005167Y-65781545D01*
X183115783Y-65670929D01*
X183131757Y-65695753D01*
X183341283Y-65838917D01*
X183590000Y-65889283D01*
X183663000Y-65889283D01*
X183663000Y-71889995D01*
X183662999Y-71890000D01*
X183709158Y-72122052D01*
X183718340Y-72168211D01*
X183875933Y-72404067D01*
X186172911Y-74701045D01*
X186172839Y-74783583D01*
X186313669Y-75124417D01*
X186574211Y-75385414D01*
X186914799Y-75526839D01*
X187283583Y-75527161D01*
X187624417Y-75386331D01*
X187885414Y-75125789D01*
X188026839Y-74785201D01*
X188027161Y-74416417D01*
X187886331Y-74075583D01*
X187625789Y-73814586D01*
X187285201Y-73673161D01*
X187201222Y-73673088D01*
X186149854Y-72621720D01*
X209622675Y-72621720D01*
X209907829Y-73311846D01*
X210435376Y-73840316D01*
X211125004Y-74126674D01*
X211871720Y-74127325D01*
X212561846Y-73842171D01*
X213090316Y-73314624D01*
X213376674Y-72624996D01*
X213377325Y-71878280D01*
X213092171Y-71188154D01*
X212564624Y-70659684D01*
X211874996Y-70373326D01*
X211128280Y-70372675D01*
X210438154Y-70657829D01*
X209909684Y-71185376D01*
X209623326Y-71875004D01*
X209622675Y-72621720D01*
X186149854Y-72621720D01*
X185117000Y-71588866D01*
X185117000Y-65889283D01*
X185190000Y-65889283D01*
X185422352Y-65845563D01*
X185635753Y-65708243D01*
X185662454Y-65669166D01*
X185774833Y-65781545D01*
X186005282Y-65877000D01*
X186650250Y-65877000D01*
X186807000Y-65720250D01*
X186807000Y-64373000D01*
X187053000Y-64373000D01*
X187053000Y-65720250D01*
X187209750Y-65877000D01*
X187854718Y-65877000D01*
X188085167Y-65781545D01*
X188261545Y-65605167D01*
X188357000Y-65374718D01*
X188357000Y-64529750D01*
X188200250Y-64373000D01*
X187053000Y-64373000D01*
X186807000Y-64373000D01*
X186787000Y-64373000D01*
X186787000Y-64127000D01*
X186807000Y-64127000D01*
X186807000Y-64107000D01*
X187053000Y-64107000D01*
X187053000Y-64127000D01*
X188200250Y-64127000D01*
X188357000Y-63970250D01*
X188357000Y-63125282D01*
X188274869Y-62927000D01*
X208016509Y-62927000D01*
X207898224Y-63006036D01*
X207898224Y-63006036D01*
G37*
X207898224Y-63006036D02*
X207542066Y-63539063D01*
X207417000Y-64167812D01*
X207417000Y-64232188D01*
X207490209Y-64600237D01*
X207459224Y-64631222D01*
X207279953Y-64899520D01*
X207242466Y-65087980D01*
X204516197Y-67814249D01*
X204275583Y-67913669D01*
X204014586Y-68174211D01*
X203873161Y-68514799D01*
X203872839Y-68883583D01*
X204013669Y-69224417D01*
X204274211Y-69485414D01*
X204614799Y-69626839D01*
X204983583Y-69627161D01*
X205324417Y-69486331D01*
X205585414Y-69225789D01*
X205685998Y-68983556D01*
X208473753Y-66195801D01*
X208584777Y-66121617D01*
X208764048Y-65853319D01*
X208768293Y-65831977D01*
X208777030Y-65818902D01*
X209060000Y-65875188D01*
X209688749Y-65750122D01*
X210031670Y-65520989D01*
X210052455Y-65571167D01*
X210228833Y-65747545D01*
X210459282Y-65843000D01*
X211320250Y-65843000D01*
X211477000Y-65686250D01*
X211477000Y-64323000D01*
X211723000Y-64323000D01*
X211723000Y-65686250D01*
X211879750Y-65843000D01*
X212740718Y-65843000D01*
X212971167Y-65747545D01*
X213147545Y-65571167D01*
X213243000Y-65340718D01*
X213243000Y-64479750D01*
X213086250Y-64323000D01*
X211723000Y-64323000D01*
X211477000Y-64323000D01*
X211457000Y-64323000D01*
X211457000Y-64077000D01*
X211477000Y-64077000D01*
X211477000Y-64057000D01*
X211723000Y-64057000D01*
X211723000Y-64077000D01*
X213086250Y-64077000D01*
X213243000Y-63920250D01*
X213243000Y-63059282D01*
X213188207Y-62927000D01*
X213433320Y-62927000D01*
X213618532Y-62963841D01*
X213719017Y-63030983D01*
X213786159Y-63131468D01*
X213823000Y-63316679D01*
X213823000Y-77985282D01*
X213808407Y-77265783D01*
X213531338Y-76596880D01*
X213224717Y-76449231D01*
X211963948Y-77710000D01*
X213224717Y-78970769D01*
X213531338Y-78823120D01*
X213823000Y-78076511D01*
X213823000Y-83065282D01*
X213808407Y-82345783D01*
X213531338Y-81676880D01*
X213224717Y-81529231D01*
X211963948Y-82790000D01*
X213224717Y-84050769D01*
X213531338Y-83903120D01*
X213823000Y-83156511D01*
X213823000Y-85073000D01*
X203825000Y-85073000D01*
X203775590Y-85083006D01*
X203733965Y-85111447D01*
X203706685Y-85153841D01*
X203698000Y-85200000D01*
X203698000Y-85773000D01*
X198284547Y-85773000D01*
X197968068Y-85835952D01*
X197699769Y-86015223D01*
X196927002Y-86787990D01*
X196927002Y-84224717D01*
X205449231Y-84224717D01*
X205596880Y-84531338D01*
X206347992Y-84824759D01*
X207154217Y-84808407D01*
X207823120Y-84531338D01*
X207970769Y-84224717D01*
X210529231Y-84224717D01*
X210676880Y-84531338D01*
X211427992Y-84824759D01*
X212234217Y-84808407D01*
X212903120Y-84531338D01*
X213050769Y-84224717D01*
X211790000Y-82963948D01*
X210529231Y-84224717D01*
X207970769Y-84224717D01*
X206710000Y-82963948D01*
X205449231Y-84224717D01*
X196927002Y-84224717D01*
X196927002Y-82427992D01*
X204675241Y-82427992D01*
X204691593Y-83234217D01*
X204968662Y-83903120D01*
X205275283Y-84050769D01*
X206536052Y-82790000D01*
X205275283Y-81529231D01*
X204968662Y-81676880D01*
X204675241Y-82427992D01*
X196927002Y-82427992D01*
X196927002Y-81600002D01*
X196864050Y-81283523D01*
X196707121Y-81048662D01*
X196684779Y-81015224D01*
X194885751Y-79216197D01*
X194856216Y-79144717D01*
X205449231Y-79144717D01*
X205596880Y-79451338D01*
X206347992Y-79744759D01*
X207154217Y-79728407D01*
X207361587Y-79642511D01*
X207273344Y-79855025D01*
X207272657Y-80641524D01*
X207367309Y-80870600D01*
X207072008Y-80755241D01*
X206265783Y-80771593D01*
X205596880Y-81048662D01*
X205449231Y-81355283D01*
X206710000Y-82616052D01*
X206724143Y-82601910D01*
X206898091Y-82775858D01*
X206883948Y-82790000D01*
X208144717Y-84050769D01*
X208451338Y-83903120D01*
X208744759Y-83152008D01*
X208728407Y-82345783D01*
X208642511Y-82138413D01*
X208855025Y-82226656D01*
X209641524Y-82227343D01*
X209870600Y-82132691D01*
X209755241Y-82427992D01*
X209771593Y-83234217D01*
X210048662Y-83903120D01*
X210355283Y-84050769D01*
X211616052Y-82790000D01*
X211601910Y-82775858D01*
X211775858Y-82601910D01*
X211790000Y-82616052D01*
X213050769Y-81355283D01*
X212903120Y-81048662D01*
X212152008Y-80755241D01*
X211345783Y-80771593D01*
X211138413Y-80857489D01*
X211226656Y-80644975D01*
X211227343Y-79858476D01*
X211132691Y-79629400D01*
X211427992Y-79744759D01*
X212234217Y-79728407D01*
X212903120Y-79451338D01*
X213050769Y-79144717D01*
X211790000Y-77883948D01*
X211775858Y-77898091D01*
X211601910Y-77724143D01*
X211616052Y-77710000D01*
X210355283Y-76449231D01*
X210048662Y-76596880D01*
X209755241Y-77347992D01*
X209771593Y-78154217D01*
X209857489Y-78361587D01*
X209644975Y-78273344D01*
X208858476Y-78272657D01*
X208629400Y-78367309D01*
X208744759Y-78072008D01*
X208728407Y-77265783D01*
X208451338Y-76596880D01*
X208144717Y-76449231D01*
X206883948Y-77710000D01*
X206898091Y-77724143D01*
X206724143Y-77898091D01*
X206710000Y-77883948D01*
X205449231Y-79144717D01*
X194856216Y-79144717D01*
X194786331Y-78975583D01*
X194525789Y-78714586D01*
X194185201Y-78573161D01*
X193816417Y-78572839D01*
X193475583Y-78713669D01*
X193214586Y-78974211D01*
X193073161Y-79314799D01*
X193072839Y-79683583D01*
X193213669Y-80024417D01*
X193474211Y-80285414D01*
X193716444Y-80385998D01*
X195273002Y-81942557D01*
X195273002Y-87109002D01*
X193899998Y-87109002D01*
X193583519Y-87171954D01*
X193315220Y-87351225D01*
X190225222Y-90441224D01*
X190103763Y-90623000D01*
X189749750Y-90623000D01*
X189593000Y-90779750D01*
X189593000Y-92127000D01*
X189613000Y-92127000D01*
X189613000Y-92373000D01*
X189593000Y-92373000D01*
X189593000Y-93720250D01*
X189749750Y-93877000D01*
X189982999Y-93877000D01*
X189982999Y-96509999D01*
X190045951Y-96826478D01*
X190208349Y-97069524D01*
X190313669Y-97324417D01*
X190574211Y-97585414D01*
X190914799Y-97726839D01*
X191283583Y-97727161D01*
X191624417Y-97586331D01*
X191885414Y-97325789D01*
X192026839Y-96985201D01*
X192027019Y-96778930D01*
X197572900Y-96778930D01*
X197572900Y-98423488D01*
X197668355Y-98653937D01*
X197844733Y-98830315D01*
X198075182Y-98925770D01*
X198720250Y-98925770D01*
X198877000Y-98769020D01*
X198877000Y-96622180D01*
X199123000Y-96622180D01*
X199123000Y-98769020D01*
X199279750Y-98925770D01*
X199924818Y-98925770D01*
X200155267Y-98830315D01*
X200331645Y-98653937D01*
X200427100Y-98423488D01*
X200427100Y-96778930D01*
X200270350Y-96622180D01*
X199123000Y-96622180D01*
X198877000Y-96622180D01*
X197729650Y-96622180D01*
X197572900Y-96778930D01*
X192027019Y-96778930D01*
X192027161Y-96616417D01*
X191886331Y-96275583D01*
X191636999Y-96025816D01*
X191636999Y-93889283D01*
X192810000Y-93889283D01*
X193042352Y-93845563D01*
X193255753Y-93708243D01*
X193278434Y-93675048D01*
X193291757Y-93695753D01*
X193501283Y-93838917D01*
X193750000Y-93889283D01*
X193823000Y-93889283D01*
X193823000Y-93990855D01*
X193789586Y-94024211D01*
X193648161Y-94364799D01*
X193647839Y-94733583D01*
X193788669Y-95074417D01*
X194049211Y-95335414D01*
X194389799Y-95476839D01*
X194758583Y-95477161D01*
X195099417Y-95336331D01*
X195360414Y-95075789D01*
X195501839Y-94735201D01*
X195501978Y-94574872D01*
X197572900Y-94574872D01*
X197572900Y-96219430D01*
X197729650Y-96376180D01*
X198877000Y-96376180D01*
X198877000Y-94229340D01*
X199123000Y-94229340D01*
X199123000Y-96376180D01*
X200270350Y-96376180D01*
X200427100Y-96219430D01*
X200427100Y-94574872D01*
X200331645Y-94344423D01*
X200155267Y-94168045D01*
X199924818Y-94072590D01*
X199279750Y-94072590D01*
X199123000Y-94229340D01*
X198877000Y-94229340D01*
X198720250Y-94072590D01*
X198075182Y-94072590D01*
X197844733Y-94168045D01*
X197668355Y-94344423D01*
X197572900Y-94574872D01*
X195501978Y-94574872D01*
X195502161Y-94366417D01*
X195361331Y-94025583D01*
X195277000Y-93941105D01*
X195277000Y-93889283D01*
X195350000Y-93889283D01*
X195582352Y-93845563D01*
X195795753Y-93708243D01*
X195818434Y-93675048D01*
X195831757Y-93695753D01*
X196041283Y-93838917D01*
X196290000Y-93889283D01*
X197890000Y-93889283D01*
X198122352Y-93845563D01*
X198335753Y-93708243D01*
X198358434Y-93675048D01*
X198371757Y-93695753D01*
X198581283Y-93838917D01*
X198830000Y-93889283D01*
X200430000Y-93889283D01*
X200662352Y-93845563D01*
X200875753Y-93708243D01*
X200902454Y-93669166D01*
X201014833Y-93781545D01*
X201245282Y-93877000D01*
X201890250Y-93877000D01*
X202047000Y-93720250D01*
X202047000Y-92373000D01*
X202293000Y-92373000D01*
X202293000Y-93720250D01*
X202449750Y-93877000D01*
X203094718Y-93877000D01*
X203325167Y-93781545D01*
X203501545Y-93605167D01*
X203597000Y-93374718D01*
X203597000Y-92529750D01*
X203440250Y-92373000D01*
X202293000Y-92373000D01*
X202047000Y-92373000D01*
X202027000Y-92373000D01*
X202027000Y-92127000D01*
X202047000Y-92127000D01*
X202047000Y-90779750D01*
X202293000Y-90779750D01*
X202293000Y-92127000D01*
X203440250Y-92127000D01*
X203597000Y-91970250D01*
X203597000Y-91125282D01*
X203501545Y-90894833D01*
X203325167Y-90718455D01*
X203094718Y-90623000D01*
X202449750Y-90623000D01*
X202293000Y-90779750D01*
X202047000Y-90779750D01*
X201890250Y-90623000D01*
X201245282Y-90623000D01*
X201014833Y-90718455D01*
X200904217Y-90829071D01*
X200888243Y-90804247D01*
X200678717Y-90661083D01*
X200430000Y-90610717D01*
X198830000Y-90610717D01*
X198597648Y-90654437D01*
X198384247Y-90791757D01*
X198361566Y-90824952D01*
X198348243Y-90804247D01*
X198138717Y-90661083D01*
X197890000Y-90610717D01*
X196290000Y-90610717D01*
X196057648Y-90654437D01*
X195844247Y-90791757D01*
X195821566Y-90824952D01*
X195808243Y-90804247D01*
X195598717Y-90661083D01*
X195427658Y-90626443D01*
X198627102Y-87427000D01*
X203698000Y-87427000D01*
X203698000Y-94432446D01*
X203510223Y-94620223D01*
X203401272Y-94783280D01*
X203349247Y-94816757D01*
X203206083Y-95026283D01*
X203155717Y-95275000D01*
X203155717Y-96825000D01*
X203199437Y-97057352D01*
X203336757Y-97270753D01*
X203546283Y-97413917D01*
X203698000Y-97444640D01*
X203698000Y-98250000D01*
X203708006Y-98299410D01*
X203736447Y-98341035D01*
X203778841Y-98368315D01*
X203825000Y-98377000D01*
X206215986Y-98377000D01*
X206286862Y-98448000D01*
X204200000Y-98448000D01*
X203883521Y-98510952D01*
X203615223Y-98690222D01*
X201131626Y-101173820D01*
X200439383Y-101173820D01*
X200439383Y-100201230D01*
X200395663Y-99968878D01*
X200258343Y-99755477D01*
X200048817Y-99612313D01*
X199800100Y-99561947D01*
X198199900Y-99561947D01*
X197967548Y-99605667D01*
X197754147Y-99742987D01*
X197631149Y-99923000D01*
X194577000Y-99923000D01*
X194577000Y-99850639D01*
X194676839Y-99610201D01*
X194677161Y-99241417D01*
X194536331Y-98900583D01*
X194275789Y-98639586D01*
X193935201Y-98498161D01*
X193566417Y-98497839D01*
X193225583Y-98638669D01*
X192964586Y-98899211D01*
X192823161Y-99239799D01*
X192822839Y-99608583D01*
X192923000Y-99850991D01*
X192923000Y-100750000D01*
X192985952Y-101066479D01*
X193165223Y-101334777D01*
X193433521Y-101514048D01*
X193750000Y-101577000D01*
X197406626Y-101577000D01*
X197560617Y-101730991D01*
X197560617Y-103573000D01*
X195075000Y-103573000D01*
X194796789Y-103628340D01*
X194560933Y-103785933D01*
X194223955Y-104122911D01*
X194141417Y-104122839D01*
X193800583Y-104263669D01*
X193658569Y-104405435D01*
X191727089Y-102473955D01*
X191727161Y-102391417D01*
X191586331Y-102050583D01*
X191325789Y-101789586D01*
X190985201Y-101648161D01*
X190616417Y-101647839D01*
X190275583Y-101788669D01*
X190014586Y-102049211D01*
X189873161Y-102389799D01*
X189872839Y-102758583D01*
X190013669Y-103099417D01*
X190274211Y-103360414D01*
X190614799Y-103501839D01*
X190698778Y-103501912D01*
X192822034Y-105625168D01*
X192750000Y-105732976D01*
X192582265Y-105481942D01*
X192200418Y-105226801D01*
X191750000Y-105137207D01*
X191299582Y-105226801D01*
X190917735Y-105481942D01*
X190662594Y-105863789D01*
X190573000Y-106314207D01*
X190573000Y-107685793D01*
X190662594Y-108136211D01*
X190917735Y-108518058D01*
X190923000Y-108521576D01*
X190923000Y-108550000D01*
X190985952Y-108866479D01*
X190990750Y-108873660D01*
X190685793Y-108813000D01*
X189314207Y-108813000D01*
X188863789Y-108902594D01*
X188481942Y-109157735D01*
X188226801Y-109539582D01*
X188137207Y-109990000D01*
X188226801Y-110440418D01*
X188481942Y-110822265D01*
X188732976Y-110990000D01*
X188481942Y-111157735D01*
X188226801Y-111539582D01*
X188137207Y-111990000D01*
X188226801Y-112440418D01*
X188481942Y-112822265D01*
X188732976Y-112990000D01*
X188481942Y-113157735D01*
X188226801Y-113539582D01*
X188137207Y-113990000D01*
X188226801Y-114440418D01*
X188481942Y-114822265D01*
X188732976Y-114990000D01*
X188481942Y-115157735D01*
X188226801Y-115539582D01*
X188137207Y-115990000D01*
X188226801Y-116440418D01*
X188481942Y-116822265D01*
X188732976Y-116990000D01*
X188481942Y-117157735D01*
X188226801Y-117539582D01*
X188137207Y-117990000D01*
X188226801Y-118440418D01*
X188481942Y-118822265D01*
X188732976Y-118990000D01*
X188481942Y-119157735D01*
X188226801Y-119539582D01*
X188137207Y-119990000D01*
X188226801Y-120440418D01*
X188248570Y-120472998D01*
X188066417Y-120472839D01*
X187725583Y-120613669D01*
X187464586Y-120874211D01*
X187323161Y-121214799D01*
X187322839Y-121583583D01*
X187463669Y-121924417D01*
X187523000Y-121983852D01*
X187523000Y-122098867D01*
X186198955Y-123422911D01*
X186116417Y-123422839D01*
X185775583Y-123563669D01*
X185652000Y-123687037D01*
X185652000Y-121201134D01*
X185713851Y-121139283D01*
X186750000Y-121139283D01*
X186982352Y-121095563D01*
X187195753Y-120958243D01*
X187338917Y-120748717D01*
X187389283Y-120500000D01*
X187389283Y-118950000D01*
X187345563Y-118717648D01*
X187208243Y-118504247D01*
X186998717Y-118361083D01*
X186750000Y-118310717D01*
X186023380Y-118310717D01*
X186324417Y-118186331D01*
X186585414Y-117925789D01*
X186726839Y-117585201D01*
X186727161Y-117216417D01*
X186586331Y-116875583D01*
X186518695Y-116807829D01*
X186595753Y-116758243D01*
X186738917Y-116548717D01*
X186789283Y-116300000D01*
X186789283Y-115400000D01*
X186745563Y-115167648D01*
X186608243Y-114954247D01*
X186398717Y-114811083D01*
X186150000Y-114760717D01*
X184950000Y-114760717D01*
X184717648Y-114804437D01*
X184504247Y-114941757D01*
X184450666Y-115020174D01*
X184408243Y-114954247D01*
X184198717Y-114811083D01*
X183950000Y-114760717D01*
X182750000Y-114760717D01*
X182517648Y-114804437D01*
X182398197Y-114881302D01*
X182382023Y-114856167D01*
X182172497Y-114713003D01*
X181923780Y-114662637D01*
X181126220Y-114662637D01*
X180893868Y-114706357D01*
X180680467Y-114843677D01*
X180677000Y-114848751D01*
X180677000Y-112621720D01*
X181122675Y-112621720D01*
X181407829Y-113311846D01*
X181935376Y-113840316D01*
X182625004Y-114126674D01*
X183371720Y-114127325D01*
X184061846Y-113842171D01*
X184590316Y-113314624D01*
X184876674Y-112624996D01*
X184877325Y-111878280D01*
X184592171Y-111188154D01*
X184064624Y-110659684D01*
X183374996Y-110373326D01*
X182628280Y-110372675D01*
X181938154Y-110657829D01*
X181409684Y-111185376D01*
X181123326Y-111875004D01*
X181122675Y-112621720D01*
X180677000Y-112621720D01*
X180677000Y-100761151D01*
X180705052Y-100821328D01*
X180707595Y-100824797D01*
X180708673Y-100828963D01*
X180709557Y-100830795D01*
X180710031Y-100831423D01*
X180710230Y-100832186D01*
X180720361Y-100853051D01*
X180721471Y-100854516D01*
X180721945Y-100856288D01*
X180731920Y-100876538D01*
X180733298Y-100878335D01*
X180733899Y-100880521D01*
X180743968Y-100900601D01*
X180745495Y-100902564D01*
X180746173Y-100904957D01*
X180756579Y-100925317D01*
X180758190Y-100927355D01*
X180758918Y-100929848D01*
X180769910Y-100950933D01*
X180771466Y-100952870D01*
X180772182Y-100955251D01*
X180784006Y-100977511D01*
X180785453Y-100979283D01*
X180786127Y-100981470D01*
X180799031Y-101005352D01*
X180800301Y-101006886D01*
X180800900Y-101008786D01*
X180815130Y-101034736D01*
X180816209Y-101036022D01*
X180816723Y-101037625D01*
X180832528Y-101066093D01*
X180833402Y-101067124D01*
X180833820Y-101068409D01*
X180851443Y-101099842D01*
X180852149Y-101100668D01*
X180852490Y-101101703D01*
X180872181Y-101136548D01*
X180872727Y-101137182D01*
X180872990Y-101137975D01*
X180894995Y-101176680D01*
X180895409Y-101177158D01*
X180895609Y-101177757D01*
X180920175Y-101220770D01*
X180920481Y-101221122D01*
X180920631Y-101221569D01*
X180948006Y-101269337D01*
X180948223Y-101269586D01*
X180948329Y-101269900D01*
X180978757Y-101322871D01*
X180978910Y-101323046D01*
X180978985Y-101323268D01*
X181012556Y-101381613D01*
X181012558Y-101381617D01*
X181024075Y-101401655D01*
X181060084Y-101464848D01*
X181091753Y-101521354D01*
X181119796Y-101572475D01*
X181144413Y-101618575D01*
X181165964Y-101660288D01*
X181184932Y-101698462D01*
X181201806Y-101733978D01*
X181217075Y-101767754D01*
X181231350Y-101801056D01*
X181245121Y-101834974D01*
X181258874Y-101870687D01*
X181273055Y-101909364D01*
X181288100Y-101952208D01*
X181321840Y-102051373D01*
X181363200Y-102176902D01*
X181400906Y-102296280D01*
X181435342Y-102410794D01*
X181466696Y-102521125D01*
X181495285Y-102628401D01*
X181521267Y-102733219D01*
X181544928Y-102836678D01*
X181566492Y-102939718D01*
X181586195Y-103043411D01*
X181604193Y-103148501D01*
X181620723Y-103256272D01*
X181635904Y-103367371D01*
X181649904Y-103482798D01*
X181663016Y-103604804D01*
X181665324Y-103627918D01*
X181672637Y-103705120D01*
X181679351Y-103782329D01*
X181685590Y-103861105D01*
X181691383Y-103942025D01*
X181696780Y-104025937D01*
X181701783Y-104113055D01*
X181706446Y-104204456D01*
X181710767Y-104300137D01*
X181714807Y-104401485D01*
X181718559Y-104508255D01*
X181722055Y-104621152D01*
X181725357Y-104741920D01*
X181725695Y-104755020D01*
X181725751Y-104755268D01*
X181725708Y-104755518D01*
X181727683Y-104829848D01*
X181727804Y-104830381D01*
X181727712Y-104830923D01*
X181729626Y-104898620D01*
X181729794Y-104899355D01*
X181729670Y-104900095D01*
X181731550Y-104961514D01*
X181731780Y-104962508D01*
X181731614Y-104963518D01*
X181733489Y-105019017D01*
X181733799Y-105020341D01*
X181733585Y-105021681D01*
X181735483Y-105071617D01*
X181735900Y-105073365D01*
X181735627Y-105075139D01*
X181737577Y-105119868D01*
X181738131Y-105122133D01*
X181737793Y-105124439D01*
X181739821Y-105164321D01*
X181740567Y-105167277D01*
X181740153Y-105170301D01*
X181742289Y-105205690D01*
X181743292Y-105209512D01*
X181742804Y-105213433D01*
X181745076Y-105244689D01*
X181746428Y-105249596D01*
X181745880Y-105254655D01*
X181748315Y-105282135D01*
X181750158Y-105288432D01*
X181749584Y-105294970D01*
X181752212Y-105319032D01*
X181754720Y-105326993D01*
X181754206Y-105335322D01*
X181757053Y-105356321D01*
X181760485Y-105366305D01*
X181760182Y-105376859D01*
X181763278Y-105395155D01*
X181767932Y-105407371D01*
X181768089Y-105420447D01*
X181771461Y-105436395D01*
X181777668Y-105450884D01*
X181778631Y-105466613D01*
X181782307Y-105480571D01*
X181790307Y-105496969D01*
X181792457Y-105515092D01*
X181796466Y-105527418D01*
X181806197Y-105544783D01*
X181809766Y-105564366D01*
X181814136Y-105575416D01*
X181824985Y-105592233D01*
X181829795Y-105611657D01*
X181834554Y-105621790D01*
X181849788Y-105642448D01*
X181857936Y-105666790D01*
X181863954Y-105677316D01*
X181885550Y-105702154D01*
X181888302Y-105709865D01*
X181905414Y-105728775D01*
X181926155Y-105767101D01*
X181944171Y-105788824D01*
X181977985Y-105816284D01*
X181980913Y-105820254D01*
X181985715Y-105823150D01*
X181993620Y-105835788D01*
X182014966Y-105850999D01*
X182025753Y-105863406D01*
X182028474Y-105864762D01*
X182053763Y-105892708D01*
X182076878Y-105909879D01*
X182107752Y-105924511D01*
X182108012Y-105924794D01*
X182116451Y-105928729D01*
X182135596Y-105944277D01*
X182153228Y-105949526D01*
X182194441Y-105978895D01*
X182222426Y-105991486D01*
X182274290Y-106003435D01*
X182299715Y-106015484D01*
X182302811Y-106015639D01*
X182331499Y-106029017D01*
X182364126Y-106037002D01*
X182411731Y-106039082D01*
X182457439Y-106052550D01*
X182494480Y-106055900D01*
X182533138Y-106051781D01*
X182571493Y-106058150D01*
X182612720Y-106056839D01*
X182643894Y-106049601D01*
X182675828Y-106051658D01*
X182721011Y-106045658D01*
X182746329Y-106037032D01*
X182773071Y-106036515D01*
X182821983Y-106025799D01*
X182842848Y-106016680D01*
X182865530Y-106014622D01*
X182917943Y-105999162D01*
X182932487Y-105991531D01*
X182948744Y-105989212D01*
X182988184Y-105975347D01*
X182998632Y-105969163D01*
X183010580Y-105966995D01*
X183065405Y-105945359D01*
X183074804Y-105939305D01*
X183085728Y-105936927D01*
X183144407Y-105911375D01*
X183152232Y-105905940D01*
X183161479Y-105903638D01*
X183223180Y-105874564D01*
X183230024Y-105869503D01*
X183238226Y-105867229D01*
X183302118Y-105835028D01*
X183308374Y-105830141D01*
X183315967Y-105827832D01*
X183381217Y-105792900D01*
X183387167Y-105788011D01*
X183394483Y-105785593D01*
X183460260Y-105748323D01*
X183462984Y-105745973D01*
X183466390Y-105744805D01*
X183473749Y-105740526D01*
X183474336Y-105740008D01*
X183475076Y-105739752D01*
X183496074Y-105727474D01*
X183501430Y-105722725D01*
X183508140Y-105720237D01*
X183525958Y-105709279D01*
X183539163Y-105697033D01*
X183555670Y-105689835D01*
X183570442Y-105679564D01*
X183593385Y-105655756D01*
X183622168Y-105639473D01*
X183634028Y-105629254D01*
X183663000Y-105592176D01*
X183663000Y-106539995D01*
X183662999Y-106540000D01*
X183709158Y-106772052D01*
X183718340Y-106818211D01*
X183806398Y-106950000D01*
X183875933Y-107054067D01*
X186172911Y-109351045D01*
X186172839Y-109433583D01*
X186313669Y-109774417D01*
X186574211Y-110035414D01*
X186914799Y-110176839D01*
X187283583Y-110177161D01*
X187624417Y-110036331D01*
X187885414Y-109775789D01*
X188026839Y-109435201D01*
X188027161Y-109066417D01*
X187895041Y-108746662D01*
X188034209Y-108411509D01*
X188034531Y-108042725D01*
X187893701Y-107701891D01*
X187657000Y-107464777D01*
X187657000Y-93889283D01*
X187730000Y-93889283D01*
X187962352Y-93845563D01*
X188175753Y-93708243D01*
X188202454Y-93669166D01*
X188314833Y-93781545D01*
X188545282Y-93877000D01*
X189190250Y-93877000D01*
X189347000Y-93720250D01*
X189347000Y-92373000D01*
X189327000Y-92373000D01*
X189327000Y-92127000D01*
X189347000Y-92127000D01*
X189347000Y-90779750D01*
X189190250Y-90623000D01*
X188545282Y-90623000D01*
X188314833Y-90718455D01*
X188204217Y-90829071D01*
X188188243Y-90804247D01*
X187978717Y-90661083D01*
X187730000Y-90610717D01*
X186130000Y-90610717D01*
X185897648Y-90654437D01*
X185684247Y-90791757D01*
X185661566Y-90824952D01*
X185648243Y-90804247D01*
X185438717Y-90661083D01*
X185190000Y-90610717D01*
X183590000Y-90610717D01*
X183357648Y-90654437D01*
X183144247Y-90791757D01*
X183121566Y-90824952D01*
X183108243Y-90804247D01*
X182898717Y-90661083D01*
X182650000Y-90610717D01*
X181050000Y-90610717D01*
X180817648Y-90654437D01*
X180677000Y-90744942D01*
X180677000Y-77347992D01*
X204675241Y-77347992D01*
X204691593Y-78154217D01*
X204968662Y-78823120D01*
X205275283Y-78970769D01*
X206536052Y-77710000D01*
X205275283Y-76449231D01*
X204968662Y-76596880D01*
X204675241Y-77347992D01*
X180677000Y-77347992D01*
X180677000Y-76275283D01*
X205449231Y-76275283D01*
X206710000Y-77536052D01*
X207970769Y-76275283D01*
X210529231Y-76275283D01*
X211790000Y-77536052D01*
X213050769Y-76275283D01*
X212903120Y-75968662D01*
X212152008Y-75675241D01*
X211345783Y-75691593D01*
X210676880Y-75968662D01*
X210529231Y-76275283D01*
X207970769Y-76275283D01*
X207823120Y-75968662D01*
X207072008Y-75675241D01*
X206265783Y-75691593D01*
X205596880Y-75968662D01*
X205449231Y-76275283D01*
X180677000Y-76275283D01*
X180677000Y-65763712D01*
X180694833Y-65781545D01*
X180925282Y-65877000D01*
X181570250Y-65877000D01*
X181727000Y-65720250D01*
X181727000Y-64373000D01*
X181707000Y-64373000D01*
X181707000Y-64127000D01*
X181727000Y-64127000D01*
X181727000Y-64107000D01*
X181973000Y-64107000D01*
X181973000Y-64127000D01*
X181993000Y-64127000D01*
X181993000Y-64373000D01*
X181973000Y-64373000D01*
X181973000Y-65720250D01*
X182129750Y-65877000D01*
X182774718Y-65877000D01*
X183005167Y-65781545D01*
X183115783Y-65670929D01*
X183131757Y-65695753D01*
X183341283Y-65838917D01*
X183590000Y-65889283D01*
X183663000Y-65889283D01*
X183663000Y-71889995D01*
X183662999Y-71890000D01*
X183709158Y-72122052D01*
X183718340Y-72168211D01*
X183875933Y-72404067D01*
X186172911Y-74701045D01*
X186172839Y-74783583D01*
X186313669Y-75124417D01*
X186574211Y-75385414D01*
X186914799Y-75526839D01*
X187283583Y-75527161D01*
X187624417Y-75386331D01*
X187885414Y-75125789D01*
X188026839Y-74785201D01*
X188027161Y-74416417D01*
X187886331Y-74075583D01*
X187625789Y-73814586D01*
X187285201Y-73673161D01*
X187201222Y-73673088D01*
X186149854Y-72621720D01*
X209622675Y-72621720D01*
X209907829Y-73311846D01*
X210435376Y-73840316D01*
X211125004Y-74126674D01*
X211871720Y-74127325D01*
X212561846Y-73842171D01*
X213090316Y-73314624D01*
X213376674Y-72624996D01*
X213377325Y-71878280D01*
X213092171Y-71188154D01*
X212564624Y-70659684D01*
X211874996Y-70373326D01*
X211128280Y-70372675D01*
X210438154Y-70657829D01*
X209909684Y-71185376D01*
X209623326Y-71875004D01*
X209622675Y-72621720D01*
X186149854Y-72621720D01*
X185117000Y-71588866D01*
X185117000Y-65889283D01*
X185190000Y-65889283D01*
X185422352Y-65845563D01*
X185635753Y-65708243D01*
X185662454Y-65669166D01*
X185774833Y-65781545D01*
X186005282Y-65877000D01*
X186650250Y-65877000D01*
X186807000Y-65720250D01*
X186807000Y-64373000D01*
X187053000Y-64373000D01*
X187053000Y-65720250D01*
X187209750Y-65877000D01*
X187854718Y-65877000D01*
X188085167Y-65781545D01*
X188261545Y-65605167D01*
X188357000Y-65374718D01*
X188357000Y-64529750D01*
X188200250Y-64373000D01*
X187053000Y-64373000D01*
X186807000Y-64373000D01*
X186787000Y-64373000D01*
X186787000Y-64127000D01*
X186807000Y-64127000D01*
X186807000Y-64107000D01*
X187053000Y-64107000D01*
X187053000Y-64127000D01*
X188200250Y-64127000D01*
X188357000Y-63970250D01*
X188357000Y-63125282D01*
X188274869Y-62927000D01*
X208016509Y-62927000D01*
X207898224Y-63006036D01*
G36*
X194973000Y-112942554D02*
X194973000Y-115499361D01*
X194873161Y-115739799D01*
X194872839Y-116108583D01*
X195013669Y-116449417D01*
X195274211Y-116710414D01*
X195614799Y-116851839D01*
X195983583Y-116852161D01*
X196324417Y-116711331D01*
X196585414Y-116450789D01*
X196699032Y-116177166D01*
X199023000Y-118501133D01*
X199023000Y-121411606D01*
X198917735Y-121481942D01*
X198750000Y-121732976D01*
X198582265Y-121481942D01*
X198477000Y-121411606D01*
X198477000Y-121100000D01*
X198421660Y-120821789D01*
X198264067Y-120585933D01*
X198028211Y-120428340D01*
X197750000Y-120373000D01*
X197200000Y-120373000D01*
X196921789Y-120428340D01*
X196685933Y-120585933D01*
X196663458Y-120608408D01*
X196546588Y-120325563D01*
X196286046Y-120064566D01*
X195945458Y-119923141D01*
X195576674Y-119922819D01*
X195235840Y-120063649D01*
X194974843Y-120324191D01*
X194833418Y-120664779D01*
X194833096Y-121033563D01*
X194973926Y-121374397D01*
X195015844Y-121416388D01*
X194917735Y-121481942D01*
X194750000Y-121732976D01*
X194582265Y-121481942D01*
X194500036Y-121426998D01*
X194602270Y-121180792D01*
X194602592Y-120812008D01*
X194461762Y-120471174D01*
X194201220Y-120210177D01*
X193860632Y-120068752D01*
X193491848Y-120068430D01*
X193422450Y-120097105D01*
X194167555Y-119352000D01*
X194324361Y-119352000D01*
X194564799Y-119451839D01*
X194933583Y-119452161D01*
X195274417Y-119311331D01*
X195535414Y-119050789D01*
X195676839Y-118710201D01*
X195677161Y-118341417D01*
X195536331Y-118000583D01*
X195275789Y-117739586D01*
X194935201Y-117598161D01*
X194566417Y-117597839D01*
X194324009Y-117698000D01*
X193825000Y-117698000D01*
X193514423Y-117759778D01*
X193508521Y-117760952D01*
X193240222Y-117940223D01*
X191720193Y-119460253D01*
X191518058Y-119157735D01*
X191267024Y-118990000D01*
X191518058Y-118822265D01*
X191773199Y-118440418D01*
X191862793Y-117990000D01*
X191773199Y-117539582D01*
X191518058Y-117157735D01*
X191267024Y-116990000D01*
X191518058Y-116822265D01*
X191773199Y-116440418D01*
X191862793Y-115990000D01*
X191773199Y-115539582D01*
X191518058Y-115157735D01*
X191267024Y-114990000D01*
X191518058Y-114822265D01*
X191773199Y-114440418D01*
X191862793Y-113990000D01*
X191773199Y-113539582D01*
X191518058Y-113157735D01*
X191267024Y-112990000D01*
X191518058Y-112822265D01*
X191773199Y-112440418D01*
X191862793Y-111990000D01*
X191773199Y-111539582D01*
X191518058Y-111157735D01*
X191267024Y-110990000D01*
X191518058Y-110822265D01*
X191773199Y-110440418D01*
X191862793Y-109990000D01*
X191823647Y-109793201D01*
X194973000Y-112942554D01*
X194973000Y-112942554D01*
G37*
X194973000Y-112942554D02*
X194973000Y-115499361D01*
X194873161Y-115739799D01*
X194872839Y-116108583D01*
X195013669Y-116449417D01*
X195274211Y-116710414D01*
X195614799Y-116851839D01*
X195983583Y-116852161D01*
X196324417Y-116711331D01*
X196585414Y-116450789D01*
X196699032Y-116177166D01*
X199023000Y-118501133D01*
X199023000Y-121411606D01*
X198917735Y-121481942D01*
X198750000Y-121732976D01*
X198582265Y-121481942D01*
X198477000Y-121411606D01*
X198477000Y-121100000D01*
X198421660Y-120821789D01*
X198264067Y-120585933D01*
X198028211Y-120428340D01*
X197750000Y-120373000D01*
X197200000Y-120373000D01*
X196921789Y-120428340D01*
X196685933Y-120585933D01*
X196663458Y-120608408D01*
X196546588Y-120325563D01*
X196286046Y-120064566D01*
X195945458Y-119923141D01*
X195576674Y-119922819D01*
X195235840Y-120063649D01*
X194974843Y-120324191D01*
X194833418Y-120664779D01*
X194833096Y-121033563D01*
X194973926Y-121374397D01*
X195015844Y-121416388D01*
X194917735Y-121481942D01*
X194750000Y-121732976D01*
X194582265Y-121481942D01*
X194500036Y-121426998D01*
X194602270Y-121180792D01*
X194602592Y-120812008D01*
X194461762Y-120471174D01*
X194201220Y-120210177D01*
X193860632Y-120068752D01*
X193491848Y-120068430D01*
X193422450Y-120097105D01*
X194167555Y-119352000D01*
X194324361Y-119352000D01*
X194564799Y-119451839D01*
X194933583Y-119452161D01*
X195274417Y-119311331D01*
X195535414Y-119050789D01*
X195676839Y-118710201D01*
X195677161Y-118341417D01*
X195536331Y-118000583D01*
X195275789Y-117739586D01*
X194935201Y-117598161D01*
X194566417Y-117597839D01*
X194324009Y-117698000D01*
X193825000Y-117698000D01*
X193514423Y-117759778D01*
X193508521Y-117760952D01*
X193240222Y-117940223D01*
X191720193Y-119460253D01*
X191518058Y-119157735D01*
X191267024Y-118990000D01*
X191518058Y-118822265D01*
X191773199Y-118440418D01*
X191862793Y-117990000D01*
X191773199Y-117539582D01*
X191518058Y-117157735D01*
X191267024Y-116990000D01*
X191518058Y-116822265D01*
X191773199Y-116440418D01*
X191862793Y-115990000D01*
X191773199Y-115539582D01*
X191518058Y-115157735D01*
X191267024Y-114990000D01*
X191518058Y-114822265D01*
X191773199Y-114440418D01*
X191862793Y-113990000D01*
X191773199Y-113539582D01*
X191518058Y-113157735D01*
X191267024Y-112990000D01*
X191518058Y-112822265D01*
X191773199Y-112440418D01*
X191862793Y-111990000D01*
X191773199Y-111539582D01*
X191518058Y-111157735D01*
X191267024Y-110990000D01*
X191518058Y-110822265D01*
X191773199Y-110440418D01*
X191862793Y-109990000D01*
X191823647Y-109793201D01*
X194973000Y-112942554D01*
D35*
G36*
X205750000Y-86030040D02*
X205750000Y-86337500D01*
X205912500Y-86500000D01*
X207400000Y-86500000D01*
X207400000Y-86480000D01*
X207600000Y-86480000D01*
X207600000Y-86500000D01*
X209087500Y-86500000D01*
X209250000Y-86337500D01*
X209250000Y-86043606D01*
X210745474Y-86049402D01*
X210700067Y-87570524D01*
X210710138Y-87629209D01*
X210742248Y-87679353D01*
X210791336Y-87713053D01*
X210846088Y-87724949D01*
X211181290Y-87733693D01*
X210926922Y-88377163D01*
X210938345Y-89080265D01*
X211185434Y-89676790D01*
X211471984Y-89786595D01*
X212558579Y-88700000D01*
X212544437Y-88685858D01*
X212685858Y-88544437D01*
X212700000Y-88558579D01*
X212714143Y-88544437D01*
X212855564Y-88685858D01*
X212841421Y-88700000D01*
X212855564Y-88714143D01*
X212714143Y-88855564D01*
X212700000Y-88841421D01*
X211613405Y-89928016D01*
X211723210Y-90214566D01*
X212377163Y-90473078D01*
X213080265Y-90461655D01*
X213581710Y-90253949D01*
X213599612Y-97200000D01*
X213500010Y-97200000D01*
X213500010Y-96623760D01*
X213337510Y-96461260D01*
X211600000Y-96461260D01*
X211600000Y-96481260D01*
X211400000Y-96481260D01*
X211400000Y-96461260D01*
X211380000Y-96461260D01*
X211380000Y-96261260D01*
X211400000Y-96261260D01*
X211400000Y-93873510D01*
X211600000Y-93873510D01*
X211600000Y-96261260D01*
X213337510Y-96261260D01*
X213500010Y-96098760D01*
X213500010Y-94231717D01*
X213401053Y-93992815D01*
X213218205Y-93809967D01*
X212979303Y-93711010D01*
X211762500Y-93711010D01*
X211600000Y-93873510D01*
X211400000Y-93873510D01*
X211237500Y-93711010D01*
X210020697Y-93711010D01*
X209781795Y-93809967D01*
X209598947Y-93992815D01*
X209571734Y-94058512D01*
X209559620Y-94040381D01*
X209058816Y-93539577D01*
X209058816Y-92150000D01*
X209027438Y-91983240D01*
X208928883Y-91830081D01*
X208778505Y-91727332D01*
X208600000Y-91691184D01*
X206400000Y-91691184D01*
X206233240Y-91722562D01*
X206080081Y-91821117D01*
X205977332Y-91971495D01*
X205941184Y-92150000D01*
X205941184Y-93650000D01*
X205972562Y-93816760D01*
X206071117Y-93969919D01*
X206221495Y-94072668D01*
X206400000Y-94108816D01*
X207789578Y-94108816D01*
X208450000Y-94769239D01*
X208450000Y-94897766D01*
X208383505Y-94852332D01*
X208205000Y-94816184D01*
X207605000Y-94816184D01*
X207438240Y-94847562D01*
X207285081Y-94946117D01*
X207271194Y-94966442D01*
X207263883Y-94955081D01*
X207113505Y-94852332D01*
X206935000Y-94816184D01*
X206335000Y-94816184D01*
X206168240Y-94847562D01*
X206015081Y-94946117D01*
X206001194Y-94966442D01*
X205993883Y-94955081D01*
X205843505Y-94852332D01*
X205665000Y-94816184D01*
X205065000Y-94816184D01*
X204898240Y-94847562D01*
X204891279Y-94852041D01*
X204763195Y-94723957D01*
X204525533Y-94625513D01*
X204591601Y-86862500D01*
X205750000Y-86862500D01*
X205750000Y-87479293D01*
X205848957Y-87718195D01*
X206031805Y-87901043D01*
X206270707Y-88000000D01*
X207237500Y-88000000D01*
X207400000Y-87837500D01*
X207400000Y-86700000D01*
X207600000Y-86700000D01*
X207600000Y-87837500D01*
X207762500Y-88000000D01*
X208729293Y-88000000D01*
X208968195Y-87901043D01*
X209151043Y-87718195D01*
X209250000Y-87479293D01*
X209250000Y-86862500D01*
X209087500Y-86700000D01*
X207600000Y-86700000D01*
X207400000Y-86700000D01*
X205912500Y-86700000D01*
X205750000Y-86862500D01*
X204591601Y-86862500D01*
X204598724Y-86025578D01*
X205750000Y-86030040D01*
X205750000Y-86030040D01*
G37*
X205750000Y-86030040D02*
X205750000Y-86337500D01*
X205912500Y-86500000D01*
X207400000Y-86500000D01*
X207400000Y-86480000D01*
X207600000Y-86480000D01*
X207600000Y-86500000D01*
X209087500Y-86500000D01*
X209250000Y-86337500D01*
X209250000Y-86043606D01*
X210745474Y-86049402D01*
X210700067Y-87570524D01*
X210710138Y-87629209D01*
X210742248Y-87679353D01*
X210791336Y-87713053D01*
X210846088Y-87724949D01*
X211181290Y-87733693D01*
X210926922Y-88377163D01*
X210938345Y-89080265D01*
X211185434Y-89676790D01*
X211471984Y-89786595D01*
X212558579Y-88700000D01*
X212544437Y-88685858D01*
X212685858Y-88544437D01*
X212700000Y-88558579D01*
X212714143Y-88544437D01*
X212855564Y-88685858D01*
X212841421Y-88700000D01*
X212855564Y-88714143D01*
X212714143Y-88855564D01*
X212700000Y-88841421D01*
X211613405Y-89928016D01*
X211723210Y-90214566D01*
X212377163Y-90473078D01*
X213080265Y-90461655D01*
X213581710Y-90253949D01*
X213599612Y-97200000D01*
X213500010Y-97200000D01*
X213500010Y-96623760D01*
X213337510Y-96461260D01*
X211600000Y-96461260D01*
X211600000Y-96481260D01*
X211400000Y-96481260D01*
X211400000Y-96461260D01*
X211380000Y-96461260D01*
X211380000Y-96261260D01*
X211400000Y-96261260D01*
X211400000Y-93873510D01*
X211600000Y-93873510D01*
X211600000Y-96261260D01*
X213337510Y-96261260D01*
X213500010Y-96098760D01*
X213500010Y-94231717D01*
X213401053Y-93992815D01*
X213218205Y-93809967D01*
X212979303Y-93711010D01*
X211762500Y-93711010D01*
X211600000Y-93873510D01*
X211400000Y-93873510D01*
X211237500Y-93711010D01*
X210020697Y-93711010D01*
X209781795Y-93809967D01*
X209598947Y-93992815D01*
X209571734Y-94058512D01*
X209559620Y-94040381D01*
X209058816Y-93539577D01*
X209058816Y-92150000D01*
X209027438Y-91983240D01*
X208928883Y-91830081D01*
X208778505Y-91727332D01*
X208600000Y-91691184D01*
X206400000Y-91691184D01*
X206233240Y-91722562D01*
X206080081Y-91821117D01*
X205977332Y-91971495D01*
X205941184Y-92150000D01*
X205941184Y-93650000D01*
X205972562Y-93816760D01*
X206071117Y-93969919D01*
X206221495Y-94072668D01*
X206400000Y-94108816D01*
X207789578Y-94108816D01*
X208450000Y-94769239D01*
X208450000Y-94897766D01*
X208383505Y-94852332D01*
X208205000Y-94816184D01*
X207605000Y-94816184D01*
X207438240Y-94847562D01*
X207285081Y-94946117D01*
X207271194Y-94966442D01*
X207263883Y-94955081D01*
X207113505Y-94852332D01*
X206935000Y-94816184D01*
X206335000Y-94816184D01*
X206168240Y-94847562D01*
X206015081Y-94946117D01*
X206001194Y-94966442D01*
X205993883Y-94955081D01*
X205843505Y-94852332D01*
X205665000Y-94816184D01*
X205065000Y-94816184D01*
X204898240Y-94847562D01*
X204891279Y-94852041D01*
X204763195Y-94723957D01*
X204525533Y-94625513D01*
X204591601Y-86862500D01*
X205750000Y-86862500D01*
X205750000Y-87479293D01*
X205848957Y-87718195D01*
X206031805Y-87901043D01*
X206270707Y-88000000D01*
X207237500Y-88000000D01*
X207400000Y-87837500D01*
X207400000Y-86700000D01*
X207600000Y-86700000D01*
X207600000Y-87837500D01*
X207762500Y-88000000D01*
X208729293Y-88000000D01*
X208968195Y-87901043D01*
X209151043Y-87718195D01*
X209250000Y-87479293D01*
X209250000Y-86862500D01*
X209087500Y-86700000D01*
X207600000Y-86700000D01*
X207400000Y-86700000D01*
X205912500Y-86700000D01*
X205750000Y-86862500D01*
X204591601Y-86862500D01*
X204598724Y-86025578D01*
X205750000Y-86030040D01*
M02*
