G04 #@! TF.FileFunction,Soldermask,Top*
%FSLAX46Y46*%
G04 Gerber Fmt 4.6, Leading zero omitted, Abs format (unit mm)*
G04 Created by KiCad (PCBNEW (2015-11-03 BZR 6296)-product) date Wednesday, November 04, 2015 'PMt' 10:27:15 PM*
%MOMM*%
G01*
G04 APERTURE LIST*
%ADD10C,0.100000*%
%ADD11C,0.010000*%
%ADD12R,1.600200X3.599180*%
%ADD13R,2.700020X4.000500*%
%ADD14R,0.590000X0.450000*%
%ADD15R,0.797560X0.797560*%
%ADD16C,2.800000*%
%ADD17C,2.700000*%
%ADD18R,2.200000X1.500000*%
%ADD19R,1.200000X0.900000*%
%ADD20R,1.600000X2.000000*%
%ADD21O,2.400000X1.100000*%
%ADD22R,1.100000X2.400000*%
%ADD23O,1.100000X2.400000*%
%ADD24R,0.600000X1.550000*%
%ADD25R,1.727200X2.032000*%
%ADD26O,1.727200X2.032000*%
%ADD27R,1.300000X1.550000*%
%ADD28C,2.235200*%
%ADD29R,2.032000X2.032000*%
%ADD30O,2.032000X2.032000*%
G04 APERTURE END LIST*
D10*
D11*
G36*
X183976897Y-99391031D02*
X183975122Y-99428866D01*
X183972050Y-99464763D01*
X183967549Y-99500412D01*
X183961488Y-99537499D01*
X183956774Y-99562537D01*
X183949127Y-99599505D01*
X183940944Y-99634770D01*
X183931892Y-99669378D01*
X183921636Y-99704376D01*
X183909844Y-99740809D01*
X183896182Y-99779722D01*
X183880316Y-99822161D01*
X183861912Y-99869173D01*
X183847594Y-99904737D01*
X183828195Y-99951958D01*
X183808057Y-99999898D01*
X183786989Y-100048959D01*
X183764801Y-100099547D01*
X183741305Y-100152066D01*
X183716311Y-100206921D01*
X183689628Y-100264514D01*
X183661068Y-100325251D01*
X183630441Y-100389536D01*
X183597558Y-100457773D01*
X183562228Y-100530365D01*
X183524263Y-100607719D01*
X183483472Y-100690236D01*
X183439667Y-100778323D01*
X183410823Y-100836085D01*
X183370036Y-100917799D01*
X183332302Y-100993732D01*
X183297404Y-101064358D01*
X183265125Y-101130149D01*
X183235248Y-101191577D01*
X183207556Y-101249115D01*
X183181833Y-101303235D01*
X183157862Y-101354409D01*
X183135425Y-101403111D01*
X183114305Y-101449811D01*
X183094286Y-101494982D01*
X183075152Y-101539097D01*
X183056684Y-101582629D01*
X183038666Y-101626049D01*
X183020881Y-101669829D01*
X183003112Y-101714443D01*
X182985143Y-101760363D01*
X182978491Y-101777542D01*
X182969207Y-101801524D01*
X182960545Y-101823788D01*
X182952891Y-101843348D01*
X182946634Y-101859219D01*
X182942160Y-101870414D01*
X182939930Y-101875784D01*
X182935427Y-101885832D01*
X182916151Y-101870698D01*
X182902098Y-101858889D01*
X182884518Y-101842920D01*
X182864551Y-101823921D01*
X182843337Y-101803023D01*
X182822014Y-101781357D01*
X182801723Y-101760055D01*
X182783603Y-101740246D01*
X182776080Y-101731681D01*
X182714961Y-101656102D01*
X182656762Y-101574352D01*
X182601625Y-101486747D01*
X182549694Y-101393601D01*
X182501114Y-101295231D01*
X182456027Y-101191952D01*
X182414578Y-101084079D01*
X182376909Y-100971928D01*
X182343165Y-100855814D01*
X182313490Y-100736054D01*
X182304719Y-100696278D01*
X182292433Y-100637253D01*
X182281987Y-100583414D01*
X182273123Y-100533205D01*
X182265587Y-100485074D01*
X182259123Y-100437469D01*
X182253474Y-100388835D01*
X182252412Y-100378778D01*
X182250815Y-100358732D01*
X182249562Y-100333512D01*
X182248652Y-100304439D01*
X182248087Y-100272833D01*
X182247866Y-100240014D01*
X182247989Y-100207303D01*
X182248457Y-100176020D01*
X182249270Y-100147485D01*
X182250428Y-100123019D01*
X182251931Y-100103941D01*
X182252371Y-100100083D01*
X182263641Y-100029587D01*
X182279223Y-99964668D01*
X182299125Y-99905314D01*
X182323358Y-99851511D01*
X182351929Y-99803246D01*
X182384848Y-99760506D01*
X182422125Y-99723275D01*
X182463767Y-99691542D01*
X182509784Y-99665292D01*
X182556444Y-99645814D01*
X182584664Y-99636564D01*
X182610210Y-99629950D01*
X182635330Y-99625611D01*
X182662274Y-99623189D01*
X182693290Y-99622323D01*
X182703310Y-99622311D01*
X182760217Y-99622506D01*
X182762570Y-99599541D01*
X182764922Y-99576577D01*
X182730990Y-99526819D01*
X182681641Y-99527261D01*
X182623410Y-99531246D01*
X182566659Y-99542027D01*
X182511805Y-99559427D01*
X182459268Y-99583267D01*
X182409464Y-99613369D01*
X182362812Y-99649554D01*
X182335845Y-99674774D01*
X182299000Y-99715410D01*
X182266629Y-99759140D01*
X182238509Y-99806472D01*
X182214416Y-99857911D01*
X182194127Y-99913966D01*
X182177416Y-99975143D01*
X182164062Y-100041948D01*
X182158887Y-100075389D01*
X182156611Y-100096455D01*
X182154815Y-100123303D01*
X182153500Y-100154675D01*
X182152666Y-100189315D01*
X182152312Y-100225966D01*
X182152438Y-100263369D01*
X182153044Y-100300269D01*
X182154130Y-100335407D01*
X182155697Y-100367526D01*
X182157743Y-100395370D01*
X182158912Y-100407000D01*
X182174085Y-100521247D01*
X182193945Y-100636379D01*
X182218230Y-100751524D01*
X182246679Y-100865809D01*
X182279031Y-100978359D01*
X182315025Y-101088303D01*
X182354400Y-101194766D01*
X182396894Y-101296876D01*
X182442246Y-101393760D01*
X182470502Y-101448608D01*
X182517249Y-101531718D01*
X182566369Y-101610658D01*
X182617513Y-101684981D01*
X182670332Y-101754241D01*
X182724478Y-101817993D01*
X182779603Y-101875791D01*
X182835357Y-101927188D01*
X182861520Y-101948880D01*
X182879428Y-101963589D01*
X182891741Y-101974647D01*
X182898733Y-101982321D01*
X182900678Y-101986878D01*
X182900627Y-101987106D01*
X182896988Y-102001682D01*
X182892861Y-102022129D01*
X182888412Y-102047296D01*
X182883807Y-102076029D01*
X182879213Y-102107174D01*
X182874796Y-102139579D01*
X182870724Y-102172091D01*
X182867163Y-102203556D01*
X182864280Y-102232821D01*
X182863107Y-102246736D01*
X182861370Y-102276996D01*
X182860689Y-102310509D01*
X182861091Y-102347721D01*
X182862602Y-102389075D01*
X182865250Y-102435017D01*
X182869062Y-102485991D01*
X182874063Y-102542441D01*
X182880281Y-102604812D01*
X182887744Y-102673548D01*
X182890147Y-102694764D01*
X182901961Y-102792696D01*
X182915747Y-102897110D01*
X182931456Y-103007726D01*
X182949038Y-103124267D01*
X182968441Y-103246454D01*
X182989614Y-103374011D01*
X183012508Y-103506657D01*
X183037072Y-103644117D01*
X183063254Y-103786110D01*
X183091005Y-103932360D01*
X183120273Y-104082588D01*
X183151009Y-104236517D01*
X183183160Y-104393867D01*
X183216678Y-104554361D01*
X183251511Y-104717721D01*
X183287608Y-104883669D01*
X183293834Y-104911972D01*
X183300732Y-104943505D01*
X183307213Y-104973573D01*
X183313101Y-105001326D01*
X183318220Y-105025913D01*
X183322393Y-105046484D01*
X183325444Y-105062186D01*
X183327196Y-105072170D01*
X183327480Y-105074250D01*
X183327397Y-105101629D01*
X183321802Y-105130597D01*
X183311360Y-105159337D01*
X183296737Y-105186032D01*
X183278600Y-105208863D01*
X183277903Y-105209577D01*
X183265542Y-105220334D01*
X183247416Y-105233559D01*
X183224218Y-105248873D01*
X183196638Y-105265898D01*
X183165367Y-105284253D01*
X183131098Y-105303562D01*
X183094521Y-105323444D01*
X183056329Y-105343521D01*
X183017211Y-105363415D01*
X182977861Y-105382747D01*
X182938969Y-105401137D01*
X182901226Y-105418208D01*
X182881112Y-105426938D01*
X182812172Y-105454418D01*
X182747247Y-105476295D01*
X182686369Y-105492564D01*
X182629572Y-105503220D01*
X182576888Y-105508258D01*
X182528350Y-105507674D01*
X182483992Y-105501462D01*
X182445645Y-105490303D01*
X182425383Y-105480721D01*
X182403470Y-105467158D01*
X182382372Y-105451359D01*
X182364559Y-105435072D01*
X182359140Y-105429089D01*
X182347229Y-105413700D01*
X182336713Y-105397081D01*
X182327482Y-105378689D01*
X182319426Y-105357978D01*
X182312435Y-105334406D01*
X182306398Y-105307427D01*
X182301206Y-105276498D01*
X182296748Y-105241074D01*
X182292914Y-105200612D01*
X182289595Y-105154567D01*
X182286679Y-105102396D01*
X182284818Y-105061903D01*
X182284039Y-105042132D01*
X182283124Y-105016304D01*
X182282103Y-104985416D01*
X182281006Y-104950464D01*
X182279863Y-104912446D01*
X182278706Y-104872357D01*
X182277563Y-104831195D01*
X182276466Y-104789956D01*
X182275930Y-104769097D01*
X182273135Y-104663132D01*
X182270272Y-104563623D01*
X182267312Y-104469971D01*
X182264226Y-104381576D01*
X182260984Y-104297840D01*
X182257556Y-104218162D01*
X182253914Y-104141944D01*
X182250028Y-104068587D01*
X182245868Y-103997491D01*
X182241405Y-103928056D01*
X182236610Y-103859683D01*
X182231452Y-103791774D01*
X182225904Y-103723729D01*
X182222832Y-103687833D01*
X182208516Y-103535425D01*
X182192499Y-103388916D01*
X182174574Y-103247314D01*
X182154538Y-103109629D01*
X182132187Y-102974869D01*
X182107314Y-102842042D01*
X182079717Y-102710156D01*
X182049189Y-102578221D01*
X182015527Y-102445244D01*
X181978526Y-102310234D01*
X181937982Y-102172199D01*
X181893689Y-102030149D01*
X181858484Y-101922181D01*
X181839585Y-101865529D01*
X181821819Y-101813101D01*
X181804921Y-101764324D01*
X181788623Y-101718627D01*
X181772660Y-101675437D01*
X181756765Y-101634184D01*
X181740673Y-101594295D01*
X181724116Y-101555199D01*
X181706830Y-101516325D01*
X181688548Y-101477099D01*
X181669003Y-101436952D01*
X181647929Y-101395310D01*
X181625061Y-101351602D01*
X181600131Y-101305257D01*
X181572875Y-101255703D01*
X181543025Y-101202368D01*
X181510316Y-101144680D01*
X181474481Y-101082068D01*
X181437185Y-101017306D01*
X181408257Y-100967113D01*
X181382550Y-100922343D01*
X181359702Y-100882339D01*
X181339352Y-100846445D01*
X181321137Y-100814006D01*
X181304697Y-100784365D01*
X181289670Y-100756866D01*
X181275693Y-100730853D01*
X181262406Y-100705670D01*
X181249446Y-100680662D01*
X181236451Y-100655172D01*
X181225180Y-100632778D01*
X181193259Y-100567461D01*
X181165298Y-100506674D01*
X181140936Y-100449369D01*
X181119812Y-100394501D01*
X181101564Y-100341022D01*
X181085831Y-100287885D01*
X181072252Y-100234043D01*
X181060463Y-100178449D01*
X181051906Y-100130975D01*
X181042525Y-100071699D01*
X181035151Y-100017114D01*
X181029623Y-99965196D01*
X181025777Y-99913926D01*
X181023450Y-99861279D01*
X181022478Y-99805234D01*
X181022491Y-99766708D01*
X181022691Y-99740120D01*
X181022949Y-99715076D01*
X181023249Y-99692670D01*
X181023574Y-99673997D01*
X181023908Y-99660149D01*
X181024233Y-99652223D01*
X181024245Y-99652056D01*
X181033260Y-99561009D01*
X181046904Y-99471200D01*
X181064958Y-99383485D01*
X181087202Y-99298718D01*
X181113417Y-99217756D01*
X181143381Y-99141455D01*
X181170183Y-99083791D01*
X181217081Y-98997957D01*
X181270623Y-98914330D01*
X181330727Y-98832988D01*
X181397310Y-98754006D01*
X181470292Y-98677461D01*
X181549589Y-98603429D01*
X181635121Y-98531985D01*
X181726804Y-98463207D01*
X181824558Y-98397171D01*
X181928299Y-98333952D01*
X182037947Y-98273627D01*
X182046254Y-98269300D01*
X182121266Y-98232293D01*
X182199011Y-98197779D01*
X182280420Y-98165400D01*
X182366426Y-98134798D01*
X182457961Y-98105612D01*
X182514242Y-98089110D01*
X182540831Y-98081543D01*
X182639956Y-97835806D01*
X182655931Y-97796329D01*
X182671209Y-97758813D01*
X182685578Y-97723766D01*
X182698827Y-97691694D01*
X182710743Y-97663102D01*
X182721113Y-97638498D01*
X182729726Y-97618388D01*
X182736370Y-97603278D01*
X182740832Y-97593674D01*
X182742899Y-97590083D01*
X182742945Y-97590069D01*
X182745822Y-97592644D01*
X182753035Y-97600115D01*
X182764238Y-97612098D01*
X182779083Y-97628213D01*
X182797224Y-97648078D01*
X182818314Y-97671310D01*
X182842006Y-97697529D01*
X182867952Y-97726351D01*
X182895807Y-97757395D01*
X182925222Y-97790280D01*
X182948034Y-97815847D01*
X183149259Y-98041625D01*
X183188978Y-98056003D01*
X183259052Y-98084338D01*
X183325955Y-98117586D01*
X183390293Y-98156152D01*
X183452676Y-98200445D01*
X183513713Y-98250870D01*
X183574010Y-98307835D01*
X183590083Y-98324224D01*
X183650261Y-98391538D01*
X183705941Y-98464130D01*
X183756990Y-98541734D01*
X183803278Y-98624086D01*
X183844670Y-98710921D01*
X183881036Y-98801974D01*
X183912242Y-98896979D01*
X183938158Y-98995671D01*
X183948166Y-99041750D01*
X183956803Y-99086147D01*
X183963573Y-99125869D01*
X183968705Y-99162979D01*
X183972428Y-99199540D01*
X183974971Y-99237614D01*
X183976561Y-99279265D01*
X183977084Y-99302806D01*
X183977507Y-99349574D01*
X183976897Y-99391031D01*
X183976897Y-99391031D01*
G37*
X183976897Y-99391031D02*
X183975122Y-99428866D01*
X183972050Y-99464763D01*
X183967549Y-99500412D01*
X183961488Y-99537499D01*
X183956774Y-99562537D01*
X183949127Y-99599505D01*
X183940944Y-99634770D01*
X183931892Y-99669378D01*
X183921636Y-99704376D01*
X183909844Y-99740809D01*
X183896182Y-99779722D01*
X183880316Y-99822161D01*
X183861912Y-99869173D01*
X183847594Y-99904737D01*
X183828195Y-99951958D01*
X183808057Y-99999898D01*
X183786989Y-100048959D01*
X183764801Y-100099547D01*
X183741305Y-100152066D01*
X183716311Y-100206921D01*
X183689628Y-100264514D01*
X183661068Y-100325251D01*
X183630441Y-100389536D01*
X183597558Y-100457773D01*
X183562228Y-100530365D01*
X183524263Y-100607719D01*
X183483472Y-100690236D01*
X183439667Y-100778323D01*
X183410823Y-100836085D01*
X183370036Y-100917799D01*
X183332302Y-100993732D01*
X183297404Y-101064358D01*
X183265125Y-101130149D01*
X183235248Y-101191577D01*
X183207556Y-101249115D01*
X183181833Y-101303235D01*
X183157862Y-101354409D01*
X183135425Y-101403111D01*
X183114305Y-101449811D01*
X183094286Y-101494982D01*
X183075152Y-101539097D01*
X183056684Y-101582629D01*
X183038666Y-101626049D01*
X183020881Y-101669829D01*
X183003112Y-101714443D01*
X182985143Y-101760363D01*
X182978491Y-101777542D01*
X182969207Y-101801524D01*
X182960545Y-101823788D01*
X182952891Y-101843348D01*
X182946634Y-101859219D01*
X182942160Y-101870414D01*
X182939930Y-101875784D01*
X182935427Y-101885832D01*
X182916151Y-101870698D01*
X182902098Y-101858889D01*
X182884518Y-101842920D01*
X182864551Y-101823921D01*
X182843337Y-101803023D01*
X182822014Y-101781357D01*
X182801723Y-101760055D01*
X182783603Y-101740246D01*
X182776080Y-101731681D01*
X182714961Y-101656102D01*
X182656762Y-101574352D01*
X182601625Y-101486747D01*
X182549694Y-101393601D01*
X182501114Y-101295231D01*
X182456027Y-101191952D01*
X182414578Y-101084079D01*
X182376909Y-100971928D01*
X182343165Y-100855814D01*
X182313490Y-100736054D01*
X182304719Y-100696278D01*
X182292433Y-100637253D01*
X182281987Y-100583414D01*
X182273123Y-100533205D01*
X182265587Y-100485074D01*
X182259123Y-100437469D01*
X182253474Y-100388835D01*
X182252412Y-100378778D01*
X182250815Y-100358732D01*
X182249562Y-100333512D01*
X182248652Y-100304439D01*
X182248087Y-100272833D01*
X182247866Y-100240014D01*
X182247989Y-100207303D01*
X182248457Y-100176020D01*
X182249270Y-100147485D01*
X182250428Y-100123019D01*
X182251931Y-100103941D01*
X182252371Y-100100083D01*
X182263641Y-100029587D01*
X182279223Y-99964668D01*
X182299125Y-99905314D01*
X182323358Y-99851511D01*
X182351929Y-99803246D01*
X182384848Y-99760506D01*
X182422125Y-99723275D01*
X182463767Y-99691542D01*
X182509784Y-99665292D01*
X182556444Y-99645814D01*
X182584664Y-99636564D01*
X182610210Y-99629950D01*
X182635330Y-99625611D01*
X182662274Y-99623189D01*
X182693290Y-99622323D01*
X182703310Y-99622311D01*
X182760217Y-99622506D01*
X182762570Y-99599541D01*
X182764922Y-99576577D01*
X182730990Y-99526819D01*
X182681641Y-99527261D01*
X182623410Y-99531246D01*
X182566659Y-99542027D01*
X182511805Y-99559427D01*
X182459268Y-99583267D01*
X182409464Y-99613369D01*
X182362812Y-99649554D01*
X182335845Y-99674774D01*
X182299000Y-99715410D01*
X182266629Y-99759140D01*
X182238509Y-99806472D01*
X182214416Y-99857911D01*
X182194127Y-99913966D01*
X182177416Y-99975143D01*
X182164062Y-100041948D01*
X182158887Y-100075389D01*
X182156611Y-100096455D01*
X182154815Y-100123303D01*
X182153500Y-100154675D01*
X182152666Y-100189315D01*
X182152312Y-100225966D01*
X182152438Y-100263369D01*
X182153044Y-100300269D01*
X182154130Y-100335407D01*
X182155697Y-100367526D01*
X182157743Y-100395370D01*
X182158912Y-100407000D01*
X182174085Y-100521247D01*
X182193945Y-100636379D01*
X182218230Y-100751524D01*
X182246679Y-100865809D01*
X182279031Y-100978359D01*
X182315025Y-101088303D01*
X182354400Y-101194766D01*
X182396894Y-101296876D01*
X182442246Y-101393760D01*
X182470502Y-101448608D01*
X182517249Y-101531718D01*
X182566369Y-101610658D01*
X182617513Y-101684981D01*
X182670332Y-101754241D01*
X182724478Y-101817993D01*
X182779603Y-101875791D01*
X182835357Y-101927188D01*
X182861520Y-101948880D01*
X182879428Y-101963589D01*
X182891741Y-101974647D01*
X182898733Y-101982321D01*
X182900678Y-101986878D01*
X182900627Y-101987106D01*
X182896988Y-102001682D01*
X182892861Y-102022129D01*
X182888412Y-102047296D01*
X182883807Y-102076029D01*
X182879213Y-102107174D01*
X182874796Y-102139579D01*
X182870724Y-102172091D01*
X182867163Y-102203556D01*
X182864280Y-102232821D01*
X182863107Y-102246736D01*
X182861370Y-102276996D01*
X182860689Y-102310509D01*
X182861091Y-102347721D01*
X182862602Y-102389075D01*
X182865250Y-102435017D01*
X182869062Y-102485991D01*
X182874063Y-102542441D01*
X182880281Y-102604812D01*
X182887744Y-102673548D01*
X182890147Y-102694764D01*
X182901961Y-102792696D01*
X182915747Y-102897110D01*
X182931456Y-103007726D01*
X182949038Y-103124267D01*
X182968441Y-103246454D01*
X182989614Y-103374011D01*
X183012508Y-103506657D01*
X183037072Y-103644117D01*
X183063254Y-103786110D01*
X183091005Y-103932360D01*
X183120273Y-104082588D01*
X183151009Y-104236517D01*
X183183160Y-104393867D01*
X183216678Y-104554361D01*
X183251511Y-104717721D01*
X183287608Y-104883669D01*
X183293834Y-104911972D01*
X183300732Y-104943505D01*
X183307213Y-104973573D01*
X183313101Y-105001326D01*
X183318220Y-105025913D01*
X183322393Y-105046484D01*
X183325444Y-105062186D01*
X183327196Y-105072170D01*
X183327480Y-105074250D01*
X183327397Y-105101629D01*
X183321802Y-105130597D01*
X183311360Y-105159337D01*
X183296737Y-105186032D01*
X183278600Y-105208863D01*
X183277903Y-105209577D01*
X183265542Y-105220334D01*
X183247416Y-105233559D01*
X183224218Y-105248873D01*
X183196638Y-105265898D01*
X183165367Y-105284253D01*
X183131098Y-105303562D01*
X183094521Y-105323444D01*
X183056329Y-105343521D01*
X183017211Y-105363415D01*
X182977861Y-105382747D01*
X182938969Y-105401137D01*
X182901226Y-105418208D01*
X182881112Y-105426938D01*
X182812172Y-105454418D01*
X182747247Y-105476295D01*
X182686369Y-105492564D01*
X182629572Y-105503220D01*
X182576888Y-105508258D01*
X182528350Y-105507674D01*
X182483992Y-105501462D01*
X182445645Y-105490303D01*
X182425383Y-105480721D01*
X182403470Y-105467158D01*
X182382372Y-105451359D01*
X182364559Y-105435072D01*
X182359140Y-105429089D01*
X182347229Y-105413700D01*
X182336713Y-105397081D01*
X182327482Y-105378689D01*
X182319426Y-105357978D01*
X182312435Y-105334406D01*
X182306398Y-105307427D01*
X182301206Y-105276498D01*
X182296748Y-105241074D01*
X182292914Y-105200612D01*
X182289595Y-105154567D01*
X182286679Y-105102396D01*
X182284818Y-105061903D01*
X182284039Y-105042132D01*
X182283124Y-105016304D01*
X182282103Y-104985416D01*
X182281006Y-104950464D01*
X182279863Y-104912446D01*
X182278706Y-104872357D01*
X182277563Y-104831195D01*
X182276466Y-104789956D01*
X182275930Y-104769097D01*
X182273135Y-104663132D01*
X182270272Y-104563623D01*
X182267312Y-104469971D01*
X182264226Y-104381576D01*
X182260984Y-104297840D01*
X182257556Y-104218162D01*
X182253914Y-104141944D01*
X182250028Y-104068587D01*
X182245868Y-103997491D01*
X182241405Y-103928056D01*
X182236610Y-103859683D01*
X182231452Y-103791774D01*
X182225904Y-103723729D01*
X182222832Y-103687833D01*
X182208516Y-103535425D01*
X182192499Y-103388916D01*
X182174574Y-103247314D01*
X182154538Y-103109629D01*
X182132187Y-102974869D01*
X182107314Y-102842042D01*
X182079717Y-102710156D01*
X182049189Y-102578221D01*
X182015527Y-102445244D01*
X181978526Y-102310234D01*
X181937982Y-102172199D01*
X181893689Y-102030149D01*
X181858484Y-101922181D01*
X181839585Y-101865529D01*
X181821819Y-101813101D01*
X181804921Y-101764324D01*
X181788623Y-101718627D01*
X181772660Y-101675437D01*
X181756765Y-101634184D01*
X181740673Y-101594295D01*
X181724116Y-101555199D01*
X181706830Y-101516325D01*
X181688548Y-101477099D01*
X181669003Y-101436952D01*
X181647929Y-101395310D01*
X181625061Y-101351602D01*
X181600131Y-101305257D01*
X181572875Y-101255703D01*
X181543025Y-101202368D01*
X181510316Y-101144680D01*
X181474481Y-101082068D01*
X181437185Y-101017306D01*
X181408257Y-100967113D01*
X181382550Y-100922343D01*
X181359702Y-100882339D01*
X181339352Y-100846445D01*
X181321137Y-100814006D01*
X181304697Y-100784365D01*
X181289670Y-100756866D01*
X181275693Y-100730853D01*
X181262406Y-100705670D01*
X181249446Y-100680662D01*
X181236451Y-100655172D01*
X181225180Y-100632778D01*
X181193259Y-100567461D01*
X181165298Y-100506674D01*
X181140936Y-100449369D01*
X181119812Y-100394501D01*
X181101564Y-100341022D01*
X181085831Y-100287885D01*
X181072252Y-100234043D01*
X181060463Y-100178449D01*
X181051906Y-100130975D01*
X181042525Y-100071699D01*
X181035151Y-100017114D01*
X181029623Y-99965196D01*
X181025777Y-99913926D01*
X181023450Y-99861279D01*
X181022478Y-99805234D01*
X181022491Y-99766708D01*
X181022691Y-99740120D01*
X181022949Y-99715076D01*
X181023249Y-99692670D01*
X181023574Y-99673997D01*
X181023908Y-99660149D01*
X181024233Y-99652223D01*
X181024245Y-99652056D01*
X181033260Y-99561009D01*
X181046904Y-99471200D01*
X181064958Y-99383485D01*
X181087202Y-99298718D01*
X181113417Y-99217756D01*
X181143381Y-99141455D01*
X181170183Y-99083791D01*
X181217081Y-98997957D01*
X181270623Y-98914330D01*
X181330727Y-98832988D01*
X181397310Y-98754006D01*
X181470292Y-98677461D01*
X181549589Y-98603429D01*
X181635121Y-98531985D01*
X181726804Y-98463207D01*
X181824558Y-98397171D01*
X181928299Y-98333952D01*
X182037947Y-98273627D01*
X182046254Y-98269300D01*
X182121266Y-98232293D01*
X182199011Y-98197779D01*
X182280420Y-98165400D01*
X182366426Y-98134798D01*
X182457961Y-98105612D01*
X182514242Y-98089110D01*
X182540831Y-98081543D01*
X182639956Y-97835806D01*
X182655931Y-97796329D01*
X182671209Y-97758813D01*
X182685578Y-97723766D01*
X182698827Y-97691694D01*
X182710743Y-97663102D01*
X182721113Y-97638498D01*
X182729726Y-97618388D01*
X182736370Y-97603278D01*
X182740832Y-97593674D01*
X182742899Y-97590083D01*
X182742945Y-97590069D01*
X182745822Y-97592644D01*
X182753035Y-97600115D01*
X182764238Y-97612098D01*
X182779083Y-97628213D01*
X182797224Y-97648078D01*
X182818314Y-97671310D01*
X182842006Y-97697529D01*
X182867952Y-97726351D01*
X182895807Y-97757395D01*
X182925222Y-97790280D01*
X182948034Y-97815847D01*
X183149259Y-98041625D01*
X183188978Y-98056003D01*
X183259052Y-98084338D01*
X183325955Y-98117586D01*
X183390293Y-98156152D01*
X183452676Y-98200445D01*
X183513713Y-98250870D01*
X183574010Y-98307835D01*
X183590083Y-98324224D01*
X183650261Y-98391538D01*
X183705941Y-98464130D01*
X183756990Y-98541734D01*
X183803278Y-98624086D01*
X183844670Y-98710921D01*
X183881036Y-98801974D01*
X183912242Y-98896979D01*
X183938158Y-98995671D01*
X183948166Y-99041750D01*
X183956803Y-99086147D01*
X183963573Y-99125869D01*
X183968705Y-99162979D01*
X183972428Y-99199540D01*
X183974971Y-99237614D01*
X183976561Y-99279265D01*
X183977084Y-99302806D01*
X183977507Y-99349574D01*
X183976897Y-99391031D01*
D12*
X199000000Y-102000820D03*
X199000000Y-96499180D03*
D13*
X211500000Y-104138740D03*
X211500000Y-96361260D03*
D14*
X207555000Y-103750000D03*
X205445000Y-103750000D03*
D15*
X181525000Y-117199300D03*
X181525000Y-115700700D03*
D16*
X206710000Y-77710000D03*
X206710000Y-82790000D03*
X211790000Y-82790000D03*
X211790000Y-77710000D03*
D17*
X209250000Y-80250000D03*
D18*
X207500000Y-86600000D03*
X207500000Y-92900000D03*
D19*
X183350000Y-115850000D03*
X185550000Y-115850000D03*
D20*
X181850000Y-64250000D03*
X184390000Y-64250000D03*
X186930000Y-64250000D03*
X202170000Y-92250000D03*
X199630000Y-92250000D03*
X197090000Y-92250000D03*
X194550000Y-92250000D03*
X192010000Y-92250000D03*
X189470000Y-92250000D03*
X186930000Y-92250000D03*
X184390000Y-92250000D03*
X181850000Y-92250000D03*
D21*
X190000000Y-109990000D03*
X190000000Y-111990000D03*
X190000000Y-113990000D03*
X190000000Y-115990000D03*
X190000000Y-117990000D03*
X190000000Y-119990000D03*
D22*
X205750000Y-107000000D03*
D23*
X203750000Y-107000000D03*
X201750000Y-107000000D03*
X199750000Y-107000000D03*
X197750000Y-107000000D03*
X195750000Y-107000000D03*
X193750000Y-107000000D03*
X191750000Y-107000000D03*
X191750000Y-123000000D03*
X193750000Y-123000000D03*
X195750000Y-123000000D03*
X197750000Y-123000000D03*
X199750000Y-123000000D03*
X201750000Y-123000000D03*
X203750000Y-123000000D03*
X205750000Y-123000000D03*
D24*
X207905000Y-96050000D03*
X206635000Y-96050000D03*
X205365000Y-96050000D03*
X204095000Y-96050000D03*
X204095000Y-101450000D03*
X205365000Y-101450000D03*
X206635000Y-101450000D03*
X207905000Y-101450000D03*
D25*
X193500000Y-127250000D03*
D26*
X196040000Y-127250000D03*
X198580000Y-127250000D03*
X201120000Y-127250000D03*
X203660000Y-127250000D03*
X206200000Y-127250000D03*
D27*
X186100000Y-127675000D03*
X181600000Y-127675000D03*
X181600000Y-119725000D03*
X186100000Y-119725000D03*
D28*
X212700000Y-88700000D03*
D29*
X211600000Y-64200000D03*
D30*
X209060000Y-64200000D03*
M02*
