M48
INCH,TZ
T1C0.016
T2C0.040
T3C0.061
T4C0.065
T5C0.098
%
G90
G05
T1
X71890Y-37667
X72589Y-46132
X73150Y-46220
X73346Y-48957
X73661Y-29370
X73661Y-43012
X73664Y-42609
X73839Y-50020
X73947Y-46220
X74114Y-47795
X75118Y-40384
X75148Y-50177
X75236Y-38110
X75256Y-47717
X75886Y-48967
X76250Y-47636
X76280Y-39144
X76378Y-31299
X76506Y-41358
X76604Y-37224
X76673Y-46220
X76673Y-46663
X77071Y-47579
X77087Y-45640
X77402Y-45295
X77461Y-47854
X77667Y-46220
X77726Y-44990
X77874Y-41378
X78169Y-44331
X78514Y-45079
X78602Y-43474
X78671Y-42864
X79301Y-42864
X79646Y-43602
X79675Y-44508
X79823Y-42805
X80541Y-42776
X80571Y-44774
X80571Y-46526
X80630Y-27047
X80709Y-41457
X81004Y-46545
X81437Y-38465
X82323Y-39547
X83278Y-39055
T2
X76181Y-50098
X77181Y-50098
X78181Y-50098
X79181Y-50098
X80181Y-50098
X81181Y-50098
X82307Y-25276
X83307Y-25276
X83740Y-34921
T3
X82382Y-31594
T4
X81382Y-30594
X81382Y-32594
X83382Y-30594
X83382Y-32594
T5
X72047Y-44193
X83268Y-28445
T0
M30
